ply
format ascii 1.0
comment Created by Open3D
element vertex 736
property double x
property double y
property double z
property uchar red
property uchar green
property uchar blue
end_header
0.807001 -0.79042 -1.72299 136 105 82
0.811477 -0.785901 -1.72037 115 85 59
0.8004 -0.786095 -1.73103 85 57 35
0.797289 -0.795026 -1.72573 156 127 110
0.831519 -0.781304 -1.69803 133 94 68
0.827085 -0.779626 -1.70294 113 81 51
0.822661 -0.7779 -1.70785 103 74 45
0.801146 -0.781135 -1.72731 86 60 37
0.839053 -0.780476 -1.68654 155 122 101
0.858476 -0.771575 -1.67139 134 94 64
0.849547 -0.771379 -1.67999 114 77 49
0.845852 -0.769549 -1.68421 97 64 39
0.825751 -0.772447 -1.70229 89 59 33
0.867653 -0.770193 -1.65885 158 119 94
0.88265 -0.762831 -1.64745 133 92 63
0.869195 -0.76409 -1.65971 109 73 44
0.858746 -0.764336 -1.66951 93 61 33
0.838573 -0.767279 -1.68748 86 53 30
0.766441 -0.80299 -1.73711 171 157 141
0.866413 -0.769167 -1.65611 160 121 91
0.881461 -0.76183 -1.64477 142 104 71
0.870214 -0.762408 -1.65512 126 87 57
0.859729 -0.762654 -1.66487 107 73 46
0.845498 -0.763867 -1.67777 96 61 36
0.834284 -0.764093 -1.68822 86 56 29
0.75582 -0.804605 -1.74138 161 145 130
0.873483 -0.765629 -1.6466 162 122 90
0.893862 -0.756784 -1.63099 151 110 78
0.882576 -0.757416 -1.64126 136 98 68
0.878086 -0.75598 -1.64599 120 84 53
0.867629 -0.753387 -1.65673 96 66 40
0.890461 -0.759157 -1.62919 162 118 90
0.921505 -0.747302 -1.60501 152 109 78
0.918502 -0.745644 -1.60842 139 98 69
0.923075 -0.741792 -1.60566 127 88 60
0.92009 -0.740107 -1.60906 114 75 48
0.920139 -0.737555 -1.60999 103 67 40
0.896748 -0.741359 -1.63017 88 56 33
0.889353 -0.758164 -1.62655 165 122 93
0.934929 -0.742128 -1.59086 148 105 74
0.941787 -0.737694 -1.58627 137 96 66
0.944096 -0.734616 -1.58532 127 87 55
0.947172 -0.731347 -1.58375 116 78 48
0.943423 -0.729974 -1.58771 107 68 41
0.928299 -0.731623 -1.60096 93 54 31
0.919257 -0.731519 -1.60929 64 29 9
0.953058 -0.733296 -1.57405 135 92 59
0.955375 -0.730284 -1.5731 124 82 50
0.95846 -0.727082 -1.57151 119 76 45
0.95546 -0.725561 -1.57482 115 72 43
0.943329 -0.726443 -1.58553 97 56 31
0.936539 -0.725811 -1.59195 73 33 15
0.919862 -0.727651 -1.60642 52 20 4
0.891018 -0.732394 -1.63086 127 110 100
0.961344 -0.732118 -1.5635 146 101 68
0.965189 -0.728715 -1.56133 136 94 60
0.965984 -0.726198 -1.56157 131 86 53
0.96755 -0.723478 -1.56119 122 80 46
0.963774 -0.72221 -1.56509 120 77 44
0.954658 -0.722317 -1.57328 112 68 40
0.948608 -0.721539 -1.57904 85 48 24
0.942568 -0.7207 -1.58481 76 41 19
0.932718 -0.720754 -1.59369 61 25 6
0.925935 -0.71996 -1.60012 79 59 43
0.945936 -0.737781 -1.57169 157 120 96
0.965125 -0.729913 -1.55751 141 99 63
0.965915 -0.727404 -1.55776 138 93 60
0.965945 -0.725112 -1.55861 131 89 55
0.968283 -0.722193 -1.55763 126 81 48
0.966028 -0.720522 -1.56029 127 82 50
0.959948 -0.719831 -1.566 132 92 60
0.95541 -0.718684 -1.5705 110 67 39
0.949349 -0.717877 -1.57624 80 43 17
0.941764 -0.717388 -1.58322 80 45 20
0.940319 -0.715336 -1.5853 76 43 20
0.933521 -0.714542 -1.5917 54 34 18
0.928266 -0.713322 -1.59687 111 94 82
0.913066 -0.71432 -1.61011 114 100 86
0.948157 -0.73598 -1.56687 152 109 82
0.959715 -0.73034 -1.55876 145 100 65
0.960508 -0.727814 -1.55902 142 95 60
0.961308 -0.725292 -1.55927 131 89 55
0.964423 -0.722155 -1.5577 122 82 47
0.964469 -0.719859 -1.55854 118 78 46
0.961445 -0.71836 -1.5618 124 89 55
0.959969 -0.716437 -1.56385 133 95 62
0.957731 -0.71469 -1.5665 112 74 41
0.955501 -0.712919 -1.56916 80 45 20
0.955587 -0.710568 -1.56999 81 49 26
0.952606 -0.708941 -1.57326 79 48 24
0.949633 -0.707282 -1.57654 79 48 24
0.943598 -0.706286 -1.58228 78 47 23
0.935268 -0.705739 -1.5899 66 36 12
0.932326 -0.703944 -1.5932 65 37 15
0.930162 -0.701955 -1.59589 58 37 15
0.923402 -0.700894 -1.60231 43 26 5
0.907449 -0.701625 -1.61621 58 54 49
0.939595 -0.739676 -1.56951 161 131 109
0.956588 -0.73242 -1.55731 151 108 79
0.964323 -0.72793 -1.5522 146 99 67
0.96203 -0.726288 -1.55485 139 94 59
0.962833 -0.723783 -1.5551 130 88 54
0.965186 -0.72087 -1.55414 119 79 47
0.966776 -0.718181 -1.55377 113 75 42
0.964514 -0.716497 -1.55641 116 79 46
0.965346 -0.71401 -1.55662 127 89 56
0.962329 -0.712484 -1.55987 123 86 51
0.961634 -0.710365 -1.56129 89 55 27
0.960175 -0.708419 -1.56332 83 50 27
0.959496 -0.706277 -1.56474 80 50 26
0.9542 -0.705184 -1.56983 81 49 26
0.951226 -0.703519 -1.57309 77 49 24
0.94595 -0.702329 -1.5782 77 49 24
0.942224 -0.700755 -1.58209 77 49 24
0.94313 -0.698173 -1.58228 75 46 24
0.941733 -0.696071 -1.58432 68 46 24
0.939575 -0.694105 -1.58698 60 40 22
0.956563 -0.733611 -1.55346 154 124 102
0.962767 -0.729544 -1.54959 145 102 73
0.96743 -0.725967 -1.54688 145 100 67
0.96358 -0.724769 -1.5507 141 96 64
0.963611 -0.722488 -1.55155 135 90 58
0.963649 -0.720205 -1.55239 127 84 53
0.965244 -0.717517 -1.55202 117 77 45
0.962974 -0.715831 -1.55465 110 75 41
0.965358 -0.712957 -1.55367 118 79 49
0.964652 -0.710864 -1.55509 123 86 53
0.965502 -0.708389 -1.55529 106 70 37
0.964812 -0.706285 -1.5567 86 54 26
0.96645 -0.703634 -1.55628 81 51 27
0.963455 -0.702049 -1.55951 79 52 27
0.958922 -0.700775 -1.56396 79 52 27
0.957491 -0.698784 -1.56598 78 50 28
0.956069 -0.696775 -1.56799 77 49 24
0.955428 -0.69459 -1.56939 76 48 25
0.954022 -0.692553 -1.57141 73 47 24
0.953398 -0.690346 -1.5728 68 44 23
0.958185 -0.687086 -1.56986 52 33 19
0.959672 -0.731598 -1.54814 147 117 93
0.960457 -0.729094 -1.54842 142 99 70
0.963581 -0.725949 -1.54691 141 96 64
0.959719 -0.724735 -1.55072 139 97 66
0.960527 -0.722235 -1.55098 136 94 60
0.959789 -0.720149 -1.55242 130 87 56
0.962166 -0.717252 -1.55146 120 80 48
0.960666 -0.715359 -1.55349 113 75 42
0.96228 -0.712677 -1.55312 116 78 48
0.963125 -0.710197 -1.55333 119 81 48
0.966307 -0.707167 -1.55173 116 81 45
0.96639 -0.704892 -1.55253 96 62 30
0.968809 -0.702081 -1.55151 81 51 25
0.968907 -0.699813 -1.55229 81 53 28
0.966685 -0.698055 -1.5549 81 53 28
0.958268 -0.697606 -1.56237 81 53 28
0.959166 -0.695118 -1.56255 78 50 26
0.957747 -0.693114 -1.56455 77 49 24
0.954786 -0.691404 -1.56777 75 46 24
0.951834 -0.689662 -1.571 73 47 26
0.957411 -0.686261 -1.56747 71 45 24
0.942864 -0.686662 -1.57994 52 33 12
0.947228 -0.736358 -1.55368 156 141 132
0.96048 -0.73026 -1.54461 143 106 80
0.961268 -0.727768 -1.54489 137 96 66
0.96596 -0.724211 -1.54221 138 97 66
0.963645 -0.722589 -1.54482 138 97 66
0.964455 -0.720116 -1.54507 137 95 61
0.963714 -0.718055 -1.54649 132 92 58
0.966098 -0.715188 -1.54554 121 83 50
0.963814 -0.713513 -1.54815 115 77 47
0.964654 -0.711048 -1.54837 114 76 44
0.967059 -0.708212 -1.54738 115 77 47
0.971028 -0.705028 -1.54519 118 80 47
0.971111 -0.702782 -1.54598 112 74 41
0.973536 -0.700004 -1.54495 92 55 29
0.974411 -0.697593 -1.54512 80 50 24
0.970624 -0.696205 -1.54892 81 51 23
0.965291 -0.695108 -1.55393 82 53 24
0.960745 -0.693796 -1.55834 79 52 23
0.960875 -0.691488 -1.55912 78 50 26
0.955572 -0.690259 -1.56415 76 48 25
0.947947 -0.689429 -1.57104 72 46 25
0.948881 -0.686906 -1.5712 73 47 24
0.942056 -0.68582 -1.57749 70 49 26
0.925928 -0.686339 -1.59118 47 29 12
0.958963 -0.731859 -1.54197 150 124 103
0.96522 -0.727825 -1.53818 140 101 73
0.9621 -0.726446 -1.54137 139 99 67
0.968371 -0.722481 -1.53753 139 99 67
0.966831 -0.720665 -1.53954 140 100 68
0.967643 -0.718216 -1.53978 138 96 62
0.969245 -0.71557 -1.53943 132 92 60
0.973199 -0.712344 -1.53729 126 86 52
0.968562 -0.71129 -1.54165 118 80 47
0.971748 -0.708283 -1.54008 111 76 42
0.973378 -0.705679 -1.53968 110 74 43
0.973453 -0.703454 -1.54047 111 78 44
0.97041 -0.701944 -1.54365 114 78 45
0.972062 -0.699349 -1.54323 102 68 38
0.971378 -0.697284 -1.54461 85 53 25
0.969141 -0.695545 -1.54718 79 52 23
0.964571 -0.694277 -1.55157 79 52 23
0.963132 -0.692318 -1.55355 78 51 24
0.960141 -0.690657 -1.55674 78 50 26
0.95404 -0.689578 -1.56237 78 50 26
0.947171 -0.688587 -1.56861 75 46 24
0.946549 -0.686361 -1.57 74 48 25
0.939703 -0.685262 -1.57627 73 50 23
0.932869 -0.684094 -1.58255 71 50 27
0.926827 -0.682723 -1.58823 59 46 28
0.923132 -0.680898 -1.59209 42 30 21
0.958246 -0.733227 -1.53875 155 128 110
0.960592 -0.730292 -1.53788 151 112 87
0.964515 -0.726938 -1.53584 143 102 70
0.962955 -0.725128 -1.53786 140 102 67
0.97003 -0.720971 -1.53346 140 100 66
0.971622 -0.718336 -1.53312 141 101 67
0.974005 -0.715508 -1.53218 139 97 66
0.976395 -0.712701 -1.53123 133 93 61
0.978008 -0.710112 -1.53086 127 89 56
0.972572 -0.709275 -1.53578 120 82 49
0.972632 -0.707057 -1.53658 115 78 43
0.973484 -0.704651 -1.53678 110 74 43
0.972774 -0.702616 -1.53816 110 74 43
0.971289 -0.700749 -1.54013 113 77 46
0.971379 -0.698517 -1.54091 109 75 43
0.969126 -0.696796 -1.54348 94 59 32
0.966882 -0.695051 -1.54605 83 50 25
0.962298 -0.693772 -1.55042 78 50 26
0.961637 -0.691648 -1.55179 78 50 26
0.960202 -0.689671 -1.55377 77 50 22
0.954863 -0.688438 -1.55876 77 49 24
0.949536 -0.687152 -1.56377 75 50 24
0.948129 -0.685088 -1.56575 73 49 25
0.943604 -0.683572 -1.57016 72 52 24
0.936747 -0.682421 -1.57641 72 51 26
0.929122 -0.681334 -1.58329 72 51 29
0.925413 -0.679522 -1.58713 68 48 32
0.972497 -0.730231 -1.52463 161 137 118
0.968549 -0.729167 -1.52835 157 120 96
0.966183 -0.727621 -1.53093 150 109 79
0.966971 -0.725179 -1.5312 146 106 74
0.967766 -0.722742 -1.53147 144 104 69
0.972503 -0.719257 -1.52882 143 103 68
0.974886 -0.716435 -1.5279 141 101 67
0.97885 -0.713227 -1.5258 140 100 66
0.98282 -0.710054 -1.52368 134 94 60
0.982865 -0.707895 -1.52447 126 88 55
0.980557 -0.706312 -1.52701 122 84 52
0.978257 -0.704704 -1.52956 116 79 46
0.979896 -0.702148 -1.52916 110 74 43
0.980755 -0.699787 -1.52934 107 74 40
0.976906 -0.698495 -1.53307 110 74 43
0.975423 -0.696643 -1.53503 112 79 47
0.973162 -0.694945 -1.53758 100 63 37
0.970124 -0.693389 -1.54073 88 53 28
0.961598 -0.692938 -1.54806 78 47 23
0.96329 -0.690341 -1.54763 77 49 24
0.961849 -0.688376 -1.5496 79 48 24
0.959632 -0.686547 -1.55216 77 50 22
0.95507 -0.685136 -1.55654 78 50 26
0.95444 -0.68296 -1.5579 78 50 28
0.953819 -0.680775 -1.55926 75 52 28
0.950854 -0.678989 -1.56244 72 52 24
0.947899 -0.677173 -1.56561 75 53 31
0.948087 -0.67481 -1.56636 72 53 30
0.977368 -0.727748 -1.51834 160 131 111
0.972619 -0.726933 -1.52261 157 116 86
0.970246 -0.72541 -1.52517 152 109 78
0.971825 -0.722778 -1.52486 151 110 78
0.972623 -0.720371 -1.52512 148 108 74
0.977374 -0.716922 -1.52248 143 106 71
0.978187 -0.714545 -1.52271 143 103 68
0.981373 -0.711567 -1.5212 140 100 66
0.985356 -0.708418 -1.51909 137 97 62
0.986189 -0.706084 -1.51929 130 89 57
0.985451 -0.704137 -1.52065 120 82 49
0.983932 -0.702368 -1.52259 114 76 46
0.984786 -0.700032 -1.52277 109 73 42
0.982493 -0.698421 -1.5253 105 72 40
0.97469 -0.69802 -1.53195 109 73 42
0.972414 -0.696335 -1.5345 107 74 42
0.970146 -0.694626 -1.53704 105 72 40
0.966312 -0.693223 -1.54077 95 61 31
0.960911 -0.692103 -1.5457 83 50 25
0.963395 -0.689355 -1.54468 79 48 24
0.959587 -0.687857 -1.54843 77 49 24
0.960511 -0.685421 -1.5486 77 50 22
0.954361 -0.684307 -1.55415 78 50 28
0.957662 -0.681421 -1.5525 78 50 28
0.957823 -0.679119 -1.55325 77 51 28
0.959563 -0.676545 -1.55279 75 52 28
0.954238 -0.675167 -1.55775 75 51 30
0.957565 -0.672332 -1.55607 76 54 32
0.95226 -0.670887 -1.56104 72 52 34
0.951677 -0.668668 -1.56238 52 39 23
0.994179 -0.723952 -1.50278 163 136 120
0.980702 -0.725735 -1.51323 165 130 105
0.975147 -0.725159 -1.51804 159 117 83
0.97435 -0.723211 -1.51945 156 113 80
0.975935 -0.720607 -1.51913 153 111 80
0.976735 -0.718228 -1.51938 151 110 78
0.980709 -0.71502 -1.51733 147 107 73
0.981523 -0.712666 -1.51756 143 106 71
0.983928 -0.709916 -1.51662 141 101 69
0.986339 -0.707186 -1.51567 135 98 62
0.986384 -0.705058 -1.51645 129 91 59
0.986435 -0.702927 -1.51723 121 83 50
0.984119 -0.701354 -1.51974 115 77 45
0.984185 -0.699209 -1.52051 108 72 41
0.982676 -0.69742 -1.52244 104 70 39
0.974848 -0.697015 -1.52907 104 70 39
0.971775 -0.695505 -1.53218 107 71 40
0.967919 -0.694132 -1.5359 107 71 40
0.966443 -0.692228 -1.53785 97 61 34
0.963396 -0.690628 -1.54098 88 53 28
0.972206 -0.686651 -1.53522 77 49 24
0.968384 -0.685196 -1.53894 77 49 24
0.972466 -0.682214 -1.5367 77 49 24
0.964714 -0.681445 -1.54341 76 48 25
0.965654 -0.679045 -1.54355 78 50 28
0.962657 -0.677338 -1.54668 77 49 26
0.9644 -0.674797 -1.54621 74 50 26
0.961421 -0.673051 -1.54934 75 52 28
0.960027 -0.67102 -1.55127 75 54 29
0.953129 -0.669832 -1.55743 75 53 31
0.95333 -0.667504 -1.55816 73 54 31
0.959047 -0.66437 -1.55463 61 43 28
0.988061 -0.7247 -1.50451 165 134 115
0.975337 -0.726216 -1.51436 161 125 98
0.972148 -0.724947 -1.51746 160 118 85
0.974525 -0.722118 -1.51659 158 116 82
0.974526 -0.719953 -1.51742 155 112 81
0.976917 -0.717153 -1.51654 152 109 78
0.980903 -0.713958 -1.51449 150 110 75
0.984102 -0.711002 -1.513 144 106 74
0.98572 -0.708474 -1.51264 140 102 69
0.987345 -0.705958 -1.51227 136 99 64
0.98342 -0.704804 -1.51593 130 92 60
0.983471 -0.702666 -1.51671 122 84 52
0.979562 -0.701452 -1.52038 114 78 45
0.980422 -0.699111 -1.52057 109 74 40
0.978115 -0.697486 -1.52308 104 68 37
0.975817 -0.695838 -1.5256 102 68 36
0.97194 -0.694505 -1.52929 101 70 35
0.972037 -0.692302 -1.53005 103 69 37
0.969763 -0.690585 -1.53257 98 65 33
0.967497 -0.688844 -1.5351 87 52 27
0.973164 -0.685526 -1.53172 80 48 22
0.967745 -0.684381 -1.53661 78 47 23
0.974215 -0.680964 -1.53261 76 48 21
0.966438 -0.6802 -1.53928 76 48 23
0.965006 -0.678236 -1.5412 77 49 24
0.964372 -0.67612 -1.54253 77 52 24
0.961375 -0.674393 -1.54565 77 52 24
0.957596 -0.672764 -1.54937 75 52 28
0.956989 -0.670594 -1.5507 75 52 26
0.95639 -0.668416 -1.55203 75 53 31
0.95422 -0.666465 -1.55455 75 53 31
0.959164 -0.663464 -1.55165 70 50 29
0.981922 -0.725432 -1.5062 164 131 110
0.972346 -0.72601 -1.51377 162 121 94
0.969943 -0.724508 -1.5163 162 117 85
0.975513 -0.720809 -1.51319 160 114 84
0.974718 -0.718869 -1.51457 156 111 79
0.977913 -0.71587 -1.51313 155 112 81
0.980318 -0.713104 -1.51223 148 108 74
0.98273 -0.710359 -1.51132 146 106 72
0.979575 -0.709026 -1.5144 141 103 68
0.982798 -0.706101 -1.5129 137 96 66
0.98125 -0.704351 -1.51483 132 94 61
0.981302 -0.70221 -1.5156 123 88 52
0.978973 -0.700619 -1.51811 118 79 49
0.981427 -0.697922 -1.51714 110 74 43
0.9815 -0.695776 -1.51791 107 71 40
0.976807 -0.694665 -1.52215 102 68 36
0.976896 -0.692493 -1.52291 100 67 35
0.975401 -0.69065 -1.52483 98 64 35
0.974709 -0.688629 -1.52616 95 60 33
0.97323 -0.686757 -1.52808 90 55 31
0.976527 -0.683943 -1.52648 81 50 22
0.970296 -0.682963 -1.53192 79 48 24
0.972813 -0.680308 -1.53089 76 48 21
0.965013 -0.679532 -1.53753 76 48 21
0.965163 -0.677288 -1.53827 77 52 24
0.96294 -0.675449 -1.54078 75 50 22
0.9639 -0.67306 -1.54092 76 48 21
0.962487 -0.67106 -1.54283 76 48 21
0.964253 -0.668547 -1.54236 75 52 26
0.956518 -0.667494 -1.54905 76 54 32
0.959885 -0.66473 -1.54737 77 54 32
0.960881 -0.662334 -1.54748 76 52 33
0.959511 -0.660272 -1.54938 73 53 35
0.974963 -0.726375 -1.50841 162 127 107
0.967754 -0.726243 -1.51428 160 119 92
0.966942 -0.724284 -1.51568 161 116 83
0.973327 -0.72037 -1.51203 159 114 81
0.97253 -0.718425 -1.51342 155 110 78
0.974936 -0.715635 -1.51255 152 109 78
0.979745 -0.712251 -1.50997 148 108 74
0.982164 -0.709513 -1.50907 145 105 71
0.982195 -0.707388 -1.50986 141 101 67
0.985427 -0.704486 -1.50836 138 97 68
0.983075 -0.702943 -1.51085 133 95 60
0.982328 -0.701003 -1.5122 125 90 56
0.980791 -0.699237 -1.51411 121 86 50
0.980857 -0.697097 -1.51488 116 80 47
0.980132 -0.695129 -1.51622 111 75 44
0.977819 -0.693497 -1.51871 109 74 40
0.977109 -0.691504 -1.52004 102 68 36
0.97561 -0.689666 -1.52196 97 63 34
0.97651 -0.687331 -1.52212 95 61 31
0.974229 -0.685628 -1.52462 90 55 31
0.977535 -0.68283 -1.52302 83 51 23
0.975269 -0.681106 -1.52551 77 50 22
0.974605 -0.679067 -1.52682 76 48 21
0.96678 -0.678295 -1.53343 76 48 21
0.96693 -0.676067 -1.53416 77 50 22
0.963108 -0.674508 -1.53784 77 50 22
0.962478 -0.672388 -1.53916 77 50 22
0.960265 -0.670513 -1.54166 77 49 24
0.956472 -0.668861 -1.54535 76 48 25
0.95269 -0.66717 -1.54905 73 53 26
0.956861 -0.664284 -1.54679 75 53 31
0.957067 -0.661993 -1.5475 73 54 31
0.9549 -0.660026 -1.55 74 55 32
0.959882 -0.657096 -1.5471 74 56 37
0.981623 -0.725562 -1.50033 158 136 121
0.975989 -0.72504 -1.50504 161 124 100
0.968759 -0.724909 -1.51087 158 116 82
0.970348 -0.722303 -1.5106 156 114 78
0.975951 -0.718635 -1.50752 156 111 81
0.972749 -0.717342 -1.51058 148 108 74
0.972758 -0.715186 -1.5114 147 107 73
0.97678 -0.712009 -1.5094 146 106 72
0.980008 -0.709066 -1.50794 145 105 71
0.981641 -0.706545 -1.5076 143 103 68
0.984882 -0.703651 -1.50612 139 99 67
0.984126 -0.701731 -1.50746 133 94 64
0.984177 -0.699616 -1.50823 129 91 59
0.983435 -0.697681 -1.50957 121 85 52
0.981099 -0.696093 -1.51204 118 83 49
0.982773 -0.693609 -1.51165 116 80 47
0.982853 -0.69148 -1.51241 113 77 46
0.98054 -0.68985 -1.51488 105 72 40
0.979835 -0.687869 -1.5162 99 62 34
0.981537 -0.685402 -1.51579 91 57 28
0.977648 -0.684037 -1.51942 86 54 26
0.979364 -0.68157 -1.51899 84 52 24
0.978688 -0.679562 -1.5203 79 49 22
0.976423 -0.677833 -1.52277 77 50 22
0.970172 -0.676784 -1.52817 76 48 21
0.967126 -0.675125 -1.53124 76 48 21
0.964888 -0.673302 -1.53373 75 50 22
0.965851 -0.670938 -1.53387 77 50 22
0.964428 -0.668957 -1.53576 76 48 25
0.959824 -0.667447 -1.54002 76 48 25
0.961607 -0.664945 -1.53955 74 48 25
0.961803 -0.662687 -1.54026 75 52 26
0.9636 -0.660205 -1.53977 73 52 30
0.95983 -0.658486 -1.54344 73 54 31
0.968006 -0.655181 -1.53817 73 53 35
0.976182 -0.65195 -1.53286 71 57 41
0.983523 -0.726087 -1.49561 152 123 101
0.975455 -0.726285 -1.50194 161 132 114
0.974625 -0.724383 -1.50332 153 114 86
0.966571 -0.724463 -1.50969 156 113 80
0.97138 -0.720986 -1.5072 155 112 79
0.975392 -0.717765 -1.50526 152 109 78
0.97218 -0.716471 -1.5083 150 110 75
0.972993 -0.714113 -1.50856 147 107 73
0.977027 -0.710948 -1.50657 146 106 72
0.977051 -0.708815 -1.50737 144 103 71
0.981098 -0.705702 -1.50535 143 103 68
0.984349 -0.702816 -1.50388 140 100 66
0.984394 -0.700711 -1.50465 137 97 60
0.983642 -0.698788 -1.50598 130 92 60
0.985307 -0.696314 -1.50561 125 87 54
0.982964 -0.694737 -1.50807 121 83 50
0.98384 -0.692444 -1.50826 120 82 51
0.986328 -0.689818 -1.50729 114 78 45
0.984809 -0.688041 -1.50917 109 73 44
0.983298 -0.686248 -1.51106 99 62 34
0.9834 -0.684122 -1.51179 89 55 27
0.977092 -0.68323 -1.51714 88 53 26
0.97721 -0.681071 -1.51787 85 53 25
0.974929 -0.679352 -1.52034 80 50 22
0.971055 -0.677895 -1.52397 78 48 21
0.966389 -0.676539 -1.52819 75 47 22
0.966538 -0.674322 -1.52892 76 46 20
0.965094 -0.672368 -1.53081 76 48 21
0.96926 -0.669499 -1.5286 76 48 21
0.969431 -0.667289 -1.52931 75 46 24
0.96721 -0.66544 -1.53178 75 46 24
0.966596 -0.663334 -1.53307 74 48 25
0.967589 -0.660992 -1.53318 75 50 26
0.965394 -0.659094 -1.53565 75 52 28
0.963208 -0.657173 -1.53811 73 52 30
0.96981 -0.654106 -1.53405 72 52 32
0.976413 -0.651098 -1.52996 71 54 37
1.00318 -0.72142 -1.47895 148 108 78
0.96769 -0.729601 -1.50374 141 104 77
0.967656 -0.727447 -1.5046 136 98 70
0.973269 -0.723724 -1.50161 153 111 80
0.970833 -0.722252 -1.50409 155 112 81
0.974044 -0.719241 -1.50272 151 110 78
0.977262 -0.716256 -1.50133 152 110 76
0.976459 -0.714345 -1.5027 151 109 75
0.974856 -0.71263 -1.50462 151 109 75
0.977291 -0.70989 -1.50375 147 107 73
0.977314 -0.707764 -1.50455 145 104 73
0.979762 -0.705053 -1.50366 141 103 68
0.983023 -0.702172 -1.5022 140 100 66
0.985484 -0.699506 -1.50129 137 97 60
0.985536 -0.69741 -1.50205 129 91 59
0.98801 -0.694774 -1.50111 124 89 53
0.98566 -0.693213 -1.50356 122 84 52
0.988953 -0.690423 -1.50204 120 84 53
0.987422 -0.688672 -1.50391 116 80 49
0.985899 -0.686904 -1.50579 107 70 42
0.982774 -0.685442 -1.50881 96 62 30
0.983679 -0.683163 -1.50897 84 50 23
0.976549 -0.682423 -1.51486 83 51 23
0.97747 -0.680118 -1.51501 85 53 25
0.977595 -0.677966 -1.51574 84 52 24
0.975315 -0.676238 -1.51819 78 48 21
0.972241 -0.674625 -1.52123 75 47 20
0.974797 -0.672037 -1.52021 75 47 20
0.974951 -0.669864 -1.52092 75 47 20
0.975915 -0.667562 -1.52104 75 47 20
0.97849 -0.665019 -1.51999 75 46 24
0.97305 -0.663695 -1.52477 73 48 22
0.967622 -0.662317 -1.52957 73 48 22
0.967815 -0.6601 -1.53026 72 48 24
0.967214 -0.65799 -1.53154 72 48 24
0.966622 -0.655872 -1.53281 71 50 27
0.974041 -0.652736 -1.52818 72 50 31
0.98066 -0.649763 -1.5241 72 52 36
0.99469 -0.724924 -1.4814 153 112 85
0.981717 -0.726642 -1.49087 156 113 82
0.977637 -0.725711 -1.49441 154 114 82
0.97518 -0.724287 -1.49687 155 115 83
0.982426 -0.720168 -1.4928 160 118 85
0.979983 -0.71874 -1.49526 158 116 82
0.979971 -0.716643 -1.49607 157 114 83
0.979967 -0.714543 -1.49688 156 113 80
0.979969 -0.712441 -1.49768 155 112 79
0.975938 -0.711359 -1.50125 152 112 78
0.979187 -0.708433 -1.49983 150 110 75
0.979211 -0.706322 -1.50062 145 105 71
0.983282 -0.703243 -1.49863 144 104 69
0.985743 -0.700579 -1.49773 141 101 67
0.989019 -0.697749 -1.49626 137 97 62
0.991494 -0.695129 -1.49533 132 92 58
0.993975 -0.69253 -1.49439 123 86 53
0.991616 -0.690999 -1.49682 121 83 53
0.993303 -0.688589 -1.49642 122 84 54
0.992574 -0.686695 -1.49772 121 83 53
0.988623 -0.685445 -1.50128 111 72 46
0.985488 -0.683997 -1.50428 99 62 36
0.983169 -0.682362 -1.50671 84 49 25
0.982471 -0.680398 -1.50801 79 47 19
0.983393 -0.678128 -1.50816 81 49 24
0.982709 -0.676154 -1.50945 87 55 27
0.979615 -0.674594 -1.51246 81 51 25
0.98217 -0.672042 -1.51144 78 48 21
0.982314 -0.669911 -1.51214 76 46 20
0.982465 -0.667779 -1.51284 75 47 22
0.983428 -0.66552 -1.51295 75 47 22
0.985203 -0.663144 -1.51247 72 47 21
0.977331 -0.662206 -1.51897 72 47 21
0.970277 -0.661076 -1.52491 73 48 22
0.965646 -0.659544 -1.5291 72 48 24
0.969864 -0.656786 -1.52687 70 47 23
0.965253 -0.655203 -1.53107 69 47 25
0.973496 -0.651978 -1.52587 70 48 30
0.979331 -0.649114 -1.52241 69 51 37
0.972404 -0.732548 -1.49285 156 122 97
0.962626 -0.733268 -1.50014 153 111 80
0.965818 -0.730178 -1.49886 160 114 84
0.968208 -0.727343 -1.4981 161 116 83
0.971416 -0.724304 -1.49678 163 118 86
0.977873 -0.720405 -1.49328 164 120 87
0.981096 -0.717434 -1.49193 166 121 88
0.982706 -0.71492 -1.49165 162 117 85
0.983512 -0.712628 -1.49191 157 117 82
0.985135 -0.710135 -1.49161 157 117 82
0.981092 -0.709077 -1.49514 157 115 81
0.98192 -0.706783 -1.49538 154 114 80
0.982754 -0.704495 -1.49561 151 111 76
0.982784 -0.702405 -1.49639 146 106 72
0.982822 -0.700312 -1.49717 144 104 69
0.986918 -0.697295 -1.49515 138 98 64
0.988589 -0.694856 -1.49479 132 92 60
0.991888 -0.692076 -1.49331 123 86 53
0.992762 -0.689844 -1.49348 120 82 51
0.996073 -0.687109 -1.49197 116 80 49
0.995341 -0.685232 -1.49325 115 77 49
0.989759 -0.68432 -1.49792 113 74 46
0.986615 -0.682879 -1.50091 100 63 35
0.983479 -0.681406 -1.5039 85 51 26
0.979543 -0.680054 -1.50746 78 45 22
0.980468 -0.677778 -1.50762 78 46 20
0.982208 -0.675364 -1.50719 80 48 20
0.979913 -0.673664 -1.50962 81 51 23
0.980858 -0.671395 -1.50975 78 48 21
0.983426 -0.668867 -1.50873 74 46 19
0.983577 -0.666746 -1.50942 74 45 23
0.981313 -0.665 -1.51184 74 45 23
0.983899 -0.662502 -1.5108 72 47 21
0.976812 -0.661435 -1.51669 72 47 21
0.971349 -0.660072 -1.52143 70 47 23
0.96751 -0.658435 -1.52503 70 47 23
0.972544 -0.655591 -1.52222 69 46 22
0.967918 -0.65402 -1.52639 69 47 25
0.972962 -0.65122 -1.52356 69 47 29
0.973987 -0.648938 -1.52364 65 49 34
0.97676 -0.730212 -1.4874 154 113 88
0.971019 -0.729769 -1.49198 159 113 83
0.973409 -0.726959 -1.49123 161 116 85
0.974993 -0.724396 -1.491 163 118 86
0.974148 -0.722518 -1.49237 166 119 87
0.978998 -0.719088 -1.48996 169 119 86
0.97898 -0.717 -1.49078 168 121 87
0.978968 -0.71491 -1.49159 168 121 89
0.981402 -0.71219 -1.49077 166 121 88
0.983843 -0.70949 -1.48993 162 119 88
0.981414 -0.708022 -1.49236 159 117 83
0.984682 -0.705143 -1.49096 158 116 82
0.987144 -0.702485 -1.49009 153 113 79
0.986362 -0.700612 -1.4914 151 108 77
0.987212 -0.698355 -1.49162 146 106 72
0.991319 -0.695369 -1.48961 143 103 68
0.992995 -0.692959 -1.48925 137 97 62
0.994677 -0.690561 -1.48888 134 94 62
0.997178 -0.688005 -1.48794 127 89 56
0.998873 -0.685638 -1.48754 123 82 53
0.99895 -0.683614 -1.48826 114 76 46
0.995787 -0.682233 -1.49121 109 73 42
0.994255 -0.680506 -1.49305 100 63 35
0.989486 -0.679377 -1.49714 87 50 26
0.984725 -0.678203 -1.50124 78 45 22
0.984029 -0.67625 -1.50252 76 46 20
0.985773 -0.673862 -1.5021 76 46 20
0.987522 -0.671487 -1.50166 79 46 23
0.989278 -0.669125 -1.50122 78 48 21
0.99347 -0.666383 -1.49905 72 44 22
0.991998 -0.664571 -1.50087 72 45 20
0.988915 -0.66299 -1.50384 72 47 21
0.988268 -0.661017 -1.50509 72 46 23
0.981967 -0.65985 -1.51037 70 47 23
0.970826 -0.659297 -1.51913 70 47 23
0.967784 -0.657549 -1.52213 70 47 23
0.969599 -0.655141 -1.52165 70 49 24
0.964153 -0.653657 -1.5264 68 46 24
0.970019 -0.650755 -1.523 68 46 26
0.969433 -0.648654 -1.52425 58 42 27
1.01054 -0.721266 -1.46216 156 119 95
0.97301 -0.730266 -1.48728 155 114 89
0.966437 -0.730038 -1.49237 159 116 85
0.970463 -0.726756 -1.49057 162 119 88
0.972053 -0.724188 -1.49035 163 118 86
0.972835 -0.721856 -1.49065 169 119 88
0.977699 -0.718433 -1.48826 171 122 88
0.980126 -0.715699 -1.48747 171 122 88
0.979299 -0.713832 -1.48881 172 125 91
0.982555 -0.710915 -1.48746 167 122 89
0.985818 -0.708025 -1.48608 164 122 88
0.982568 -0.706769 -1.48904 163 120 89
0.985845 -0.703906 -1.48764 160 118 85
0.990759 -0.700683 -1.48514 157 117 82
0.990789 -0.698641 -1.4859 153 113 79
0.991641 -0.696411 -1.48611 151 111 76
0.993315 -0.694004 -1.48576 150 108 74
0.997439 -0.691075 -1.48374 144 101 70
0.998311 -0.688881 -1.48392 141 98 67
1.00082 -0.686351 -1.48298 137 94 63
1.0017 -0.684176 -1.48314 135 92 63
1.00259 -0.682007 -1.48329 124 84 52
1.00023 -0.680484 -1.48567 122 81 51
0.998697 -0.678781 -1.48749 106 69 41
0.997168 -0.677062 -1.48931 90 54 27
0.994832 -0.675475 -1.4917 83 49 22
0.994944 -0.673429 -1.49239 79 47 21
0.998316 -0.670816 -1.49083 76 46 20
0.996002 -0.669195 -1.49321 76 46 20
0.99776 -0.666881 -1.49275 76 46 20
1.00115 -0.66432 -1.49115 75 47 20
0.998856 -0.662673 -1.49352 72 45 20
0.99495 -0.661248 -1.49704 71 45 20
0.99511 -0.659189 -1.4977 71 45 22
0.987977 -0.658166 -1.50352 70 47 23
0.979234 -0.657296 -1.5105 70 47 23
0.973747 -0.655913 -1.5152 70 47 23
0.973134 -0.653852 -1.51646 72 48 26
0.970909 -0.651983 -1.51886 70 46 27
0.972741 -0.649609 -1.51837 64 47 28
0.99382 -0.725216 -1.47054 155 126 107
0.963534 -0.731965 -1.49082 155 116 90
0.961027 -0.730527 -1.49327 160 118 87
0.96915 -0.726088 -1.48884 163 118 88
0.971562 -0.723297 -1.48809 167 120 90
0.973163 -0.720748 -1.48787 170 118 88
0.977224 -0.717558 -1.48603 172 123 90
0.980475 -0.714616 -1.4847 173 125 89
0.979647 -0.712756 -1.48605 172 123 90
0.982912 -0.709851 -1.4847 172 125 91
0.98455 -0.70738 -1.48441 168 123 90
0.98456 -0.705322 -1.48519 164 122 88
0.986211 -0.702869 -1.48489 162 119 86
0.992773 -0.699276 -1.48131 160 118 85
0.994438 -0.696872 -1.48098 157 116 84
0.996109 -0.694481 -1.48064 154 114 82
0.996153 -0.692465 -1.48138 151 108 77
1.00029 -0.689561 -1.47937 148 105 72
0.999528 -0.687734 -1.48064 143 100 69
1.00204 -0.685218 -1.47971 139 97 66
1.0013 -0.683389 -1.48097 134 94 62
1.00464 -0.680737 -1.47946 130 89 57
1.0039 -0.678908 -1.48072 126 86 54
1.00481 -0.67676 -1.48086 121 83 50
1.00409 -0.67492 -1.4821 107 70 42
1.00338 -0.673072 -1.48335 90 55 31
1.00023 -0.671647 -1.48627 80 48 22
1.00034 -0.66963 -1.48695 76 46 20
0.998838 -0.667884 -1.48875 75 47 20
0.996524 -0.666255 -1.49112 74 46 19
1.00074 -0.66357 -1.48897 72 45 20
0.999253 -0.661799 -1.49076 72 45 20
0.996148 -0.660254 -1.49369 71 45 20
0.993867 -0.65856 -1.49606 72 46 25
0.987527 -0.657412 -1.50128 70 47 23
0.977946 -0.656645 -1.5088 70 47 23
0.972444 -0.655254 -1.51348 70 49 24
0.966141 -0.653911 -1.51875 69 47 25
0.958227 -0.652706 -1.52518 68 46 24
0.960069 -0.650281 -1.52471 64 47 28
