ply
format ascii 1.0
comment Created by Open3D
element vertex 736
property double x
property double y
property double z
property uchar red
property uchar green
property uchar blue
end_header
0.891445 -0.409118 0.407151 136 105 82
0.887634 -0.405548 0.402674 115 85 59
0.900921 -0.413288 0.402698 85 57 35
0.896808 -0.417691 0.411712 156 127 110
0.860604 -0.392393 0.398435 133 94 68
0.866506 -0.395325 0.396679 113 81 51
0.872413 -0.398246 0.394875 103 74 45
0.897062 -0.413609 0.397798 86 60 37
0.847476 -0.388292 0.397791 155 122 101
0.827465 -0.373786 0.389134 134 94 64
0.838168 -0.380027 0.388801 114 77 49
0.843212 -0.382435 0.386903 97 64 39
0.866137 -0.396817 0.389511 89 59 33
0.812866 -0.368393 0.387952 158 119 94
0.797697 -0.357113 0.380773 133 92 63
0.813183 -0.366701 0.381836 109 73 44
0.825466 -0.374073 0.381926 93 61 33
0.848314 -0.388552 0.384581 86 53 30
0.916313 -0.444218 0.419493 171 157 141
0.81056 -0.370338 0.38697 160 121 91
0.795429 -0.358993 0.379815 142 104 71
0.808459 -0.366983 0.380228 126 87 57
0.82071 -0.374402 0.380318 107 73 46
0.837031 -0.384559 0.381325 96 61 36
0.850148 -0.392489 0.381383 86 56 29
0.923345 -0.453261 0.42104 161 145 130
0.799428 -0.366152 0.383584 162 122 90
0.7787 -0.350855 0.37499 151 110 78
0.791677 -0.358901 0.375458 136 98 68
0.797432 -0.361932 0.373947 120 84 53
0.810577 -0.369068 0.371182 96 66 40
0.777937 -0.354607 0.377392 162 118 90
0.746016 -0.331405 0.365925 152 109 78
0.750088 -0.333369 0.364213 139 98 69
0.746127 -0.329741 0.360405 127 88 60
0.75019 -0.33169 0.358666 114 75 48
0.751031 -0.331399 0.3561 103 67 40
0.776888 -0.34837 0.35958 88 56 33
0.775685 -0.356399 0.376441 165 122 93
0.728662 -0.322381 0.360977 148 105 74
0.722297 -0.31706 0.356618 137 96 66
0.720711 -0.31511 0.353555 127 87 55
0.718307 -0.312595 0.350312 116 78 48
0.723122 -0.315124 0.348876 107 68 41
0.74002 -0.326046 0.350313 93 54 31
0.750506 -0.332466 0.350076 64 29 9
0.707403 -0.309574 0.352416 135 92 59
0.705803 -0.307621 0.34942 124 82 50
0.703386 -0.3051 0.346243 119 76 45
0.707368 -0.307088 0.344669 115 72 43
0.720991 -0.315828 0.345381 97 56 31
0.729014 -0.320607 0.344645 73 33 15
0.747523 -0.332685 0.346253 52 20 4
0.778985 -0.353731 0.350606 127 110 100
0.694966 -0.304494 0.351406 146 101 68
0.691775 -0.301404 0.348038 136 94 60
0.691753 -0.300584 0.345519 131 86 53
0.690922 -0.299192 0.342805 122 80 46
0.69568 -0.301765 0.341475 120 77 44
0.70605 -0.308296 0.34145 112 68 40
0.713232 -0.312544 0.340581 85 48 24
0.720425 -0.31678 0.33965 76 41 19
0.731653 -0.323829 0.339561 61 25 6
0.739679 -0.3286 0.338665 79 59 43
0.707144 -0.317053 0.356938 157 120 96
0.688139 -0.302504 0.349298 141 99 63
0.688126 -0.301687 0.346785 138 93 60
0.688898 -0.301436 0.34448 131 89 55
0.687272 -0.299467 0.341577 126 81 48
0.69042 -0.300917 0.339863 127 82 50
0.697563 -0.305207 0.339081 132 92 60
0.703118 -0.308347 0.337862 110 67 39
0.710282 -0.312613 0.336964 80 43 17
0.719062 -0.318003 0.336364 80 45 20
0.721427 -0.318832 0.334278 76 43 20
0.729423 -0.323628 0.333382 54 34 18
0.73582 -0.327273 0.332079 111 94 82
0.75272 -0.338272 0.332866 114 100 86
0.701874 -0.316241 0.355214 152 109 82
0.690824 -0.307365 0.349705 145 100 65
0.690819 -0.306543 0.347174 142 95 60
0.690805 -0.305715 0.344649 131 89 55
0.688396 -0.30316 0.341537 122 82 47
0.689153 -0.302898 0.339228 118 78 46
0.693092 -0.304922 0.337677 124 89 55
0.695436 -0.305791 0.335722 133 95 62
0.698576 -0.307225 0.333933 112 74 41
0.701716 -0.30865 0.332119 80 45 20
0.70245 -0.308353 0.329756 81 49 26
0.706388 -0.310333 0.328077 79 48 24
0.710328 -0.312303 0.326366 79 48 24
0.71749 -0.316543 0.325278 78 47 23
0.727081 -0.322477 0.324609 66 36 12
0.731036 -0.324411 0.322761 65 37 15
0.734182 -0.325767 0.32073 58 37 15
0.742185 -0.330521 0.319566 43 26 5
0.759928 -0.342064 0.320074 58 54 49
0.706811 -0.323739 0.358868 161 131 109
0.690316 -0.310761 0.351807 151 108 79
0.683225 -0.304734 0.3474 146 99 67
0.686373 -0.306223 0.345716 139 94 59
0.686356 -0.305393 0.343207 130 88 54
0.684743 -0.303405 0.34031 119 79 47
0.68391 -0.30199 0.337626 113 75 42
0.687039 -0.303452 0.335901 116 79 46
0.686983 -0.302602 0.333411 127 89 56
0.690905 -0.304625 0.331833 123 86 51
0.692432 -0.304913 0.329691 89 55 27
0.694754 -0.305769 0.327714 83 50 27
0.696272 -0.306044 0.325549 80 50 26
0.702597 -0.309752 0.324375 81 49 26
0.706521 -0.311729 0.322658 77 49 24
0.712859 -0.315414 0.321387 77 49 24
0.717594 -0.317941 0.31975 77 49 24
0.717492 -0.317029 0.317166 75 46 24
0.719803 -0.317824 0.315031 68 46 24
0.72292 -0.319181 0.313023 60 40 22
0.686643 -0.31183 0.353059 154 124 102
0.681161 -0.306938 0.349055 145 102 73
0.677226 -0.303209 0.345522 145 100 67
0.681937 -0.305872 0.344263 141 96 64
0.682706 -0.305622 0.341969 135 90 58
0.683468 -0.305365 0.339673 127 84 53
0.682638 -0.303943 0.336991 117 77 45
0.685762 -0.305415 0.335263 110 75 41
0.68412 -0.303404 0.332405 118 79 49
0.685645 -0.303704 0.33029 123 86 53
0.685571 -0.302841 0.327812 106 70 37
0.687083 -0.303129 0.325685 86 54 26
0.686194 -0.301679 0.323042 81 51 27
0.690092 -0.303685 0.321405 79 52 27
0.695595 -0.306833 0.32006 79 52 27
0.697894 -0.307668 0.318037 78 50 28
0.700189 -0.308494 0.315997 77 49 24
0.701677 -0.308737 0.313789 76 48 25
0.703965 -0.309548 0.31172 73 47 24
0.705443 -0.309778 0.309491 68 44 23
0.701261 -0.30599 0.306279 52 33 19
0.680647 -0.310302 0.351132 147 117 93
0.680659 -0.309482 0.348623 142 99 70
0.678307 -0.306903 0.345504 141 96 64
0.683011 -0.30958 0.344228 139 97 66
0.682997 -0.308744 0.341725 136 94 60
0.68455 -0.309071 0.339616 130 87 56
0.682939 -0.307058 0.336735 120 80 48
0.685268 -0.307955 0.334809 113 75 42
0.684426 -0.306516 0.332134 116 78 48
0.684365 -0.305655 0.329651 119 81 48
0.68191 -0.303045 0.326647 116 81 45
0.682621 -0.302756 0.324359 96 62 30
0.680935 -0.300721 0.321565 81 51 25
0.681628 -0.300422 0.319285 81 53 28
0.68471 -0.301856 0.317485 81 53 28
0.694194 -0.307911 0.316917 81 53 28
0.694078 -0.30701 0.314427 78 50 26
0.696361 -0.307838 0.312391 77 49 24
0.700246 -0.309812 0.310629 75 46 24
0.704132 -0.311775 0.308836 73 47 26
0.699158 -0.307392 0.305492 71 45 24
0.715134 -0.317975 0.305694 52 33 12
0.68945 -0.320737 0.355803 156 141 132
0.67701 -0.310495 0.349851 143 106 80
0.67702 -0.309673 0.347354 137 96 66
0.673107 -0.305907 0.343841 138 97 66
0.676227 -0.307427 0.342177 138 97 66
0.676207 -0.306591 0.339701 137 95 61
0.677749 -0.306923 0.337617 132 92 58
0.676136 -0.304903 0.334765 121 83 50
0.679241 -0.306395 0.33305 115 77 47
0.679186 -0.305538 0.330581 114 76 44
0.677539 -0.303505 0.327761 115 77 47
0.674292 -0.300301 0.324613 118 80 47
0.674994 -0.300016 0.322355 112 74 41
0.673305 -0.297974 0.319594 92 55 29
0.673193 -0.297096 0.31718 80 50 24
0.677854 -0.299709 0.315731 81 51 23
0.684114 -0.303474 0.314554 82 53 24
0.689584 -0.306646 0.313171 79 52 23
0.690257 -0.306319 0.310851 78 50 26
0.696532 -0.31005 0.309542 76 48 25
0.705222 -0.315507 0.308602 72 46 25
0.705087 -0.314574 0.306077 73 47 24
0.712987 -0.319425 0.304891 70 49 26
0.730565 -0.331196 0.305191 47 29 12
0.674912 -0.312668 0.351491 150 124 103
0.669487 -0.307706 0.347518 140 101 73
0.673386 -0.30984 0.346089 139 99 67
0.667921 -0.304874 0.342186 139 99 67
0.670247 -0.305814 0.340338 140 100 68
0.670221 -0.304977 0.337885 138 96 62
0.669401 -0.303545 0.335246 132 92 60
0.666213 -0.300341 0.332054 126 86 52
0.671659 -0.303614 0.33093 118 80 47
0.669233 -0.300991 0.327949 111 76 42
0.668368 -0.299542 0.325351 110 74 43
0.669072 -0.299264 0.323114 111 78 44
0.672934 -0.301329 0.321554 114 78 45
0.672043 -0.299865 0.318966 102 68 38
0.673521 -0.300156 0.316879 85 53 25
0.676584 -0.301612 0.315099 79 52 23
0.682034 -0.304814 0.313761 79 52 23
0.684301 -0.305666 0.311771 78 51 24
0.688162 -0.307678 0.310059 78 50 26
0.695221 -0.312014 0.30889 78 50 26
0.70309 -0.316919 0.3078 75 46 24
0.704559 -0.317149 0.305551 74 48 25
0.712442 -0.322026 0.304353 73 50 23
0.720335 -0.326888 0.303084 71 50 27
0.727434 -0.331152 0.301622 59 46 28
0.732125 -0.33366 0.299736 42 30 21
0.672026 -0.314234 0.35291 155 128 110
0.670508 -0.312226 0.34999 151 112 87
0.667423 -0.309024 0.346669 143 102 70
0.669758 -0.309983 0.344827 140 102 67
0.663528 -0.304398 0.340741 140 100 66
0.662726 -0.302971 0.338111 141 101 67
0.661131 -0.300946 0.3353 139 97 66
0.659521 -0.298919 0.332508 133 93 61
0.658679 -0.297481 0.329925 127 89 56
0.664888 -0.301368 0.329009 120 82 49
0.665605 -0.301102 0.326779 115 78 43
0.665528 -0.300239 0.324371 110 74 43
0.667018 -0.300553 0.322313 110 74 43
0.669293 -0.30145 0.320415 113 77 46
0.669983 -0.301161 0.318171 109 75 43
0.673042 -0.302633 0.316409 94 59 32
0.676099 -0.304098 0.314623 83 50 25
0.681538 -0.307318 0.313274 78 50 26
0.683008 -0.307587 0.311129 78 50 26
0.685268 -0.308437 0.30912 77 50 22
0.691511 -0.312213 0.307808 77 49 24
0.697762 -0.315975 0.306442 75 50 24
0.700023 -0.316796 0.304347 73 49 25
0.705482 -0.319948 0.30276 72 52 24
0.713349 -0.324841 0.301509 72 51 26
0.72203 -0.330302 0.300312 72 51 29
0.726705 -0.332828 0.298439 68 48 32
0.654506 -0.304397 0.350141 161 137 118
0.659149 -0.307182 0.349018 157 120 96
0.662252 -0.30876 0.347431 150 109 79
0.662261 -0.307938 0.344985 146 106 74
0.66226 -0.307112 0.342544 144 104 69
0.658368 -0.303293 0.339101 143 103 68
0.656787 -0.301265 0.336295 141 101 67
0.653633 -0.29804 0.33312 140 100 66
0.650459 -0.294814 0.329982 134 94 60
0.651173 -0.294566 0.327811 126 88 55
0.654227 -0.296097 0.326187 122 84 52
0.657281 -0.29762 0.324538 116 79 46
0.656411 -0.296164 0.32199 110 74 43
0.656315 -0.295297 0.319626 107 74 40
0.660933 -0.297987 0.318274 110 74 43
0.663191 -0.298887 0.316391 112 79 47
0.666235 -0.300372 0.314653 100 63 37
0.670069 -0.302441 0.313046 88 53 28
0.679448 -0.308639 0.312478 78 47 23
0.678536 -0.30714 0.309888 77 49 24
0.680788 -0.307998 0.307893 79 48 24
0.683832 -0.309438 0.306022 77 50 22
0.689263 -0.312636 0.304541 78 50 26
0.690713 -0.312879 0.302344 78 50 28
0.692158 -0.313115 0.300138 75 52 28
0.695995 -0.315107 0.298302 72 52 24
0.699833 -0.317088 0.296434 75 53 31
0.700466 -0.316713 0.29406 72 53 30
0.64709 -0.30144 0.347759 160 131 111
0.65248 -0.304845 0.346876 157 116 86
0.655568 -0.306436 0.345312 152 109 78
0.654798 -0.305012 0.342685 151 110 78
0.65479 -0.304185 0.340275 148 108 74
0.650901 -0.300351 0.336868 143 106 71
0.650866 -0.299516 0.334488 143 103 68
0.648492 -0.296878 0.331534 140 100 66
0.645324 -0.293638 0.32842 137 97 62
0.645252 -0.292792 0.326082 130 89 57
0.646732 -0.293139 0.324114 120 82 49
0.648989 -0.294077 0.322315 114 76 46
0.648895 -0.293215 0.319976 109 73 42
0.651928 -0.294737 0.318325 105 72 40
0.660457 -0.300426 0.317817 109 73 42
0.663497 -0.301928 0.316091 107 74 42
0.666537 -0.303421 0.314342 105 72 40
0.671154 -0.306096 0.312879 95 61 31
0.677354 -0.309949 0.311681 83 50 25
0.675655 -0.307849 0.308949 79 48 24
0.680276 -0.310495 0.307392 77 49 24
0.680143 -0.309571 0.304954 77 50 22
0.687147 -0.313975 0.303751 78 50 28
0.684619 -0.311262 0.300892 78 50 28
0.68526 -0.310912 0.298578 77 51 28
0.684299 -0.309376 0.296012 75 52 28
0.690509 -0.313147 0.294554 75 51 30
0.687936 -0.31042 0.291747 76 54 32
0.694148 -0.31417 0.290222 72 52 34
0.69556 -0.314375 0.287983 52 39 23
0.627466 -0.28954 0.344212 163 136 120
0.641232 -0.299639 0.345828 165 130 105
0.647368 -0.30367 0.345174 159 117 83
0.648907 -0.304062 0.343205 156 113 80
0.648133 -0.302634 0.340606 153 111 80
0.648118 -0.301806 0.338223 151 110 78
0.645005 -0.29856 0.335049 147 107 73
0.644965 -0.297724 0.332692 143 106 71
0.643367 -0.295678 0.329957 141 101 69
0.641754 -0.29363 0.327242 135 98 62
0.642459 -0.293384 0.325102 129 91 59
0.643156 -0.293132 0.322959 121 83 50
0.646184 -0.294679 0.321346 115 77 45
0.646871 -0.294415 0.319189 108 72 41
0.649115 -0.295346 0.317369 104 70 39
0.657619 -0.301067 0.316858 104 70 39
0.661436 -0.303178 0.315299 107 71 40
0.666039 -0.305878 0.313866 107 71 40
0.668287 -0.306774 0.311932 97 61 34
0.672108 -0.308856 0.310282 88 53 28
0.664101 -0.301972 0.306397 77 49 24
0.668698 -0.30464 0.304883 77 49 24
0.66539 -0.301336 0.301937 77 49 24
0.673942 -0.306964 0.301062 76 48 25
0.673786 -0.306032 0.298659 78 50 28
0.677591 -0.308066 0.296903 77 49 26
0.676626 -0.306528 0.294369 74 50 26
0.680426 -0.308545 0.292573 75 52 28
0.682632 -0.309367 0.290512 75 54 29
0.69042 -0.314325 0.289225 75 53 31
0.691028 -0.313944 0.286886 73 54 31
0.686029 -0.309421 0.283809 61 43 28
0.630816 -0.294948 0.344932 165 134 115
0.64379 -0.304489 0.346291 161 125 98
0.647624 -0.306715 0.344973 160 118 85
0.646099 -0.304678 0.342157 158 116 82
0.646862 -0.304459 0.339979 155 112 81
0.645311 -0.302414 0.337194 152 109 78
0.642207 -0.299153 0.334032 150 110 75
0.639854 -0.296496 0.3311 144 106 74
0.639029 -0.295048 0.328578 140 102 69
0.638191 -0.293597 0.326069 136 99 64
0.642766 -0.296377 0.324856 130 92 60
0.643466 -0.296125 0.322706 122 84 52
0.648045 -0.298888 0.321434 114 78 45
0.647959 -0.298018 0.31909 109 74 40
0.650981 -0.299557 0.317425 104 68 37
0.654004 -0.301088 0.315736 102 68 36
0.65859 -0.303815 0.314345 101 70 35
0.659265 -0.303522 0.31213 103 69 37
0.662286 -0.305028 0.310373 98 65 33
0.665306 -0.306525 0.308592 87 52 27
0.660461 -0.302011 0.305328 80 48 22
0.666619 -0.305895 0.304105 78 47 23
0.660955 -0.300778 0.300753 76 48 21
0.669482 -0.306439 0.299882 76 48 23
0.671696 -0.3073 0.297888 77 49 24
0.673116 -0.307554 0.29575 77 52 24
0.676908 -0.309593 0.293974 77 52 24
0.681496 -0.312218 0.292285 75 52 28
0.682906 -0.312448 0.290095 75 52 26
0.684311 -0.312671 0.287896 75 53 31
0.687303 -0.314077 0.285905 75 53 31
0.683115 -0.310128 0.28295 70 50 29
0.634133 -0.300388 0.345637 164 131 110
0.644036 -0.307529 0.346094 162 121 94
0.647102 -0.309156 0.344552 162 117 85
0.64253 -0.304665 0.340903 160 114 84
0.644054 -0.305058 0.338941 156 111 79
0.641741 -0.302394 0.335966 155 112 81
0.640179 -0.300337 0.333215 148 108 74
0.638603 -0.298277 0.330485 146 106 72
0.642403 -0.300477 0.329102 141 103 68
0.640035 -0.2978 0.326201 137 96 66
0.642286 -0.29877 0.324421 132 94 61
0.642987 -0.298516 0.322268 123 88 52
0.646006 -0.300079 0.320637 118 79 49
0.644369 -0.297994 0.317956 110 74 43
0.645049 -0.297724 0.315798 107 71 40
0.650394 -0.301084 0.314619 102 68 36
0.651067 -0.300801 0.312435 100 67 35
0.653295 -0.301722 0.310562 98 64 35
0.654739 -0.302031 0.30852 95 60 33
0.65696 -0.302937 0.306617 90 55 31
0.654474 -0.300216 0.303829 81 50 22
0.661395 -0.304727 0.302762 79 48 24
0.659677 -0.302599 0.300124 76 48 21
0.668181 -0.308291 0.299243 76 48 21
0.668815 -0.307954 0.296987 77 52 24
0.67181 -0.309414 0.295108 75 50 22
0.671641 -0.308465 0.292717 76 48 21
0.673837 -0.309309 0.290687 76 48 21
0.67286 -0.307751 0.288182 75 52 26
0.681395 -0.313367 0.287021 76 54 32
0.678817 -0.310599 0.284285 77 54 32
0.67861 -0.309622 0.281887 76 52 33
0.680785 -0.310429 0.279795 73 53 35
0.638176 -0.306474 0.346545 162 127 107
0.645785 -0.311806 0.346319 160 119 92
0.647329 -0.312211 0.344338 161 116 83
0.642013 -0.307084 0.340482 159 114 81
0.643536 -0.307479 0.338515 155 110 78
0.641998 -0.305416 0.33574 152 109 78
0.638149 -0.30151 0.332397 148 108 74
0.636578 -0.299441 0.329674 145 105 71
0.637296 -0.299205 0.327537 141 101 67
0.634931 -0.296518 0.324659 138 97 68
0.637942 -0.298106 0.323077 133 95 60
0.63941 -0.298465 0.321116 125 90 56
0.641647 -0.299429 0.319319 121 86 50
0.642333 -0.299165 0.317167 116 80 47
0.643788 -0.299505 0.315178 111 75 44
0.646791 -0.301056 0.313506 109 74 40
0.648238 -0.301383 0.311492 102 68 36
0.65046 -0.30231 0.309624 97 63 34
0.650339 -0.301408 0.307286 95 61 31
0.653333 -0.302929 0.305544 90 55 31
0.650852 -0.300197 0.302772 83 51 23
0.653838 -0.301705 0.301008 77 50 22
0.655254 -0.301993 0.298948 76 48 21
0.663733 -0.307717 0.298071 76 48 21
0.664362 -0.307383 0.295831 77 50 22
0.668922 -0.310061 0.294214 77 50 22
0.67033 -0.310315 0.292073 77 50 22
0.673312 -0.311768 0.290159 77 49 24
0.677873 -0.314415 0.288447 76 48 25
0.682437 -0.317051 0.286697 73 53 26
0.679079 -0.313668 0.283848 75 53 31
0.679671 -0.313286 0.281546 73 54 31
0.682638 -0.314696 0.279539 74 55 32
0.678445 -0.310708 0.276656 74 56 37
0.628567 -0.302281 0.345861 158 136 121
0.634627 -0.306416 0.345263 161 124 100
0.642212 -0.311777 0.345039 158 116 82
0.641475 -0.310333 0.342438 156 114 78
0.636929 -0.3058 0.33882 156 111 81
0.640726 -0.308051 0.337478 148 108 74
0.641478 -0.307828 0.335309 147 107 73
0.638406 -0.304519 0.332164 146 106 72
0.63608 -0.301824 0.329246 145 105 71
0.635268 -0.300358 0.32673 143 103 68
0.63291 -0.297658 0.32386 139 99 67
0.634377 -0.298027 0.321919 133 94 64
0.635071 -0.297777 0.319792 129 91 59
0.636527 -0.298134 0.317836 121 85 52
0.639524 -0.299711 0.316208 118 83 49
0.638655 -0.298218 0.313731 116 80 47
0.639323 -0.297944 0.31159 113 77 46
0.64231 -0.2995 0.309921 105 72 40
0.643744 -0.299826 0.307919 99 62 34
0.64284 -0.298313 0.305459 91 57 28
0.647376 -0.301067 0.304036 86 54 26
0.646458 -0.299545 0.301577 84 52 24
0.64787 -0.299845 0.299547 79 49 22
0.650842 -0.301356 0.297779 77 50 22
0.657729 -0.305897 0.296644 76 48 21
0.661489 -0.307995 0.294937 76 48 21
0.664465 -0.309476 0.293074 75 50 22
0.664295 -0.308523 0.290708 77 50 22
0.666477 -0.309383 0.288697 76 48 25
0.671809 -0.312654 0.287119 76 48 25
0.670831 -0.311078 0.284625 74 48 25
0.671423 -0.310706 0.282355 75 52 26
0.670424 -0.309122 0.279882 73 52 30
0.67496 -0.311752 0.278104 73 54 31
0.667601 -0.305344 0.274884 73 53 35
0.660215 -0.298942 0.271738 71 57 41
0.623518 -0.30174 0.346461 152 123 101
0.631811 -0.30777 0.346558 161 132 114
0.633344 -0.308198 0.344634 153 114 86
0.641664 -0.314207 0.344613 156 113 80
0.637909 -0.310275 0.341176 155 112 79
0.634889 -0.306961 0.337986 152 109 78
0.638676 -0.309225 0.336643 150 110 75
0.638667 -0.308382 0.334281 147 107 73
0.635604 -0.305058 0.331149 146 106 72
0.636333 -0.304827 0.329003 144 103 71
0.633238 -0.301498 0.325923 143 103 68
0.630888 -0.298786 0.323061 140 100 66
0.631586 -0.298542 0.320944 137 97 60
0.633044 -0.298909 0.319 130 92 60
0.632192 -0.29742 0.316532 125 87 54
0.635177 -0.299008 0.314916 121 83 50
0.635079 -0.298125 0.312621 120 82 51
0.633427 -0.296008 0.31001 114 78 45
0.635628 -0.296961 0.308203 109 73 44
0.637826 -0.297907 0.30638 99 62 34
0.638471 -0.297618 0.304243 89 55 27
0.645322 -0.302229 0.303266 88 53 26
0.645962 -0.301925 0.301095 85 53 25
0.648931 -0.303452 0.299337 80 50 22
0.65346 -0.306193 0.297822 78 48 21
0.658773 -0.309533 0.296399 75 47 22
0.6594 -0.3092 0.294171 76 46 20
0.661585 -0.310081 0.292186 76 48 21
0.658279 -0.306689 0.289353 76 48 21
0.658881 -0.306341 0.287132 75 46 24
0.661833 -0.307811 0.285244 75 46 24
0.663211 -0.308057 0.283117 74 48 25
0.663007 -0.307082 0.280774 75 50 26
0.66595 -0.308528 0.278837 75 52 28
0.668891 -0.309965 0.276877 73 52 30
0.66313 -0.304739 0.273875 72 52 32
0.657347 -0.299518 0.270933 71 54 37
0.602053 -0.287405 0.342061 148 108 78
0.635723 -0.314732 0.349844 141 104 77
0.63652 -0.314541 0.347677 136 98 70
0.632054 -0.309974 0.344002 153 111 80
0.635086 -0.311646 0.342491 155 112 81
0.632843 -0.308945 0.339502 151 110 78
0.630582 -0.306241 0.33654 152 110 76
0.632086 -0.306649 0.334608 151 109 75
0.634343 -0.307673 0.332862 151 109 75
0.632804 -0.30558 0.330136 147 107 73
0.633531 -0.305349 0.327998 145 104 73
0.631967 -0.303248 0.325302 141 103 68
0.629626 -0.300524 0.322444 140 100 66
0.628033 -0.298418 0.319793 137 97 60
0.62872 -0.298169 0.317685 129 91 59
0.627102 -0.296056 0.315064 124 89 53
0.630074 -0.297655 0.313464 122 84 52
0.627666 -0.294916 0.310699 120 84 53
0.629862 -0.295883 0.308919 116 80 49
0.632054 -0.296844 0.307121 107 70 42
0.635789 -0.299031 0.305611 96 62 30
0.63566 -0.298126 0.303329 84 50 23
0.643265 -0.303378 0.302495 83 51 23
0.643129 -0.302459 0.300188 85 53 25
0.64376 -0.30215 0.298024 84 52 24
0.646717 -0.30368 0.296257 78 48 21
0.650452 -0.305815 0.294596 75 47 20
0.64873 -0.303646 0.292025 75 47 20
0.649337 -0.303313 0.289841 75 47 20
0.649155 -0.302363 0.287537 75 47 20
0.647399 -0.300185 0.285012 75 46 24
0.653468 -0.304116 0.283612 73 48 22
0.659543 -0.308033 0.282157 73 48 22
0.660124 -0.307667 0.279929 72 48 24
0.661485 -0.307904 0.277799 72 48 24
0.662841 -0.308135 0.275661 71 50 27
0.656304 -0.30228 0.272599 72 50 31
0.650532 -0.297039 0.269692 72 52 36
0.606778 -0.294887 0.345526 153 112 85
0.619457 -0.304771 0.347092 156 113 82
0.623966 -0.307732 0.346104 154 114 82
0.626987 -0.309428 0.344641 155 115 83
0.621024 -0.303588 0.340587 160 118 85
0.624031 -0.305274 0.339121 158 116 82
0.624786 -0.305072 0.33701 157 114 83
0.625534 -0.304864 0.334898 156 113 80
0.626275 -0.304651 0.332784 155 112 79
0.630786 -0.30756 0.331645 152 112 78
0.628493 -0.304833 0.328742 150 110 75
0.629215 -0.304604 0.326619 145 105 71
0.626135 -0.301247 0.323572 144 104 69
0.624556 -0.299136 0.320922 141 101 67
0.622202 -0.2964 0.318116 137 97 62
0.620593 -0.294284 0.315512 132 92 58
0.618971 -0.292166 0.312928 123 86 53
0.621926 -0.293778 0.311358 121 83 53
0.62105 -0.292274 0.308956 122 84 54
0.622465 -0.292629 0.307041 121 83 53
0.62695 -0.295462 0.305734 111 72 46
0.630671 -0.297663 0.304239 99 62 36
0.633622 -0.299236 0.302564 84 49 25
0.63503 -0.299562 0.30058 79 47 19
0.634886 -0.298644 0.298308 81 49 24
0.636282 -0.298959 0.296313 87 55 27
0.639999 -0.301119 0.294706 81 51 25
0.638282 -0.29895 0.29217 78 48 21
0.638885 -0.298629 0.290028 76 46 20
0.639481 -0.298303 0.287885 75 47 22
0.63929 -0.297355 0.285625 75 47 22
0.63831 -0.295789 0.283257 72 47 21
0.646698 -0.301589 0.282215 72 47 21
0.654317 -0.306758 0.28099 73 48 22
0.659595 -0.310072 0.279392 72 48 24
0.656248 -0.306638 0.27667 70 47 23
0.661524 -0.309932 0.27502 69 47 25
0.654221 -0.303439 0.271878 70 48 30
0.649254 -0.298783 0.26907 69 51 37
0.624 -0.313163 0.352965 156 122 97
0.633699 -0.320571 0.353569 153 111 80
0.631545 -0.317864 0.350499 160 114 84
0.630117 -0.315786 0.347677 161 116 83
0.627929 -0.313073 0.344659 163 118 86
0.622737 -0.307835 0.340817 164 120 87
0.620508 -0.305118 0.337868 166 121 88
0.61976 -0.303657 0.335358 162 117 85
0.619751 -0.302822 0.333063 157 117 82
0.618981 -0.301353 0.330575 157 117 82
0.62347 -0.30428 0.329461 157 115 81
0.62344 -0.303429 0.327163 154 114 80
0.6234 -0.302573 0.324872 151 111 76
0.624108 -0.30234 0.322769 146 106 72
0.624809 -0.302101 0.320665 144 104 69
0.621707 -0.298725 0.317681 138 98 64
0.620867 -0.297226 0.315248 132 92 60
0.618492 -0.294472 0.312491 123 86 53
0.61839 -0.293591 0.310257 120 82 51
0.615987 -0.290833 0.307546 116 80 49
0.617394 -0.291194 0.305649 115 77 49
0.623395 -0.295291 0.304663 113 74 46
0.627103 -0.297506 0.303174 100 63 35
0.630814 -0.299712 0.301654 85 51 26
0.635296 -0.30253 0.300244 78 45 22
0.635157 -0.301608 0.297966 78 46 20
0.634237 -0.30006 0.29556 80 48 20
0.637171 -0.301612 0.293821 81 51 23
0.637008 -0.300676 0.29155 78 48 21
0.635285 -0.298496 0.289039 74 46 19
0.635878 -0.298171 0.286908 74 45 23
0.638796 -0.299695 0.285122 74 45 23
0.637043 -0.297504 0.282642 72 47 21
0.64463 -0.302717 0.28148 72 47 21
0.650667 -0.30668 0.280041 70 47 23
0.655148 -0.309397 0.278347 70 47 23
0.651025 -0.305336 0.275549 69 46 22
0.656284 -0.308651 0.273912 69 47 25
0.652136 -0.304586 0.271157 69 47 29
0.651895 -0.303589 0.268874 65 49 34
0.617533 -0.310471 0.350717 154 113 88
0.623501 -0.314744 0.350201 159 113 83
0.62208 -0.312663 0.347403 161 116 85
0.621385 -0.311213 0.344844 163 118 86
0.622907 -0.31166 0.342944 166 119 87
0.619215 -0.307667 0.339553 169 119 86
0.619974 -0.30747 0.337452 168 121 87
0.620726 -0.307268 0.33535 168 121 89
0.619226 -0.305164 0.332643 166 121 88
0.617712 -0.303056 0.329957 162 119 88
0.620689 -0.304735 0.328451 159 117 83
0.618402 -0.301988 0.325594 158 116 82
0.616852 -0.299869 0.322951 153 113 79
0.618306 -0.300269 0.321056 151 108 77
0.618243 -0.299403 0.318796 146 106 72
0.615144 -0.296014 0.315843 143 103 68
0.6143 -0.294512 0.313439 137 97 62
0.613445 -0.293006 0.311048 134 94 62
0.611818 -0.290868 0.308507 127 89 56
0.61094 -0.289356 0.306146 123 82 53
0.611576 -0.289095 0.304111 114 76 46
0.615262 -0.291336 0.302683 109 73 42
0.61742 -0.292315 0.300927 100 63 35
0.622642 -0.295789 0.299733 87 50 26
0.627872 -0.299252 0.298493 78 45 22
0.629263 -0.299581 0.296521 76 46 20
0.628341 -0.29803 0.294139 76 46 20
0.627408 -0.296476 0.291771 79 46 23
0.626463 -0.294919 0.289417 78 48 21
0.623189 -0.291491 0.28671 72 44 22
0.625315 -0.292418 0.284869 72 45 20
0.62899 -0.294579 0.28324 72 47 21
0.630337 -0.294868 0.281248 72 46 23
0.63712 -0.299492 0.279997 70 47 23
0.64858 -0.307817 0.279304 70 47 23
0.65227 -0.309931 0.277508 70 47 23
0.65128 -0.308325 0.275108 70 49 24
0.657308 -0.312274 0.273549 68 46 24
0.652395 -0.307572 0.270701 68 46 26
0.653724 -0.307803 0.268581 58 42 27
0.583884 -0.284914 0.342176 156 119 95
0.618443 -0.314111 0.350772 155 114 89
0.625136 -0.319043 0.350463 159 116 85
0.622251 -0.315677 0.34721 162 119 88
0.621564 -0.314219 0.344647 163 118 86
0.621605 -0.313395 0.34231 169 119 88
0.617927 -0.309383 0.338925 171 122 88
0.616455 -0.307278 0.336204 171 122 88
0.617948 -0.307713 0.334316 172 125 91
0.615707 -0.304965 0.331421 167 122 89
0.613449 -0.302214 0.328554 164 122 88
0.617162 -0.304538 0.327251 163 120 89
0.614881 -0.30178 0.32441 160 118 85
0.61108 -0.297752 0.321227 157 117 82
0.611772 -0.297524 0.319173 153 113 79
0.611703 -0.296657 0.316941 151 111 76
0.610871 -0.295154 0.31454 150 108 74
0.607759 -0.29175 0.311644 144 101 70
0.607658 -0.290873 0.309447 141 98 67
0.606031 -0.288729 0.306932 137 94 63
0.605909 -0.287844 0.304755 135 92 63
0.605779 -0.286955 0.302584 124 84 52
0.608687 -0.28858 0.301023 122 81 51
0.610833 -0.289569 0.299291 106 69 41
0.612977 -0.29055 0.297543 90 54 27
0.615884 -0.292152 0.295918 83 49 22
0.616492 -0.291862 0.293861 79 47 21
0.614023 -0.289059 0.291274 76 46 20
0.616919 -0.290641 0.289615 76 46 20
0.615967 -0.289084 0.287309 76 46 20
0.613461 -0.286274 0.284774 75 47 20
0.616344 -0.287837 0.283089 72 45 20
0.620772 -0.29064 0.281608 71 45 20
0.621334 -0.290314 0.279539 71 45 22
0.628864 -0.29559 0.278422 70 47 23
0.637956 -0.302095 0.277442 70 47 23
0.643956 -0.306094 0.275983 70 47 23
0.645296 -0.306351 0.273902 72 48 26
0.648188 -0.307842 0.271995 70 46 27
0.647179 -0.306224 0.269629 64 47 28
0.596578 -0.298691 0.34599 155 126 107
0.624463 -0.322252 0.352414 155 116 90
0.627481 -0.324 0.350938 160 118 87
0.620936 -0.317415 0.34657 163 118 88
0.619516 -0.315312 0.343792 167 120 90
0.61882 -0.313845 0.341247 170 118 88
0.615892 -0.310455 0.338086 172 123 90
0.613685 -0.307702 0.335166 173 125 89
0.615173 -0.30814 0.333284 172 123 90
0.612939 -0.305381 0.330401 172 125 91
0.612177 -0.303895 0.327936 168 123 90
0.612897 -0.30368 0.325865 164 122 88
0.612114 -0.302185 0.323418 162 119 86
0.606827 -0.296866 0.319882 160 118 85
0.606014 -0.295367 0.317484 157 116 84
0.605189 -0.293863 0.315098 154 114 82
0.605858 -0.293628 0.313071 151 108 77
0.602751 -0.290212 0.310199 148 105 72
0.604156 -0.290603 0.308353 143 100 69
0.602532 -0.288451 0.305852 139 97 66
0.603924 -0.288831 0.304002 134 94 62
0.60152 -0.286039 0.301375 130 89 57
0.602898 -0.28641 0.299526 126 86 54
0.60275 -0.28551 0.297376 121 83 50
0.604117 -0.28587 0.295517 107 70 42
0.60548 -0.286224 0.293649 90 55 31
0.609132 -0.288463 0.292178 80 48 22
0.609725 -0.288172 0.29015 76 46 20
0.611843 -0.289135 0.288376 75 47 20
0.614727 -0.290721 0.286709 74 46 19
0.611463 -0.287269 0.284059 72 45 20
0.613568 -0.288214 0.282259 72 45 20
0.617213 -0.290405 0.280667 71 45 20
0.620087 -0.29196 0.278936 72 46 25
0.626824 -0.296637 0.277705 70 47 23
0.636664 -0.303801 0.276817 70 47 23
0.642648 -0.30782 0.275351 70 49 24
0.649415 -0.31245 0.273925 69 47 25
0.657743 -0.31831 0.272617 68 46 24
0.656753 -0.316677 0.2702 64 47 28
