ply
format ascii 1.0
comment Created by Open3D
element vertex 885
property double x
property double y
property double z
property uchar red
property uchar green
property uchar blue
end_header
0.884853 -0.404674 0.405977 136 114 99
0.869609 -0.393634 0.398442 108 69 44
0.890257 -0.406146 0.400489 82 56 38
0.936324 -0.435206 0.408888 81 63 46
0.90161 -0.420762 0.413704 158 136 121
0.845835 -0.382688 0.394981 138 97 70
0.843595 -0.38022 0.391112 119 81 48
0.857638 -0.388516 0.391539 106 73 41
0.840016 -0.38348 0.396293 162 129 106
0.816713 -0.366902 0.386711 141 101 71
0.817686 -0.366602 0.383837 118 82 51
0.829222 -0.373337 0.383722 104 72 44
0.848112 -0.384926 0.385387 94 64 38
0.796465 -0.357719 0.383923 149 112 88
0.786904 -0.35034 0.378286 118 79 49
0.791884 -0.35278 0.376618 92 55 27
0.799301 -0.356845 0.375544 82 48 20
0.822168 -0.371242 0.378357 84 51 26
0.781303 -0.35084 0.379411 156 117 93
0.77336 -0.344522 0.374286 133 95 62
0.784777 -0.351373 0.374382 114 77 49
0.797835 -0.359304 0.3748 96 62 34
0.831998 -0.38146 0.380481 83 50 25
0.775039 -0.349922 0.377357 161 120 91
0.77355 -0.347989 0.374001 150 108 74
0.784944 -0.354882 0.374077 127 89 58
0.798783 -0.363412 0.374682 116 80 49
0.825592 -0.38074 0.378459 94 62 34
0.837082 -0.387572 0.378155 87 55 27
0.755255 -0.338685 0.368742 152 107 74
0.765793 -0.345073 0.36867 142 99 68
0.770714 -0.347561 0.367048 121 84 56
0.783705 -0.355583 0.367433 111 75 46
0.786221 -0.356384 0.365091 95 63 38
0.796016 -0.362158 0.364508 75 50 26
0.765754 -0.350187 0.374151 166 123 92
0.74104 -0.332032 0.364597 155 110 78
0.737094 -0.328413 0.36077 145 103 69
0.737945 -0.328141 0.358231 137 94 63
0.742812 -0.330651 0.356709 120 82 51
0.741235 -0.328692 0.353547 102 65 39
0.748521 -0.332854 0.352565 84 54 32
0.766707 -0.354208 0.37408 166 123 94
0.721288 -0.321334 0.358983 154 109 78
0.711736 -0.312952 0.351142 129 88 56
0.712541 -0.312686 0.348716 117 76 49
0.709319 -0.309612 0.345293 105 66 40
0.714127 -0.312136 0.343859 92 52 31
0.731842 -0.323602 0.345451 90 70 54
0.737403 -0.336747 0.365766 168 128 105
0.704808 -0.312743 0.354265 146 104 71
0.696044 -0.305712 0.349351 132 90 59
0.694437 -0.303766 0.346374 128 83 55
0.692816 -0.301815 0.343417 117 74 46
0.694387 -0.302116 0.341273 114 69 41
0.699165 -0.304663 0.339897 92 51 28
0.709578 -0.31114 0.339816 75 33 11
0.72404 -0.320412 0.340577 72 43 26
0.698709 -0.312227 0.354932 159 122 98
0.686807 -0.302887 0.349158 143 99 73
0.68441 -0.30037 0.346 135 90 60
0.680402 -0.296715 0.342461 127 82 50
0.678766 -0.294762 0.339567 121 76 46
0.680316 -0.295072 0.337482 118 73 42
0.685065 -0.297642 0.33616 106 66 36
0.691423 -0.301334 0.335179 83 43 20
0.701808 -0.307842 0.335072 73 37 15
0.7098 -0.312637 0.334328 58 30 8
0.689487 -0.308566 0.352132 160 125 102
0.679984 -0.300893 0.347045 144 102 68
0.679175 -0.299509 0.344332 142 95 60
0.678354 -0.298121 0.341631 138 92 55
0.675928 -0.295587 0.338544 133 87 52
0.679069 -0.297042 0.336857 127 83 48
0.683808 -0.299627 0.33553 121 78 45
0.688551 -0.302203 0.334165 99 59 29
0.693299 -0.304768 0.33276 80 45 18
0.702065 -0.310165 0.332221 76 46 22
0.714865 -0.318386 0.332492 64 37 19
0.712398 -0.315806 0.329351 59 39 21
0.71475 -0.316625 0.327258 87 72 56
0.711448 -0.313472 0.323985 58 42 27
0.732377 -0.327295 0.325617 95 80 65
0.742022 -0.33317 0.324841 81 68 52
0.67872 -0.303685 0.348923 153 110 82
0.674764 -0.299999 0.345363 147 102 69
0.673953 -0.29861 0.34267 140 95 60
0.67313 -0.297217 0.33999 134 90 55
0.672295 -0.29582 0.337323 126 82 46
0.677018 -0.298432 0.336035 124 84 48
0.680152 -0.299888 0.334324 129 89 54
0.684882 -0.302481 0.332964 122 79 48
0.689616 -0.305063 0.331566 97 58 28
0.695156 -0.308207 0.330308 80 45 20
0.701503 -0.31191 0.329179 81 49 26
0.698224 -0.308754 0.325926 79 52 27
0.69975 -0.309017 0.323721 79 52 27
0.69644 -0.305856 0.320517 77 50 20
0.702786 -0.309523 0.319285 75 47 22
0.701873 -0.308059 0.31658 75 45 21
0.711459 -0.313977 0.315888 71 40 18
0.726727 -0.32385 0.316162 48 25 10
0.686082 -0.312841 0.353182 161 130 111
0.669569 -0.299879 0.346162 153 108 77
0.670345 -0.299646 0.343898 148 102 67
0.671904 -0.299985 0.341837 144 97 61
0.671876 -0.299163 0.339365 132 87 52
0.66946 -0.296605 0.336304 119 79 45
0.672583 -0.298081 0.33463 116 79 46
0.674116 -0.298396 0.332551 120 82 47
0.677236 -0.299856 0.330835 128 91 55
0.680357 -0.301307 0.329096 113 75 42
0.68667 -0.305049 0.328048 93 56 28
0.691394 -0.30763 0.326595 83 50 27
0.688113 -0.304462 0.323389 81 49 26
0.688822 -0.304161 0.321056 81 51 23
0.688722 -0.30328 0.318559 81 49 26
0.692632 -0.305256 0.316868 78 47 23
0.694128 -0.305507 0.314677 78 45 22
0.700456 -0.309179 0.313392 77 44 21
0.711637 -0.316261 0.312948 73 41 17
0.728499 -0.327315 0.313421 51 25 2
0.673013 -0.306121 0.349302 162 127 107
0.668307 -0.301819 0.345533 150 105 75
0.669083 -0.301586 0.34327 147 102 69
0.669064 -0.300767 0.3408 141 97 62
0.670614 -0.301103 0.338737 135 92 59
0.669787 -0.299693 0.336074 123 83 48
0.671323 -0.300017 0.334003 113 75 42
0.670476 -0.298598 0.331355 114 77 41
0.670411 -0.297753 0.328906 117 82 46
0.671926 -0.29806 0.326826 121 84 48
0.675029 -0.299516 0.325093 105 67 34
0.675739 -0.299232 0.322812 87 53 23
0.676442 -0.298941 0.320531 80 50 22
0.678737 -0.299798 0.318581 81 51 23
0.679427 -0.299496 0.316288 81 51 23
0.680912 -0.299763 0.314153 80 48 22
0.683998 -0.301173 0.312321 79 49 20
0.689496 -0.304298 0.310919 78 48 19
0.698221 -0.309706 0.310062 78 46 20
0.709379 -0.316818 0.309562 71 41 14
0.72298 -0.325628 0.309383 59 39 23
0.667036 -0.304567 0.347379 156 121 99
0.666254 -0.30317 0.344692 142 97 67
0.664676 -0.301183 0.341812 141 98 65
0.66544 -0.300946 0.339561 141 96 64
0.667771 -0.30187 0.337707 137 95 59
0.666946 -0.300454 0.335054 132 90 57
0.668478 -0.300783 0.332989 123 83 48
0.667632 -0.299357 0.330351 115 77 45
0.669151 -0.299674 0.328279 118 80 47
0.667492 -0.297658 0.325476 120 82 49
0.668995 -0.297963 0.3234 118 80 45
0.67129 -0.298842 0.321489 95 59 30
0.675971 -0.301454 0.32007 83 50 25
0.677466 -0.301737 0.317948 81 51 23
0.677357 -0.300855 0.315494 80 50 22
0.682039 -0.30344 0.313995 80 50 22
0.682719 -0.303124 0.311684 80 50 22
0.685798 -0.304534 0.309824 79 47 21
0.693696 -0.309398 0.308822 77 44 21
0.700802 -0.31367 0.307607 74 44 18
0.712749 -0.321384 0.307167 68 38 14
0.658736 -0.302012 0.347273 154 129 115
0.660298 -0.302381 0.345252 148 113 91
0.663418 -0.30392 0.343641 139 97 62
0.663408 -0.3031 0.341183 139 97 62
0.663388 -0.302275 0.33873 139 97 64
0.665714 -0.303206 0.336878 135 92 59
0.664106 -0.301197 0.334036 134 91 58
0.664059 -0.300357 0.331596 123 86 51
0.660846 -0.29717 0.328413 118 80 47
0.663144 -0.298078 0.32655 118 80 47
0.662276 -0.29664 0.323952 118 80 47
0.664564 -0.297534 0.32207 115 79 46
0.66923 -0.300173 0.320688 104 69 35
0.67549 -0.303967 0.319604 87 52 25
0.676983 -0.304253 0.317478 81 51 23
0.676878 -0.303366 0.315021 81 51 23
0.679955 -0.304803 0.313198 81 51 23
0.681433 -0.305068 0.311045 80 50 22
0.680505 -0.303584 0.308434 81 51 23
0.685976 -0.306738 0.307003 76 46 20
0.693056 -0.31104 0.30581 75 45 19
0.703359 -0.317643 0.305109 76 46 22
0.704026 -0.317284 0.302701 72 44 24
0.718379 -0.326745 0.302516 46 28 13
0.658243 -0.304506 0.346861 151 119 95
0.658249 -0.303695 0.344411 140 100 66
0.659024 -0.30347 0.342175 139 99 65
0.659791 -0.303239 0.339938 140 100 66
0.660552 -0.303002 0.337698 139 99 65
0.662871 -0.30394 0.335851 137 95 61
0.661267 -0.301922 0.33302 132 92 56
0.660434 -0.300491 0.330398 130 88 52
0.658016 -0.297878 0.327418 122 81 49
0.657944 -0.297027 0.325013 115 78 43
0.658652 -0.29676 0.322793 114 78 45
0.658562 -0.2959 0.320396 115 79 46
0.664002 -0.299144 0.319202 110 75 41
0.669449 -0.302376 0.317962 100 64 33
0.670934 -0.302667 0.315858 85 53 25
0.670029 -0.301195 0.313264 81 51 23
0.67548 -0.304399 0.311934 79 52 23
0.676952 -0.304669 0.309794 81 51 23
0.678418 -0.304932 0.307646 77 50 22
0.683875 -0.308106 0.306213 78 47 23
0.690138 -0.311849 0.304874 76 46 20
0.698812 -0.317327 0.303894 75 47 22
0.70108 -0.318133 0.301768 75 46 24
0.712181 -0.325324 0.301053 73 47 26
0.718475 -0.32901 0.299483 53 35 18
0.740883 -0.344282 0.300304 32 20 8
0.660812 -0.310193 0.349775 161 138 123
0.655416 -0.305216 0.345799 143 106 78
0.653094 -0.302618 0.342725 144 104 69
0.655417 -0.303583 0.340922 143 103 68
0.653846 -0.301571 0.338085 143 101 67
0.654599 -0.301337 0.335868 143 101 65
0.656907 -0.302283 0.334041 141 99 63
0.656084 -0.300851 0.331427 134 95 58
0.654466 -0.298822 0.328639 130 88 54
0.655971 -0.299158 0.32661 127 84 53
0.655115 -0.297714 0.324029 118 80 47
0.654247 -0.296265 0.321461 113 77 44
0.656519 -0.297175 0.319601 111 76 42
0.662734 -0.301028 0.318575 111 76 42
0.664217 -0.301331 0.316497 108 70 38
0.668069 -0.303395 0.314898 92 58 31
0.667166 -0.301917 0.312315 85 53 25
0.671809 -0.304553 0.31083 81 51 23
0.671685 -0.303652 0.308398 80 50 24
0.674737 -0.305094 0.306563 77 49 24
0.674598 -0.304182 0.304128 77 49 24
0.684826 -0.310883 0.303521 77 49 24
0.688679 -0.312881 0.301731 76 48 25
0.694933 -0.316624 0.300307 75 46 24
0.7052 -0.323275 0.299472 73 47 24
0.711472 -0.326986 0.297922 74 48 25
0.72257 -0.334183 0.297044 68 49 30
0.738512 -0.344853 0.296771 45 30 14
0.653346 -0.307317 0.347395 156 121 99
0.649501 -0.303514 0.343884 147 106 77
0.648727 -0.302101 0.341257 146 106 74
0.649491 -0.301879 0.339054 144 104 69
0.647919 -0.29986 0.336242 144 104 69
0.649442 -0.300224 0.334247 144 104 69
0.651739 -0.301179 0.332436 143 101 67
0.650135 -0.299146 0.329652 136 96 61
0.647735 -0.296515 0.326701 131 89 55
0.650795 -0.298047 0.325066 122 84 52
0.651504 -0.297787 0.322866 118 80 45
0.649851 -0.29574 0.320134 114 76 44
0.652115 -0.296657 0.318288 111 76 42
0.659098 -0.301127 0.317439 111 76 42
0.660575 -0.301434 0.315371 110 72 39
0.662837 -0.302327 0.313456 101 65 36
0.663514 -0.302029 0.311209 86 54 26
0.666559 -0.303499 0.309422 80 50 22
0.664848 -0.301416 0.30671 80 50 24
0.667091 -0.302281 0.304751 77 49 24
0.665357 -0.30019 0.302063 77 49 24
0.673957 -0.305756 0.301202 77 52 24
0.679382 -0.30895 0.299724 76 48 25
0.688006 -0.314484 0.298724 76 48 25
0.694244 -0.318238 0.297266 76 48 25
0.70129 -0.322565 0.295877 74 48 25
0.707543 -0.326291 0.294306 74 48 25
0.716208 -0.331759 0.29303 56 41 19
0.646657 -0.305795 0.347666 161 132 112
0.648214 -0.306191 0.345678 156 117 91
0.647455 -0.304776 0.343044 153 112 83
0.645913 -0.302756 0.340213 150 109 77
0.645129 -0.301333 0.337607 146 108 73
0.645107 -0.300506 0.335217 145 105 71
0.644299 -0.299075 0.332634 144 103 71
0.64581 -0.299438 0.330646 141 101 69
0.64576 -0.298596 0.328268 137 97 62
0.644143 -0.296553 0.325523 132 90 57
0.645632 -0.296899 0.32353 122 84 52
0.647117 -0.297239 0.321527 116 79 46
0.646249 -0.295781 0.31899 113 77 44
0.649289 -0.297303 0.317324 111 76 40
0.654683 -0.300605 0.316138 111 76 42
0.652223 -0.297938 0.313264 111 76 42
0.657619 -0.301223 0.312022 104 68 37
0.659079 -0.301522 0.309951 89 55 25
0.658956 -0.300625 0.307564 81 50 22
0.659614 -0.300318 0.305333 79 49 22
0.665806 -0.304158 0.304118 77 50 22
0.6617 -0.30028 0.301007 77 49 24
0.673451 -0.308246 0.300699 77 52 24
0.677276 -0.310275 0.298942 77 52 24
0.685081 -0.315249 0.297806 77 51 26
0.6921 -0.319617 0.296475 76 48 25
0.696734 -0.322199 0.294712 77 51 28
0.698973 -0.323002 0.292554 75 52 28
0.702808 -0.324974 0.29061 73 49 27
0.630827 -0.296955 0.345227 163 146 129
0.639252 -0.302812 0.345283 165 128 102
0.642329 -0.304423 0.343755 159 116 87
0.643871 -0.304817 0.341779 158 115 84
0.641562 -0.302184 0.338755 153 111 80
0.640777 -0.300757 0.336166 150 109 77
0.63998 -0.299325 0.333591 146 108 73
0.638398 -0.297286 0.330832 144 103 71
0.639125 -0.297052 0.328673 140 101 64
0.639844 -0.296812 0.326511 138 98 62
0.639003 -0.295363 0.323977 132 92 58
0.642041 -0.296917 0.322366 123 86 51
0.64352 -0.297261 0.320374 116 79 46
0.641092 -0.294597 0.317501 110 74 43
0.644901 -0.29673 0.316021 108 72 39
0.648712 -0.298854 0.31451 106 73 39
0.646254 -0.296177 0.311662 110 74 43
0.650845 -0.298885 0.310278 108 72 41
0.653082 -0.299788 0.308387 97 61 30
0.652167 -0.298293 0.305872 87 53 23
0.65124 -0.296796 0.303371 77 50 22
0.659777 -0.302451 0.302616 77 50 22
0.65884 -0.30094 0.300097 78 51 24
0.67056 -0.308952 0.299782 77 52 24
0.672788 -0.309804 0.297762 77 52 24
0.678982 -0.31362 0.296373 77 52 24
0.684388 -0.316828 0.294804 77 52 24
0.686616 -0.317651 0.292702 77 51 28
0.684855 -0.315503 0.289993 76 53 29
0.690262 -0.31868 0.288334 76 53 29
0.698868 -0.324209 0.28707 73 49 27
0.633386 -0.301794 0.345722 163 140 125
0.63798 -0.304639 0.344658 163 124 98
0.637992 -0.303827 0.34227 163 118 88
0.638762 -0.303619 0.340098 161 116 83
0.637222 -0.301582 0.337303 155 112 79
0.637973 -0.301363 0.335138 155 112 81
0.637178 -0.299926 0.332572 152 112 78
0.637913 -0.299696 0.330411 146 108 73
0.638641 -0.299462 0.328248 143 103 68
0.637815 -0.298011 0.325707 138 98 62
0.636977 -0.296556 0.323178 132 94 57
0.640007 -0.298119 0.321567 125 87 52
0.64226 -0.299071 0.319755 116 79 46
0.638285 -0.295187 0.31654 110 75 41
0.642862 -0.297936 0.315233 108 72 41
0.645883 -0.29947 0.313556 106 70 39
0.644213 -0.297383 0.310882 107 71 40
0.646444 -0.298302 0.309021 106 70 39
0.649457 -0.299814 0.307298 100 63 35
0.650113 -0.299516 0.305098 90 54 27
0.647617 -0.296812 0.302309 80 50 24
0.653767 -0.300702 0.301125 77 50 22
0.654405 -0.300385 0.29891 77 49 24
0.661353 -0.304851 0.29778 75 50 22
0.663566 -0.305715 0.295796 75 50 24
0.668152 -0.308363 0.294181 76 48 21
0.673533 -0.311596 0.292651 75 50 22
0.67495 -0.311836 0.290471 77 52 24
0.677157 -0.312664 0.288399 75 52 28
0.680156 -0.314079 0.286424 75 52 28
0.68634 -0.317863 0.284863 75 52 28
0.681363 -0.313319 0.281769 61 42 23
0.632118 -0.3036 0.3451 167 138 120
0.636701 -0.306461 0.344031 164 121 90
0.636716 -0.305646 0.341644 164 120 87
0.635194 -0.303605 0.338843 161 116 83
0.636717 -0.304001 0.336886 158 116 80
0.63747 -0.303782 0.334718 156 114 78
0.636681 -0.302338 0.33215 153 113 79
0.634342 -0.299671 0.329207 150 110 75
0.633526 -0.29822 0.326673 143 106 71
0.63347 -0.297373 0.32434 139 99 65
0.633404 -0.296521 0.322012 129 92 55
0.634876 -0.29688 0.32005 123 86 51
0.638669 -0.299054 0.318607 116 79 46
0.636255 -0.296365 0.315753 111 76 40
0.638489 -0.297312 0.31394 108 72 39
0.64072 -0.298251 0.312109 103 69 37
0.639052 -0.296157 0.309458 103 67 36
0.641273 -0.297084 0.307613 103 68 34
0.642709 -0.2974 0.305599 98 67 34
0.643358 -0.297105 0.303426 91 57 30
0.643216 -0.296201 0.301105 81 51 23
0.649346 -0.300114 0.299928 76 48 21
0.648408 -0.298596 0.297451 75 47 20
0.652969 -0.301284 0.295932 74 49 23
0.652016 -0.299755 0.293456 76 48 23
0.657367 -0.303026 0.292011 77 50 22
0.661932 -0.305684 0.290397 77 50 22
0.664917 -0.307133 0.288505 77 52 24
0.670279 -0.310368 0.286936 74 50 26
0.675646 -0.313591 0.285321 75 52 28
0.677838 -0.31441 0.283226 75 52 28
0.680027 -0.315222 0.281115 75 52 28
0.680619 -0.314832 0.278786 66 45 23
0.626298 -0.301712 0.343158 167 136 117
0.63238 -0.305819 0.342538 164 119 89
0.631632 -0.304388 0.339955 165 118 86
0.632395 -0.30418 0.337802 160 115 82
0.63315 -0.303967 0.335646 159 114 81
0.633135 -0.303136 0.333288 157 115 79
0.632345 -0.301687 0.330738 152 112 78
0.629244 -0.298397 0.32762 147 107 73
0.627658 -0.296329 0.324917 142 105 69
0.628366 -0.296093 0.322794 139 99 65
0.630607 -0.297073 0.321033 132 94 59
0.632075 -0.297436 0.319077 125 87 52
0.635857 -0.299622 0.317637 121 83 50
0.635772 -0.298751 0.315309 113 77 44
0.636452 -0.298485 0.313155 108 72 41
0.634021 -0.295779 0.310344 103 69 37
0.63235 -0.293678 0.307722 103 67 36
0.635338 -0.295222 0.306058 102 69 34
0.635986 -0.294936 0.303912 95 61 31
0.63975 -0.297072 0.30236 91 57 30
0.640389 -0.296772 0.300197 81 51 23
0.647285 -0.301314 0.299162 79 49 22
0.64635 -0.299789 0.296691 77 50 22
0.652471 -0.303703 0.295437 77 50 22
0.649164 -0.300354 0.29257 75 50 22
0.656862 -0.305455 0.291506 75 50 22
0.660629 -0.307525 0.28976 75 50 22
0.662819 -0.30838 0.287746 77 50 22
0.667376 -0.311032 0.28606 77 49 26
0.671937 -0.313673 0.284335 77 51 28
0.674915 -0.3151 0.282357 75 52 28
0.670751 -0.31112 0.279423 76 52 31
0.672922 -0.311935 0.277332 75 53 31
0.669523 -0.308551 0.274553 73 52 32
0.606913 -0.289458 0.339558 160 140 124
0.620499 -0.299781 0.341228 163 122 95
0.627314 -0.304529 0.340837 162 115 83
0.628079 -0.304328 0.338697 160 115 82
0.627319 -0.302887 0.33614 157 115 79
0.62959 -0.303909 0.33441 155 112 79
0.630335 -0.303692 0.332264 151 110 78
0.63031 -0.302853 0.32992 150 110 75
0.626454 -0.298932 0.326619 146 106 72
0.625639 -0.297471 0.324116 144 104 69
0.626345 -0.297235 0.321996 139 99 65
0.629349 -0.298836 0.320418 134 96 61
0.630815 -0.299201 0.318462 128 91 55
0.633818 -0.300786 0.316843 125 87 52
0.635277 -0.301138 0.314861 120 82 49
0.63364 -0.299034 0.312204 114 78 45
0.631215 -0.296316 0.309405 110 77 42
0.630324 -0.294819 0.306952 106 70 37
0.632528 -0.295761 0.305134 99 66 32
0.632397 -0.294866 0.302845 95 61 31
0.636149 -0.297015 0.3013 86 54 26
0.639904 -0.299154 0.299723 83 51 23
0.642098 -0.300066 0.297835 79 47 21
0.641163 -0.298538 0.295386 76 48 21
0.644131 -0.300044 0.293613 75 47 20
0.643962 -0.299114 0.2913 75 47 20
0.642213 -0.296965 0.288744 77 50 22
0.649099 -0.301481 0.287544 75 50 22
0.649697 -0.301139 0.285342 77 50 22
0.654229 -0.303815 0.283707 76 48 25
0.661131 -0.308292 0.282364 74 48 25
0.666461 -0.311547 0.280747 75 51 30
0.666258 -0.310568 0.278366 73 52 30
0.672382 -0.314403 0.276781 75 53 31
0.67534 -0.315817 0.274762 76 54 34
0.679884 -0.318423 0.272902 69 52 33
0.594432 -0.282632 0.337855 107 79 59
0.610951 -0.295508 0.340508 149 115 88
0.616978 -0.29967 0.33996 159 116 85
0.623771 -0.304444 0.339572 161 114 82
0.624533 -0.304244 0.337443 160 113 81
0.62226 -0.301558 0.334487 156 112 77
0.624519 -0.302588 0.332774 153 108 77
0.626018 -0.302991 0.330845 147 107 73
0.626751 -0.302769 0.328712 145 105 71
0.622905 -0.298831 0.325428 145 105 71
0.622853 -0.297983 0.323127 144 104 69
0.624322 -0.298365 0.321198 140 100 66
0.626553 -0.299358 0.319441 138 98 64
0.628014 -0.299727 0.317491 132 92 56
0.631008 -0.301323 0.315877 126 88 53
0.631693 -0.301062 0.313732 121 84 48
0.630059 -0.29895 0.311089 121 84 48
0.625324 -0.294376 0.307822 116 80 47
0.625204 -0.29349 0.305551 113 77 46
0.625075 -0.292599 0.303287 100 67 35
0.626488 -0.292931 0.30133 94 60 30
0.631002 -0.295708 0.29995 87 55 27
0.634742 -0.297862 0.298389 84 52 24
0.637706 -0.299394 0.296656 80 50 24
0.634431 -0.296027 0.293818 75 47 20
0.635824 -0.296325 0.291805 75 47 20
0.635648 -0.295396 0.289528 75 47 20
0.636245 -0.295072 0.287381 76 48 21
0.636836 -0.294743 0.285233 75 50 22
0.642915 -0.298668 0.283899 76 48 23
0.648215 -0.301971 0.282399 76 48 25
0.652733 -0.304655 0.280743 73 47 24
0.658829 -0.30854 0.279258 75 50 26
0.661776 -0.309986 0.277314 75 51 30
0.668671 -0.31445 0.275835 73 52 30
0.67162 -0.315874 0.273825 73 54 33
0.680901 -0.322122 0.272511 75 56 37
0.684646 -0.324125 0.270509 59 43 30
0.602959 -0.292405 0.340179 140 101 71
0.607457 -0.295351 0.339241 148 108 78
0.611963 -0.298288 0.338264 156 113 80
0.617979 -0.302464 0.337673 156 111 79
0.622501 -0.305382 0.336611 155 110 78
0.621745 -0.303931 0.334073 152 110 74
0.623245 -0.304343 0.332153 151 109 73
0.620954 -0.301638 0.329234 150 108 74
0.620923 -0.300796 0.326926 147 107 73
0.616322 -0.296221 0.323481 145 105 71
0.615503 -0.294751 0.32102 144 104 69
0.617722 -0.29576 0.319303 141 102 65
0.620704 -0.297382 0.317749 138 97 66
0.621391 -0.297137 0.315645 136 94 60
0.622837 -0.297505 0.313711 127 89 56
0.624279 -0.297868 0.311767 123 86 53
0.621106 -0.294513 0.30883 120 84 50
0.616375 -0.289922 0.305607 116 79 46
0.616246 -0.289037 0.303376 107 71 38
0.618424 -0.289999 0.301609 97 63 34
0.619826 -0.290337 0.299677 89 55 25
0.62587 -0.294364 0.29861 85 53 25
0.630371 -0.297148 0.297204 85 53 25
0.634877 -0.299922 0.29576 80 50 22
0.632389 -0.297155 0.293069 76 46 20
0.634557 -0.29807 0.291189 74 46 19
0.632824 -0.295911 0.28866 74 46 19
0.632639 -0.294975 0.286398 75 47 20
0.632445 -0.294035 0.284142 75 47 20
0.633026 -0.293703 0.282008 75 46 24
0.638301 -0.297031 0.280543 72 47 21
0.642797 -0.299735 0.278923 73 47 26
0.651225 -0.305477 0.277785 74 48 25
0.655731 -0.308155 0.276069 73 49 27
0.664966 -0.314473 0.274894 74 50 29
0.668694 -0.316515 0.272984 72 51 29
0.675581 -0.320976 0.2714 73 54 33
0.688799 -0.330272 0.270435 67 49 32
0.60469 -0.297403 0.342745 155 112 81
0.610675 -0.301625 0.342249 157 115 81
0.612937 -0.302699 0.340605 155 112 81
0.609957 -0.299378 0.337437 156 113 80
0.613707 -0.301695 0.336208 156 113 80
0.618212 -0.30463 0.335155 155 112 79
0.616703 -0.302547 0.332431 152 110 76
0.617441 -0.302339 0.330327 153 111 78
0.616662 -0.300874 0.327829 152 110 76
0.616628 -0.300031 0.325537 149 106 73
0.612795 -0.29606 0.322304 146 106 72
0.612736 -0.295209 0.320042 144 104 69
0.614949 -0.296225 0.31833 140 100 66
0.618682 -0.29848 0.316959 138 97 66
0.618606 -0.297612 0.314684 135 92 61
0.619284 -0.297362 0.312586 127 89 56
0.619955 -0.297107 0.310486 123 86 53
0.616022 -0.293117 0.307405 121 83 50
0.610534 -0.287886 0.30405 115 79 46
0.6104 -0.287 0.301842 111 73 40
0.611797 -0.287351 0.299944 99 60 32
0.61396 -0.288315 0.298186 86 49 23
0.61921 -0.291747 0.296989 83 51 23
0.624465 -0.295168 0.295745 88 53 26
0.628954 -0.29796 0.294318 85 53 25
0.63112 -0.298888 0.292453 80 48 22
0.631731 -0.298575 0.290313 74 46 19
0.63389 -0.299489 0.288422 74 46 19
0.629819 -0.29547 0.285541 74 46 19
0.628846 -0.293913 0.283176 75 47 20
0.630984 -0.294811 0.281282 74 45 23
0.637027 -0.298771 0.279925 72 47 21
0.636034 -0.297197 0.277553 72 46 23
0.649134 -0.30665 0.277049 70 47 23
0.65206 -0.308119 0.275133 72 48 24
0.655769 -0.310191 0.273289 73 49 25
0.661839 -0.314084 0.271688 70 49 26
0.674213 -0.322845 0.270737 72 53 30
0.612243 -0.308272 0.349496 154 113 88
0.620449 -0.31442 0.349683 153 110 82
0.620511 -0.313615 0.347317 157 114 83
0.618332 -0.310912 0.344291 159 116 85
0.616135 -0.308206 0.341294 160 114 84
0.610189 -0.302346 0.337253 162 117 85
0.61169 -0.302785 0.335381 160 115 82
0.615434 -0.305106 0.33412 157 114 83
0.615429 -0.304273 0.331812 156 113 80
0.615416 -0.303436 0.329509 157 115 81
0.61464 -0.301966 0.327017 155 113 77
0.616115 -0.302375 0.325113 155 112 79
0.613053 -0.299013 0.322072 148 108 74
0.611485 -0.296904 0.319434 146 106 72
0.613693 -0.297925 0.317721 141 101 67
0.6159 -0.29894 0.315991 138 98 64
0.613542 -0.296192 0.313206 130 93 58
0.614976 -0.296569 0.311295 127 89 56
0.614879 -0.295691 0.309045 123 85 55
0.61019 -0.29106 0.305828 122 84 52
0.610069 -0.290176 0.303612 123 86 53
0.610705 -0.28991 0.301556 116 79 46
0.610568 -0.289016 0.299348 104 63 36
0.613495 -0.290608 0.297735 87 52 25
0.617963 -0.293436 0.296384 82 47 22
0.621664 -0.295632 0.294855 85 51 26
0.624595 -0.297198 0.293159 87 55 27
0.627525 -0.298755 0.291439 84 52 24
0.629682 -0.299683 0.289567 77 50 20
0.62951 -0.298745 0.287305 76 46 20
0.624672 -0.294091 0.284324 75 47 20
0.623698 -0.29253 0.281981 74 45 23
0.624271 -0.292201 0.279877 72 47 21
0.625615 -0.292485 0.277882 72 47 21
0.629296 -0.29461 0.276195 71 45 22
0.644698 -0.305963 0.276006 70 47 23
0.648395 -0.308059 0.274201 70 47 23
0.656009 -0.313217 0.272835 69 46 22
0.665202 -0.319585 0.271582 69 47 25
0.676763 -0.327773 0.270505 71 50 27
0.607267 -0.306832 0.347712 152 109 82
0.615444 -0.313012 0.347906 157 114 85
0.613281 -0.310302 0.344888 158 116 82
0.610358 -0.306956 0.341676 161 116 83
0.609644 -0.305507 0.339149 165 118 86
0.606686 -0.302155 0.335996 170 121 87
0.605198 -0.300067 0.333297 169 123 88
0.608177 -0.30177 0.331852 164 120 85
0.610409 -0.302833 0.330181 160 118 85
0.609642 -0.301363 0.3277 159 117 81
0.608112 -0.299257 0.325038 159 117 83
0.609576 -0.299672 0.32316 158 116 82
0.60727 -0.296928 0.320337 155 112 79
0.604947 -0.294182 0.317541 148 108 74
0.606386 -0.294582 0.315673 145 105 71
0.607821 -0.294977 0.313795 139 99 65
0.605461 -0.29222 0.311047 133 93 61
0.607642 -0.293233 0.309338 123 86 53
0.606778 -0.291727 0.306954 123 82 50
0.605141 -0.289589 0.304422 120 80 50
0.605016 -0.288704 0.302226 118 79 49
0.606411 -0.289067 0.300343 113 75 44
0.604741 -0.28692 0.297852 101 65 36
0.606122 -0.287272 0.295966 87 52 25
0.609802 -0.289494 0.294498 79 47 21
0.61041 -0.289208 0.292444 75 45 19
0.614859 -0.292038 0.291063 80 50 22
0.615459 -0.291739 0.288989 80 50 22
0.618368 -0.293303 0.287294 79 49 22
0.618185 -0.29237 0.285083 76 46 20
0.616445 -0.290188 0.282638 72 44 22
0.617017 -0.289869 0.280562 72 44 22
0.621462 -0.292647 0.279046 70 44 19
0.619695 -0.290454 0.276624 69 46 22
0.623361 -0.292595 0.274956 69 46 22
0.636377 -0.302152 0.274467 69 46 22
0.641617 -0.305502 0.272885 69 46 22
0.641395 -0.304516 0.270604 69 46 22
0.647419 -0.30846 0.269045 68 46 24
0.655014 -0.313623 0.267604 70 48 28
0.559705 -0.269145 0.334659 156 117 91
0.613332 -0.314922 0.349392 156 113 84
0.619291 -0.319217 0.348859 160 114 84
0.61936 -0.318405 0.346488 160 118 87
0.617202 -0.315676 0.343465 163 118 88
0.613545 -0.311672 0.340037 168 118 87
0.611349 -0.308939 0.337076 171 122 88
0.60765 -0.304931 0.333726 172 123 92
0.608395 -0.304735 0.331646 167 122 89
0.610625 -0.305803 0.329965 164 120 87
0.608371 -0.303056 0.327085 163 121 85
0.607597 -0.301576 0.32462 159 117 83
0.60906 -0.301993 0.322736 159 117 83
0.605262 -0.297969 0.319542 157 115 79
0.602947 -0.295211 0.316756 155 112 79
0.604383 -0.295615 0.31489 148 108 74
0.605815 -0.296012 0.313014 145 103 67
0.604219 -0.293876 0.310446 139 97 64
0.605638 -0.294263 0.308568 132 92 60
0.603261 -0.291489 0.305863 124 83 54
0.603906 -0.291235 0.303825 115 74 44
0.602262 -0.289086 0.301318 111 72 42
0.601367 -0.287565 0.298984 105 66 36
0.603512 -0.288556 0.297259 99 62 34
0.604892 -0.288911 0.295372 88 53 26
0.607798 -0.290517 0.293758 78 45 22
0.608404 -0.290232 0.291709 76 46 20
0.610539 -0.291195 0.289925 75 45 19
0.611904 -0.291524 0.287996 79 49 20
0.614803 -0.293099 0.28631 79 49 22
0.613848 -0.291539 0.283988 76 46 20
0.612111 -0.28935 0.281562 71 43 21
0.614225 -0.290281 0.279731 71 45 20
0.617883 -0.292452 0.278106 71 45 20
0.61457 -0.289005 0.275485 71 45 24
0.618998 -0.291783 0.273935 69 46 22
0.630421 -0.300147 0.273244 70 47 23
0.636419 -0.304139 0.271774 69 48 23
0.631522 -0.299429 0.26896 66 45 21
0.645317 -0.309601 0.26832 68 44 25
0.652111 -0.314171 0.266789 66 46 28
0.576106 -0.286051 0.339692 156 121 99
0.612018 -0.316659 0.348756 158 117 87
0.617961 -0.320975 0.348215 162 118 90
0.616561 -0.318879 0.345402 163 120 89
0.615147 -0.316779 0.342608 163 118 86
0.611502 -0.312757 0.339191 171 121 90
0.607096 -0.308094 0.335606 174 122 90
0.604146 -0.304709 0.332485 172 123 90
0.603402 -0.303236 0.330008 172 125 91
0.604877 -0.303674 0.328145 171 123 92
0.602625 -0.300917 0.325292 167 125 92
0.604086 -0.301345 0.323428 165 123 87
0.604048 -0.300492 0.321178 164 122 86
0.601006 -0.297089 0.318194 158 118 81
0.600946 -0.296229 0.31597 157 115 81
0.601627 -0.296 0.313929 155 112 79
0.603054 -0.296401 0.312061 151 109 75
0.601463 -0.294257 0.309503 148 105 72
0.603632 -0.295282 0.307798 146 104 73
0.601263 -0.292496 0.305101 141 98 67
0.601149 -0.291609 0.302909 135 92 61
0.600269 -0.290085 0.300567 127 84 53
0.598618 -0.287925 0.298088 117 77 45
0.598475 -0.287026 0.295926 102 66 35
0.597561 -0.285492 0.293625 92 55 29
0.599688 -0.286479 0.291899 84 49 25
0.600285 -0.286198 0.289883 77 44 19
0.603171 -0.287802 0.288264 75 45 19
0.603758 -0.287509 0.286235 76 46 20
0.608175 -0.290356 0.28483 75 45 19
0.607987 -0.289421 0.282658 76 46 20
0.605481 -0.286599 0.28014 72 45 20
0.606812 -0.286912 0.27822 71 45 20
0.611225 -0.289726 0.276731 71 45 20
0.604827 -0.283764 0.273717 69 46 22
0.609233 -0.286564 0.272203 69 46 22
0.619838 -0.294351 0.27144 70 47 23
0.621932 -0.29525 0.269534 66 45 21
0.616258 -0.289906 0.266702 66 45 23
0.628443 -0.298894 0.265937 66 45 25
0.574896 -0.287638 0.339106 154 121 100
0.61362 -0.320966 0.34903 159 118 89
0.618088 -0.324014 0.348018 162 119 88
0.615232 -0.320622 0.344759 164 119 89
0.613824 -0.318514 0.341969 167 120 88
0.609458 -0.313831 0.338345 171 121 90
0.605803 -0.309789 0.334981 173 125 89
0.602864 -0.306388 0.331865 173 125 89
0.602126 -0.304909 0.329392 175 126 90
0.602116 -0.304068 0.32713 172 125 91
0.598385 -0.300018 0.323899 169 124 92
0.598351 -0.299169 0.321667 165 123 87
0.597563 -0.297676 0.319252 162 123 86
0.59527 -0.294899 0.316484 163 121 85
0.595204 -0.294039 0.314284 162 120 84
0.596627 -0.294451 0.312442 157 115 81
0.598796 -0.295496 0.310764 157 115 81
0.597207 -0.293344 0.308225 151 109 75
0.598614 -0.293739 0.306367 146 104 73
0.597002 -0.29158 0.303855 143 100 69
0.596887 -0.290692 0.301679 141 98 67
0.596006 -0.289163 0.299355 136 93 62
0.5936 -0.28636 0.296744 134 91 60
0.59497 -0.286731 0.294895 124 89 55
0.593298 -0.284558 0.292465 115 77 47
0.595416 -0.285553 0.290751 92 55 27
0.594486 -0.284007 0.288481 84 50 23
0.597358 -0.285622 0.286881 79 47 21
0.599467 -0.286597 0.28513 76 46 20
0.603104 -0.288829 0.283611 75 45 19
0.60138 -0.286631 0.281219 72 45 18
0.60041 -0.285062 0.278965 72 45 20
0.603271 -0.286642 0.277288 71 45 20
0.599978 -0.283175 0.274717 70 47 23
0.594357 -0.277823 0.271867 69 46 22
0.597197 -0.279388 0.270191 69 46 22
0.60467 -0.284711 0.269076 69 46 22
0.602103 -0.281864 0.266674 69 45 24
0.598747 -0.278391 0.264211 66 45 23
0.538798 -0.258161 0.327444 151 116 91
0.59845 -0.310415 0.34407 157 118 91
0.610905 -0.320595 0.34558 163 120 89
0.60878 -0.317837 0.342576 164 119 89
0.609566 -0.317658 0.340463 168 121 91
0.606678 -0.314247 0.337287 171 121 90
0.603769 -0.310833 0.334146 175 123 91
0.601577 -0.308062 0.331244 175 126 90
0.600105 -0.305933 0.328572 176 126 93
0.600097 -0.305089 0.326315 176 126 93
0.594898 -0.299733 0.322707 173 126 90
0.594862 -0.298882 0.320487 173 128 93
0.593332 -0.296741 0.3179 164 122 86
0.591788 -0.294597 0.315334 163 121 85
0.592466 -0.294376 0.313325 163 121 85
0.593884 -0.294792 0.31149 160 118 85
0.593803 -0.29392 0.309302 155 112 79
0.594461 -0.293683 0.307289 152 107 74
0.595114 -0.293442 0.305274 148 105 72
0.592754 -0.290635 0.302616 142 99 66
0.591883 -0.289106 0.3003 138 96 64
0.592509 -0.288852 0.298303 134 91 58
0.591619 -0.287315 0.296006 126 86 54
0.59223 -0.287051 0.294014 120 80 48
0.590563 -0.28487 0.291595 114 76 46
0.591158 -0.284597 0.289612 102 66 35
0.590986 -0.283683 0.287492 90 54 27
0.590046 -0.282129 0.285249 80 48 22
0.592142 -0.283114 0.283526 75 45 19
0.59271 -0.282822 0.281541 74 44 18
0.593272 -0.282525 0.279556 72 44 22
0.593827 -0.282222 0.277568 71 43 19
0.595908 -0.283181 0.275803 71 45 20
0.594919 -0.281602 0.273591 69 46 22
0.592384 -0.278757 0.271185 69 46 22
0.595985 -0.280962 0.26961 69 46 22
0.588442 -0.304292 0.340733 154 115 89
0.608115 -0.321019 0.344491 162 118 90
0.607453 -0.319547 0.341936 163 118 88
0.61116 -0.321964 0.340683 168 118 87
0.608288 -0.318536 0.337498 170 120 89
0.606129 -0.315754 0.334555 172 123 90
0.603953 -0.31297 0.33164 175 126 90
0.60176 -0.310182 0.328753 175 125 92
0.598813 -0.306745 0.325696 177 128 94
0.596584 -0.303952 0.322868 174 128 91
0.595078 -0.301804 0.320257 172 125 89
0.593557 -0.299653 0.317666 168 123 88
0.592764 -0.298144 0.315277 167 122 87
0.591217 -0.295987 0.312724 161 122 85
0.591888 -0.295761 0.310714 159 117 83
0.591063 -0.294241 0.308361 155 112 79
0.590972 -0.293362 0.306189 150 106 73
0.590125 -0.291834 0.303859 145 103 67
0.590016 -0.290947 0.301702 142 99 68
0.587647 -0.288127 0.299085 138 96 62
0.588269 -0.287874 0.297103 132 92 60
0.587379 -0.286334 0.294824 129 88 56
0.587985 -0.286072 0.292847 125 85 53
0.587076 -0.284524 0.290587 120 82 49
0.589935 -0.286173 0.289025 107 71 40
0.591281 -0.286535 0.287174 92 55 29
0.590348 -0.284973 0.284925 79 47 19
0.59396 -0.28724 0.283444 76 43 20
0.594533 -0.286945 0.281444 72 45 20
0.592053 -0.284096 0.278972 71 43 19
0.590321 -0.281883 0.276642 70 44 19
0.590867 -0.281577 0.274666 70 44 19
0.586819 -0.277452 0.272048 71 45 20
0.581221 -0.27206 0.269269 69 46 22
0.584801 -0.274285 0.267739 70 47 23
0.590106 -0.307723 0.338761 154 113 84
0.598132 -0.314078 0.338902 158 115 84
0.603997 -0.318466 0.338327 166 119 87
0.604771 -0.318283 0.336228 169 119 88
0.602618 -0.315491 0.3333 171 121 90
0.601178 -0.313345 0.330604 172 123 90
0.598992 -0.310547 0.327728 173 124 91
0.596054 -0.307095 0.324685 175 125 92
0.593096 -0.303642 0.321678 174 128 91
0.590856 -0.300836 0.318893 172 125 91
0.588599 -0.298028 0.316137 171 124 90
0.587805 -0.296516 0.313769 168 123 88
0.586999 -0.294999 0.311415 164 122 86
0.586924 -0.294127 0.309247 160 118 85
0.586096 -0.292603 0.306915 156 113 80
0.584514 -0.290429 0.304431 150 108 74
0.586645 -0.291484 0.302778 145 103 69
0.587282 -0.291241 0.300791 142 99 68
0.58492 -0.28841 0.298186 138 97 66
0.585539 -0.288158 0.296212 133 93 61
0.584652 -0.286612 0.293943 127 89 56
0.58225 -0.283775 0.291401 123 86 53
0.580586 -0.28158 0.289027 115 79 48
0.582677 -0.282598 0.287352 110 75 41
0.584012 -0.282967 0.28553 99 62 34
0.580807 -0.279478 0.28293 81 50 22
0.585912 -0.283045 0.281734 75 45 21
0.586475 -0.282755 0.279768 72 45 20
0.587032 -0.28246 0.277802 70 44 19
0.585302 -0.28024 0.275495 70 44 19
0.588127 -0.281855 0.273865 70 44 19
0.585616 -0.27899 0.271473 70 44 19
0.58538 -0.278039 0.269415 70 44 19
0.584371 -0.276448 0.267267 69 46 22
0.59024 -0.280584 0.26598 72 48 24
