ply
format ascii 1.0
comment Created by Open3D
element vertex 949
property double x
property double y
property double z
property uchar red
property uchar green
property uchar blue
end_header
-0.00109231 -0.567564 0.218934 143 137 132
0.0124536 -0.571637 0.194667 175 171 168
-0.040643 -0.562192 0.20511 160 156 155
0.0101795 -0.571821 0.193285 134 128 123
0.0120108 -0.571737 0.192839 165 159 155
0.0192595 -0.570329 0.191015 164 160 155
0.0284733 -0.570644 0.188812 170 166 158
0.0304911 -0.572475 0.188423 171 168 160
0.0324242 -0.573303 0.188001 167 164 158
0.0342609 -0.573129 0.18755 167 164 158
0.0379321 -0.572757 0.186648 170 166 160
0.0398814 -0.573554 0.186222 170 166 160
0.041956 -0.575334 0.185818 170 166 160
0.0439228 -0.576113 0.185386 172 168 163
-0.0427563 -0.560162 0.203622 167 159 162
-0.0410237 -0.561286 0.203255 165 159 159
-0.0392322 -0.561408 0.202824 163 157 154
-0.0374402 -0.561522 0.202393 164 158 153
-0.0356479 -0.561629 0.201962 165 159 155
-0.0338945 -0.562726 0.201589 165 159 155
-0.0320976 -0.562819 0.201156 167 161 156
-0.0230925 -0.562173 0.198935 165 160 153
-0.0177425 -0.569289 0.197984 168 162 155
-0.0159197 -0.568317 0.197494 168 162 155
-0.0140989 -0.569336 0.197102 168 162 155
-0.00861897 -0.57035 0.195823 167 159 155
-0.00681148 -0.569341 0.195335 163 157 152
-0.00501168 -0.568325 0.19485 162 156 151
-0.00316802 -0.569299 0.194451 165 159 155
-0.00137617 -0.568269 0.193966 165 160 153
0.000474885 -0.569228 0.193565 168 162 155
0.00237075 -0.571178 0.193202 168 162 155
0.00424052 -0.572122 0.192795 168 162 155
0.0079048 -0.571991 0.191903 168 162 155
0.0097365 -0.571914 0.191456 154 148 143
0.0115679 -0.57183 0.19101 170 164 159
0.0133385 -0.570741 0.190529 171 165 160
0.0169917 -0.570535 0.189637 164 159 151
0.0188177 -0.570422 0.189191 170 164 157
0.0207188 -0.571297 0.188774 170 166 160
0.0226272 -0.572165 0.188356 171 167 162
0.0244593 -0.572028 0.187908 170 166 160
0.026378 -0.57288 0.187487 170 166 160
0.0282128 -0.572728 0.187037 170 166 160
0.0301418 -0.573564 0.186613 171 168 160
0.0320778 -0.574392 0.186187 170 166 158
0.0340207 -0.575211 0.185759 170 166 158
0.0357583 -0.574035 0.185284 170 166 158
0.0375974 -0.573845 0.184832 170 166 160
0.0394359 -0.573647 0.18438 170 166 158
0.0415088 -0.575428 0.183968 172 169 161
0.0433532 -0.575215 0.183514 173 170 164
0.0451968 -0.574994 0.183061 174 170 167
0.0471687 -0.575758 0.182624 174 171 165
0.0491473 -0.576512 0.182185 174 171 165
0.0508591 -0.575278 0.181714 174 170 167
0.052703 -0.575027 0.181259 174 171 165
0.0548343 -0.576747 0.180831 174 170 167
0.0568318 -0.577468 0.180387 175 171 168
0.0588359 -0.578181 0.179941 177 173 167
0.0657477 -0.574044 0.178083 181 178 172
0.0674159 -0.572747 0.17762 171 167 162
-0.0431303 -0.559249 0.201778 167 159 162
-0.0414025 -0.560373 0.201407 167 160 160
-0.0396147 -0.560495 0.200977 165 159 157
-0.0378267 -0.560609 0.200547 167 161 156
-0.0360822 -0.561713 0.200172 165 159 155
-0.0343701 -0.563808 0.19985 165 159 155
-0.0325694 -0.5639 0.199416 165 159 155
-0.0306052 -0.558995 0.198719 167 161 156
-0.0288518 -0.560071 0.198341 167 161 156
-0.0270656 -0.560141 0.19791 167 161 156
-0.0252791 -0.560204 0.197478 167 161 156
-0.0234923 -0.56026 0.197047 165 159 155
-0.0217593 -0.564303 0.196807 160 154 149
-0.0199762 -0.566343 0.196465 167 161 156
-0.0181718 -0.567376 0.196074 169 163 158
-0.0163558 -0.566404 0.195589 168 162 155
-0.0145435 -0.567423 0.195195 168 162 155
-0.0127293 -0.567435 0.194756 168 162 155
-0.00907406 -0.569436 0.193959 168 162 155
-0.00725218 -0.569426 0.193517 167 161 154
-0.00545148 -0.56841 0.193036 165 160 153
-0.0036336 -0.568386 0.192594 167 161 154
-0.00184458 -0.567355 0.192115 168 162 155
1.69403e-06 -0.568314 0.191711 168 162 155
0.00185551 -0.569267 0.191304 168 162 157
0.00371678 -0.570211 0.190896 168 162 157
0.00558548 -0.571148 0.190486 168 162 157
0.00741364 -0.571079 0.190041 168 162 157
0.00924156 -0.571002 0.189595 165 159 155
0.0110691 -0.570918 0.189149 167 161 154
0.012837 -0.569828 0.188674 168 162 155
0.0145968 -0.568732 0.188199 168 162 155
0.0163486 -0.567629 0.187727 169 163 156
0.0183048 -0.56951 0.187338 170 164 159
0.0201266 -0.569389 0.186893 171 165 160
0.0221049 -0.571254 0.186499 170 166 160
0.0239333 -0.571118 0.186051 168 165 159
0.0259335 -0.572966 0.185651 170 166 160
0.0277684 -0.572814 0.185202 170 166 160
0.0296965 -0.57365 0.184774 171 167 162
0.0316317 -0.574478 0.184344 171 167 162
0.0335737 -0.575298 0.183913 171 168 160
0.0353123 -0.574121 0.183441 172 169 161
0.0371515 -0.573931 0.18299 172 169 161
0.03899 -0.573734 0.182538 172 169 161
0.0409445 -0.574522 0.182103 173 170 162
0.0429058 -0.575302 0.181665 175 169 164
0.0448738 -0.576073 0.181226 173 170 164
0.0468486 -0.576836 0.180785 173 169 166
0.0485662 -0.575608 0.180317 174 170 167
0.0504111 -0.575364 0.179862 175 171 168
0.052255 -0.575113 0.179407 175 172 166
0.0542413 -0.575844 0.178962 175 171 168
0.0562341 -0.576567 0.178516 177 173 167
0.0582336 -0.57728 0.178067 177 173 167
0.0599301 -0.576009 0.177603 179 175 170
0.0617764 -0.57572 0.177147 179 175 170
0.0634593 -0.574435 0.176685 180 176 171
0.0651335 -0.573145 0.176226 182 179 173
0.0669689 -0.572834 0.175771 180 176 171
0.0691503 -0.574485 0.175322 182 179 173
-0.0348064 -0.563885 0.198052 167 161 156
-0.0330056 -0.563977 0.197618 165 159 155
-0.0256895 -0.559282 0.195649 167 161 156
-0.0239067 -0.559337 0.195219 167 161 156
-0.0149816 -0.568499 0.193425 168 162 155
-0.00951491 -0.569514 0.192141 168 162 155
-0.00769301 -0.569504 0.191699 168 162 155
-0.00589137 -0.568488 0.191221 167 161 154
-0.00228349 -0.567432 0.190304 167 161 154
-0.000438079 -0.568392 0.189896 168 162 155
0.00137937 -0.568345 0.189454 168 162 157
0.00327515 -0.570289 0.189074 169 163 158
0.00701816 -0.572155 0.188244 168 162 157
0.00890074 -0.573076 0.187826 170 164 159
0.0107907 -0.57399 0.187406 170 164 159
0.012571 -0.5729 0.186931 170 164 159
0.0143433 -0.571803 0.186458 169 163 158
0.0161736 -0.571697 0.186011 170 164 159
0.0180734 -0.57258 0.185588 170 164 159
0.0199067 -0.572458 0.18514 171 165 160
0.0218171 -0.573326 0.184714 172 166 162
0.0236532 -0.573189 0.184265 171 165 160
0.025574 -0.574041 0.183835 171 165 160
0.0273237 -0.572893 0.183366 172 166 162
0.0293438 -0.574724 0.182953 172 166 162
0.0313787 -0.576547 0.182536 172 166 162
0.0333275 -0.577366 0.182099 172 169 161
0.0350747 -0.576188 0.181629 172 169 161
0.0369217 -0.575998 0.181176 172 169 161
0.0387678 -0.5758 0.180723 173 170 162
0.0407291 -0.576587 0.180282 173 170 164
0.0426971 -0.577366 0.179839 174 171 165
0.044672 -0.578137 0.179394 174 171 165
0.0465263 -0.577907 0.178938 174 170 167
0.0481177 -0.575688 0.178464 174 170 167
0.0498278 -0.574453 0.178002 175 171 168
0.0518067 -0.575193 0.177556 175 172 166
0.0537921 -0.575924 0.177107 175 171 168
0.0559304 -0.577635 0.176662 177 173 167
0.0579328 -0.578349 0.176209 178 174 169
0.0596341 -0.577077 0.175748 178 174 169
0.0614844 -0.576787 0.175291 179 175 170
0.0633335 -0.576489 0.174834 180 176 171
0.0651815 -0.576183 0.174377 181 178 172
0.0670282 -0.57587 0.17392 182 179 173
0.0692194 -0.577519 0.17346 182 179 173
-0.0440562 -0.560391 0.198265 169 162 162
-0.0405351 -0.561637 0.197455 169 162 162
-0.0387432 -0.561751 0.197023 167 160 158
-0.0369968 -0.562856 0.196639 168 161 159
-0.0352003 -0.562956 0.196207 168 161 159
-0.0334035 -0.563049 0.195774 169 163 158
-0.0313649 -0.556145 0.195026 169 162 160
-0.0296249 -0.557221 0.194642 168 162 157
-0.0278501 -0.55729 0.194214 167 161 156
-0.0260752 -0.557353 0.193785 168 162 157
-0.0242999 -0.557408 0.193356 168 162 157
-0.0225706 -0.560454 0.193048 168 162 157
-0.0208295 -0.564491 0.192773 165 159 155
-0.0190499 -0.567523 0.192453 167 161 154
-0.0172358 -0.56755 0.192014 167 161 154
-0.0154216 -0.56757 0.191574 167 161 154
-0.0136074 -0.567582 0.191135 168 162 155
-0.0117854 -0.568587 0.19073 167 161 154
-0.0099904 -0.566586 0.190221 168 162 155
-0.00816465 -0.567576 0.189815 167 161 154
-0.00635049 -0.567558 0.189375 168 162 155
-0.00453647 -0.567534 0.188934 169 163 156
-0.00269565 -0.568501 0.188524 168 162 155
-0.000847313 -0.569461 0.188111 168 162 155
0.00100852 -0.570413 0.187696 169 163 158
0.00287181 -0.571358 0.187279 169 163 158
0.00478475 -0.573294 0.186887 169 163 158
0.00657459 -0.572226 0.186415 169 163 158
0.00850614 -0.574146 0.186017 169 163 158
0.0103453 -0.574061 0.185569 169 163 158
0.0121841 -0.573969 0.185121 170 164 159
0.0140225 -0.57387 0.184672 170 164 159
0.0158606 -0.573762 0.184224 171 165 160
0.0178362 -0.575643 0.183814 171 165 160
0.019681 -0.57552 0.183364 171 165 160
0.0215253 -0.57539 0.182913 171 165 160
0.0234496 -0.57625 0.182479 170 164 159
0.025381 -0.577101 0.182044 172 166 162
0.0271431 -0.575952 0.181576 172 166 162
0.029173 -0.577783 0.181152 172 166 162
0.0312175 -0.579605 0.180725 172 166 162
0.0332765 -0.581418 0.180293 172 169 161
0.0351434 -0.581233 0.179836 172 169 161
0.0370095 -0.58104 0.179378 172 169 161
0.0388748 -0.58084 0.17892 173 170 162
0.0408542 -0.581626 0.178471 173 170 162
0.0463281 -0.579963 0.177089 174 171 165
0.0480592 -0.578734 0.176626 174 171 165
-0.0443027 -0.557462 0.196336 168 161 161
-0.0425854 -0.558586 0.195956 169 162 162
-0.0408055 -0.558707 0.195527 169 162 162
-0.0390758 -0.559818 0.195143 168 161 159
-0.0373382 -0.560922 0.194757 168 161 159
-0.0355924 -0.56202 0.194369 168 161 159
-0.0337602 -0.561114 0.193895 169 163 158
-0.0317936 -0.556206 0.193257 169 163 158
-0.030023 -0.556283 0.19283 169 163 158
-0.0282521 -0.556353 0.192403 169 163 156
-0.026481 -0.556415 0.191975 168 162 157
-0.0247096 -0.55647 0.191547 167 161 156
-0.0229868 -0.559516 0.191228 167 161 156
-0.0212658 -0.564554 0.190974 167 161 156
-0.0194976 -0.568585 0.190677 168 160 154
-0.0176844 -0.569612 0.19027 168 160 154
-0.0158625 -0.569632 0.189829 169 161 155
-0.0140406 -0.569644 0.189388 168 160 154
-0.012212 -0.570649 0.188977 169 161 155
-0.0103968 -0.569647 0.188504 168 162 155
-0.00856047 -0.570637 0.188091 168 162 155
-0.00671654 -0.571619 0.187676 168 162 155
-0.00488713 -0.571594 0.187232 168 162 155
-0.00303195 -0.572561 0.186814 168 162 155
-0.00122874 -0.571523 0.186343 169 163 156
0.000633839 -0.572475 0.185923 168 162 155
0.00250389 -0.573419 0.1855 169 163 156
0.00442264 -0.575355 0.185098 169 163 156
0.00622115 -0.574286 0.184628 169 163 156
0.00815852 -0.576207 0.184221 170 164 159
0.0100581 -0.57712 0.183791 170 164 159
0.011965 -0.578026 0.183359 170 164 159
0.0138793 -0.578923 0.182924 170 164 159
0.0158008 -0.579813 0.182488 171 165 160
0.0177294 -0.580695 0.18205 171 165 160
0.0196653 -0.581568 0.18161 171 165 160
0.0216083 -0.582433 0.181168 171 165 160
0.0233994 -0.581297 0.180697 172 166 162
0.0251822 -0.580154 0.180229 174 168 163
0.027044 -0.58 0.179773 172 166 162
0.0290874 -0.58183 0.179339 172 166 162
0.0311453 -0.583651 0.1789 172 166 162
0.0333165 -0.586458 0.178466 172 169 161
0.0352025 -0.586271 0.178004 172 169 161
0.0370877 -0.586077 0.177542 172 169 161
0.0389722 -0.585874 0.17708 173 170 164
0.0408559 -0.585664 0.176617 173 170 164
0.042621 -0.584454 0.176151 173 170 164
0.0446208 -0.585221 0.175693 174 171 165
0.0463766 -0.583997 0.175229 174 171 165
0.0479947 -0.581773 0.174765 177 171 168
0.0498626 -0.581526 0.174306 175 171 168
0.0518663 -0.582263 0.173846 177 173 167
0.0538767 -0.58299 0.173384 177 173 167
0.0561824 -0.585688 0.172914 177 173 167
0.0583617 -0.587386 0.172443 177 173 167
0.0597952 -0.584133 0.171991 178 174 169
0.0615164 -0.58285 0.171534 179 175 170
0.0632289 -0.581561 0.171079 181 178 172
0.065096 -0.581252 0.170618 181 178 172
0.070023 -0.587509 0.169632 184 180 174
-0.0446066 -0.555522 0.194474 169 162 162
-0.0429573 -0.557643 0.194134 168 161 161
-0.0411812 -0.557764 0.193706 169 162 162
-0.039508 -0.559873 0.19336 168 161 159
-0.0377713 -0.560977 0.19297 168 161 159
-0.0360266 -0.562075 0.192578 169 162 160
-0.0341934 -0.561169 0.192108 169 163 158
-0.0321496 -0.554263 0.191415 169 163 158
-0.0303866 -0.554339 0.190989 169 163 158
-0.0286235 -0.554409 0.190563 169 163 156
-0.02686 -0.554471 0.190137 168 162 155
-0.0250964 -0.554526 0.189711 168 162 157
-0.0234185 -0.55957 0.189448 168 162 157
-0.0217287 -0.566608 0.189238 167 161 156
-0.0199471 -0.56964 0.188893 168 160 156
-0.0181481 -0.573666 0.188571 169 161 157
-0.0163146 -0.575685 0.188184 168 160 154
-0.0144677 -0.576697 0.187765 168 160 154
-0.0126189 -0.576702 0.187317 169 161 155
-0.0107605 -0.577699 0.186895 169 161 155
-0.00890791 -0.577689 0.186445 168 162 155
-0.00703807 -0.578671 0.18602 168 162 155
-0.00522417 -0.576647 0.185522 168 162 155
-0.0033507 -0.577614 0.185096 168 162 155
-0.00152739 -0.576575 0.184624 168 162 155
0.000320749 -0.576528 0.184175 168 162 155
0.00224171 -0.578471 0.183765 169 163 156
0.00421812 -0.581405 0.183369 169 163 158
0.00612892 -0.582334 0.182933 169 163 156
0.0080951 -0.584253 0.182511 169 163 156
0.0100244 -0.585165 0.182069 170 164 159
0.0119054 -0.585071 0.181611 171 165 160
0.0138455 -0.585967 0.181166 170 164 159
0.0157929 -0.586855 0.18072 170 164 159
0.0178146 -0.588733 0.180284 173 164 160
0.0197092 -0.588607 0.179821 173 164 160
0.0216033 -0.588474 0.179358 174 166 162
0.0234969 -0.588332 0.178896 172 166 162
0.0253075 -0.587187 0.178425 174 168 163
0.0272824 -0.588027 0.17797 174 168 163
0.0292644 -0.588859 0.177514 171 168 160
0.0314412 -0.591673 0.177067 172 169 161
0.0335425 -0.593482 0.17661 172 169 161
0.0355567 -0.594288 0.176145 172 168 163
0.0374726 -0.59409 0.175676 172 168 163
0.0394968 -0.594878 0.175208 172 168 163
0.0414149 -0.594664 0.174737 173 170 164
0.0432153 -0.59345 0.174267 174 171 165
0.0451278 -0.593221 0.173798 176 170 165
0.046915 -0.591992 0.17333 175 172 166
0.0484373 -0.588773 0.17287 177 171 166
0.0501998 -0.587531 0.172408 177 171 166
0.0523614 -0.589255 0.171934 178 172 167
0.0542579 -0.588989 0.171468 178 172 167
0.0567271 -0.592674 0.170975 178 172 167
0.0590784 -0.595357 0.170483 178 174 169
0.0606962 -0.593087 0.170026 179 175 170
0.0624525 -0.591799 0.169565 178 174 169
0.0642001 -0.590504 0.169105 180 176 171
0.0661014 -0.59019 0.168636 183 177 172
0.0691649 -0.59677 0.168083 181 178 172
0.07228 -0.603333 0.167516 182 179 173
0.0754469 -0.609879 0.166937 184 180 174
0.0784877 -0.615423 0.166359 184 180 174
0.0815726 -0.620951 0.16577 185 181 176
-0.046259 -0.547459 0.192805 167 159 162
-0.0449066 -0.553574 0.192627 169 162 162
-0.0433272 -0.556693 0.19232 169 162 162
-0.0417242 -0.559806 0.192007 169 162 162
-0.0399927 -0.560918 0.191614 168 161 159
-0.0382532 -0.562023 0.191219 168 161 159
-0.0364606 -0.562122 0.190787 168 161 159
-0.0346266 -0.561216 0.19032 169 163 158
-0.0326136 -0.555308 0.189687 170 164 159
-0.03078 -0.553387 0.189196 169 163 158
-0.0290207 -0.553456 0.188771 169 163 158
-0.0272869 -0.554518 0.188376 168 162 157
-0.0255453 -0.555572 0.187979 168 162 155
-0.02385 -0.559618 0.187667 167 161 156
-0.0222096 -0.569654 0.187515 167 161 154
-0.0204507 -0.575686 0.187236 167 161 154
-0.0186323 -0.579712 0.186893 167 161 154
-0.0167749 -0.580732 0.186468 168 160 154
-0.0149088 -0.582744 0.186064 169 161 155
-0.013037 -0.582749 0.185611 169 161 155
-0.0111653 -0.582747 0.185157 169 161 155
-0.00929356 -0.582737 0.184703 169 161 155
-0.00737267 -0.585718 0.18431 168 162 155
-0.00550984 -0.584693 0.183833 168 162 155
-0.00358256 -0.586659 0.183414 168 162 155
-0.00180757 -0.582621 0.182885 168 162 157
0.000127066 -0.584572 0.182463 168 162 155
0.00204125 -0.585515 0.182022 168 162 155
0.00396287 -0.58645 0.181579 169 163 158
0.00584865 -0.586379 0.18112 169 163 158
0.00796954 -0.591294 0.180726 170 164 159
0.00992477 -0.592205 0.180274 170 164 159
0.0119421 -0.594106 0.179832 170 164 159
0.0139158 -0.595001 0.179375 170 164 159
0.0159591 -0.596885 0.178926 171 165 160
0.0180173 -0.598761 0.178473 173 164 160
0.0199501 -0.598632 0.178001 173 164 160
0.0218825 -0.598496 0.177529 171 165 160
0.0237367 -0.597355 0.177052 172 166 162
0.0255826 -0.596207 0.176576 174 168 163
0.0275057 -0.596048 0.176106 172 166 162
0.0296064 -0.597873 0.175641 172 169 161
0.0316289 -0.598693 0.175171 171 167 162
0.0338519 -0.601496 0.174701 172 168 163
0.0359965 -0.603293 0.174225 172 168 163
0.0380511 -0.604086 0.173746 172 168 163
0.0400044 -0.603876 0.173267 174 171 165
0.0418447 -0.602665 0.172792 173 170 164
0.0436766 -0.601447 0.172318 174 171 165
0.0453803 -0.599229 0.171851 174 171 165
0.0470678 -0.597004 0.171387 174 171 165
0.0484846 -0.592791 0.170941 177 171 166
0.0505256 -0.59353 0.170464 177 171 166
0.0527082 -0.595251 0.169978 178 172 167
0.0550437 -0.597952 0.169477 178 172 167
0.0574009 -0.600643 0.168972 178 174 169
0.0596336 -0.602333 0.168472 178 174 169
0.0617302 -0.603024 0.167981 178 174 171
0.0641411 -0.605682 0.167462 179 175 172
0.065785 -0.603391 0.167007 179 175 172
0.0683816 -0.607016 0.166466 180 176 171
0.073321 -0.624433 0.165695 181 178 172
0.0780572 -0.639848 0.164924 182 179 173
0.0830859 -0.656217 0.164106 184 180 174
0.0884181 -0.673539 0.163237 182 179 173
0.0953279 -0.698694 0.162177 184 180 174
-0.0461977 -0.54052 0.190809 167 159 162
-0.0450079 -0.548628 0.190686 169 162 162
-0.0434504 -0.551745 0.190373 169 162 162
-0.0419268 -0.555855 0.190087 168 161 161
-0.0403186 -0.558962 0.189761 167 160 158
-0.0385877 -0.560066 0.189363 168 161 159
-0.0368487 -0.561164 0.188964 168 161 159
-0.0349757 -0.559259 0.188471 169 163 158
-0.0330412 -0.555348 0.187923 169 163 158
-0.0311371 -0.551429 0.187381 171 165 160
-0.029416 -0.552497 0.186986 168 162 157
-0.027687 -0.553558 0.186588 169 163 156
-0.0259731 -0.555612 0.186214 167 161 154
-0.0243197 -0.561656 0.185937 167 161 154
-0.0226962 -0.572693 0.185768 167 161 154
-0.0209313 -0.578726 0.185463 168 162 155
-0.0191127 -0.583753 0.185125 167 161 154
-0.017241 -0.584773 0.184692 168 162 155
-0.015361 -0.588785 0.184318 169 161 155
-0.0134663 -0.58879 0.183859 169 161 155
-0.0115638 -0.589787 0.183417 169 161 155
-0.0096769 -0.588777 0.182939 169 161 155
-0.00773582 -0.591759 0.182529 168 162 155
-0.00581044 -0.592733 0.182082 168 162 155
-0.00387751 -0.593699 0.181633 168 162 155
-0.002072 -0.589659 0.181113 168 162 157
-0.000143219 -0.59061 0.180664 169 163 156
0.00168906 -0.588555 0.180178 168 162 155
0.00369827 -0.591489 0.17975 170 164 159
0.00564551 -0.592415 0.179297 169 163 158
0.00778474 -0.59733 0.178878 169 163 158
0.00981201 -0.599239 0.178425 170 164 159
0.0118542 -0.601139 0.177969 171 165 160
0.0139115 -0.60303 0.177508 170 164 159
0.0159835 -0.604913 0.177044 171 165 160
0.0180705 -0.606787 0.176576 171 165 160
0.0201723 -0.608652 0.176104 172 166 162
0.02207 -0.607516 0.17562 171 165 160
0.0238827 -0.605375 0.175137 171 165 160
0.0259214 -0.606218 0.174659 172 166 162
0.0277983 -0.605059 0.17418 174 168 163
0.0298434 -0.605885 0.173701 174 168 163
0.0319876 -0.607698 0.173217 172 169 161
0.0340504 -0.608507 0.172733 172 168 163
0.0360204 -0.608312 0.172251 172 168 163
0.0380933 -0.609103 0.171764 172 168 163
0.0399583 -0.607897 0.171287 173 170 164
0.0417037 -0.60569 0.170818 173 170 164
0.043318 -0.602484 0.170361 173 170 164
0.0451462 -0.601258 0.169892 174 171 165
0.0469658 -0.600025 0.169426 175 172 166
0.0485241 -0.596801 0.168981 177 171 166
0.0507097 -0.59853 0.168486 177 171 166
0.0526415 -0.598267 0.168012 179 173 169
0.0545722 -0.597996 0.167538 178 172 167
0.0562187 -0.595737 0.167092 178 172 167
0.0581399 -0.595452 0.16662 178 174 171
0.0596123 -0.592192 0.166196 178 174 171
0.0621317 -0.595845 0.165658 178 174 171
0.0638964 -0.594548 0.165204 179 175 172
0.0969977 -0.738996 0.160116 182 179 173
0.107023 -0.780866 0.158537 184 180 174
-0.0448359 -0.539684 0.188655 169 162 162
-0.0435641 -0.54679 0.188463 169 162 162
-0.0420635 -0.550898 0.188167 169 162 162
-0.0405862 -0.556 0.187893 169 162 160
-0.0389691 -0.559101 0.187551 168 161 159
-0.0372817 -0.561197 0.187177 169 163 158
-0.0354927 -0.561289 0.186745 168 162 157
-0.0337817 -0.563372 0.186364 168 162 157
-0.0319845 -0.56345 0.18593 170 164 159
-0.0303128 -0.567517 0.185591 168 162 157
-0.028555 -0.56958 0.185199 168 162 157
-0.026853 -0.574634 0.184869 168 162 155
-0.0250924 -0.578682 0.184509 169 163 156
-0.0233011 -0.582724 0.18414 167 161 154
-0.0214543 -0.584759 0.183726 167 161 154
-0.019609 -0.588786 0.183344 168 162 155
-0.0177237 -0.590806 0.18292 167 161 154
-0.0158237 -0.593819 0.182509 168 160 154
-0.0139068 -0.594824 0.18206 171 162 156
-0.0119684 -0.597821 0.181639 169 161 155
-0.01005 -0.596811 0.181157 169 161 155
-0.0080665 -0.600792 0.180741 168 162 155
-0.00614435 -0.599766 0.180258 169 163 156
-0.00416326 -0.601732 0.17981 169 163 156
-0.00229733 -0.598691 0.179307 169 163 156
-0.000364901 -0.598641 0.178838 168 162 155
0.0015336 -0.597584 0.17836 168 162 155
0.00357443 -0.600517 0.177912 169 163 158
0.00555522 -0.601443 0.177447 170 164 159
0.00767905 -0.605357 0.176995 171 165 160
0.0096861 -0.606266 0.176523 170 164 159
0.0118062 -0.609163 0.176056 173 164 160
0.0138921 -0.611053 0.17558 171 162 158
0.015993 -0.612934 0.175101 170 164 159
0.0180443 -0.613808 0.174617 171 165 160
0.020171 -0.615672 0.174131 171 165 160
0.0220244 -0.613536 0.173646 171 165 160
0.0237861 -0.610397 0.173167 172 166 162
0.0256039 -0.608247 0.17269 174 168 163
0.0274894 -0.607088 0.172213 174 168 163
0.0293666 -0.605921 0.171738 174 168 163
0.0315089 -0.607735 0.171247 172 166 162
0.0335708 -0.608543 0.17076 174 168 161
0.0355409 -0.608348 0.170278 175 169 162
0.0377155 -0.610134 0.169779 172 167 160
0.0395852 -0.608928 0.169305 171 167 162
0.0412261 -0.605726 0.168853 174 168 163
0.0431853 -0.6055 0.168374 174 168 163
0.044908 -0.60328 0.167918 174 167 165
0.0466146 -0.601053 0.167467 171 167 162
0.048305 -0.598821 0.16702 172 168 163
0.0504963 -0.600549 0.166515 172 168 165
0.0521696 -0.598303 0.166072 171 167 164
0.0539635 -0.597041 0.165615 172 168 165
0.0553268 -0.592803 0.165214 172 168 165
0.0569476 -0.590541 0.164783 168 164 161
0.0575144 -0.581352 0.164494 170 166 162
0.0592281 -0.580071 0.164057 172 166 164
0.0604657 -0.575821 0.163686 165 159 155
0.130416 -0.935046 0.152561 184 180 174
0.133114 -0.931507 0.151846 184 180 174
-0.0455412 -0.519637 0.186772 159 155 154
-0.0447809 -0.532727 0.186749 163 158 157
-0.0437316 -0.542824 0.18662 163 158 157
-0.0423684 -0.548928 0.186365 168 161 159
-0.0410697 -0.557024 0.18615 167 160 158
-0.0394515 -0.560125 0.185796 165 159 157
-0.0378577 -0.564218 0.185461 168 162 157
-0.0362768 -0.569305 0.18514 168 162 157
-0.0347373 -0.576384 0.184855 167 161 156
-0.0329628 -0.578462 0.18445 169 163 158
-0.0312374 -0.582532 0.184082 169 163 158
-0.0294525 -0.585596 0.183688 168 162 157
-0.0276692 -0.589653 0.183305 165 160 153
-0.0257922 -0.590704 0.182863 168 162 155
-0.0238904 -0.590748 0.182403 167 161 154
-0.0219752 -0.589785 0.181927 165 160 153
-0.0201145 -0.593812 0.181525 167 161 154
-0.0182008 -0.593833 0.181062 168 162 157
-0.0162922 -0.596846 0.180636 168 162 157
-0.0143605 -0.599851 0.180204 168 160 154
-0.0124058 -0.602848 0.179767 168 160 154
-0.0104674 -0.601838 0.179284 168 160 154
-0.00848208 -0.604819 0.178839 167 161 154
-0.00652619 -0.604793 0.178364 167 161 154
-0.00457048 -0.604759 0.177889 165 160 153
-0.0026903 -0.601717 0.177396 165 160 153
-0.000717447 -0.602667 0.176929 164 159 151
0.00113168 -0.599611 0.176442 162 156 149
0.00314079 -0.601544 0.175978 164 155 149
0.00516491 -0.603469 0.17551 167 159 153
0.00733694 -0.608382 0.175043 167 161 154
0.00935446 -0.60929 0.174564 167 159 155
0.0114833 -0.612187 0.174083 166 157 153
0.013523 -0.613078 0.173598 167 159 155
0.0156297 -0.614959 0.17311 167 159 155
0.0176242 -0.614835 0.172624 167 159 155
0.0197529 -0.616698 0.172129 165 159 155
0.0213987 -0.61157 0.171666 165 159 155
0.0232304 -0.609428 0.171194 165 159 155
0.0250463 -0.607279 0.170727 165 159 155
0.0268463 -0.605123 0.170263 164 158 153
0.0287167 -0.603957 0.169793 164 158 153
0.0309398 -0.606767 0.169287 165 156 152
0.0329029 -0.606581 0.168807 165 156 152
0.0350611 -0.608376 0.168305 166 157 153
0.0371321 -0.609168 0.167811 166 157 153
0.0391045 -0.608956 0.167328 166 157 153
0.0408574 -0.606749 0.166874 166 157 153
0.0428205 -0.606522 0.166394 166 157 153
0.0446658 -0.605294 0.16593 167 159 155
0.0465026 -0.604059 0.165467 166 157 153
0.0482063 -0.601825 0.165025 165 159 155
0.0505356 -0.604543 0.164491 165 159 157
0.0520938 -0.601304 0.164072 165 159 157
0.0537641 -0.59905 0.163637 165 159 157
0.0551388 -0.594811 0.16325 165 159 155
0.0563385 -0.589579 0.162893 162 156 149
0.0560258 -0.574457 0.162782 162 156 151
0.0590741 -0.582074 0.162134 157 151 146
0.129558 -0.954394 0.149564 181 178 172
0.134725 -0.964643 0.148432 181 178 172
0.13754 -0.961083 0.147701 182 179 173
0.143171 -0.973251 0.146479 182 179 173
0.146359 -0.971626 0.145681 186 182 179
0.148981 -0.967043 0.144985 185 181 176
-0.0452194 -0.509683 0.184887 145 141 140
-0.0445094 -0.52277 0.184823 150 145 145
-0.0433159 -0.529872 0.184593 148 144 140
-0.0421885 -0.538966 0.184396 154 147 145
-0.0408229 -0.545064 0.184116 151 145 143
-0.039411 -0.551157 0.183824 155 149 144
-0.0379041 -0.556248 0.183502 155 149 144
-0.0366274 -0.567326 0.183284 158 152 148
-0.0351841 -0.576403 0.183009 156 150 145
-0.0301439 -0.593611 0.18193 157 152 144
-0.0263179 -0.593723 0.181005 154 148 141
-0.0243867 -0.592767 0.180529 155 149 144
-0.0224771 -0.592803 0.180066 155 149 142
-0.0205777 -0.593832 0.179614 156 150 145
-0.0186576 -0.592853 0.179141 157 151 146
-0.016753 -0.594866 0.178696 156 150 145
-0.0148319 -0.597871 0.178254 156 150 143
-0.0128928 -0.599868 0.1778 156 150 143
-0.0109383 -0.601858 0.177343 156 150 143
-0.00896854 -0.603839 0.176881 155 149 142
-0.00700008 -0.604813 0.176411 155 147 141
-0.00508516 -0.602779 0.17593 153 145 139
-0.00313731 -0.602737 0.175456 154 146 140
-0.00121762 -0.601687 0.174982 153 145 139
0.00059855 -0.597632 0.174507 152 144 137
0.00245522 -0.595568 0.174039 152 144 137
0.00445444 -0.597493 0.17357 151 143 136
0.00651211 -0.60041 0.173094 151 140 137
0.00859241 -0.603317 0.172612 151 140 137
0.0108995 -0.61021 0.172108 156 145 140
0.0129855 -0.6121 0.171617 154 146 140
0.0150277 -0.612983 0.171127 157 147 141
0.0168896 -0.610863 0.170657 157 147 141
0.0188684 -0.610732 0.170175 157 147 141
0.0204958 -0.605605 0.169737 157 147 141
0.0221585 -0.60147 0.169298 152 142 136
0.0240234 -0.600321 0.168835 153 143 137
0.0259618 -0.60016 0.168362 152 142 136
0.0278141 -0.598996 0.167901 149 138 133
0.0300151 -0.601808 0.167389 155 144 139
0.0320523 -0.602619 0.166899 155 142 137
0.0340964 -0.603421 0.166408 157 144 142
0.0362481 -0.605209 0.165899 159 146 141
0.0381007 -0.604005 0.165438 159 146 141
0.0399448 -0.602793 0.164978 159 146 141
0.0417805 -0.601575 0.164521 157 147 141
0.0437236 -0.601342 0.164045 157 145 140
0.0455462 -0.600109 0.163591 156 143 139
0.0476073 -0.600853 0.163095 155 142 139
0.0498026 -0.60258 0.162574 153 143 139
0.0514872 -0.600333 0.162144 155 144 141
0.0531556 -0.59808 0.161718 155 147 143
0.0543915 -0.592851 0.161373 152 143 139
0.055303 -0.585641 0.161091 147 141 136
0.0541107 -0.564588 0.161206 141 133 131
0.0551611 -0.559364 0.160906 132 123 122
0.130236 -0.9633 0.145951 180 176 171
0.135427 -0.973543 0.144769 181 178 172
0.137932 -0.968008 0.14411 182 179 173
0.143401 -0.979188 0.142867 182 179 173
0.146974 -0.979525 0.141997 185 181 176
0.150919 -0.981811 0.141052 185 181 176
0.156013 -0.989967 0.139875 185 181 178
-0.0449514 -0.500719 0.1831 122 118 117
-0.0440132 -0.509814 0.182912 131 127 126
-0.042811 -0.515914 0.182647 131 127 126
-0.0415625 -0.522012 0.182371 135 131 128
-0.0402104 -0.527107 0.182065 131 127 124
-0.038873 -0.533197 0.181767 136 130 125
-0.0377868 -0.545274 0.181555 136 130 125
-0.0355357 -0.622457 0.181334 156 150 143
-0.0310324 -0.607616 0.180181 150 141 137
-0.0288799 -0.60068 0.179631 152 143 139
-0.0268946 -0.598733 0.179142 148 140 136
-0.0249433 -0.597778 0.178665 148 140 134
-0.0229996 -0.596815 0.17819 146 140 133
-0.0210859 -0.597843 0.177731 144 138 134
-0.019157 -0.597864 0.177263 148 140 134
-0.017228 -0.597878 0.176796 146 138 132
-0.0152982 -0.600883 0.17634 145 136 132
-0.0133495 -0.60288 0.175876 145 136 132
-0.0113855 -0.60487 0.175408 144 135 131
-0.00940617 -0.606851 0.174936 143 134 130
-0.00742721 -0.607825 0.174459 141 133 129
-0.00547956 -0.60679 0.173982 139 131 127
-0.00351638 -0.606748 0.173505 138 130 123
-0.00163475 -0.603699 0.173036 141 130 127
0.000254619 -0.601642 0.172568 140 129 125
0.00212848 -0.599577 0.172104 140 129 125
0.00406393 -0.599504 0.171633 138 128 122
0.00608393 -0.601421 0.17115 136 126 120
0.00816527 -0.604328 0.170656 136 126 120
0.0102692 -0.607227 0.170157 139 131 125
0.0122879 -0.608119 0.16967 140 132 126
0.0142561 -0.608004 0.16919 143 133 127
0.0161006 -0.605885 0.168733 145 135 129
0.0179948 -0.604757 0.168267 145 135 129
0.0196732 -0.60063 0.167841 144 129 125
0.0213935 -0.597493 0.167409 147 129 126
0.0233978 -0.598339 0.166924 149 129 127
0.0253285 -0.598179 0.166453 147 127 125
0.0270894 -0.596019 0.166015 144 127 121
0.0292763 -0.598832 0.165494 139 119 116
0.0313933 -0.60064 0.164986 143 127 123
0.0335247 -0.602438 0.164473 146 131 127
0.0354711 -0.602237 0.163998 148 130 125
0.0375204 -0.603022 0.163501 150 132 129
0.0395765 -0.603799 0.163003 149 133 129
0.0414169 -0.60258 0.162549 146 131 127
0.0433639 -0.602347 0.162073 140 127 122
0.0455477 -0.604092 0.161547 138 125 120
0.0476232 -0.604834 0.161043 138 125 120
0.0497054 -0.605567 0.160538 140 127 122
0.0517941 -0.606291 0.160031 143 131 126
0.0533531 -0.603045 0.159636 147 134 131
0.0547505 -0.598803 0.159276 144 133 130
0.0562581 -0.595547 0.158894 137 126 123
0.0554142 -0.576466 0.159018 134 123 120
0.0568134 -0.573211 0.158662 118 109 108
0.0578826 -0.567977 0.158378 117 108 107
0.12399 -0.930792 0.143779 174 168 163
0.129719 -0.944998 0.142438 174 168 163
0.133496 -0.947357 0.141524 174 168 163
0.139226 -0.96052 0.140178 172 168 163
0.143085 -0.962836 0.139243 179 173 169
0.147147 -0.966117 0.138263 178 172 167
0.152733 -0.97723 0.136943 179 173 169
-0.0432838 -0.493858 0.181048 111 107 108
-0.0417537 -0.493968 0.180679 111 107 108
-0.040471 -0.498064 0.18037 111 107 106
-0.0389248 -0.498163 0.179996 113 106 106
-0.0377041 -0.504245 0.179702 113 107 104
-0.0365886 -0.513321 0.179434 115 106 104
-0.0367572 -0.551359 0.17948 127 121 118
-0.0378356 -0.731469 0.179764 160 154 147
-0.0321349 -0.627609 0.178371 143 134 132
-0.0295692 -0.608681 0.177748 138 129 128
-0.0274332 -0.601736 0.17723 137 128 124
-0.02541 -0.597782 0.176739 137 128 124
-0.0234495 -0.595819 0.176264 132 126 119
-0.0215406 -0.596848 0.175802 133 125 119
-0.019624 -0.597869 0.175337 133 125 119
-0.0176951 -0.597882 0.174869 133 122 116
-0.0157688 -0.601887 0.174403 133 122 116
-0.0138214 -0.602884 0.17393 131 121 115
-0.0118523 -0.605874 0.173453 128 117 112
-0.00987109 -0.607855 0.172972 128 117 112
-0.00787463 -0.609829 0.172488 127 116 111
-0.0059369 -0.607794 0.172017 128 117 112
-0.00397002 -0.607752 0.171539 126 115 110
-0.00205567 -0.605702 0.171074 126 115 110
-0.000186776 -0.602645 0.170619 124 114 110
0.00155729 -0.596583 0.170195 126 115 112
0.00333053 -0.592513 0.169763 126 115 110
0.00536329 -0.595431 0.169269 123 110 105
0.00746413 -0.599338 0.168758 121 108 104
0.00949687 -0.601238 0.168264 122 106 103
0.0114386 -0.601133 0.167791 124 109 103
0.01338 -0.60102 0.167319 128 113 106
0.0151389 -0.597905 0.16689 130 113 107
0.0170034 -0.596779 0.166436 132 114 109
0.0187231 -0.593651 0.166016 137 117 112
0.0205636 -0.592511 0.165567 135 116 111
0.0225478 -0.593358 0.165084 138 116 112
0.0244594 -0.5932 0.164618 138 116 110
0.0262867 -0.592038 0.164172 133 113 109
0.0282806 -0.592861 0.163686 128 106 102
0.0302815 -0.593675 0.163197 125 103 99
0.0325744 -0.597466 0.162638 132 107 102
0.0345017 -0.597267 0.162168 134 110 104
0.0367364 -0.600043 0.161623 141 117 111
0.0386736 -0.599828 0.161149 134 111 107
0.04061 -0.599604 0.160676 130 108 104
0.0425455 -0.599372 0.160203 130 108 104
0.0445982 -0.600125 0.159702 124 104 99
0.0465357 -0.599877 0.159228 126 106 102
0.0487234 -0.601605 0.158693 130 110 105
0.0505374 -0.600349 0.158249 136 114 110
0.0522095 -0.598096 0.157839 138 118 113
0.0537285 -0.594847 0.157467 134 114 112
0.0549422 -0.589615 0.157168 122 106 103
0.0551051 -0.577459 0.157125 113 100 98
0.0562142 -0.572227 0.156851 101 91 85
0.0559152 -0.558104 0.15692 96 86 80
0.128414 -0.94205 0.139271 161 155 150
0.132347 -0.945396 0.138307 162 156 151
0.137532 -0.955609 0.137039 162 156 151
0.141012 -0.955963 0.136185 163 157 152
0.145591 -0.962196 0.135063 162 156 151
-0.0378844 -0.716474 0.177253 144 138 136
-0.0325322 -0.624607 0.176319 132 124 120
-0.029989 -0.606678 0.175774 124 115 112
-0.0278542 -0.599733 0.175284 123 114 110
-0.0258352 -0.595779 0.174811 117 106 105
-0.0239143 -0.595815 0.174345 122 111 110
-0.0220065 -0.596844 0.173879 126 114 114
-0.0200816 -0.596865 0.173412 124 110 108
-0.0181567 -0.596878 0.172946 121 108 104
-0.0162381 -0.600883 0.172465 119 106 101
-0.0142933 -0.602881 0.171985 117 104 99
-0.0123331 -0.60487 0.171501 116 102 100
-0.0103577 -0.606852 0.171014 116 100 99
-0.00836701 -0.608825 0.170523 115 99 98
-0.00644893 -0.605791 0.170069 115 99 98
-0.00451122 -0.604749 0.169602 115 99 98
-0.00263175 -0.6017 0.169158 114 98 96
-0.000804637 -0.597644 0.168729 114 98 94
0.000827101 -0.588584 0.168368 111 98 93
0.00261 -0.585515 0.167946 110 97 92
0.00449142 -0.585436 0.167489 104 89 85
0.0065945 -0.590344 0.166958 108 92 89
0.00854267 -0.591248 0.16648 111 93 90
0.010394 -0.590146 0.166033 113 94 89
0.0122932 -0.590036 0.165571 116 94 90
0.0141322 -0.588919 0.165127 120 98 92
0.0158359 -0.5858 0.164724 122 98 93
0.0177184 -0.585667 0.164265 125 101 95
0.0196717 -0.586524 0.163786 125 101 95
0.0216319 -0.587373 0.163304 126 100 95
0.0235205 -0.587217 0.162844 125 99 92
0.0254911 -0.588049 0.162359 119 93 88
0.0274688 -0.588873 0.161873 115 88 83
0.0294534 -0.589689 0.161385 111 85 80
0.0315391 -0.591491 0.160869 115 88 85
0.0335415 -0.592289 0.160376 117 90 88
0.0356524 -0.594074 0.159853 116 87 85
0.0376723 -0.594854 0.159356 114 85 81
0.0393708 -0.592646 0.158949 109 82 78
0.0411665 -0.591424 0.158514 106 80 75
0.0433047 -0.593174 0.157984 106 80 75
0.0450947 -0.591937 0.15755 112 83 77
0.0471256 -0.592677 0.15705 123 89 87
0.049163 -0.593408 0.156548 128 94 89
0.0509426 -0.592149 0.156117 132 99 94
0.0524417 -0.588904 0.155761 127 100 98
0.053777 -0.584664 0.15545 116 94 90
0.0540757 -0.5735 0.155418 93 80 78
0.0551743 -0.56827 0.155168 91 78 75
0.0550244 -0.555138 0.155254 88 77 74
0.0601991 -0.576561 0.153904 77 66 61
0.130351 -0.938499 0.135334 146 139 137
0.136543 -0.954619 0.133752 146 139 137
0.14215 -0.96677 0.132329 148 144 138
0.146945 -0.973977 0.131123 150 146 143
0.151984 -0.982139 0.129853 150 146 141
0.157088 -0.990274 0.128567 151 147 142
-0.0389792 -0.730451 0.174885 138 129 125
-0.032957 -0.622596 0.174289 115 106 102
-0.0303462 -0.602668 0.173817 115 106 102
-0.0282204 -0.595723 0.173358 106 95 94
-0.0262564 -0.593768 0.172898 107 91 89
-0.0243613 -0.594804 0.17243 113 93 91
-0.0224583 -0.595833 0.171961 117 97 94
-0.0205272 -0.594854 0.171501 114 94 92
-0.0186164 -0.595867 0.17103 108 92 89
-0.0167029 -0.598872 0.170542 107 91 87
-0.0147678 -0.600869 0.170056 102 86 85
-0.0128121 -0.603859 0.169558 100 84 82
-0.0108425 -0.60584 0.169064 99 81 80
-0.00884469 -0.608813 0.168555 98 80 79
-0.00690733 -0.606779 0.1681 100 82 79
-0.00498536 -0.604737 0.167649 101 80 78
-0.00310327 -0.601688 0.167216 103 83 80
-0.00127246 -0.597633 0.166803 104 84 82
0.000367503 -0.588573 0.166477 96 76 73
0.00211736 -0.584505 0.166083 97 77 75
0.00395516 -0.583427 0.165644 91 71 69
0.00600243 -0.587336 0.165115 92 69 66
0.00779618 -0.585244 0.164694 90 65 62
0.00967652 -0.585142 0.164237 90 64 59
0.0115015 -0.584035 0.163801 95 66 62
0.0133772 -0.583918 0.163344 101 72 68
0.0150646 -0.5808 0.162957 102 73 69
0.0169943 -0.581666 0.16248 105 74 71
0.0190015 -0.583522 0.161975 107 76 73
0.0210235 -0.585368 0.161466 110 77 72
0.0228264 -0.584216 0.161035 109 74 68
0.0247029 -0.584053 0.160578 104 68 64
0.0265786 -0.583882 0.16012 95 62 55
0.0286326 -0.585695 0.159604 96 65 59
0.0306079 -0.586504 0.159114 99 68 63
0.0326872 -0.588299 0.158591 99 68 63
0.034781 -0.590085 0.158064 98 65 60
0.0367847 -0.590867 0.157568 95 62 57
0.0384698 -0.58866 0.157172 89 58 52
0.0402511 -0.587441 0.156745 89 56 51
0.0421401 -0.587207 0.156284 91 55 53
0.0440281 -0.586965 0.155823 99 61 58
0.0461626 -0.588699 0.155285 111 71 69
0.0480564 -0.588441 0.154823 120 79 75
0.0500805 -0.589166 0.15432 123 84 81
0.0515709 -0.585922 0.153979 116 89 85
0.0533152 -0.584653 0.153561 99 73 68
0.133133 -0.939845 0.131176 131 124 122
0.141676 -0.968716 0.128849 124 120 119
0.147013 -0.978868 0.127456 134 130 126
0.151141 -0.982119 0.126413 130 126 123
-0.0266514 -0.59075 0.171007 95 77 77
-0.0247688 -0.591785 0.170538 104 79 76
-0.0228933 -0.593814 0.17006 106 81 78
-0.0209913 -0.594834 0.169587 106 80 77
-0.0190888 -0.596847 0.169101 104 77 77
-0.0171778 -0.600852 0.168589 96 71 70
-0.015237 -0.60285 0.168094 86 64 60
-0.0132807 -0.604839 0.167596 82 60 56
-0.0112932 -0.60882 0.167065 80 57 56
-0.00929868 -0.610793 0.166557 80 57 56
-0.00736761 -0.607759 0.166124 80 58 54
-0.00544005 -0.605717 0.16568 84 57 55
-0.00357477 -0.601669 0.165275 86 59 56
-0.00179484 -0.595614 0.164915 85 61 57
-9.21e-05 -0.588554 0.164585 78 56 52
0.00159162 -0.582487 0.164248 71 49 45
0.00350003 -0.583408 0.163772 68 46 42
0.00550095 -0.586318 0.16325 71 47 43
0.00719989 -0.582229 0.162885 72 45 42
0.00901846 -0.58113 0.162455 62 33 27
0.010937 -0.582019 0.161976 68 37 31
0.0127471 -0.580905 0.161548 72 41 36
0.0144258 -0.577788 0.161175 78 44 39
0.0164741 -0.58065 0.16064 83 47 41
0.0184062 -0.581508 0.160158 87 49 43
0.0203454 -0.582358 0.159674 87 49 43
0.0221377 -0.581207 0.159249 89 49 42
0.0240026 -0.581045 0.158795 87 47 42
0.0257823 -0.57988 0.158373 75 37 30
0.027819 -0.581694 0.157853 72 32 25
0.0297781 -0.582504 0.157363 73 33 26
0.0318403 -0.584301 0.156837 72 30 24
0.033817 -0.585094 0.156343 73 33 26
0.0359043 -0.586872 0.15581 67 29 23
0.0376835 -0.585661 0.155388 61 21 16
0.0394543 -0.584443 0.154968 56 15 11
0.0412166 -0.583218 0.15455 59 14 9
0.0432083 -0.58397 0.154052 79 26 19
0.0449613 -0.582731 0.153636 98 42 36
0.0468322 -0.582476 0.153179 111 55 47
0.0487022 -0.582214 0.152722 115 62 53
0.0504371 -0.580954 0.15231 110 61 50
0.0521634 -0.579687 0.1519 94 54 47
0.138385 -0.954922 0.126233 110 106 105
0.144736 -0.970976 0.124476 109 105 104
0.149563 -0.978159 0.123199 118 114 113
-0.0176389 -0.598825 0.166682 80 46 44
-0.0157077 -0.600823 0.166181 65 36 32
-0.0137611 -0.602812 0.165677 58 31 28
-0.0117993 -0.604793 0.165168 54 29 26
-0.00981116 -0.607766 0.164637 54 27 25
-0.00787407 -0.605732 0.164199 55 28 26
-0.00597112 -0.602691 0.163786 61 29 28
-0.00411373 -0.598643 0.163399 63 31 31
0.143367 -0.967982 0.12126 87 81 79
