ply
format ascii 1.0
Comment Generated by Floating Hands
element vertex 448
Comment Left: (0.0, 0.0, 0.0)
Comment Right: (0.1, 0.0, 0.5)
Comment Time: 2023-05-01 08:47:12,959
property double x
property double y
property double z
property uchar red
property uchar green
property uchar blue
end_header
0.02816039 0.05099221 0.4942735 255 0 255
0.01621439 0.03259545 0.3604927 255 0 255
0.05198416 0.05260745 0.4785862 255 0 255
0.02324099 0.03561534 0.3843117 255 0 255
0.05495189 0.05281514 0.4882337 255 0 255
0.02673678 0.04368457 0.4584243 255 0 255
0.006502147 0.03018006 0.3676215 255 0 255
0.03278754 0.03979629 0.4166914 255 0 255
0.02520587 0.040287 0.4416413 255 0 255
0.0409758 0.04297345 0.4443537 255 0 255
0.02221783 0.03631067 0.4200774 255 0 255
0.01805061 0.03022611 0.3687621 255 0 255
0.04946868 0.04606444 0.4729884 255 0 255
0.04131308 0.04530644 0.4910228 255 0 255
0.02555079 0.03612671 0.4244671 255 0 255
0.007789676 0.02607656 0.3522912 255 0 255
0.01355135 0.02730507 0.3557736 255 0 255
0.03824905 0.03946264 0.4383091 255 0 255
0.03989119 0.04159497 0.4700182 255 0 255
0.03462192 0.03842451 0.4457574 255 0 255
0.03021779 0.03576529 0.4253677 255 0 255
0.02804721 0.03428905 0.4136126 255 0 255
0.03545906 0.03762014 0.4362199 255 0 255
0.0452185 0.04204781 0.4663944 255 0 255
0.02842982 0.01711443 0.4515649 255 0 255
0.02455106 0.01353001 0.4259105 255 0 255
0.0192297 0.01121409 0.4005253 255 0 255
0.03801978 0.01498233 0.4688988 255 0 255
0.01243798 0.008845653 0.3703439 255 0 255
0.03242331 0.01254342 0.4425441 255 0 255
0.04621284 0.01504825 0.4895129 255 0 255
0.02505038 0.01002967 0.4104407 255 0 255
0.04312981 0.01306823 0.4728119 255 0 255
0.1363856 0.02143347 0.4794096 255 0 255
0.1245733 0.0175181 0.4837013 255 0 255
0.1258089 0.01777413 0.4830498 255 0 255
0.127042 0.01803174 0.4823934 255 0 255
0.1287379 0.01834517 0.4826156 255 0 255
0.1328988 0.01919082 0.481475 255 0 255
0.1336464 0.01940074 0.4799144 255 0 255
0.1348667 0.01966861 0.4792269 255 0 255
0.1355989 0.01987955 0.4776621 255 0 255
0.1205782 0.01527711 0.4847231 255 0 255
0.1230571 0.01578098 0.4834484 255 0 255
0.1247486 0.01608356 0.4836923 255 0 255
0.1313769 0.0174345 0.4812661 255 0 255
0.1326035 0.01769982 0.4805884 255 0 255
0.1333479 0.01791356 0.4790297 255 0 255
0.1350483 0.01823528 0.4792183 255 0 255
0.1352949 0.0183961 0.4767813 255 0 255
0.1207497 0.01384492 0.4847084 255 0 255
0.1249227 0.01464926 0.4836777 255 0 255
0.1261598 0.01490656 0.4830263 255 0 255
0.1269311 0.01511962 0.481485 255 0 255
0.1276932 0.01533295 0.4799423 255 0 255
0.1298553 0.01568789 0.4810428 255 0 255
0.1306087 0.01590372 0.4794922 255 0 255
0.1318293 0.01616823 0.4788182 255 0 255
0.1330472 0.01643442 0.4781394 255 0 255
0.1342623 0.01670209 0.4774557 255 0 255
0.1349884 0.01692067 0.4758948 255 0 255
0.1192317 0.01212459 0.4844224 255 0 255
0.1209199 0.01241302 0.484688 255 0 255
0.1221619 0.01266535 0.4840531 255 0 255
0.122948 0.01287954 0.4825231 255 0 255
0.1246385 0.01317488 0.4827687 255 0 255
0.125873 0.01343204 0.4821192 255 0 255
0.1261775 0.01360706 0.4796947 255 0 255
0.1274001 0.01386606 0.479039 255 0 255
0.12862 0.01412659 0.4783783 255 0 255
0.1293637 0.01434476 0.4768333 255 0 255
0.1310519 0.01465251 0.4770426 255 0 255
0.132744 0.01496327 0.4772435 255 0 255
0.1344402 0.01527713 0.4774358 255 0 255
0.1351664 0.01550022 0.475875 255 0 255
0.1193995 0.0106963 0.4843964 255 0 255
0.1206414 0.01094695 0.4837682 255 0 255
0.1218808 0.01119918 0.4831351 255 0 255
0.1226637 0.01141717 0.4816069 255 0 255
0.1243521 0.01170853 0.4818543 255 0 255
0.1255839 0.01196561 0.4812066 255 0 255
0.1258849 0.01214834 0.4787841 255 0 255
0.1266373 0.01236852 0.4772469 255 0 255
0.1278512 0.01262828 0.4765899 255 0 255
0.1281143 0.01280935 0.4741691 255 0 255
0.1297938 0.01311176 0.4743839 255 0 255
0.1314772 0.01341715 0.4745903 255 0 255
0.1331645 0.01372554 0.4747882 255 0 255
0.1343684 0.013994 0.4741053 255 0 255
0.1191214 0.009238421 0.4834693 255 0 255
0.1203607 0.009488995 0.4828429 255 0 255
0.1211464 0.009709866 0.4813196 255 0 255
0.1219228 0.009930903 0.479795 255 0 255
0.1236055 0.01021763 0.4800459 255 0 255
0.1243701 0.01044049 0.478515 255 0 255
0.1251253 0.01066361 0.476983 255 0 255
0.1254034 0.01085205 0.4745665 255 0 255
0.1270792 0.01114585 0.4747963 255 0 255
0.12781 0.01137014 0.4732587 255 0 255
0.1290094 0.01163158 0.4725977 255 0 255
0.1306873 0.01193225 0.4728078 255 0 255
0.1328537 0.01227445 0.4738832 255 0 255
0.1335672 0.01250362 0.4723302 255 0 255
0.1197309 0.007840824 0.4843274 255 0 255
0.120526 0.008065895 0.4828057 255 0 255
0.121312 0.008291246 0.4812826 255 0 255
0.1220886 0.008516849 0.4797581 255 0 255
0.1233141 0.008771427 0.4791206 255 0 255
0.1236139 0.008968609 0.4767051 255 0 255
0.1243626 0.009194769 0.4751767 255 0 255
0.1251021 0.009421105 0.473647 255 0 255
0.1258323 0.009647602 0.4721162 255 0 255
0.1270283 0.009906609 0.4714637 255 0 255
0.1287001 0.01020034 0.4716839 255 0 255
0.1298941 0.01046322 0.47102 255 0 255
0.1325405 0.01083141 0.4729729 255 0 255
0.1337392 0.0110997 0.4722939 255 0 255
0.1198947 0.006413633 0.4842843 255 0 255
0.1206901 0.006643185 0.4827628 255 0 255
0.1210242 0.006849505 0.4803482 255 0 255
0.1217976 0.007078839 0.4788256 255 0 255
0.123938 0.007383197 0.4799663 255 0 255
0.124703 0.007615104 0.4784358 255 0 255
0.1254587 0.0078472 0.4769039 255 0 255
0.126205 0.008079454 0.4753709 255 0 255
0.12647 0.008284109 0.4729556 255 0 255
0.126719 0.008487466 0.4705428 255 0 255
0.1279097 0.008747944 0.4698873 255 0 255
0.1295799 0.009039986 0.4701028 255 0 255
0.1307687 0.009304403 0.469436 255 0 255
0.1319548 0.009570351 0.4687646 255 0 255
0.1200572 0.004986821 0.4842357 255 0 255
0.1208528 0.005220867 0.4827144 255 0 255
0.1211867 0.005435548 0.4803 255 0 255
0.1219603 0.005669362 0.4787776 255 0 255
0.1236431 0.005945531 0.47903 255 0 255
0.1244049 0.006181216 0.4775014 255 0 255
0.1251574 0.006417088 0.4759716 255 0 255
0.1259007 0.006653092 0.4744405 255 0 255
0.126162 0.006865446 0.4720273 255 0 255
0.1264074 0.007076426 0.4696166 255 0 255
0.1275954 0.007336811 0.4689631 255 0 255
0.1282982 0.007572718 0.4674293 255 0 255
0.1304495 0.00788921 0.4685155 255 0 255
0.1311437 0.00812748 0.4669743 255 0 255
0.1197722 0.003546029 0.4832866 255 0 255
0.1210142 0.00379897 0.4826603 255 0 255
0.1218007 0.004037738 0.4811377 255 0 255
0.1225779 0.004276772 0.4796137 255 0 255
0.1242652 0.004550386 0.4798642 255 0 255
0.1250306 0.004791261 0.4783341 255 0 255
0.1253203 0.005013739 0.4759183 255 0 255
0.1260638 0.005254282 0.4743874 255 0 255
0.1267979 0.00549499 0.4728554 255 0 255
0.1270464 0.00571508 0.4704432 255 0 255
0.1277586 0.005955344 0.4689107 255 0 255
0.1284616 0.006195736 0.4673773 255 0 255
0.1296417 0.006459171 0.4667163 255 0 255
0.1303295 0.006700493 0.4651789 255 0 255
0.1186864 0.001872061 0.4838482 255 0 255
0.1199316 0.002123935 0.4832268 255 0 255
0.1211742 0.00237745 0.4826006 255 0 255
0.1224143 0.002632634 0.4819694 255 0 255
0.1231952 0.002876846 0.480444 255 0 255
0.1248869 0.003147903 0.4806926 255 0 255
0.1251924 0.003379954 0.4782749 255 0 255
0.1259487 0.003625515 0.4767437 255 0 255
0.1266957 0.003871287 0.4752112 255 0 255
0.1269599 0.004101045 0.472797 255 0 255
0.1272081 0.004329516 0.4703852 255 0 255
0.1279205 0.004574275 0.4688529 255 0 255
0.1286237 0.004819153 0.4673197 255 0 255
0.1288307 0.00504505 0.4649122 255 0 255
0.1304924 0.005329057 0.4651217 255 0 255
0.1188439 0.0004498714 0.4837827 255 0 255
0.1196427 0.0006957005 0.4822669 255 0 255
0.1208826 0.0009491254 0.4816425 255 0 255
0.12212 0.001204172 0.4810131 255 0 255
0.1228977 0.001452189 0.4794895 255 0 255
0.1245871 0.001719235 0.4797398 255 0 255
0.1253529 0.001969105 0.4782101 255 0 255
0.1256421 0.002208311 0.4757951 255 0 255
0.126386 0.002457852 0.4742646 255 0 255
0.1266466 0.00269527 0.4718526 255 0 255
0.1264138 0.002918339 0.4685644 255 0 255
0.1271197 0.003166122 0.4670361 255 0 255
0.1278165 0.00341405 0.4655067 255 0 255
0.1285039 0.003662063 0.4639764 255 0 255
0.1291821 0.003910126 0.4624453 255 0 255
0.119444 -0.0009698683 0.4846078 255 0 255
0.1206939 -0.0007161208 0.4839848 255 0 255
0.1214904 -0.0004641663 0.4824643 255 0 255
0.1222776 -0.0002119194 0.4809424 255 0 255
0.1235131 4.540313E-05 0.4803082 255 0 255
0.1242851 0.0002988367 0.4787818 255 0 255
0.1245834 0.0005462121 0.4763685 255 0 255
0.1253334 0.0007993122 0.4748413 255 0 255
0.126074 0.001052635 0.4733129 255 0 255
0.1268054 0.001306104 0.4717834 255 0 255
0.1270497 0.001550545 0.4693742 255 0 255
0.1277592 0.00180359 0.4678444 255 0 255
0.1284594 0.002056689 0.4663134 255 0 255
0.1291503 0.002309978 0.4647816 255 0 255
0.1298319 0.002563296 0.4632487 255 0 255
0.1195993 -0.002395054 0.484531 255 0 255
0.1208498 -0.002140732 0.483908 255 0 255
0.1216466 -0.00188428 0.4823877 255 0 255
0.1228886 -0.001627287 0.4817568 255 0 255
0.1236701 -0.001369618 0.480232 255 0 255
0.1244423 -0.001111728 0.4787059 255 0 255
0.1247403 -0.0008560009 0.476293 255 0 255
0.1259586 -0.0005952701 0.4756497 255 0 255
0.1262314 -0.0003405746 0.473238 255 0 255
0.1269629 -8.26054E-05 0.4717086 255 0 255
0.127207 0.0001702342 0.4693 255 0 255
0.1279166 0.0004277201 0.4677704 255 0 255
0.1281321 0.0006785765 0.4653652 255 0 255
0.1288198 0.0009356047 0.4638354 255 0 255
0.1294983 0.001192684 0.4623048 255 0 255
0.1197533 -0.003819714 0.4844485 255 0 255
0.1210044 -0.003564834 0.4838256 255 0 255
0.1213497 -0.003299518 0.4814134 255 0 255
0.122589 -0.003042686 0.4807843 255 0 255
0.1233673 -0.002781244 0.4792614 255 0 255
0.1236745 -0.002517347 0.4768504 255 0 255
0.1244308 -0.002256121 0.4753268 255 0 255
0.1256463 -0.001995553 0.4746853 255 0 255
0.1254435 -0.001733198 0.4713942 255 0 255
0.1266438 -0.001471524 0.4707487 255 0 255
0.1273629 -0.001209619 0.4692203 255 0 255
0.1275907 -0.0009497908 0.4668148 255 0 255
0.1278026 -0.0006913274 0.4644119 255 0 255
0.1289758 -0.0004269182 0.4637568 255 0 255
0.1296545 -0.0001653508 0.4622265 255 0 255
0.1228591 -0.004739382 0.4840018 255 0 255
0.1236537 -0.004472299 0.4824772 255 0 255
0.1239801 -0.004198193 0.4800628 255 0 255
0.1247526 -0.00393131 0.4785372 255 0 255
0.1250502 -0.003658842 0.4761254 255 0 255
0.1258008 -0.00339228 0.474599 255 0 255
0.1260697 -0.003121591 0.4721901 255 0 255
0.1267982 -0.002855389 0.4706633 255 0 255
0.1270384 -0.002586571 0.4682575 255 0 255
0.127745 -0.002320811 0.4667303 255 0 255
0.1284424 -0.002054922 0.4652021 255 0 255
0.1291305 -0.001788962 0.4636729 255 0 255
0.1303017 -0.001522296 0.4630132 255 0 255
0.123012 -0.006165723 0.4839079 255 0 255
0.1238069 -0.005894166 0.4823837 255 0 255
0.1241331 -0.005611684 0.4799698 255 0 255
0.1249058 -0.00534033 0.4784446 255 0 255
0.1247371 -0.00505024 0.4751486 255 0 255
0.1264233 -0.00479696 0.4753902 255 0 255
0.1266954 -0.004517148 0.4729801 255 0 255
0.1269513 -0.004238684 0.4705724 255 0 255
0.1276707 -0.003967832 0.4690447 255 0 255
0.127898 -0.003691285 0.4666403 255 0 255
0.1281094 -0.003416103 0.4642386 255 0 255
0.1287943 -0.003146383 0.4627116 255 0 255
0.1299627 -0.002879871 0.4620539 255 0 255
0.1231637 -0.007591479 0.4838085 255 0 255
0.1239587 -0.007315522 0.4822846 255 0 255
0.123825 -0.007010064 0.4789833 255 0 255
0.1250577 -0.006748792 0.4783464 255 0 255
0.1253548 -0.006459632 0.4759357 255 0 255
0.1265756 -0.006196443 0.4752927 255 0 255
0.1268473 -0.005908327 0.4728832 255 0 255
0.127103 -0.005621489 0.470476 255 0 255
0.1273427 -0.005335994 0.4680714 255 0 255
0.1275664 -0.005051818 0.4656695 255 0 255
0.1282608 -0.004777711 0.4641438 255 0 255
0.1284559 -0.004495569 0.4617454 255 0 255
0.1301149 -0.004236312 0.4619595 255 0 255
0.123314 -0.009016731 0.4837035 255 0 255
0.1236525 -0.008717102 0.4812904 255 0 255
0.1235148 -0.008400173 0.4779919 255 0 255
0.1247447 -0.008139019 0.4773567 255 0 255
0.1245714 -0.007825269 0.4740644 255 0 255
0.1262562 -0.007579131 0.4743072 255 0 255
0.1265244 -0.007283386 0.4719002 255 0 255
0.1267764 -0.006988979 0.4694954 255 0 255
0.1274929 -0.006709889 0.4679703 255 0 255
0.1277163 -0.006417368 0.465569 255 0 255
0.1279238 -0.006126266 0.4631703 255 0 255
0.1281153 -0.005836491 0.4607745 255 0 255
0.1292782 -0.005570245 0.4601206 255 0 255
0.1247156 -0.01017937 0.4829587 255 0 255
0.124584 -0.009848833 0.4796576 255 0 255
0.1253574 -0.009564023 0.4781334 255 0 255
0.1251868 -0.009237345 0.4748402 255 0 255
0.1264053 -0.008973639 0.4741991 255 0 255
0.1266733 -0.008669578 0.4717926 255 0 255
0.1269251 -0.008366777 0.4693885 255 0 255
0.1276416 -0.008083182 0.4678637 255 0 255
0.1278648 -0.007782367 0.4654631 255 0 255
0.1285595 -0.007499257 0.4639381 255 0 255
0.1282633 -0.007184826 0.46067 255 0 255
0.1294268 -0.006917918 0.4600162 255 0 255
0.1248638 -0.01160281 0.4828425 255 0 255
0.1242707 -0.01123392 0.4786554 255 0 255
0.1250409 -0.01094534 0.4771332 255 0 255
0.1243986 -0.01058246 0.4729593 255 0 255
0.125611 -0.01031965 0.4723218 255 0 255
0.1263463 -0.0100319 0.4707995 255 0 255
0.1265946 -0.009721548 0.4683981 255 0 255
0.127308 -0.009434203 0.4668755 255 0 255
0.1280121 -0.009146771 0.4653519 255 0 255
0.128219 -0.008838941 0.4629546 255 0 255
0.12841 -0.008532572 0.4605601 255 0 255
0.129574 -0.008264996 0.4599064 255 0 255
0.1253393 -0.01270066 0.4803084 255 0 255
0.1256517 -0.01237692 0.4778982 255 0 255
0.1245436 -0.01196867 0.4728407 255 0 255
0.1252851 -0.01167742 0.4713218 255 0 255
0.1260173 -0.01138594 0.4698018 255 0 255
0.1267401 -0.0110943 0.4682806 255 0 255
0.1279353 -0.01082811 0.4676345 255 0 255
0.1281579 -0.01051057 0.4652353 255 0 255
0.1288529 -0.01021849 0.4637111 255 0 255
0.1290469 -0.00990301 0.4613155 255 0 255
0.1297199 -0.009611502 0.4597915 255 0 255
0.1264081 -0.01418221 0.4819545 255 0 255
0.1257968 -0.01378237 0.4777724 255 0 255
0.1251558 -0.01338666 0.4735994 255 0 255
0.1259009 -0.01309019 0.4720792 255 0 255
0.1261613 -0.01276258 0.4696785 255 0 255
0.1268844 -0.01246647 0.4681578 255 0 255
0.12808 -0.01219961 0.4675117 255 0 255
0.1287878 -0.01190246 0.4659871 255 0 255
0.1289975 -0.01157724 0.4635895 255 0 255
0.1291913 -0.01125337 0.4611947 255 0 255
0.1298645 -0.01095739 0.4596711 255 0 255
0.1270151 -0.01564085 0.4827077 255 0 255
0.1259407 -0.01518721 0.477641 255 0 255
0.1252987 -0.01477546 0.4734696 255 0 255
0.1265162 -0.01451005 0.4728305 255 0 255
0.1267797 -0.01417335 0.4704288 255 0 255
0.1275063 -0.01387199 0.4689068 255 0 255
0.1287059 -0.01360379 0.4682589 255 0 255
0.1289314 -0.01326884 0.4658594 255 0 255
0.1291409 -0.01293526 0.4634627 255 0 255
0.1293343 -0.01260312 0.4610686 255 0 255
0.1300077 -0.01230268 0.4595455 255 0 255
0.1260831 -0.01659137 0.4775041 255 0 255
0.1259094 -0.01620371 0.4742164 255 0 255
0.1266582 -0.01589756 0.4726953 255 0 255
0.1273976 -0.01559118 0.471173 255 0 255
0.1281276 -0.01528461 0.4696496 255 0 255
0.1288484 -0.01497792 0.4681251 255 0 255
0.1295598 -0.01467099 0.4665996 255 0 255
0.1287933 -0.01425713 0.4624592 255 0 255
0.1289832 -0.01391739 0.4600679 255 0 255
0.1296533 -0.0136132 0.458547 255 0 255
0.1266905 -0.01803963 0.4782453 255 0 255
0.1269893 -0.01768299 0.4758388 255 0 255
0.127745 -0.01737088 0.4743146 255 0 255
0.1280148 -0.01701604 0.471911 255 0 255
0.1282686 -0.01666253 0.4695098 255 0 255
0.1294727 -0.01639231 0.4688604 255 0 255
0.1292145 -0.0159997 0.465588 255 0 255
0.1284437 -0.01557058 0.4614512 255 0 255
0.1296165 -0.01530071 0.4608006 255 0 255
0.1297935 -0.01495332 0.4584112 255 0 255
0.1282308 -0.01959197 0.4807462 255 0 255
0.1280694 -0.01917698 0.477454 255 0 255
0.128832 -0.01885892 0.4759267 255 0 255
0.1286316 -0.01844792 0.4726427 255 0 255
0.1284083 -0.0180397 0.4693647 255 0 255
0.1291293 -0.01772406 0.4678411 255 0 255
0.1283802 -0.01727595 0.4636996 255 0 255
0.1285822 -0.01691896 0.4613091 255 0 255
0.1292618 -0.0166059 0.45979 255 0 255
0.1299322 -0.0162928 0.4582701 255 0 255
0.1300905 -0.02078902 0.4808239 255 0 255
0.1294453 -0.02031069 0.4766526 255 0 255
0.1292477 -0.01988675 0.4733681 255 0 255
0.1290271 -0.01946565 0.4700897 255 0 255
0.1287837 -0.01904735 0.4668174 255 0 255
0.1285175 -0.01863199 0.4635513 255 0 255
0.1282287 -0.0182195 0.4602917 255 0 255
0.1289051 -0.01790278 0.458775 255 0 255
0.1295722 -0.01758595 0.4572575 255 0 255
0.1314808 -0.02193377 0.4800082 255 0 255
0.1303408 -0.02138662 0.4749642 255 0 255
0.1301264 -0.0209518 0.4716835 255 0 255
0.1294048 -0.02046733 0.4675357 255 0 255
0.1286536 -0.01998728 0.4633978 255 0 255
0.1293462 -0.01966465 0.4618787 255 0 255
0.129535 -0.01929166 0.4594911 255 0 255
0.1302056 -0.01896959 0.4579722 255 0 255
0.1314341 -0.02290107 0.476553 255 0 255
0.1307445 -0.02239549 0.4723955 255 0 255
0.1295405 -0.02183789 0.4673749 255 0 255
0.1287883 -0.02134185 0.4632389 255 0 255
0.1294811 -0.02101473 0.4617204 255 0 255
0.1301644 -0.02068751 0.4602011 255 0 255
0.1298422 -0.02025367 0.45695 255 0 255
0.1330058 -0.02449187 0.4790105 255 0 255
0.1313619 -0.02384609 0.4731012 255 0 255
0.1301599 -0.0232679 0.4680812 255 0 255
0.1294101 -0.02275513 0.4639453 255 0 255
0.1296145 -0.02236411 0.4615568 255 0 255
0.1307932 -0.02209028 0.4609048 255 0 255
0.1299752 -0.02158642 0.4567884 255 0 255
0.1334251 -0.02549794 0.4764216 255 0 255
0.1317498 -0.02483285 0.4705249 255 0 255
0.1314979 -0.02436505 0.4672556 255 0 255
0.1312232 -0.02390016 0.4639926 255 0 255
0.1314214 -0.02349996 0.4616024 255 0 255
0.1306057 -0.02297934 0.4574862 255 0 255
0.1350073 -0.02711104 0.4788593 255 0 255
0.1333404 -0.02642 0.4729602 255 0 255
0.1326089 -0.02587065 0.4688175 255 0 255
0.1323403 -0.02539208 0.4655524 255 0 255
0.1325448 -0.02498202 0.4631596 255 0 255
0.1317349 -0.02444389 0.4590417 255 0 255
0.1354181 -0.02810103 0.476258 255 0 255
0.1342094 -0.02746169 0.471241 255 0 255
0.1329645 -0.02682838 0.4662376 255 0 255
0.1336685 -0.02647858 0.4647095 255 0 255
0.1323645 -0.02585436 0.4597265 255 0 255
0.1363008 -0.02914958 0.4745247 255 0 255
0.1345746 -0.02841941 0.4686499 255 0 255
0.1352888 -0.02806279 0.4671169 255 0 255
0.1339936 -0.02741645 0.4621309 255 0 255
0.137413 -0.03071006 0.4760624 255 0 255
0.1356919 -0.02995473 0.4701874 255 0 255
0.1354189 -0.02943805 0.4669226 255 0 255
0.1346227 -0.02884818 0.462802 255 0 255
0.1373032 -0.03158608 0.4725829 255 0 255
0.1370397 -0.03105494 0.4693144 255 0 255
0.1362526 -0.03044674 0.4651904 255 0 255
0.1384208 -0.03315401 0.4741046 255 0 255
0.137168 -0.03243992 0.4691078 255 0 255
0.1358789 -0.03173194 0.4641249 255 0 255
0.138549 -0.03455781 0.4738894 255 0 255
0.1367968 -0.0337355 0.4680331 255 0 255
0.1370073 -0.03327161 0.4656374 255 0 255
0.1352103 -0.03530928 0.4676219 255 0 255
0.1344298 -0.0346535 0.4635062 255 0 255
0.1351252 -0.03427681 0.4619813 255 0 255
0.1229481 -0.03426291 0.445819 255 0 255
0.1280679 -0.03476399 0.4520889 255 0 255
0.1322346 -0.03506005 0.4566056 255 0 255
0.122304 -0.03440979 0.4392076 255 0 255
0.06986453 -0.02525111 0.3510168 255 0 255
0.1002916 -0.03113771 0.4012318 255 0 255
0.05812358 -0.02326388 0.3290049 255 0 255
