ply
format ascii 1.0
Comment Generated by Floating Hands
element vertex 777
Comment Left: (0.0, 0.0, 0.0)
Comment Right: (0.1, 0.0, 0.5)
Comment Time: 2023-05-01 08:47:12,821
property double x
property double y
property double z
property uchar red
property uchar green
property uchar blue
end_header
0.02463307 0.0398168 0.4079954 255 0 255
0.02650994 0.03983375 0.414824 255 0 255
0.0309176 0.04127213 0.4312179 255 0 255
0.01507996 0.04036294 0.4505041 255 0 255
0.03609768 0.04300703 0.4504945 255 0 255
0.02424585 0.04404677 0.4841893 255 0 255
0.008355513 0.03259932 0.4004418 255 0 255
0.01113849 0.02828529 0.3589612 255 0 255
0.04332079 0.04570169 0.4774431 255 0 255
0.01049363 0.03189831 0.4011212 255 0 255
0.02423652 0.03448857 0.4089098 255 0 255
0.03132472 0.04296199 0.492128 255 0 255
0.01822079 0.03451835 0.4269563 255 0 255
0.01548881 0.02914594 0.3785644 255 0 255
0.04238881 0.04290941 0.4780835 255 0 255
0.03080128 0.03945748 0.4720432 255 0 255
0.01889734 0.03233013 0.4157161 255 0 255
0.007488799 0.02566325 0.36335 255 0 255
0.01799046 0.03019851 0.3954738 255 0 255
0.02815477 0.03510917 0.4317724 255 0 255
0.04329329 0.04246541 0.4862435 255 0 255
0.1283067 0.04546493 0.4787714 255 0 255
0.1303655 0.04295814 0.4791741 255 0 255
0.1289442 0.04106392 0.4733373 255 0 255
0.1297821 0.03828143 0.4686622 255 0 255
0.1345107 0.03787616 0.4741467 255 0 255
0.121637 0.03500237 0.4482852 255 0 255
0.003285989 0.006945566 0.3535757 255 0 255
0.1364856 0.0220568 0.480327 255 0 255
0.1266472 0.01871072 0.4823844 255 0 255
0.1283402 0.01900784 0.4826166 255 0 255
0.1356961 0.02049846 0.478583 255 0 255
0.137397 0.02081212 0.4787664 255 0 255
0.1408105 0.0214484 0.4791075 255 0 255
0.1230989 0.01655912 0.4843144 255 0 255
0.1238877 0.01674804 0.4827849 255 0 255
0.1242122 0.01688747 0.4803648 255 0 255
0.1254374 0.01712674 0.4797217 255 0 255
0.1271214 0.01741854 0.4799593 255 0 255
0.1288097 0.01771336 0.4801885 255 0 255
0.1305019 0.01801103 0.4804092 255 0 255
0.1321982 0.0183117 0.4806214 255 0 255
0.1334237 0.01856156 0.4799467 255 0 255
0.1346463 0.01881301 0.4792671 255 0 255
0.1349033 0.01895583 0.4768333 255 0 255
0.1365989 0.0192649 0.4770205 255 0 255
0.1382983 0.01957692 0.4771992 255 0 255
0.1400015 0.01989197 0.4773692 255 0 255
0.122363 0.01503568 0.4825229 255 0 255
0.1235973 0.01527297 0.4818878 255 0 255
0.1239183 0.01542015 0.4794695 255 0 255
0.1251408 0.0156593 0.4788281 255 0 255
0.1263606 0.01590005 0.4781819 255 0 255
0.1280433 0.01619017 0.4784147 255 0 255
0.1292614 0.01643484 0.477757 255 0 255
0.1309489 0.01673017 0.4779747 255 0 255
0.132165 0.0169786 0.4773055 255 0 255
0.1333785 0.01722868 0.4766315 255 0 255
0.1336254 0.01737783 0.4742033 255 0 255
0.1357975 0.01773352 0.475269 255 0 255
0.1374915 0.01804089 0.4754514 255 0 255
0.1386974 0.018298 0.4747562 255 0 255
0.1175574 0.01267404 0.4850025 255 0 255
0.1192411 0.01294419 0.4852847 255 0 255
0.1200447 0.0131385 0.4837666 255 0 255
0.120839 0.01333314 0.4822469 255 0 255
0.1216241 0.01352809 0.4807258 255 0 255
0.1228523 0.0137647 0.4800941 255 0 255
0.1231664 0.01391894 0.4776794 255 0 255
0.1243829 0.01415739 0.4770416 255 0 255
0.1255967 0.01439736 0.476399 255 0 255
0.1272739 0.01468293 0.4766353 255 0 255
0.128486 0.01492678 0.4759814 255 0 255
0.130168 0.01521753 0.4762026 255 0 255
0.1309024 0.01541927 0.4746588 255 0 255
0.1321066 0.01566788 0.4739904 255 0 255
0.1333082 0.01591806 0.4733171 255 0 255
0.1354786 0.01626595 0.4743847 255 0 255
0.1371704 0.01656938 0.474569 255 0 255
0.1383738 0.01682645 0.4738757 255 0 255
0.1177123 0.01124578 0.4849849 255 0 255
0.1189579 0.01147777 0.4843694 255 0 255
0.1193157 0.01164044 0.481957 255 0 255
0.1201035 0.01183831 0.4804408 255 0 255
0.120882 0.01203645 0.4789232 255 0 255
0.1221042 0.01227229 0.4782951 255 0 255
0.1224115 0.01243357 0.475884 255 0 255
0.1236219 0.01267134 0.4752497 255 0 255
0.1248297 0.0129106 0.4746107 255 0 255
0.1260351 0.01315148 0.4739668 255 0 255
0.128177 0.01347535 0.4750821 255 0 255
0.1298569 0.01376216 0.4753053 255 0 255
0.1315407 0.01405189 0.4755199 255 0 255
0.1322693 0.01425905 0.4739732 255 0 255
0.1329887 0.01446641 0.4724255 255 0 255
0.1351574 0.0148064 0.4734949 255 0 255
0.1363576 0.01506111 0.4728101 255 0 255
0.1375551 0.01531741 0.4721207 255 0 255
0.1153659 0.009357605 0.4861779 255 0 255
0.1161842 0.009557245 0.4846712 255 0 255
0.1174295 0.009787517 0.4840623 255 0 255
0.1186725 0.01001948 0.4834485 255 0 255
0.1190267 0.01018987 0.4810379 255 0 255
0.1198115 0.01039156 0.4795236 255 0 255
0.120137 0.01056067 0.4771153 255 0 255
0.1213531 0.01079577 0.4764906 255 0 255
0.1211968 0.01092996 0.4731942 255 0 255
0.1228578 0.01120111 0.4734525 255 0 255
0.1240597 0.01143964 0.472817 255 0 255
0.125259 0.01167979 0.4721768 255 0 255
0.1264557 0.0119215 0.4715319 255 0 255
0.1281233 0.01220229 0.4717622 255 0 255
0.1297949 0.01248603 0.4719842 255 0 255
0.1309906 0.0127338 0.4713213 255 0 255
0.132667 0.01302278 0.4715283 255 0 255
0.1348339 0.01335501 0.4725994 255 0 255
0.1355416 0.01356863 0.4710459 255 0 255
0.1367331 0.01382416 0.4703604 255 0 255
0.1150869 0.00790375 0.4852464 255 0 255
0.1159021 0.008107242 0.4837415 255 0 255
0.116708 0.008311047 0.482235 255 0 255
0.1179448 0.008542253 0.4816246 255 0 255
0.1178486 0.008692132 0.4783218 255 0 255
0.1190703 0.008924596 0.4777067 255 0 255
0.1198393 0.009129732 0.4761945 255 0 255
0.1215064 0.009394404 0.4764623 255 0 255
0.1218065 0.009571144 0.474055 255 0 255
0.123472 0.009839609 0.4743115 255 0 255
0.1246779 0.01007944 0.4736743 255 0 255
0.1258812 0.01032082 0.4730323 255 0 255
0.1266115 0.01053087 0.4715039 255 0 255
0.1278064 0.01077475 0.4708542 255 0 255
0.1299529 0.01108885 0.4719561 255 0 255
0.1311493 0.01133728 0.4712933 255 0 255
0.1328268 0.01162301 0.4715002 255 0 255
0.1349953 0.01194808 0.4725713 255 0 255
0.1357032 0.01216625 0.4710179 255 0 255
0.135908 0.01234678 0.4685947 255 0 255
0.1127306 0.006024607 0.4864052 255 0 255
0.1139845 0.006251116 0.4858111 255 0 255
0.1148058 0.006458031 0.4843094 255 0 255
0.1160516 0.006687235 0.4837071 255 0 255
0.1164206 0.006873018 0.4813016 255 0 255
0.1176547 0.00710416 0.4806929 255 0 255
0.1179985 0.007289375 0.4782878 255 0 255
0.1187736 0.007497988 0.4767788 255 0 255
0.1195394 0.007706984 0.4752684 255 0 255
0.1212042 0.007967631 0.4755378 255 0 255
0.1219583 0.008178461 0.4740214 255 0 255
0.1236248 0.008443695 0.4742778 255 0 255
0.1243672 0.008656347 0.4727553 255 0 255
0.1255678 0.008897673 0.4721152 255 0 255
0.126295 0.009111492 0.4705886 255 0 255
0.1279615 0.009385077 0.4708207 255 0 255
0.129632 0.00966159 0.4710444 255 0 255
0.1308257 0.00990994 0.4703835 255 0 255
0.1325009 0.01019172 0.4705922 255 0 255
0.1346677 0.01050898 0.471665 255 0 255
0.1348817 0.01069773 0.469243 255 0 255
0.1355739 0.01091919 0.4676926 255 0 255
0.1116201 0.004374004 0.4869544 255 0 255
0.1124532 0.004583369 0.4854594 255 0 255
0.1132772 0.004793088 0.4839629 255 0 255
0.1145226 0.005020565 0.4833671 255 0 255
0.1153315 0.005231646 0.4818657 255 0 255
0.1161312 0.005443132 0.4803628 255 0 255
0.1173625 0.005674177 0.4797558 255 0 255
0.1181471 0.005886977 0.4782483 255 0 255
0.1184746 0.006079564 0.4758454 255 0 255
0.1196885 0.006313541 0.4752291 255 0 255
0.1208998 0.006549028 0.474608 255 0 255
0.1221087 0.006786196 0.4739822 255 0 255
0.1228538 0.007001731 0.4724646 255 0 255
0.1240543 0.007241385 0.471831 255 0 255
0.1252522 0.007482634 0.4711927 255 0 255
0.1259764 0.007700291 0.4696681 255 0 255
0.1271658 0.007943991 0.4690222 255 0 255
0.1283528 0.008189316 0.4683715 255 0 255
0.1300185 0.008463453 0.4685923 255 0 255
0.1312035 0.008712588 0.4679304 255 0 255
0.1333619 0.009020674 0.4690086 255 0 255
0.134057 0.009245065 0.4674631 255 0 255
0.1352375 0.009499676 0.4667852 255 0 255
0.1105046 0.00272436 0.487493 255 0 255
0.1117646 0.00294866 0.4869086 255 0 255
0.1125981 0.003162462 0.4854138 255 0 255
0.1134224 0.003376646 0.4839174 255 0 255
0.1146684 0.00360462 0.4833216 255 0 255
0.1159121 0.003834246 0.4827209 255 0 255
0.1167155 0.00405083 0.4812165 255 0 255
0.1179509 0.004283058 0.4806078 255 0 255
0.1182943 0.004484984 0.4782032 255 0 255
0.1186218 0.004685912 0.4758007 255 0 255
0.1189331 0.004885868 0.4734003 255 0 255
0.1205933 0.00513861 0.473673 255 0 255
0.1213412 0.005357044 0.4721603 255 0 255
0.1230032 0.005614292 0.4724201 255 0 255
0.1242043 0.00585452 0.4717865 255 0 255
0.1249345 0.006075745 0.470265 255 0 255
0.1251837 0.006275875 0.4678609 255 0 255
0.1263672 0.006518802 0.4672186 255 0 255
0.1270697 0.006740692 0.4656938 255 0 255
0.1287265 0.007009482 0.4659201 255 0 255
0.1303873 0.007281244 0.4661379 255 0 255
0.1325405 0.007580795 0.4672197 255 0 255
0.1337209 0.007833744 0.4665485 255 0 255
0.1348987 0.008088278 0.4658726 255 0 255
0.1106472 0.0012989 0.4874415 255 0 255
0.1114867 0.001516074 0.4859502 255 0 255
0.112317 0.001733658 0.4844572 255 0 255
0.1135662 0.001960573 0.4838663 255 0 255
0.1148129 0.002189107 0.4832705 255 0 255
0.1160573 0.002419276 0.4826698 255 0 255
0.1168609 0.002640311 0.4811656 255 0 255
0.1172135 0.002850219 0.4787628 255 0 255
0.1179952 0.003071282 0.4772573 255 0 255
0.118319 0.00327993 0.4748567 255 0 255
0.1190788 0.003500949 0.4733503 255 0 255
0.1207401 0.003750388 0.4736229 255 0 255
0.1219468 0.003987998 0.4729989 255 0 255
0.1236133 0.004242619 0.4732568 255 0 255
0.124353 0.004468091 0.4717366 255 0 255
0.1250834 0.004693785 0.4702152 255 0 255
0.1258046 0.004919666 0.4686928 255 0 255
0.1265166 0.005145827 0.4671692 255 0 255
0.1276981 0.005390973 0.4665223 255 0 255
0.1288771 0.005637687 0.4658707 255 0 255
0.1300535 0.005886003 0.4652146 255 0 255
0.1312272 0.006135889 0.4645537 255 0 255
0.1323984 0.006387333 0.4638882 255 0 255
0.1330714 0.006618021 0.4623497 255 0 255
0.113309 0.0003262207 0.4862109 255 0 255
0.1141372 0.0005499022 0.4847132 255 0 255
0.115388 0.0007796204 0.4841157 255 0 255
0.1162012 0.001004752 0.4826132 255 0 255
0.1165663 0.001223292 0.4802105 255 0 255
0.1173575 0.00144849 0.4787067 255 0 255
0.1181394 0.001673976 0.4772014 255 0 255
0.1184631 0.001890927 0.4748012 255 0 255
0.1192232 0.002116455 0.4732949 255 0 255
0.1204297 0.002352376 0.4726774 255 0 255
0.1216338 0.002589926 0.4720551 255 0 255
0.1232979 0.002840595 0.4723147 255 0 255
0.1240345 0.003069875 0.4707964 255 0 255
0.1247618 0.003299325 0.469277 255 0 255
0.1254798 0.003529031 0.4677566 255 0 255
0.1261886 0.003758984 0.466235 255 0 255
0.1268882 0.003989081 0.4647124 255 0 255
0.1280611 0.004235014 0.4640647 255 0 255
0.1292315 0.00448253 0.4634122 255 0 255
0.1303993 0.004731652 0.4627551 255 0 255
0.1310719 0.004964537 0.4612234 255 0 255
0.1322311 0.005216049 0.460559 255 0 255
0.1130249 -0.001097816 0.4852432 255 0 255
0.1142788 -0.0008692174 0.4846507 255 0 255
0.1150981 -0.0006406989 0.4831516 255 0 255
0.115908 -0.0004117853 0.4816509 255 0 255
0.1162696 -0.0001855054 0.4792503 255 0 255
0.1175002 4.713785E-05 0.478645 255 0 255
0.1178364 0.0002728091 0.4762449 255 0 255
0.118606 0.0005024452 0.4747401 255 0 255
0.1193662 0.0007323663 0.473234 255 0 255
0.1210296 0.0009751979 0.4735064 255 0 255
0.1213186 0.00120006 0.4711061 255 0 255
0.1229803 0.001446763 0.4713674 255 0 255
0.1237138 0.001679777 0.4698511 255 0 255
0.124438 0.001913095 0.4683337 255 0 255
0.1251528 0.002146577 0.4668152 255 0 255
0.1258585 0.002380299 0.4652957 255 0 255
0.1270347 0.002625262 0.4646526 255 0 255
0.1277252 0.002860039 0.4631293 255 0 255
0.1284065 0.003095001 0.4616051 255 0 255
0.1295683 0.003343326 0.4609518 255 0 255
0.1302345 0.003579297 0.459424 255 0 255
0.1308914 0.003815404 0.4578955 255 0 255
0.1156713 -0.002057054 0.4839854 255 0 255
0.116485 -0.001823075 0.4824832 255 0 255
0.1164104 -0.001586938 0.4791831 255 0 255
0.1176416 -0.001353723 0.4785779 255 0 255
0.1179777 -0.001119719 0.4761781 255 0 255
0.1191972 -0.0008845724 0.4755667 255 0 255
0.119508 -0.0006512375 0.4731677 255 0 255
0.1211723 -0.0004117729 0.4734399 255 0 255
0.1210012 -0.0001815895 0.4701522 255 0 255
0.1226607 6.11163E-05 0.470415 255 0 255
0.123391 0.0002979641 0.4689007 255 0 255
0.1245821 0.0005401485 0.468268 255 0 255
0.1252972 0.000778098 0.4667498 255 0 255
0.1264798 0.001022794 0.4661095 255 0 255
0.1276599 0.001269088 0.4654646 255 0 255
0.128354 0.001509049 0.4639397 255 0 255
0.1280653 0.001732025 0.4606669 255 0 255
0.1297144 0.001989488 0.4608871 255 0 255
0.1298874 0.002219965 0.4584899 255 0 255
0.1300445 0.002449081 0.4560955 255 0 255
0.1154174 -0.003719514 0.4863151 255 0 255
0.115378 -0.003468635 0.4830105 255 0 255
0.1161885 -0.003230886 0.4815102 255 0 255
0.1165498 -0.002987921 0.4791104 255 0 255
0.116895 -0.002745904 0.4767125 255 0 255
0.1181176 -0.002511825 0.4761059 255 0 255
0.1188876 -0.002273264 0.4746015 255 0 255
0.1196484 -0.002034433 0.4730959 255 0 255
0.1208569 -0.001796747 0.4724785 255 0 255
0.1211422 -0.001555833 0.4700809 255 0 255
0.1218751 -0.001316129 0.4685716 255 0 255
0.1225989 -0.001076234 0.4670611 255 0 255
0.1237839 -0.0008348135 0.466432 255 0 255
0.1244925 -0.0005937542 0.4649176 255 0 255
0.1261463 -0.0003472374 0.4651598 255 0 255
0.1273236 -0.0001010408 0.4645168 255 0 255
0.1284984 0.0001467297 0.4638691 255 0 255
0.1282091 0.0003819055 0.460597 255 0 255
0.1293687 0.0006307122 0.4599457 255 0 255
0.1290443 0.0008626431 0.4566812 255 0 255
0.1291946 0.001098687 0.4542912 255 0 255
0.1159495 -0.004891915 0.4838327 255 0 255
0.1163268 -0.004639701 0.4814315 255 0 255
0.116688 -0.004388415 0.4790322 255 0 255
0.1179205 -0.00415411 0.4784271 255 0 255
0.1182563 -0.00390342 0.4760282 255 0 255
0.1190266 -0.00366039 0.4745241 255 0 255
0.1197875 -0.003417119 0.4730187 255 0 255
0.1205393 -0.003173494 0.471512 255 0 255
0.120821 -0.002924917 0.4691167 255 0 255
0.1210867 -0.002677436 0.4667237 255 0 255
0.1222715 -0.002437731 0.466101 255 0 255
0.1234537 -0.00219641 0.4654737 255 0 255
0.1236849 -0.001949613 0.4630809 255 0 255
0.125333 -0.001707793 0.4633266 255 0 255
0.1269852 -0.001462978 0.4635641 255 0 255
0.1271887 -0.001215555 0.4611685 255 0 255
0.1278639 -0.0009685541 0.4596487 255 0 255
0.1290209 -0.000719862 0.4589993 255 0 255
0.1291867 -0.0004741512 0.4566068 255 0 255
0.1298343 -0.0002267547 0.4550847 255 0 255
0.1156932 -0.006570029 0.4861504 255 0 255
0.1156528 -0.006294711 0.4828471 255 0 255
0.1164638 -0.006048038 0.4813473 255 0 255
0.1163842 -0.005775882 0.4780509 255 0 255
0.1176139 -0.005541641 0.4774475 255 0 255
0.1179461 -0.00528325 0.4750508 255 0 255
0.1191641 -0.005047064 0.4744412 255 0 255
0.119471 -0.004789367 0.4720453 255 0 255
0.1206773 -0.004551226 0.4714297 255 0 255
0.1209589 -0.004294328 0.4690348 255 0 255
0.1212244 -0.00403852 0.4666423 255 0 255
0.1219418 -0.003791009 0.4651359 255 0 255
0.12265 -0.003543287 0.4636285 255 0 255
0.123349 -0.00329537 0.46212 255 0 255
0.1249947 -0.003057486 0.4623674 255 0 255
0.1261633 -0.002812214 0.46173 255 0 255
0.1268446 -0.00256162 0.4602132 255 0 255
0.1270287 -0.002307854 0.4578228 255 0 255
0.1281795 -0.002059956 0.4571772 255 0 255
0.1293278 -0.00181048 0.4565271 255 0 255
0.1299756 -0.001558571 0.4550053 255 0 255
0.1162224 -0.007724736 0.4836577 255 0 255
0.1161619 -0.007438771 0.4803586 255 0 255
0.1165194 -0.007171478 0.4779619 255 0 255
0.1173052 -0.006920885 0.4764629 255 0 255
0.1176339 -0.006654833 0.4740685 255 0 255
0.1183978 -0.006404277 0.4725684 255 0 255
0.1191524 -0.006153421 0.471067 255 0 255
0.1194397 -0.005889077 0.4686755 255 0 255
0.1201724 -0.00563834 0.4671735 255 0 255
0.1208959 -0.005387324 0.4656703 255 0 255
0.1216102 -0.00513606 0.464166 255 0 255
0.1223152 -0.004884527 0.4626607 255 0 255
0.123011 -0.004632855 0.4611543 255 0 255
0.124176 -0.004389932 0.4605252 255 0 255
0.1248567 -0.004137184 0.4590152 255 0 255
0.1255282 -0.003884249 0.4575042 255 0 255
0.1266788 -0.003638022 0.4568652 255 0 255
0.127827 -0.003390207 0.4562215 255 0 255
0.1289725 -0.00314087 0.4555733 255 0 255
0.1301154 -0.002889916 0.4549207 255 0 255
0.1159637 -0.009418435 0.4859632 255 0 255
0.1163569 -0.009140346 0.4835619 255 0 255
0.1162959 -0.008842167 0.4802637 255 0 255
0.1170947 -0.00858687 0.4787647 255 0 255
0.1174393 -0.00831154 0.4763688 255 0 255
0.1177679 -0.008037189 0.4739749 255 0 255
0.1180803 -0.007763803 0.4715831 255 0 255
0.1188318 -0.007509125 0.4700837 255 0 255
0.1191155 -0.007237142 0.4676947 255 0 255
0.1203069 -0.006999008 0.4670814 255 0 255
0.1210307 -0.006743464 0.4655785 255 0 255
0.1217451 -0.006487763 0.4640746 255 0 255
0.1219783 -0.006217575 0.4616881 255 0 255
0.1226709 -0.005962105 0.4601839 255 0 255
0.1233543 -0.005706439 0.4586787 255 0 255
0.1240285 -0.005450623 0.4571727 255 0 255
0.1246935 -0.005194617 0.4556657 255 0 255
0.1263269 -0.004959948 0.4559028 255 0 255
0.1274723 -0.004712277 0.4552611 255 0 255
0.128615 -0.004463013 0.4546148 255 0 255
0.1297553 -0.004212141 0.4539641 255 0 255
0.116925 -0.01058091 0.4843607 255 0 255
0.1168669 -0.01026988 0.4810616 255 0 255
0.1176694 -0.01000948 0.4795612 255 0 255
0.1180174 -0.009725177 0.4771642 255 0 255
0.1174519 -0.009396025 0.4729825 255 0 255
0.1182128 -0.009137233 0.4714847 255 0 255
0.1189645 -0.008878139 0.4699857 255 0 255
0.1197069 -0.008618738 0.4684854 255 0 255
0.1204401 -0.008359062 0.466984 255 0 255
0.1216297 -0.008118629 0.4663661 255 0 255
0.1223477 -0.007857793 0.4648607 255 0 255
0.1225841 -0.007578564 0.4624731 255 0 255
0.1232803 -0.007317919 0.4609674 255 0 255
0.1234881 -0.00704037 0.4585832 255 0 255
0.1241625 -0.006780102 0.4570775 255 0 255
0.1243418 -0.006504332 0.454697 255 0 255
0.1259728 -0.00627364 0.4549356 255 0 255
0.1266229 -0.006012207 0.4534256 255 0 255
0.1282555 -0.005776883 0.4536516 255 0 255
0.1298921 -0.005538587 0.4538693 255 0 255
0.1170573 -0.0119993 0.4842534 255 0 255
0.1169987 -0.01167605 0.4809552 255 0 255
0.1169171 -0.01135504 0.4776623 255 0 255
0.1172581 -0.01106369 0.4752693 255 0 255
0.1171339 -0.01074655 0.4719852 255 0 255
0.1178916 -0.01048399 0.4704895 255 0 255
0.119096 -0.01024657 0.4698822 255 0 255
0.1193794 -0.009957974 0.4674944 255 0 255
0.1201093 -0.00969453 0.465995 255 0 255
0.1217621 -0.009477627 0.4662634 255 0 255
0.122011 -0.009189602 0.4638757 255 0 255
0.1222438 -0.00890274 0.4614905 255 0 255
0.123413 -0.008659642 0.460866 255 0 255
0.1236206 -0.008373794 0.4584825 255 0 255
0.1238122 -0.008089156 0.4561017 255 0 255
0.123988 -0.007805764 0.4537236 255 0 255
0.125127 -0.007560631 0.4530922 255 0 255
0.1262635 -0.007313874 0.4524562 255 0 255
0.1278938 -0.007082564 0.4526838 255 0 255
0.1290285 -0.006831939 0.452037 255 0 255
0.1175683 -0.01311427 0.4817413 255 0 255
0.1179322 -0.01281238 0.4793438 255 0 255
0.1182798 -0.0125114 0.4769481 255 0 255
0.1177126 -0.0121501 0.4727688 255 0 255
0.118474 -0.01188243 0.4712718 255 0 255
0.1192261 -0.01161443 0.4697734 255 0 255
0.1195093 -0.01131751 0.4673862 255 0 255
0.1197765 -0.0110217 0.4650013 255 0 255
0.1209604 -0.01078151 0.4643871 255 0 255
0.1221419 -0.01053967 0.4637683 255 0 255
0.1219014 -0.01021861 0.4605032 255 0 255
0.1225912 -0.009950488 0.4590018 255 0 255
0.1232718 -0.009682156 0.4574995 255 0 255
0.1239432 -0.009413695 0.4559964 255 0 255
0.1241187 -0.009121969 0.4536191 255 0 255
0.1257483 -0.008898541 0.4538591 255 0 255
0.1263954 -0.008628861 0.4523517 255 0 255
0.1280265 -0.008400819 0.4525791 255 0 255
0.1291618 -0.008149553 0.4519323 255 0 255
0.1190161 -0.0146327 0.4843163 255 0 255
0.1185044 -0.0142488 0.4801227 255 0 255
0.1193017 -0.01397404 0.4786203 255 0 255
0.1187405 -0.01359532 0.4744389 255 0 255
0.119509 -0.01332184 0.4729388 255 0 255
0.1202681 -0.01304807 0.4714374 255 0 255
0.120558 -0.01274146 0.4690474 255 0 255
0.1208318 -0.01243595 0.4666597 255 0 255
0.1215563 -0.01216269 0.4651582 255 0 255
0.1222716 -0.01188917 0.4636557 255 0 255
0.122504 -0.01158564 0.4612718 255 0 255
0.1231974 -0.01131237 0.459769 255 0 255
0.1238816 -0.01103891 0.4582653 255 0 255
0.1245565 -0.01076524 0.4567607 255 0 255
0.1252222 -0.01049141 0.4552553 255 0 255
0.1258787 -0.01021741 0.4537491 255 0 255
0.1270196 -0.009968716 0.4531113 255 0 255
0.128655 -0.009743175 0.4533365 255 0 255
0.1292938 -0.009466598 0.4518225 255 0 255
0.1195852 -0.01609296 0.4850894 255 0 255
0.1190761 -0.01569231 0.4808955 255 0 255
0.1194304 -0.0153734 0.4784979 255 0 255
0.1193185 -0.01501703 0.4752101 255 0 255
0.1200905 -0.01473842 0.4737086 255 0 255
0.1208533 -0.01445954 0.4722059 255 0 255
0.1206861 -0.01410756 0.4689279 255 0 255
0.120496 -0.01375805 0.4656557 255 0 255
0.1212173 -0.01348102 0.4641564 255 0 255
0.1219294 -0.01320375 0.462656 255 0 255
0.1226322 -0.01292622 0.4611546 255 0 255
0.1228485 -0.01261562 0.4587741 255 0 255
0.1240101 -0.01237058 0.4581489 255 0 255
0.1246852 -0.01209246 0.4566447 255 0 255
0.125351 -0.01181414 0.4551396 255 0 255
0.1260077 -0.01153572 0.4536338 255 0 255
0.1271492 -0.01128643 0.4529962 255 0 255
0.1282881 -0.01103551 0.4523541 255 0 255
0.1294245 -0.01078305 0.4517076 255 0 255
0.1200907 -0.01718659 0.4825572 255 0 255
0.1204518 -0.01685802 0.480157 255 0 255
0.1198957 -0.01644582 0.4759751 255 0 255
0.1202176 -0.01612056 0.4735823 255 0 255
0.1205233 -0.01579627 0.4711916 255 0 255
0.1208129 -0.01547304 0.4688031 255 0 255
0.1206222 -0.01511136 0.465532 255 0 255
0.1213438 -0.01482989 0.4640332 255 0 255
0.122056 -0.01454815 0.4625331 255 0 255
0.122759 -0.01426619 0.4610321 255 0 255
0.1229751 -0.01394726 0.4586524 255 0 255
0.1241373 -0.01370161 0.4580272 255 0 255
0.125297 -0.01345434 0.4573976 255 0 255
0.1254786 -0.01313629 0.4550189 255 0 255
0.1266265 -0.01288725 0.4543839 255 0 255
0.1272774 -0.01260346 0.4528759 255 0 255
0.1284169 -0.01235198 0.4522339 255 0 255
0.1295538 -0.01209892 0.4515874 255 0 255
0.1214733 -0.01835748 0.4818092 255 0 255
0.1213741 -0.01797402 0.4785168 255 0 255
0.1207976 -0.01754748 0.4743403 255 0 255
0.1211066 -0.01721419 0.4719486 255 0 255
0.1218605 -0.01692607 0.4704455 255 0 255
0.1216761 -0.01655085 0.4671721 255 0 255
0.1214689 -0.01617808 0.4639045 255 0 255
0.1221813 -0.0158919 0.4624049 255 0 255
0.1224099 -0.01556419 0.4600252 255 0 255
0.1226224 -0.01523765 0.4576481 255 0 255
0.1237818 -0.01499214 0.4570248 255 0 255
0.1249386 -0.014745 0.4563971 255 0 255
0.1256048 -0.01445784 0.4548929 255 0 255
0.1267532 -0.01420818 0.454258 255 0 255
0.1278991 -0.01395697 0.4536186 255 0 255
0.1290424 -0.01370409 0.4529749 255 0 255
0.1296818 -0.01341412 0.4514621 255 0 255
0.1220471 -0.01982105 0.4825615 255 0 255
0.1214997 -0.01937473 0.4783777 255 0 255
0.121377 -0.01898145 0.4750921 255 0 255
0.1212312 -0.01859058 0.4718119 255 0 255
0.1219853 -0.01829801 0.4703092 255 0 255
0.1222653 -0.01795785 0.4679211 255 0 255
0.1220609 -0.01757225 0.464653 255 0 255
0.1223054 -0.01723506 0.4622716 255 0 255
0.1230087 -0.0169442 0.4607714 255 0 255
0.1227461 -0.01656418 0.4575163 255 0 255
0.1234242 -0.01627431 0.4560179 255 0 255
0.1245782 -0.01602733 0.4553921 255 0 255
0.1252412 -0.0157364 0.4538902 255 0 255
0.125895 -0.01544529 0.4523875 255 0 255
0.1270348 -0.01519494 0.451752 255 0 255
0.1281719 -0.01494296 0.4511121 255 0 255
0.1288047 -0.01464998 0.4496036 255 0 255
0.1220755 -0.02082866 0.4791238 255 0 255
0.1215007 -0.0203693 0.4749487 255 0 255
0.1208962 -0.0199137 0.4707826 255 0 255
0.1216471 -0.0196174 0.4692821 255 0 255
0.1219235 -0.01926962 0.4668966 255 0 255
0.1221838 -0.01892301 0.4645135 255 0 255
0.1224281 -0.0185775 0.4621329 255 0 255
0.1231316 -0.0182822 0.4606332 255 0 255
0.1233472 -0.01793838 0.458256 255 0 255
0.1240288 -0.01764335 0.4567563 255 0 255
0.1242158 -0.01730124 0.4543827 255 0 255
0.1248756 -0.01700663 0.4528831 255 0 255
0.1255262 -0.01671179 0.4513828 255 0 255
0.1271586 -0.01650623 0.4516167 255 0 255
0.1277975 -0.01620967 0.4501112 255 0 255
0.1289292 -0.01595625 0.4494688 255 0 255
0.1240061 -0.02246282 0.4825342 255 0 255
0.1225338 -0.02187058 0.476577 255 0 255
0.1219352 -0.02139759 0.4724092 255 0 255
0.122231 -0.02103975 0.4700205 255 0 255
0.1225107 -0.02068301 0.4676343 255 0 255
0.1227743 -0.02032739 0.4652503 255 0 255
0.1225494 -0.01991929 0.461989 255 0 255
0.1232532 -0.01961954 0.4604899 255 0 255
0.1229894 -0.01921524 0.4572373 255 0 255
0.1236679 -0.01891647 0.4557399 255 0 255
0.1238513 -0.01856682 0.453369 255 0 255
0.1249971 -0.01831844 0.4527425 255 0 255
0.1256478 -0.01801921 0.4512427 255 0 255
0.1272812 -0.01781687 0.4514762 255 0 255
0.1284194 -0.01756367 0.4508363 255 0 255
0.1290525 -0.01726181 0.4493289 255 0 255
0.1245815 -0.02394233 0.4832663 255 0 255
0.1235668 -0.02338656 0.4781981 255 0 255
0.1225153 -0.02283594 0.4731423 255 0 255
0.1218895 -0.02235002 0.4689836 255 0 255
0.1226314 -0.02204453 0.4674828 255 0 255
0.1228949 -0.02168061 0.4650998 255 0 255
0.1226695 -0.02126037 0.4618399 255 0 255
0.1233734 -0.02095616 0.4603412 255 0 255
0.1231092 -0.02053973 0.45709 255 0 255
0.123305 -0.02018124 0.4547191 255 0 255
0.1234848 -0.01982399 0.452351 255 0 255
0.1241382 -0.01952192 0.4508561 255 0 255
0.1252753 -0.01927282 0.450229 255 0 255
0.1264099 -0.01902209 0.4495973 255 0 255
0.1275419 -0.01876975 0.4489613 255 0 255
0.1286714 -0.0185158 0.448321 255 0 255
0.1250557 -0.02498205 0.4806997 255 0 255
0.123554 -0.02434538 0.474755 255 0 255
0.1229342 -0.02384208 0.4705947 255 0 255
0.123217 -0.02346807 0.4682086 255 0 255
0.1234837 -0.0230951 0.4658247 255 0 255
0.1237343 -0.02272329 0.4634433 255 0 255
0.1239687 -0.02235269 0.4610645 255 0 255
0.1241871 -0.02198324 0.4586882 255 0 255
0.1243895 -0.02161504 0.4563147 255 0 255
0.1245759 -0.02124806 0.4539439 255 0 255
0.1247463 -0.02088239 0.451576 255 0 255
0.1258872 -0.02063194 0.450947 255 0 255
0.1270257 -0.02037986 0.4503137 255 0 255
0.1281615 -0.02012616 0.4496759 255 0 255
0.1292948 -0.01987088 0.4490337 255 0 255
0.1245927 -0.02586947 0.4763605 255 0 255
0.1235158 -0.02528151 0.4713149 255 0 255
0.1238019 -0.02489848 0.468928 255 0 255
0.1245418 -0.02458247 0.4674237 255 0 255
0.124799 -0.02420092 0.4650397 255 0 255
0.1250401 -0.0238206 0.4626583 255 0 255
0.124785 -0.02337773 0.4594046 255 0 255
0.125474 -0.0230635 0.4579032 255 0 255
0.125667 -0.0226868 0.4555298 255 0 255
0.1263342 -0.02237289 0.4540286 255 0 255
0.1264985 -0.02199806 0.4516591 255 0 255
0.1276408 -0.02174462 0.451024 255 0 255
0.1282802 -0.02143026 0.4495206 255 0 255
0.129414 -0.02117434 0.4488785 255 0 255
0.1260915 -0.02748005 0.4788437 255 0 255
0.1250238 -0.02687013 0.4737954 255 0 255
0.1243862 -0.02633591 0.4696412 255 0 255
0.1246594 -0.02594502 0.4672559 255 0 255
0.1244428 -0.0254862 0.463995 255 0 255
0.1246803 -0.02509829 0.4616164 255 0 255
0.1244213 -0.02464399 0.4583659 255 0 255
0.1246233 -0.02425922 0.4559944 255 0 255
0.1252965 -0.0239418 0.4544964 255 0 255
0.1259605 -0.02362419 0.4529977 255 0 255
0.1266152 -0.02330644 0.4514981 255 0 255
0.1267634 -0.02292463 0.4491326 255 0 255
0.1273963 -0.02260735 0.4476335 255 0 255
0.1285239 -0.02235231 0.4469953 255 0 255
0.1256047 -0.02833114 0.474502 255 0 255
0.1249697 -0.02778023 0.4703481 255 0 255
0.1247756 -0.02730676 0.4670829 255 0 255
0.1250325 -0.02690869 0.464701 255 0 255
0.1252733 -0.02651178 0.4623216 255 0 255
0.1250172 -0.02604463 0.459071 255 0 255
0.1252224 -0.02565086 0.4566987 255 0 255
0.1258992 -0.02532827 0.4551994 255 0 255
0.1260757 -0.02493627 0.4528309 255 0 255
0.1262363 -0.02454562 0.4504654 255 0 255
0.1263809 -0.02415628 0.4481027 255 0 255
0.1275116 -0.02390227 0.447469 255 0 255
0.1281354 -0.02358041 0.4459699 255 0 255
0.1288252 -0.0297782 0.4772124 255 0 255
0.1267742 -0.0289773 0.4704195 255 0 255
0.1265702 -0.02849144 0.4671547 255 0 255
0.1258656 -0.02793215 0.4630206 255 0 255
0.1256124 -0.02745219 0.4597698 255 0 255
0.1253363 -0.02697488 0.4565251 255 0 255
0.1260132 -0.02664785 0.4550265 255 0 255
0.1266808 -0.02632066 0.453527 255 0 255
0.1268446 -0.02592097 0.4511607 255 0 255
0.1269924 -0.02552264 0.4487973 255 0 255
0.1281269 -0.02526723 0.4481618 255 0 255
0.1287541 -0.02494017 0.4466614 255 0 255
0.1308131 -0.03150899 0.4805429 255 0 255
0.128774 -0.03067781 0.4737467 255 0 255
0.1271593 -0.02993535 0.4678471 255 0 255
0.1264572 -0.0293594 0.4637133 255 0 255
0.1257254 -0.02878751 0.4595894 255 0 255
0.1254489 -0.02829809 0.4563464 255 0 255
0.1256378 -0.02788904 0.4539791 255 0 255
0.1263022 -0.02755814 0.4524821 255 0 255
0.1264624 -0.02715092 0.4501188 255 0 255
0.1261083 -0.0266697 0.4468947 255 0 255
0.1267349 -0.02634059 0.4454012 255 0 255
0.1278572 -0.02608523 0.444767 255 0 255
0.1312466 -0.03249327 0.4779421 255 0 255
0.1277475 -0.03138613 0.468533 255 0 255
0.1260914 -0.0306262 0.4626515 255 0 255
0.1258371 -0.03012202 0.4594039 255 0 255
0.1260453 -0.02970272 0.4570332 255 0 255
0.1257488 -0.02920318 0.4537964 255 0 255
0.1259215 -0.02878715 0.4514332 255 0 255
0.1265734 -0.02845238 0.4499379 255 0 255
0.1272161 -0.02811746 0.4484419 255 0 255
0.1273475 -0.02770394 0.4460839 255 0 255
0.1279684 -0.02736953 0.4445885 255 0 255
0.1316621 -0.03346108 0.4753403 255 0 255
0.1281169 -0.03232188 0.4659534 255 0 255
0.1273938 -0.03171594 0.4618286 255 0 255
0.1271264 -0.03120012 0.4585836 255 0 255
0.1268362 -0.03068705 0.455345 255 0 255
0.1270155 -0.03026125 0.4529792 255 0 255
0.1271787 -0.0298368 0.4506164 255 0 255
0.1273259 -0.02941367 0.4482566 255 0 255
0.1279594 -0.02907419 0.4467606 255 0 255
0.1285838 -0.02873455 0.4452639 255 0 255
0.1301437 -0.03404733 0.4692457 255 0 255
0.1284686 -0.03324139 0.4633735 255 0 255
0.1282075 -0.03271202 0.4601267 255 0 255
0.1274344 -0.03209628 0.4560186 255 0 255
0.1281094 -0.03174985 0.454518 255 0 255
0.1282791 -0.03131562 0.4521527 255 0 255
0.1284329 -0.03088274 0.4497904 255 0 255
0.1280681 -0.03036513 0.4465708 255 0 255
0.1291985 -0.03010637 0.4459332 255 0 255
0.1326509 -0.03589768 0.4734005 255 0 255
0.1300259 -0.03487568 0.4657816 255 0 255
0.1292885 -0.03423838 0.4616623 255 0 255
0.1285214 -0.0336052 0.4575529 255 0 255
0.1292033 -0.03325285 0.4560494 255 0 255
0.1288834 -0.03271744 0.4528182 255 0 255
0.1285407 -0.03218491 0.4495938 255 0 255
0.1281753 -0.03165521 0.4463761 255 0 255
0.1287999 -0.03130675 0.4448808 255 0 255
0.1320668 -0.03663024 0.4690509 255 0 255
0.1298829 -0.03568159 0.462322 255 0 255
0.1296082 -0.03512856 0.4590798 255 0 255
0.130297 -0.03477026 0.4575732 255 0 255
0.1294868 -0.03412605 0.4534774 255 0 255
0.129147 -0.03358066 0.450253 255 0 255
0.1292878 -0.03313185 0.4478944 255 0 255
0.1299192 -0.03277744 0.4463961 255 0 255
0.1341086 -0.03841447 0.47231 255 0 255
0.1309633 -0.03723285 0.4638429 255 0 255
0.1306949 -0.03666626 0.460599 255 0 255
0.1308971 -0.03620223 0.4582254 255 0 255
0.1295927 -0.03544227 0.4532682 255 0 255
0.1292524 -0.03488486 0.4500457 255 0 255
0.129393 -0.03442785 0.4476884 255 0 255
0.1300245 -0.03406896 0.4461908 255 0 255
0.1356679 -0.04012239 0.47469 255 0 255
0.1300954 -0.03837795 0.461888 255 0 255
0.1298199 -0.03780076 0.4586496 255 0 255
0.1310027 -0.03753725 0.4580079 255 0 255
0.1296972 -0.03675766 0.4530539 255 0 255
0.1303575 -0.03639236 0.4515527 255 0 255
0.1310085 -0.03602691 0.4500508 255 0 255
0.1306357 -0.03546017 0.4468364 255 0 255
0.1311743 -0.03994256 0.4633959 255 0 255
0.1304143 -0.03924367 0.4592913 255 0 255
0.1301187 -0.03865647 0.4560596 255 0 255
0.1298003 -0.03807207 0.4528344 255 0 255
0.1299599 -0.03759643 0.4504749 255 0 255
0.1311118 -0.03733248 0.4498329 255 0 255
0.1307386 -0.0367537 0.4466205 255 0 255
0.1298149 -0.04095772 0.4605672 255 0 255
0.1270801 -0.0397972 0.4530151 255 0 255
0.1282435 -0.03953698 0.4523846 255 0 255
0.1289066 -0.03916455 0.4508893 255 0 255
0.1300616 -0.03890168 0.4502518 255 0 255
0.1307095 -0.03852816 0.4487533 255 0 255
0.1308402 -0.03804629 0.4463995 255 0 255
0.121418 -0.03923551 0.4400953 255 0 255
0.1260182 -0.03978371 0.4455035 255 0 255
0.1286576 -0.03986538 0.4474504 255 0 255
0.1308098 -0.03982799 0.4485258 255 0 255
0.1319566 -0.03956186 0.4478815 255 0 255
0.09581748 -0.03476054 0.3973458 255 0 255
0.1186402 -0.03929343 0.4323905 255 0 255
0.1237387 -0.03998405 0.4386486 255 0 255
0.1283835 -0.04054413 0.4440175 255 0 255
0.132056 -0.04086011 0.4476492 255 0 255
0.08000638 -0.03144155 0.3673959 255 0 255
0.09828855 -0.03551907 0.3969797 255 0 255
0.1117851 -0.03833018 0.4178666 255 0 255
0.1219103 -0.04025861 0.4326751 255 0 255
0.1291019 -0.04144001 0.4422961 255 0 255
0.068434 -0.02904452 0.3453298 255 0 255
0.09328742 -0.03486934 0.3859905 255 0 255
0.1123948 -0.03912868 0.4162235 255 0 255
0.1251251 -0.04172668 0.4352427 255 0 255
0.06119975 -0.02765208 0.3310804 255 0 255
0.0917376 -0.03503951 0.3810273 255 0 255
0.1160498 -0.04068042 0.4196843 255 0 255
0.09677285 -0.03687852 0.3871389 255 0 255
0.07186621 -0.03130656 0.3452997 255 0 255
0.04095975 -0.07491824 0.3247209 255 0 255
