ply
format ascii 1.0
comment Created by Open3D
element vertex 645
property double x
property double y
property double z
property uchar red
property uchar green
property uchar blue
end_header
0.179223 -0.802483 -1.17065 138 130 121
0.183706 -0.797806 -1.1681 125 112 96
0.173383 -0.797603 -1.1782 88 68 50
0.216263 -0.789473 -1.13488 143 123 105
0.214068 -0.787017 -1.13794 128 95 72
0.20891 -0.785418 -1.14352 107 80 53
0.178486 -0.791135 -1.17062 91 69 40
0.226727 -0.784737 -1.12192 146 117 97
0.22527 -0.782117 -1.12432 127 93 66
0.220093 -0.780577 -1.12986 111 78 53
0.196275 -0.784377 -1.15116 96 71 45
0.173964 -0.787512 -1.17127 86 65 42
0.19383 -0.796345 -1.14398 162 146 133
0.241783 -0.778678 -1.10531 140 105 83
0.23433 -0.777918 -1.11267 119 80 52
0.223144 -0.778173 -1.12317 104 70 43
0.190258 -0.784542 -1.1519 92 60 34
0.169366 -0.787206 -1.17068 86 56 29
0.218618 -0.787208 -1.1193 163 141 123
0.258471 -0.772213 -1.08758 154 119 95
0.25024 -0.771756 -1.09549 129 91 61
0.242019 -0.771215 -1.10343 107 74 44
0.212774 -0.776573 -1.12888 92 60 34
0.197066 -0.77786 -1.14316 79 47 21
0.169354 -0.782288 -1.16752 67 41 20
0.116877 -0.793122 -1.21272 123 116 104
0.227768 -0.782919 -1.10774 169 142 122
0.271529 -0.766916 -1.07306 154 113 84
0.272316 -0.763881 -1.0735 145 104 75
0.268589 -0.762149 -1.07764 129 91 61
0.248286 -0.765055 -1.09547 107 75 47
0.24835 -0.762118 -1.09654 97 67 41
0.218089 -0.784316 -1.1116 165 139 116
0.280915 -0.762771 -1.06173 158 115 84
0.28927 -0.757603 -1.05598 150 107 76
0.297633 -0.752514 -1.0502 135 97 66
0.293144 -0.751101 -1.0549 124 88 57
0.292447 -0.748601 -1.0565 109 74 49
0.291758 -0.746092 -1.05811 93 63 34
0.25932 -0.751991 -1.08587 79 55 31
0.215961 -0.783436 -1.10929 171 149 131
0.295702 -0.757103 -1.04618 162 121 94
0.312435 -0.749631 -1.03369 150 107 76
0.32462 -0.743605 -1.02482 136 95 65
0.323149 -0.741484 -1.02699 129 88 58
0.321687 -0.739346 -1.02915 113 77 46
0.317957 -0.7378 -1.03317 97 60 36
0.299821 -0.740003 -1.04899 80 49 30
0.244526 -0.751612 -1.09531 115 100 92
0.236695 -0.775825 -1.08874 171 146 129
0.320513 -0.748612 -1.02284 156 117 91
0.335777 -0.741727 -1.01158 143 102 70
0.349525 -0.735414 -1.00148 131 89 57
0.350332 -0.732792 -1.00176 119 81 48
0.346577 -0.73141 -1.00571 112 73 45
0.344354 -0.729585 -1.00844 105 66 40
0.336049 -0.729321 -1.01611 89 47 25
0.312532 -0.732866 -1.03618 61 26 4
0.273643 -0.763587 -1.05564 170 149 134
0.337867 -0.742387 -1.00574 158 119 96
0.347832 -0.737126 -0.998762 143 102 70
0.35704 -0.732172 -0.992346 134 90 62
0.358613 -0.729387 -0.991997 123 83 48
0.355608 -0.727843 -0.995308 119 76 45
0.354905 -0.725665 -0.996784 111 71 39
0.35039 -0.724463 -1.00133 94 52 27
0.336719 -0.725537 -1.01328 78 40 19
0.324589 -0.726096 -1.02403 53 24 6
0.318527 -0.749235 -1.0168 159 141 126
0.351523 -0.737305 -0.991804 151 115 86
0.355386 -0.73385 -0.98967 141 98 67
0.364623 -0.728952 -0.983273 135 93 57
0.3639 -0.726836 -0.984736 128 85 52
0.360119 -0.725525 -0.988633 124 82 50
0.360179 -0.723176 -0.989485 123 83 48
0.35948 -0.72102 -0.990943 112 71 42
0.349594 -0.721165 -0.999755 91 51 28
0.339719 -0.721211 -1.0086 80 44 22
0.332919 -0.720418 -1.015 75 45 23
0.315525 -0.719513 -1.03095 76 62 51
0.349109 -0.739211 -0.989689 157 130 112
0.362979 -0.732916 -0.979774 149 110 82
0.365315 -0.729956 -0.978835 142 97 67
0.369967 -0.726386 -0.976071 134 92 56
0.368472 -0.724509 -0.978125 128 85 54
0.366216 -0.722817 -0.980784 123 83 48
0.364737 -0.720902 -0.982839 124 84 50
0.365572 -0.718385 -0.983066 129 91 59
0.361034 -0.717213 -0.987556 113 75 44
0.356505 -0.715995 -0.992057 93 54 29
0.35429 -0.714179 -0.994729 79 46 23
0.351317 -0.712518 -0.998017 81 51 27
0.34912 -0.710649 -1.00069 79 51 29
0.342324 -0.709792 -1.00707 67 41 18
0.346289 -0.706501 -1.00482 64 38 15
0.342584 -0.704898 -1.00873 62 36 13
0.343493 -0.702286 -1.00893 59 35 15
0.336739 -0.701258 -1.01534 56 32 15
0.361385 -0.734553 -0.977124 160 129 110
0.369897 -0.729857 -0.971421 151 110 82
0.370697 -0.727366 -0.971674 142 97 67
0.372276 -0.724672 -0.971318 135 92 59
0.370004 -0.723016 -0.973962 124 82 50
0.369284 -0.720933 -0.975401 115 77 47
0.368571 -0.718841 -0.976837 115 79 48
0.37018 -0.716157 -0.976452 117 81 50
0.367168 -0.714628 -0.9797 121 85 54
0.362623 -0.71344 -0.984171 107 71 38
0.362713 -0.711109 -0.984991 89 55 25
0.358957 -0.709672 -0.988863 79 48 24
0.35521 -0.708196 -0.992741 78 50 26
0.356865 -0.705479 -0.992329 78 50 26
0.362379 -0.701935 -0.98883 77 49 26
0.356347 -0.700905 -0.994554 76 48 25
0.356485 -0.69853 -0.995351 75 46 26
0.356631 -0.696153 -0.996141 71 44 26
0.354476 -0.694234 -0.998786 56 35 19
0.34819 -0.739522 -0.983347 161 144 132
0.367564 -0.731681 -0.969406 151 119 95
0.372231 -0.728111 -0.966695 146 103 75
0.373808 -0.725428 -0.966348 142 97 65
0.373844 -0.723174 -0.967186 136 94 60
0.371564 -0.721529 -0.969816 131 89 57
0.370841 -0.71946 -0.971247 118 77 48
0.371674 -0.716989 -0.971471 110 74 43
0.372513 -0.714522 -0.971687 112 79 47
0.371039 -0.712629 -0.973709 115 79 48
0.368025 -0.71109 -0.976942 114 78 45
0.367341 -0.708975 -0.978358 97 65 37
0.364344 -0.707384 -0.981597 85 53 27
0.360583 -0.705935 -0.98545 78 50 26
0.36147 -0.703425 -0.985643 78 50 26
0.363909 -0.700586 -0.984603 77 52 24
0.360174 -0.699073 -0.988459 77 49 26
0.358766 -0.697043 -0.990477 75 46 26
0.357366 -0.694996 -0.992494 72 46 25
0.357519 -0.692629 -0.993276 72 44 24
0.351507 -0.691446 -0.999 52 31 9
0.358249 -0.735499 -0.972676 154 131 118
0.366808 -0.730789 -0.967057 147 110 86
0.372267 -0.727015 -0.96377 141 98 67
0.373072 -0.724552 -0.96402 138 97 66
0.373885 -0.722095 -0.964261 136 93 62
0.373928 -0.719846 -0.965091 134 90 62
0.373202 -0.717794 -0.966513 128 85 52
0.370931 -0.716124 -0.96913 116 79 46
0.371774 -0.713663 -0.969348 111 78 44
0.371071 -0.711583 -0.970761 113 77 46
0.367271 -0.710232 -0.974583 113 77 44
0.368912 -0.707577 -0.974182 108 72 41
0.366681 -0.70582 -0.976799 92 58 31
0.362907 -0.704385 -0.980632 80 50 26
0.365346 -0.701555 -0.979605 78 50 26
0.367017 -0.698912 -0.979175 79 52 27
0.363268 -0.697416 -0.98301 78 50 26
0.362629 -0.695248 -0.984403 74 49 21
0.363547 -0.692762 -0.984566 75 46 24
0.356729 -0.69179 -0.990866 74 45 23
0.353019 -0.69016 -0.99472 70 44 21
0.350867 -0.688205 -0.997345 43 25 11
0.358257 -0.73437 -0.96971 154 131 116
0.364506 -0.73033 -0.965884 144 107 83
0.371541 -0.726133 -0.96144 137 96 66
0.37157 -0.723885 -0.962282 137 96 64
0.373164 -0.721223 -0.961935 136 93 62
0.373987 -0.718776 -0.96217 134 90 62
0.374817 -0.716335 -0.962396 126 86 52
0.37098 -0.715065 -0.966192 122 81 51
0.371046 -0.712803 -0.967008 112 79 45
0.370341 -0.710727 -0.968417 111 77 46
0.368865 -0.708824 -0.970424 111 78 44
0.369732 -0.706366 -0.970625 111 75 44
0.369828 -0.704089 -0.971422 95 61 29
0.367597 -0.702327 -0.974024 87 57 31
0.369265 -0.699699 -0.973602 79 52 25
0.368606 -0.697578 -0.974989 78 50 26
0.362512 -0.696574 -0.980628 78 50 26
0.357207 -0.695352 -0.985673 78 50 26
0.355021 -0.693462 -0.988287 77 49 24
0.348182 -0.692446 -0.994573 76 48 23
0.345239 -0.690632 -0.997811 75 46 24
0.343859 -0.688501 -0.999824 75 46 24
0.34404 -0.686077 -1.00061 62 38 19
0.338022 -0.684729 -1.00631 44 28 15
0.366095 -0.733311 -0.960048 157 141 130
0.370011 -0.729954 -0.957995 150 123 105
0.370025 -0.72771 -0.958849 143 105 77
0.373955 -0.724404 -0.956764 136 98 66
0.373202 -0.722382 -0.958188 136 98 66
0.371674 -0.720556 -0.960198 137 96 66
0.373281 -0.717909 -0.959845 132 93 63
0.373332 -0.71567 -0.960666 127 89 56
0.370265 -0.714202 -0.963854 122 84 52
0.370331 -0.711943 -0.964669 114 78 45
0.370405 -0.709683 -0.965479 111 75 44
0.368924 -0.707786 -0.967477 111 76 42
0.368231 -0.705693 -0.968876 111 75 44
0.365205 -0.704116 -0.972073 105 72 38
0.362968 -0.702336 -0.974672 96 62 30
0.363861 -0.699862 -0.974864 85 53 25
0.364761 -0.697395 -0.975047 78 51 24
0.360209 -0.696051 -0.979458 78 50 26
0.356446 -0.694506 -0.983271 78 50 26
0.354252 -0.692616 -0.985876 77 49 24
0.347392 -0.691594 -0.992136 77 49 26
0.342103 -0.690214 -0.997191 75 46 24
0.345391 -0.687227 -0.995534 75 46 24
0.350242 -0.683995 -0.992636 73 49 27
0.351984 -0.68134 -0.992172 68 49 28
0.34751 -0.679738 -0.996617 50 37 16
0.370085 -0.733312 -0.953367 157 143 131
0.370084 -0.73108 -0.954229 152 125 109
0.370875 -0.728627 -0.954504 145 110 85
0.371674 -0.726179 -0.954771 140 101 71
0.373263 -0.723526 -0.954447 140 100 68
0.373292 -0.7213 -0.955281 139 101 68
0.373328 -0.719072 -0.95611 139 99 67
0.372588 -0.717042 -0.957522 134 96 65
0.372639 -0.714806 -0.958341 131 91 59
0.371913 -0.712761 -0.959746 123 86 51
0.371196 -0.710706 -0.961147 120 82 47
0.372053 -0.708272 -0.96136 113 77 46
0.370567 -0.706388 -0.963347 110 74 43
0.369872 -0.704309 -0.964739 109 73 42
0.368401 -0.702395 -0.966725 107 74 44
0.366156 -0.700634 -0.969308 98 64 35
0.366268 -0.69835 -0.970095 86 54 28
0.366387 -0.696065 -0.970876 79 52 23
0.367297 -0.69362 -0.971049 78 50 26
0.365866 -0.691645 -0.973024 78 50 26
0.36679 -0.6892 -0.973185 78 50 26
0.359904 -0.688236 -0.979397 78 50 28
0.357719 -0.68634 -0.981982 75 50 26
0.356324 -0.684281 -0.98396 73 49 25
0.3565 -0.681932 -0.984718 74 48 25
0.355122 -0.679847 -0.986692 74 51 24
0.355314 -0.677489 -0.98744 71 50 27
0.374902 -0.730844 -0.947017 158 138 122
0.373328 -0.729082 -0.949021 152 117 94
0.374122 -0.726653 -0.949291 144 106 74
0.374923 -0.724228 -0.949553 144 103 71
0.375731 -0.72181 -0.949807 141 103 72
0.3734 -0.72022 -0.952381 140 102 69
0.374223 -0.717797 -0.952624 141 101 69
0.37348 -0.715777 -0.954029 139 98 69
0.371958 -0.713942 -0.956017 130 92 60
0.369658 -0.712282 -0.958593 123 86 53
0.37051 -0.709847 -0.958815 119 80 50
0.370584 -0.707603 -0.95962 115 77 47
0.370665 -0.705356 -0.960419 110 74 43
0.369182 -0.70346 -0.962398 107 74 44
0.369278 -0.701202 -0.963189 106 73 41
0.365454 -0.699787 -0.966951 104 68 41
0.365566 -0.697507 -0.967737 94 60 30
0.368041 -0.694742 -0.966723 81 51 25
0.368952 -0.692313 -0.966894 77 49 24
0.365947 -0.690658 -0.97006 77 49 24
0.362951 -0.688973 -0.973231 78 50 26
0.356044 -0.687988 -0.979421 77 51 26
0.353853 -0.686078 -0.982001 78 50 28
0.351671 -0.684144 -0.984583 75 52 28
0.349498 -0.682186 -0.987167 75 52 28
0.353599 -0.679153 -0.984888 73 53 26
0.349095 -0.67756 -0.989291 71 52 29
0.343037 -0.676169 -0.994924 69 52 31
0.378984 -0.730788 -0.940435 160 140 124
0.37582 -0.729507 -0.94357 160 131 109
0.37582 -0.727315 -0.944417 156 117 89
0.377405 -0.724689 -0.944108 152 109 78
0.379787 -0.721864 -0.943212 147 107 75
0.37823 -0.720101 -0.945191 142 104 71
0.37747 -0.718117 -0.946591 140 101 71
0.375927 -0.716325 -0.94857 139 101 68
0.374393 -0.714516 -0.950548 136 98 66
0.373656 -0.712496 -0.951943 132 94 61
0.372925 -0.710468 -0.953336 127 87 55
0.372991 -0.708243 -0.954139 119 80 50
0.374641 -0.705652 -0.953763 111 75 44
0.372357 -0.703968 -0.956319 107 74 42
0.370868 -0.702085 -0.958288 106 73 41
0.371752 -0.699671 -0.958482 106 73 39
0.367916 -0.698269 -0.962224 106 72 43
0.368027 -0.696008 -0.963004 97 65 33
0.370508 -0.693265 -0.961992 87 55 29
0.371421 -0.690856 -0.96216 78 47 23
0.370767 -0.688758 -0.963516 76 48 23
0.373268 -0.686055 -0.962472 75 50 22
0.367122 -0.684971 -0.968018 76 48 25
0.365706 -0.682976 -0.969969 77 49 26
0.36194 -0.681378 -0.973728 76 53 29
0.356613 -0.680009 -0.9787 76 53 29
0.355225 -0.677936 -0.980658 75 52 26
0.34992 -0.676478 -0.985647 75 52 28
0.341488 -0.675457 -0.993075 73 52 30
0.378351 -0.7299 -0.938152 162 140 122
0.375969 -0.728396 -0.940705 162 129 106
0.377551 -0.725775 -0.940407 155 115 85
0.380725 -0.722736 -0.938955 155 112 79
0.38153 -0.720359 -0.939206 152 109 78
0.379969 -0.718609 -0.941174 146 108 75
0.38158 -0.716028 -0.940837 142 104 71
0.376868 -0.715059 -0.945111 141 103 70
0.375329 -0.713259 -0.94708 137 100 65
0.373006 -0.711635 -0.949629 134 96 65
0.374647 -0.709043 -0.949272 128 90 57
0.375504 -0.706648 -0.949488 119 80 50
0.376367 -0.704259 -0.949695 111 75 44
0.372494 -0.702942 -0.953409 105 71 42
0.37021 -0.701239 -0.955957 105 71 42
0.370306 -0.699 -0.956741 105 71 42
0.365668 -0.697759 -0.961059 104 72 40
0.364199 -0.69582 -0.963022 103 69 37
0.366688 -0.69307 -0.962023 92 60 30
0.369184 -0.69034 -0.961011 82 53 24
0.368528 -0.688237 -0.962366 78 47 23
0.372615 -0.685238 -0.960141 75 50 22
0.368028 -0.68386 -0.964468 76 48 21
0.367395 -0.681735 -0.965811 75 50 22
0.365982 -0.679737 -0.967751 75 50 26
0.358272 -0.678785 -0.974498 74 50 26
0.351364 -0.677628 -0.980661 75 52 26
0.345256 -0.676277 -0.986237 75 52 28
0.330501 -0.676202 -0.998475 75 53 31
0.318127 -0.67563 -1.00894 73 52 30
0.376141 -0.729462 -0.937 163 135 115
0.372958 -0.728171 -0.940112 162 121 94
0.37534 -0.725328 -0.939255 160 118 87
0.378523 -0.72229 -0.937816 159 113 83
0.380919 -0.719491 -0.93693 153 111 80
0.380146 -0.717536 -0.938319 150 110 75
0.381763 -0.714965 -0.937986 148 108 76
0.380211 -0.713201 -0.93994 142 106 73
0.378667 -0.711421 -0.941895 140 99 70
0.377131 -0.709625 -0.943851 131 95 64
0.380363 -0.706685 -0.942333 124 89 53
0.378841 -0.704877 -0.94428 120 84 50
0.379706 -0.702512 -0.944482 113 77 46
0.376613 -0.701036 -0.947591 105 72 40
0.373529 -0.699528 -0.950705 101 70 37
0.372831 -0.697481 -0.952068 100 69 34
0.372141 -0.695425 -0.953428 101 70 37
0.373044 -0.693036 -0.953608 99 66 34
0.373161 -0.690811 -0.95437 95 61 31
0.372494 -0.688739 -0.955717 86 54 28
0.371042 -0.686808 -0.957653 80 50 24
0.374349 -0.683981 -0.95603 77 50 22
0.368164 -0.682898 -0.961524 77 50 22
0.370693 -0.680222 -0.96048 75 50 22
0.366902 -0.67865 -0.964198 75 50 22
0.356005 -0.678226 -0.973305 75 50 26
0.348286 -0.677184 -0.980043 74 50 26
0.33979 -0.676189 -0.987399 74 50 26
0.32894 -0.675472 -0.996581 75 53 31
0.324421 -0.673715 -1.00097 75 53 31
0.327804 -0.670781 -0.999321 71 52 29
0.31621 -0.669951 -1.00916 45 33 21
0.389874 -0.726649 -0.923771 163 146 136
0.373934 -0.729018 -0.935836 162 132 110
0.371538 -0.7275 -0.938375 161 120 91
0.376316 -0.724011 -0.935833 161 116 83
0.379509 -0.720989 -0.934401 157 115 81
0.381912 -0.718204 -0.93352 155 112 81
0.38273 -0.71585 -0.933764 150 109 77
0.387536 -0.712493 -0.931147 148 108 74
0.384387 -0.711157 -0.934228 142 106 75
0.386022 -0.708624 -0.933875 140 101 71
0.386072 -0.706486 -0.93466 132 96 65
0.386925 -0.704159 -0.934864 127 91 57
0.385397 -0.702386 -0.936792 116 82 50
0.383877 -0.700597 -0.938721 110 76 44
0.378387 -0.699669 -0.943549 106 73 41
0.373702 -0.698515 -0.947809 102 71 39
0.374592 -0.696138 -0.948001 102 68 36
0.3739 -0.694096 -0.949353 99 65 36
0.374009 -0.691884 -0.950117 96 62 32
0.373332 -0.689828 -0.951462 94 59 32
0.374251 -0.687456 -0.951629 86 54 26
0.372794 -0.685538 -0.953554 79 48 24
0.372933 -0.683313 -0.954299 77 50 22
0.368318 -0.681937 -0.958587 76 48 23
0.36768 -0.679825 -0.95992 76 48 23
0.36705 -0.677703 -0.961251 76 48 23
0.355327 -0.677402 -0.97091 76 48 21
0.351547 -0.675718 -0.974636 75 50 24
0.344608 -0.674487 -0.980759 74 50 26
0.34085 -0.67271 -0.984502 73 52 30
0.331562 -0.671704 -0.992451 76 54 32
0.336534 -0.668592 -0.989602 73 54 31
0.326482 -0.667578 -0.998175 69 52 31
0.390912 -0.725322 -0.920423 160 137 122
0.376522 -0.727235 -0.931308 162 129 108
0.372521 -0.726169 -0.934952 160 117 89
0.376515 -0.722914 -0.932985 157 114 83
0.37812 -0.720327 -0.932689 155 112 81
0.382128 -0.71713 -0.930687 155 112 81
0.382948 -0.714784 -0.930932 150 107 76
0.387768 -0.711442 -0.92833 147 107 73
0.385409 -0.709912 -0.930827 143 105 73
0.387847 -0.7072 -0.929906 139 98 69
0.390292 -0.704509 -0.928971 135 97 64
0.38955 -0.70258 -0.930315 130 92 62
0.389614 -0.70046 -0.931082 122 86 55
0.39128 -0.697983 -0.930692 118 82 51
0.384177 -0.697436 -0.93664 111 75 44
0.379476 -0.696309 -0.940871 109 73 42
0.381165 -0.693801 -0.940475 103 69 39
0.378874 -0.692121 -0.942973 99 65 36
0.378982 -0.68994 -0.943727 96 62 32
0.379895 -0.6876 -0.943892 92 58 29
0.376831 -0.686027 -0.946973 86 54 28
0.374572 -0.684275 -0.949473 83 50 25
0.376303 -0.681775 -0.949038 77 50 22
0.374061 -0.679993 -0.951536 75 50 22
0.375806 -0.677502 -0.951086 75 50 22
0.377557 -0.675025 -0.950626 75 50 22
0.370567 -0.673986 -0.956671 75 50 22
0.363589 -0.672879 -0.962731 77 49 24
0.357419 -0.67158 -0.968213 77 49 26
0.35285 -0.669984 -0.972517 75 51 30
0.344322 -0.668913 -0.979814 75 53 31
0.347715 -0.666098 -0.978158 74 55 32
0.343179 -0.664381 -0.98248 74 55 32
0.386363 -0.725575 -0.920972 163 135 115
0.377538 -0.725903 -0.927916 159 124 101
0.373526 -0.724843 -0.931541 157 114 85
0.373527 -0.722674 -0.93238 156 113 82
0.376739 -0.719662 -0.930972 153 111 80
0.378355 -0.71709 -0.930671 151 108 77
0.383183 -0.71372 -0.928106 149 106 75
0.387217 -0.710592 -0.926084 145 104 73
0.385651 -0.708867 -0.928006 141 103 72
0.388897 -0.705974 -0.926523 137 99 67
0.389747 -0.703674 -0.926731 135 97 64
0.389804 -0.701563 -0.9275 130 92 60
0.389868 -0.699451 -0.928265 125 89 58
0.39314 -0.69663 -0.926733 121 85 54
0.388416 -0.695569 -0.930927 116 82 48
0.386101 -0.693952 -0.933405 114 78 47
0.383793 -0.692313 -0.935886 106 73 41
0.382294 -0.690486 -0.937791 100 67 37
0.380803 -0.688644 -0.939696 97 63 34
0.380918 -0.686476 -0.94044 92 58 29
0.379442 -0.684608 -0.942342 86 54 28
0.376376 -0.683018 -0.94541 80 50 24
0.377313 -0.680679 -0.945561 76 48 21
0.375861 -0.678766 -0.947461 77 50 22
0.372023 -0.677244 -0.951121 76 48 21
0.37378 -0.674758 -0.950671 75 50 22
0.372353 -0.672799 -0.952568 75 50 22
0.367745 -0.671322 -0.956826 75 50 24
0.363946 -0.669678 -0.960501 74 48 25
0.360156 -0.667996 -0.964183 74 50 26
0.353989 -0.666615 -0.969653 75 54 27
0.358978 -0.663637 -0.966803 75 53 31
0.358402 -0.661445 -0.968107 74 55 32
0.363633 -0.656247 -0.965917 71 58 39
0.397891 -0.723384 -0.909648 155 131 114
0.389034 -0.723801 -0.916526 154 121 98
0.380183 -0.724136 -0.923431 153 114 86
0.376159 -0.723088 -0.927034 155 112 81
0.376963 -0.720725 -0.92731 155 112 79
0.378578 -0.718158 -0.92702 152 109 78
0.381003 -0.715398 -0.926161 149 106 73
0.384238 -0.712457 -0.924728 146 106 72
0.388284 -0.709345 -0.922716 144 103 71
0.387516 -0.707435 -0.924065 143 102 72
0.390772 -0.704562 -0.922589 140 100 68
0.392427 -0.702091 -0.922228 135 97 66
0.390878 -0.700366 -0.924126 132 94 61
0.390139 -0.698445 -0.925455 129 91 59
0.395026 -0.695284 -0.922793 122 86 53
0.39109 -0.694059 -0.926393 117 83 51
0.388767 -0.692458 -0.928856 116 80 51
0.389661 -0.690175 -0.929026 110 74 43
0.38976 -0.688058 -0.929764 104 68 39
0.385856 -0.686726 -0.933379 94 59 32
0.386772 -0.684435 -0.933535 89 55 27
0.382885 -0.683048 -0.937157 86 54 26
0.382213 -0.681038 -0.938465 84 52 24
0.381548 -0.679019 -0.939771 79 49 22
0.381692 -0.676852 -0.940491 75 47 20
0.381042 -0.674819 -0.94179 74 46 21
0.383601 -0.672254 -0.940745 75 46 24
0.382166 -0.670345 -0.94262 76 48 25
0.37674 -0.669038 -0.947431 76 48 25
0.372925 -0.667438 -0.951077 76 48 25
0.372316 -0.665335 -0.952369 74 48 25
0.368521 -0.663672 -0.956022 75 50 24
0.37272 -0.660885 -0.953759 73 53 26
0.372932 -0.658659 -0.954445 72 53 30
0.376343 -0.656027 -0.952748 70 54 28
0.388559 -0.727088 -0.91265 134 97 71
0.383698 -0.726367 -0.916762 136 98 68
0.383678 -0.724263 -0.917593 146 106 74
0.37883 -0.723472 -0.921722 153 111 80
0.378823 -0.721342 -0.922552 152 111 80
0.378824 -0.71921 -0.923377 150 110 75
0.380443 -0.716661 -0.923087 150 110 75
0.383681 -0.713715 -0.921675 150 110 75
0.387732 -0.710597 -0.91969 147 107 73
0.386955 -0.708694 -0.921038 145 105 71
0.388602 -0.706203 -0.920703 143 102 70
0.390256 -0.703725 -0.920358 140 99 70
0.391111 -0.701446 -0.920565 138 97 68
0.388752 -0.699901 -0.923021 132 94 61
0.389621 -0.697619 -0.923218 128 90 57
0.395327 -0.694294 -0.920005 123 87 56
0.392184 -0.6929 -0.92302 118 82 53
0.393073 -0.690638 -0.923192 115 79 50
0.395578 -0.688055 -0.922215 111 75 44
0.393262 -0.686452 -0.924658 104 68 39
0.386933 -0.685605 -0.929971 94 57 31
0.387047 -0.683478 -0.930701 86 54 26
0.382345 -0.682242 -0.934882 84 52 24
0.380866 -0.680379 -0.936764 83 51 23
0.381003 -0.678218 -0.937488 79 49 20
0.382753 -0.675781 -0.937048 78 48 21
0.381298 -0.673893 -0.938922 76 48 23
0.386271 -0.670948 -0.936137 75 46 24
0.384028 -0.669183 -0.938583 75 46 24
0.382595 -0.667271 -0.940447 75 46 24
0.377964 -0.665818 -0.944653 73 47 24
0.377351 -0.663744 -0.945933 73 48 22
0.375144 -0.661883 -0.948386 73 48 22
0.376148 -0.659569 -0.948484 73 50 23
0.37796 -0.657159 -0.947983 72 51 26
0.377377 -0.655061 -0.949246 72 51 29
0.3816 -0.652379 -0.94695 70 53 32
0.375157 -0.732 -0.918261 150 111 88
0.373506 -0.730326 -0.920201 150 109 79
0.374286 -0.727959 -0.92051 153 111 80
0.376689 -0.725155 -0.919718 158 115 84
0.3791 -0.72237 -0.918913 156 113 82
0.379902 -0.720034 -0.919192 153 113 81
0.380711 -0.717703 -0.919462 152 111 80
0.383951 -0.714756 -0.91807 152 111 80
0.385582 -0.712244 -0.917768 152 112 78
0.388836 -0.709346 -0.916346 150 110 75
0.387249 -0.70765 -0.918243 147 107 73
0.386477 -0.705745 -0.919583 144 103 71
0.388136 -0.703265 -0.919245 140 102 69
0.388994 -0.700984 -0.919457 136 98 66
0.38582 -0.699613 -0.922467 132 94 61
0.388307 -0.69697 -0.921544 128 90 57
0.39403 -0.693653 -0.918353 122 86 55
0.392492 -0.691915 -0.920225 120 83 55
0.394191 -0.689496 -0.919832 118 84 55
0.397509 -0.686766 -0.918292 110 76 46
0.398413 -0.68454 -0.918444 104 68 37
0.394484 -0.683249 -0.922011 95 61 31
0.395402 -0.681012 -0.922156 88 53 26
0.389071 -0.680109 -0.927451 83 51 23
0.385974 -0.678569 -0.930463 85 53 25
0.384498 -0.676718 -0.932329 80 50 22
0.386252 -0.674306 -0.931887 81 51 25
0.387206 -0.67204 -0.932014 76 48 21
0.390581 -0.669394 -0.930395 75 46 24
0.392352 -0.667027 -0.929921 75 46 24
0.386086 -0.665886 -0.935255 75 46 24
0.382243 -0.664331 -0.938854 72 47 21
0.377608 -0.662851 -0.943043 72 48 22
0.375393 -0.660995 -0.945486 73 47 26
0.375597 -0.658796 -0.946171 72 48 24
0.379018 -0.656187 -0.9445 73 49 25
0.378432 -0.6541 -0.945758 71 50 27
0.377053 -0.652099 -0.947602 72 51 29
0.371422 -0.734162 -0.917284 155 120 98
0.365708 -0.733641 -0.921918 153 110 84
0.368104 -0.73079 -0.921168 158 115 84
0.371317 -0.727734 -0.919862 160 114 84
0.376158 -0.724264 -0.917454 164 116 85
0.378576 -0.721487 -0.916656 164 116 85
0.381812 -0.718517 -0.915299 162 117 85
0.384244 -0.715783 -0.914473 157 115 81
0.387493 -0.712864 -0.913084 154 114 80
0.388319 -0.710578 -0.91333 154 114 82
0.391582 -0.707703 -0.911913 153 113 81
0.390801 -0.705828 -0.913244 150 109 77
0.390026 -0.703945 -0.914573 147 107 75
0.389259 -0.702052 -0.9159 142 104 71
0.389309 -0.699966 -0.916668 137 99 69
0.388556 -0.698059 -0.917988 134 96 65
0.38862 -0.695966 -0.918747 129 91 59
0.394359 -0.692665 -0.915574 123 85 55
0.394436 -0.690595 -0.916314 118 82 51
0.396948 -0.688029 -0.915357 116 82 50
0.397847 -0.685806 -0.915517 113 77 46
0.40199 -0.682959 -0.913405 107 70 42
0.398048 -0.681685 -0.916951 93 61 33
0.398159 -0.679622 -0.91766 84 49 25
0.394234 -0.678289 -0.921214 79 47 19
0.392743 -0.67649 -0.923062 79 47 19
0.389644 -0.674952 -0.926055 81 51 23
0.390593 -0.672708 -0.926184 79 49 22
0.389125 -0.670863 -0.92803 76 48 23
0.387666 -0.669003 -0.929876 75 46 24
0.389443 -0.66663 -0.929411 75 46 24
0.383159 -0.665473 -0.934724 75 46 24
0.381725 -0.663556 -0.936571 72 47 21
0.381105 -0.66151 -0.937837 72 46 23
0.383716 -0.659021 -0.93677 72 48 24
0.381499 -0.657183 -0.939191 72 48 24
0.384122 -0.654713 -0.938107 69 48 23
0.382727 -0.652753 -0.939939 69 48 23
0.380536 -0.650871 -0.942357 68 51 27
0.370938 -0.735384 -0.91414 151 118 98
0.362764 -0.735588 -0.920349 150 111 84
0.364347 -0.732955 -0.920156 155 111 83
0.364311 -0.730786 -0.921026 160 115 82
0.368346 -0.727501 -0.919198 162 115 85
0.374827 -0.723593 -0.91573 168 118 87
0.374814 -0.721466 -0.916566 169 119 88
0.377246 -0.718701 -0.915768 167 120 88
0.38131 -0.71554 -0.913868 164 120 87
0.384569 -0.712619 -0.912494 159 119 85
0.387023 -0.709925 -0.911652 155 115 83
0.39192 -0.706661 -0.90915 155 115 81
0.391137 -0.704793 -0.910476 153 113 79
0.391173 -0.702726 -0.911248 148 108 76
0.391215 -0.700657 -0.912015 145 104 73
0.388828 -0.699134 -0.91444 143 102 70
0.389698 -0.696872 -0.914646 136 98 68
0.392198 -0.694266 -0.913731 130 92 60
0.395516 -0.691509 -0.912245 127 89 56
0.397217 -0.689115 -0.911861 121 83 50
0.399735 -0.686571 -0.910908 114 78 45
0.399825 -0.684528 -0.911627 111 75 44
0.402355 -0.682015 -0.910651 103 69 37
0.401647 -0.680132 -0.911921 96 62 34
0.399324 -0.678539 -0.91432 87 52 25
0.395387 -0.677212 -0.917856 79 47 21
0.390649 -0.675987 -0.921968 76 47 18
0.387542 -0.674441 -0.924951 78 48 21
0.386873 -0.672462 -0.926226 79 49 22
0.387022 -0.670344 -0.926926 75 46 24
0.384749 -0.668605 -0.929341 75 46 24
0.38734 -0.666105 -0.92831 72 44 22
0.384274 -0.664459 -0.931298 72 47 21
0.380409 -0.662897 -0.934867 72 47 21
0.377363 -0.661184 -0.937864 72 46 23
0.37675 -0.659118 -0.939127 70 47 23
0.370492 -0.65777 -0.944451 70 47 23
0.371511 -0.65546 -0.944553 69 48 23
0.370924 -0.653349 -0.945813 66 47 24
0.366313 -0.651692 -0.949989 66 49 27
