ply
format ascii 1.0
comment Created by Open3D
element vertex 736
property double x
property double y
property double z
property uchar red
property uchar green
property uchar blue
end_header
0.212001 -0.79042 -1.13899 136 105 82
0.216477 -0.785901 -1.13637 115 85 59
0.2054 -0.786095 -1.14703 85 57 35
0.202289 -0.795026 -1.14173 156 127 110
0.236519 -0.781304 -1.11403 133 94 68
0.232085 -0.779626 -1.11894 113 81 51
0.227661 -0.7779 -1.12385 103 74 45
0.206146 -0.781135 -1.14331 86 60 37
0.244053 -0.780476 -1.10254 155 122 101
0.263476 -0.771575 -1.08739 134 94 64
0.254547 -0.771379 -1.09599 114 77 49
0.250852 -0.769549 -1.10021 97 64 39
0.230751 -0.772447 -1.11829 89 59 33
0.272653 -0.770193 -1.07485 158 119 94
0.28765 -0.762831 -1.06345 133 92 63
0.274195 -0.76409 -1.07571 109 73 44
0.263746 -0.764336 -1.08551 93 61 33
0.243573 -0.767279 -1.10348 86 53 30
0.171441 -0.80299 -1.15311 171 157 141
0.271413 -0.769167 -1.07211 160 121 91
0.286461 -0.76183 -1.06077 142 104 71
0.275214 -0.762408 -1.07112 126 87 57
0.264729 -0.762654 -1.08087 107 73 46
0.250498 -0.763867 -1.09377 96 61 36
0.239284 -0.764093 -1.10422 86 56 29
0.16082 -0.804605 -1.15738 161 145 130
0.278483 -0.765629 -1.0626 162 122 90
0.298862 -0.756784 -1.04699 151 110 78
0.287576 -0.757416 -1.05726 136 98 68
0.283086 -0.75598 -1.06199 120 84 53
0.272629 -0.753387 -1.07273 96 66 40
0.295461 -0.759157 -1.04519 162 118 90
0.326505 -0.747302 -1.02101 152 109 78
0.323502 -0.745644 -1.02442 139 98 69
0.328075 -0.741792 -1.02166 127 88 60
0.32509 -0.740107 -1.02506 114 75 48
0.325139 -0.737555 -1.02599 103 67 40
0.301748 -0.741359 -1.04617 88 56 33
0.294353 -0.758164 -1.04255 165 122 93
0.339929 -0.742128 -1.00686 148 105 74
0.346787 -0.737694 -1.00227 137 96 66
0.349096 -0.734616 -1.00132 127 87 55
0.352172 -0.731347 -0.99975 116 78 48
0.348423 -0.729974 -1.00371 107 68 41
0.333299 -0.731623 -1.01696 93 54 31
0.324257 -0.731519 -1.02529 64 29 9
0.358058 -0.733296 -0.990055 135 92 59
0.360375 -0.730284 -0.989097 124 82 50
0.36346 -0.727082 -0.987512 119 76 45
0.36046 -0.725561 -0.990824 115 72 43
0.348329 -0.726443 -1.00153 97 56 31
0.341539 -0.725811 -1.00795 73 33 15
0.324862 -0.727651 -1.02242 52 20 4
0.296018 -0.732394 -1.04686 127 110 100
0.366344 -0.732118 -0.979497 146 101 68
0.370189 -0.728715 -0.977326 136 94 60
0.370984 -0.726198 -0.977569 131 86 53
0.37255 -0.723478 -0.977194 122 80 46
0.368774 -0.72221 -0.981088 120 77 44
0.359658 -0.722317 -0.989278 112 68 40
0.353608 -0.721539 -0.995038 85 48 24
0.347568 -0.7207 -1.00081 76 41 19
0.337718 -0.720754 -1.00969 61 25 6
0.330935 -0.71996 -1.01612 79 59 43
0.350936 -0.737781 -0.987689 157 120 96
0.370125 -0.729913 -0.973508 141 99 63
0.370915 -0.727404 -0.973759 138 93 60
0.370945 -0.725112 -0.974607 131 89 55
0.373283 -0.722193 -0.973628 126 81 48
0.371028 -0.720522 -0.976287 127 82 50
0.364948 -0.719831 -0.981997 132 92 60
0.36041 -0.718684 -0.986501 110 67 39
0.354349 -0.717877 -0.992239 80 43 17
0.346764 -0.717388 -0.999221 80 45 20
0.345319 -0.715336 -1.0013 76 43 20
0.338521 -0.714542 -1.0077 54 34 18
0.333266 -0.713322 -1.01287 111 94 82
0.318066 -0.71432 -1.02611 114 100 86
0.353157 -0.73598 -0.98287 152 109 82
0.364715 -0.73034 -0.974756 145 100 65
0.365508 -0.727814 -0.975016 142 95 60
0.366308 -0.725292 -0.975269 131 89 55
0.369423 -0.722155 -0.9737 122 82 47
0.369469 -0.719859 -0.974537 118 78 46
0.366445 -0.71836 -0.977797 124 89 55
0.364969 -0.716437 -0.979845 133 95 62
0.362731 -0.71469 -0.982503 112 74 41
0.360501 -0.712919 -0.985162 80 45 20
0.360587 -0.710568 -0.985987 81 49 26
0.357606 -0.708941 -0.98926 79 48 24
0.354633 -0.707282 -0.992538 79 48 24
0.348598 -0.706286 -0.998285 78 47 23
0.340268 -0.705739 -1.0059 66 36 12
0.337326 -0.703944 -1.0092 65 37 15
0.335162 -0.701955 -1.01189 58 37 15
0.328402 -0.700894 -1.01831 43 26 5
0.312449 -0.701625 -1.03221 58 54 49
0.344595 -0.739676 -0.98551 161 131 109
0.361588 -0.73242 -0.973306 151 108 79
0.369323 -0.72793 -0.968203 146 99 67
0.36703 -0.726288 -0.970851 139 94 59
0.367833 -0.723783 -0.971101 130 88 54
0.370186 -0.72087 -0.97014 119 79 47
0.371776 -0.718181 -0.969768 113 75 42
0.369514 -0.716497 -0.972405 116 79 46
0.370346 -0.71401 -0.972624 127 89 56
0.367329 -0.712484 -0.975868 123 86 51
0.366634 -0.710365 -0.977292 89 55 27
0.365175 -0.708419 -0.979323 83 50 27
0.364496 -0.706277 -0.980743 80 50 26
0.3592 -0.705184 -0.985832 81 49 26
0.356226 -0.703519 -0.989093 77 49 24
0.35095 -0.702329 -0.994202 77 49 24
0.347224 -0.700755 -0.998091 77 49 24
0.34813 -0.698173 -0.998284 75 46 24
0.346733 -0.696071 -1.00032 68 46 24
0.344575 -0.694105 -1.00298 60 40 22
0.361563 -0.733611 -0.969461 154 124 102
0.367767 -0.729544 -0.96559 145 102 73
0.37243 -0.725967 -0.96288 145 100 67
0.36858 -0.724769 -0.966703 141 96 64
0.368611 -0.722488 -0.967548 135 90 58
0.368649 -0.720205 -0.968387 127 84 53
0.370244 -0.717517 -0.968021 117 77 45
0.367974 -0.715831 -0.970651 110 75 41
0.370358 -0.712957 -0.969667 118 79 49
0.369652 -0.710864 -0.971085 123 86 53
0.370502 -0.708389 -0.97129 106 70 37
0.369812 -0.706285 -0.972699 86 54 26
0.37145 -0.703634 -0.972282 81 51 27
0.368455 -0.702049 -0.97551 79 52 27
0.363922 -0.700775 -0.979963 79 52 27
0.362491 -0.698784 -0.981979 78 50 28
0.361069 -0.696775 -0.983993 77 49 24
0.360428 -0.69459 -0.985393 76 48 25
0.359022 -0.692553 -0.987405 73 47 24
0.358398 -0.690346 -0.988799 68 44 23
0.363185 -0.687086 -0.985864 52 33 19
0.364672 -0.731598 -0.964143 147 117 93
0.365457 -0.729094 -0.964418 142 99 70
0.368581 -0.725949 -0.962911 141 96 64
0.364719 -0.724735 -0.966724 139 97 66
0.365527 -0.722235 -0.966979 136 94 60
0.364789 -0.720149 -0.968417 130 87 56
0.367166 -0.717252 -0.967464 120 80 48
0.365666 -0.715359 -0.969489 113 75 42
0.36728 -0.712677 -0.969115 116 78 48
0.368125 -0.710197 -0.969331 119 81 48
0.371307 -0.707167 -0.967732 116 81 45
0.37139 -0.704892 -0.968531 96 62 30
0.373809 -0.702081 -0.96751 81 51 25
0.373907 -0.699813 -0.968294 81 53 28
0.371685 -0.698055 -0.970896 81 53 28
0.363268 -0.697606 -0.978371 81 53 28
0.364166 -0.695118 -0.978546 78 50 26
0.362747 -0.693114 -0.980548 77 49 24
0.359786 -0.691404 -0.983774 75 46 24
0.356834 -0.689662 -0.987003 73 47 26
0.362411 -0.686261 -0.983471 71 45 24
0.347864 -0.686662 -0.99594 52 33 12
0.352228 -0.736358 -0.969683 156 141 132
0.36548 -0.73026 -0.960611 143 106 80
0.366268 -0.727768 -0.960886 137 96 66
0.37096 -0.724211 -0.958208 138 97 66
0.368645 -0.722589 -0.96082 138 97 66
0.369455 -0.720116 -0.961069 137 95 61
0.368714 -0.718055 -0.962495 132 92 58
0.371098 -0.715188 -0.961541 121 83 50
0.368814 -0.713513 -0.964147 115 77 47
0.369654 -0.711048 -0.964368 114 76 44
0.372059 -0.708212 -0.963384 115 77 47
0.376028 -0.705028 -0.961187 118 80 47
0.376111 -0.702782 -0.961977 112 74 41
0.378536 -0.700004 -0.960954 92 55 29
0.379411 -0.697593 -0.961125 80 50 24
0.375624 -0.696205 -0.964916 81 51 23
0.370291 -0.695108 -0.969927 82 53 24
0.365745 -0.693796 -0.974343 79 52 23
0.365875 -0.691488 -0.975117 78 50 26
0.360572 -0.690259 -0.980154 76 48 25
0.352947 -0.689429 -0.987035 72 46 25
0.353881 -0.686906 -0.9872 73 47 24
0.347056 -0.68582 -0.993492 70 49 26
0.330928 -0.686339 -1.00718 47 29 12
0.363963 -0.731859 -0.957974 150 124 103
0.37022 -0.727825 -0.954176 140 101 73
0.3671 -0.726446 -0.957366 139 99 67
0.373371 -0.722481 -0.953529 139 99 67
0.371831 -0.720665 -0.955539 140 100 68
0.372643 -0.718216 -0.955782 138 96 62
0.374245 -0.71557 -0.955427 132 92 60
0.378199 -0.712344 -0.953287 126 86 52
0.373562 -0.71129 -0.957648 118 80 47
0.376748 -0.708283 -0.956079 111 76 42
0.378378 -0.705679 -0.955685 110 74 43
0.378453 -0.703454 -0.956474 111 78 44
0.37541 -0.701944 -0.959649 114 78 45
0.377062 -0.699349 -0.959233 102 68 38
0.376378 -0.697284 -0.960608 85 53 25
0.374141 -0.695545 -0.963185 79 52 23
0.369571 -0.694277 -0.967573 79 52 23
0.368132 -0.692318 -0.969553 78 51 24
0.365141 -0.690657 -0.972743 78 50 26
0.35904 -0.689578 -0.978366 78 50 26
0.352171 -0.688587 -0.984611 75 46 24
0.351549 -0.686361 -0.985997 74 48 25
0.344703 -0.685262 -0.992265 73 50 23
0.337869 -0.684094 -0.998549 71 50 27
0.331827 -0.682723 -1.00423 59 46 28
0.328132 -0.680898 -1.00809 42 30 21
0.363246 -0.733227 -0.954748 155 128 110
0.365592 -0.730292 -0.953883 151 112 87
0.369515 -0.726938 -0.951844 143 102 70
0.367955 -0.725128 -0.953857 140 102 67
0.37503 -0.720971 -0.949457 140 100 66
0.376622 -0.718336 -0.949117 141 101 67
0.379005 -0.715508 -0.948181 139 97 66
0.381395 -0.712701 -0.947231 133 93 61
0.383008 -0.710112 -0.946857 127 89 56
0.377572 -0.709275 -0.95178 120 82 49
0.377632 -0.707057 -0.952579 115 78 43
0.378484 -0.704651 -0.952779 110 74 43
0.377774 -0.702616 -0.954159 110 74 43
0.376289 -0.700749 -0.956131 113 77 46
0.376379 -0.698517 -0.956911 109 75 43
0.374126 -0.696796 -0.959478 94 59 32
0.371882 -0.695051 -0.962047 83 50 25
0.367298 -0.693772 -0.96642 78 50 26
0.366637 -0.691648 -0.967794 78 50 26
0.365202 -0.689671 -0.969768 77 50 22
0.359863 -0.688438 -0.974761 77 49 24
0.354536 -0.687152 -0.979767 75 50 24
0.353129 -0.685088 -0.981751 73 49 25
0.348604 -0.683572 -0.986165 72 52 24
0.341747 -0.682421 -0.992414 72 51 26
0.334122 -0.681334 -0.99929 72 51 29
0.330413 -0.679522 -1.00313 68 48 32
0.377497 -0.730231 -0.94063 161 137 118
0.373549 -0.729167 -0.944352 157 120 96
0.371183 -0.727621 -0.946931 150 109 79
0.371971 -0.725179 -0.947203 146 106 74
0.372766 -0.722742 -0.947467 144 104 69
0.377503 -0.719257 -0.944822 143 103 68
0.379886 -0.716435 -0.9439 141 101 67
0.38385 -0.713227 -0.941799 140 100 66
0.38782 -0.710054 -0.939678 134 94 60
0.387865 -0.707895 -0.940468 126 88 55
0.385557 -0.706312 -0.943012 122 84 52
0.383257 -0.704704 -0.94556 116 79 46
0.384896 -0.702148 -0.945162 110 74 43
0.385755 -0.699787 -0.945344 107 74 40
0.381906 -0.698495 -0.949072 110 74 43
0.380423 -0.696643 -0.951027 112 79 47
0.378162 -0.694945 -0.953577 100 63 37
0.375124 -0.693389 -0.956725 88 53 28
0.366598 -0.692938 -0.964061 78 47 23
0.36829 -0.690341 -0.963635 77 49 24
0.366849 -0.688376 -0.965598 79 48 24
0.364632 -0.686547 -0.968162 77 50 22
0.36007 -0.685136 -0.972535 78 50 26
0.35944 -0.68296 -0.973899 78 50 28
0.358819 -0.680775 -0.975259 75 52 28
0.355854 -0.678989 -0.978435 72 52 24
0.352899 -0.677173 -0.981614 75 53 31
0.353087 -0.67481 -0.982363 72 53 30
0.382368 -0.727748 -0.934343 160 131 111
0.377619 -0.726933 -0.93861 157 116 86
0.375246 -0.72541 -0.941171 152 109 78
0.376825 -0.722778 -0.940862 151 110 78
0.377623 -0.720371 -0.941118 148 108 74
0.382374 -0.716922 -0.93848 143 106 71
0.383187 -0.714545 -0.938713 143 103 68
0.386373 -0.711567 -0.937198 140 100 66
0.390356 -0.708418 -0.935085 137 97 62
0.391189 -0.706084 -0.935285 130 89 57
0.390451 -0.704137 -0.936645 120 82 49
0.388932 -0.702368 -0.938588 114 76 46
0.389786 -0.700032 -0.938771 109 73 42
0.387493 -0.698421 -0.941298 105 72 40
0.37969 -0.69802 -0.947954 109 73 42
0.377414 -0.696335 -0.950496 107 74 42
0.375146 -0.694626 -0.95304 105 72 40
0.371312 -0.693223 -0.956773 95 61 31
0.365911 -0.692103 -0.961702 83 50 25
0.368395 -0.689355 -0.960685 79 48 24
0.364587 -0.687857 -0.964432 77 49 24
0.365511 -0.685421 -0.964595 77 50 22
0.359361 -0.684307 -0.970147 78 50 28
0.362662 -0.681421 -0.968503 78 50 28
0.362823 -0.679119 -0.969252 77 51 28
0.364563 -0.676545 -0.968788 75 52 28
0.359238 -0.675167 -0.973754 75 51 30
0.362565 -0.672332 -0.972069 76 54 32
0.35726 -0.670887 -0.977044 72 52 34
0.356677 -0.668668 -0.978381 52 39 23
0.399179 -0.723952 -0.918777 163 136 120
0.385702 -0.725735 -0.929232 165 130 105
0.380147 -0.725159 -0.934042 159 117 83
0.37935 -0.723211 -0.935447 156 113 80
0.380935 -0.720607 -0.935134 153 111 80
0.381735 -0.718228 -0.935383 151 110 78
0.385709 -0.71502 -0.933327 147 107 73
0.386523 -0.712666 -0.933555 143 106 71
0.388928 -0.709916 -0.932621 141 101 69
0.391339 -0.707186 -0.931674 135 98 62
0.391384 -0.705058 -0.932452 129 91 59
0.391435 -0.702927 -0.933226 121 83 50
0.389119 -0.701354 -0.935742 115 77 45
0.389185 -0.699209 -0.936509 108 72 41
0.387676 -0.69742 -0.938441 104 70 39
0.379848 -0.697015 -0.945066 104 70 39
0.376775 -0.695505 -0.948184 107 71 40
0.372919 -0.694132 -0.951896 107 71 40
0.371443 -0.692228 -0.953845 97 61 34
0.368396 -0.690628 -0.956977 88 53 28
0.377206 -0.686651 -0.951219 77 49 24
0.373384 -0.685196 -0.954936 77 49 24
0.377466 -0.682214 -0.952705 77 49 24
0.369714 -0.681445 -0.959406 76 48 25
0.370654 -0.679045 -0.959549 78 50 28
0.367657 -0.677338 -0.96268 77 49 26
0.3694 -0.674797 -0.962213 74 50 26
0.366421 -0.673051 -0.965345 75 52 28
0.365027 -0.67102 -0.967275 75 54 29
0.358129 -0.669832 -0.973432 75 53 31
0.35833 -0.667504 -0.974158 73 54 31
0.364047 -0.66437 -0.970635 61 43 28
0.393061 -0.7247 -0.92051 165 134 115
0.380337 -0.726216 -0.930359 161 125 98
0.377148 -0.724947 -0.933459 160 118 85
0.379525 -0.722118 -0.932595 158 116 82
0.379526 -0.719953 -0.933423 155 112 81
0.381917 -0.717153 -0.932535 152 109 78
0.385903 -0.713958 -0.930491 150 110 75
0.389102 -0.711002 -0.929001 144 106 74
0.39072 -0.708474 -0.928643 140 102 69
0.392345 -0.705958 -0.928274 136 99 64
0.38842 -0.704804 -0.931934 130 92 60
0.388471 -0.702666 -0.93271 122 84 52
0.384562 -0.701452 -0.93638 114 78 45
0.385422 -0.699111 -0.936572 109 74 40
0.383115 -0.697486 -0.939085 104 68 37
0.380817 -0.695838 -0.9416 102 68 36
0.37694 -0.694505 -0.945288 101 70 35
0.377037 -0.692302 -0.946053 103 69 37
0.374763 -0.690585 -0.948575 98 65 33
0.372497 -0.688844 -0.951099 87 52 27
0.378164 -0.685526 -0.947725 80 48 22
0.372745 -0.684381 -0.952606 78 47 23
0.379215 -0.680964 -0.948611 76 48 21
0.371438 -0.6802 -0.955278 76 48 23
0.370006 -0.678236 -0.957204 77 49 24
0.369372 -0.67612 -0.958534 77 52 24
0.366375 -0.674393 -0.961653 77 52 24
0.362596 -0.672764 -0.965375 75 52 28
0.361989 -0.670594 -0.966703 75 52 26
0.36139 -0.668416 -0.968029 75 53 31
0.35922 -0.666465 -0.970555 75 53 31
0.364164 -0.663464 -0.967652 70 50 29
0.386922 -0.725432 -0.922203 164 131 110
0.377346 -0.72601 -0.929768 162 121 94
0.374943 -0.724508 -0.932297 162 117 85
0.380513 -0.720809 -0.929185 160 114 84
0.379718 -0.718869 -0.930575 156 111 79
0.382913 -0.71587 -0.929126 155 112 81
0.385318 -0.713104 -0.92823 148 108 74
0.38773 -0.710359 -0.92732 146 106 72
0.384575 -0.709026 -0.930396 141 103 68
0.387798 -0.706101 -0.928896 137 96 66
0.38625 -0.704351 -0.930825 132 94 61
0.386302 -0.70221 -0.931603 123 88 52
0.383973 -0.700619 -0.934106 118 79 49
0.386427 -0.697922 -0.933144 110 74 43
0.3865 -0.695776 -0.933906 107 71 40
0.381807 -0.694665 -0.938147 102 68 36
0.381896 -0.692493 -0.938907 100 67 35
0.380401 -0.69065 -0.940828 98 64 35
0.379709 -0.688629 -0.942165 95 60 33
0.37823 -0.686757 -0.944084 90 55 31
0.381527 -0.683943 -0.942481 81 50 22
0.375296 -0.682963 -0.947923 79 48 24
0.377813 -0.680308 -0.946893 76 48 21
0.370013 -0.679532 -0.953532 76 48 21
0.370163 -0.677288 -0.954269 77 52 24
0.36794 -0.675449 -0.95678 75 50 22
0.3689 -0.67306 -0.956915 76 48 21
0.367487 -0.67106 -0.958829 76 48 21
0.369253 -0.668547 -0.958355 75 52 26
0.361518 -0.667494 -0.965048 76 54 32
0.364885 -0.66473 -0.963368 77 54 32
0.365881 -0.662334 -0.963475 76 52 33
0.364511 -0.660272 -0.965379 73 53 35
0.379963 -0.726375 -0.924413 162 127 107
0.372754 -0.726243 -0.930278 160 119 92
0.371942 -0.724284 -0.931684 161 116 83
0.378327 -0.72037 -0.928034 159 114 81
0.37753 -0.718425 -0.929422 155 110 78
0.379936 -0.715635 -0.928551 152 109 78
0.384745 -0.712251 -0.92597 148 108 74
0.387164 -0.709513 -0.925068 145 105 71
0.387195 -0.707388 -0.925857 141 101 67
0.390427 -0.704486 -0.924363 138 97 68
0.388075 -0.702943 -0.92685 133 95 60
0.387328 -0.701003 -0.928195 125 90 56
0.385791 -0.699237 -0.930112 121 86 50
0.385857 -0.697097 -0.930878 116 80 47
0.385132 -0.695129 -0.932216 111 75 44
0.382819 -0.693497 -0.934707 109 74 40
0.382109 -0.691504 -0.936042 102 68 36
0.38061 -0.689666 -0.937955 97 63 34
0.38151 -0.687331 -0.938123 95 61 31
0.379229 -0.685628 -0.940615 90 55 31
0.382535 -0.68283 -0.93902 83 51 23
0.380269 -0.681106 -0.941507 77 50 22
0.379605 -0.679067 -0.942824 76 48 21
0.37178 -0.678295 -0.949429 76 48 21
0.37193 -0.676067 -0.950161 77 50 22
0.368108 -0.674508 -0.95384 77 50 22
0.367478 -0.672388 -0.955159 77 50 22
0.365265 -0.670513 -0.95766 77 49 24
0.361472 -0.668861 -0.961352 76 48 25
0.35769 -0.66717 -0.965049 73 53 26
0.361861 -0.664284 -0.962789 75 53 31
0.362067 -0.661993 -0.963499 73 54 31
0.3599 -0.660026 -0.966 74 55 32
0.364882 -0.657096 -0.963103 74 56 37
0.386623 -0.725562 -0.916328 158 136 121
0.380989 -0.72504 -0.921036 161 124 100
0.373759 -0.724909 -0.92687 158 116 82
0.375348 -0.722303 -0.926597 156 114 78
0.380951 -0.718635 -0.923522 156 111 81
0.377749 -0.717342 -0.926579 148 108 74
0.377758 -0.715186 -0.927398 147 107 73
0.38178 -0.712009 -0.925399 146 106 72
0.385008 -0.709066 -0.923944 145 105 71
0.386641 -0.706545 -0.923605 143 103 68
0.389882 -0.703651 -0.922121 139 99 67
0.389126 -0.701731 -0.923462 133 94 64
0.389177 -0.699616 -0.924231 129 91 59
0.388435 -0.697681 -0.925565 121 85 52
0.386099 -0.696093 -0.928042 118 83 49
0.387773 -0.693609 -0.927654 116 80 47
0.387853 -0.69148 -0.928405 113 77 46
0.38554 -0.68985 -0.93088 105 72 40
0.384835 -0.687869 -0.932202 99 62 34
0.386537 -0.685402 -0.931786 91 57 28
0.382648 -0.684037 -0.935419 86 54 26
0.384364 -0.68157 -0.93499 84 52 24
0.383688 -0.679562 -0.936299 79 49 22
0.381423 -0.677833 -0.938773 77 50 22
0.375172 -0.676784 -0.944174 76 48 21
0.372126 -0.675125 -0.947244 76 48 21
0.369888 -0.673302 -0.949731 75 50 22
0.370851 -0.670938 -0.949866 77 50 22
0.369428 -0.668957 -0.951762 76 48 25
0.364824 -0.667447 -0.956022 76 48 25
0.366607 -0.664945 -0.955552 74 48 25
0.366803 -0.662687 -0.956259 75 52 26
0.3686 -0.660205 -0.955771 73 52 30
0.36483 -0.658486 -0.959443 73 54 31
0.373006 -0.655181 -0.954167 73 53 35
0.381182 -0.65195 -0.948864 71 57 41
0.388523 -0.726087 -0.911611 152 123 101
0.380455 -0.726285 -0.917936 161 132 114
0.379625 -0.724383 -0.919325 153 114 86
0.371571 -0.724463 -0.925685 156 113 80
0.37638 -0.720986 -0.923204 155 112 79
0.380392 -0.717765 -0.921255 152 109 78
0.37718 -0.716471 -0.9243 150 110 75
0.377993 -0.714113 -0.92456 147 107 73
0.382027 -0.710948 -0.922572 146 106 72
0.382051 -0.708815 -0.923372 144 103 71
0.386098 -0.705702 -0.921353 143 103 68
0.389349 -0.702816 -0.91988 140 100 66
0.389394 -0.700711 -0.920652 137 97 60
0.388642 -0.698788 -0.921985 130 92 60
0.390307 -0.696314 -0.921612 125 87 54
0.387964 -0.694737 -0.924075 121 83 50
0.38884 -0.692444 -0.924258 120 82 51
0.391328 -0.689818 -0.92329 114 78 45
0.389809 -0.688041 -0.925175 109 73 44
0.388298 -0.686248 -0.92706 99 62 34
0.3884 -0.684122 -0.927793 89 55 27
0.382092 -0.68323 -0.933138 88 53 26
0.38221 -0.681071 -0.933871 85 53 25
0.379929 -0.679352 -0.936338 80 50 22
0.376055 -0.677895 -0.939968 78 48 21
0.371389 -0.676539 -0.944188 75 47 22
0.371538 -0.674322 -0.944917 76 46 20
0.370094 -0.672368 -0.946811 76 48 21
0.37426 -0.669499 -0.944603 76 48 21
0.374431 -0.667289 -0.945312 75 46 24
0.37221 -0.66544 -0.947781 75 46 24
0.371596 -0.663334 -0.949072 74 48 25
0.372589 -0.660992 -0.94918 75 50 26
0.370394 -0.659094 -0.951646 75 52 28
0.368208 -0.657173 -0.954113 73 52 30
0.37481 -0.654106 -0.950049 72 52 32
0.381413 -0.651098 -0.94596 71 54 37
0.408179 -0.72142 -0.894953 148 108 78
0.37269 -0.729601 -0.919744 141 104 77
0.372656 -0.727447 -0.920598 136 98 70
0.378269 -0.723724 -0.917609 153 111 80
0.375833 -0.722252 -0.920092 155 112 81
0.379044 -0.719241 -0.918721 151 110 78
0.382262 -0.716256 -0.917333 152 110 76
0.381459 -0.714345 -0.918699 151 109 75
0.379856 -0.71263 -0.920618 151 109 75
0.382291 -0.70989 -0.919753 147 107 73
0.382314 -0.707764 -0.92055 145 104 73
0.384762 -0.705053 -0.919663 141 103 68
0.388023 -0.702172 -0.918201 140 100 66
0.390484 -0.699506 -0.917286 137 97 60
0.390536 -0.69741 -0.918049 129 91 59
0.39301 -0.694774 -0.917112 124 89 53
0.39066 -0.693213 -0.919559 122 84 52
0.393953 -0.690423 -0.918037 120 84 53
0.392422 -0.688672 -0.919912 116 80 49
0.390899 -0.686904 -0.921787 107 70 42
0.387774 -0.685442 -0.924806 96 62 30
0.388679 -0.683163 -0.924965 84 50 23
0.381549 -0.682423 -0.930858 83 51 23
0.38247 -0.680118 -0.931015 85 53 25
0.382595 -0.677966 -0.931741 84 52 24
0.380315 -0.676238 -0.934195 78 48 21
0.377241 -0.674625 -0.93723 75 47 20
0.379797 -0.672037 -0.936208 75 47 20
0.379951 -0.669864 -0.936918 75 47 20
0.380915 -0.667562 -0.937039 75 47 20
0.38349 -0.665019 -0.935985 75 46 24
0.37805 -0.663695 -0.94077 73 48 22
0.372622 -0.662317 -0.945567 73 48 22
0.372815 -0.6601 -0.946261 72 48 24
0.372214 -0.65799 -0.947539 72 48 24
0.371622 -0.655872 -0.948814 71 50 27
0.379041 -0.652736 -0.944176 72 50 31
0.38566 -0.649763 -0.940103 72 52 36
0.39969 -0.724924 -0.897398 153 112 85
0.386717 -0.726642 -0.906866 156 113 82
0.382637 -0.725711 -0.910409 154 114 82
0.38018 -0.724287 -0.912874 155 115 83
0.387426 -0.720168 -0.9088 160 118 85
0.384983 -0.71874 -0.911256 158 116 82
0.384971 -0.716643 -0.91207 157 114 83
0.384967 -0.714543 -0.91288 156 113 80
0.384969 -0.712441 -0.913685 155 112 79
0.380938 -0.711359 -0.917247 152 112 78
0.384187 -0.708433 -0.915833 150 110 75
0.384211 -0.706322 -0.916625 145 105 71
0.388282 -0.703243 -0.914628 144 104 69
0.390743 -0.700579 -0.913728 141 101 67
0.394019 -0.697749 -0.912256 137 97 62
0.396494 -0.695129 -0.911329 132 92 58
0.398975 -0.69253 -0.910389 123 86 53
0.396616 -0.690999 -0.912816 121 83 53
0.398303 -0.688589 -0.912423 122 84 54
0.397574 -0.686695 -0.913717 121 83 53
0.393623 -0.685445 -0.917278 111 72 46
0.390488 -0.683997 -0.920278 99 62 36
0.388169 -0.682362 -0.922714 84 49 25
0.387471 -0.680398 -0.92401 79 47 19
0.388393 -0.678128 -0.924159 81 49 24
0.387709 -0.676154 -0.925448 87 55 27
0.384615 -0.674594 -0.928458 81 51 25
0.38717 -0.672042 -0.92744 78 48 21
0.387314 -0.669911 -0.928142 76 46 20
0.387465 -0.667779 -0.928839 75 47 22
0.388428 -0.66552 -0.92895 75 47 22
0.390203 -0.663144 -0.928473 72 47 21
0.382331 -0.662206 -0.934972 72 47 21
0.375277 -0.661076 -0.940907 73 48 22
0.370646 -0.659544 -0.945104 72 48 24
0.374864 -0.656786 -0.942866 70 47 23
0.370253 -0.655203 -0.947067 69 47 25
0.378496 -0.651978 -0.941867 70 48 30
0.384331 -0.649114 -0.938407 69 51 37
0.377404 -0.732548 -0.908849 156 122 97
0.367626 -0.733268 -0.916142 153 111 80
0.370818 -0.730178 -0.914859 160 114 84
0.373208 -0.727343 -0.914099 161 116 83
0.376416 -0.724304 -0.912784 163 118 86
0.382873 -0.720405 -0.909283 164 120 87
0.386096 -0.717434 -0.907929 166 121 88
0.387706 -0.71492 -0.907649 162 117 85
0.388512 -0.712628 -0.907906 157 117 82
0.390135 -0.710135 -0.907606 157 117 82
0.386092 -0.709077 -0.911142 157 115 81
0.38692 -0.706783 -0.911382 154 114 80
0.387754 -0.704495 -0.911614 151 111 76
0.387784 -0.702405 -0.912392 146 106 72
0.387822 -0.700312 -0.913165 144 104 69
0.391918 -0.697295 -0.911152 138 98 64
0.393589 -0.694856 -0.910793 132 92 60
0.396888 -0.692076 -0.909306 123 86 53
0.397762 -0.689844 -0.909484 120 82 51
0.401073 -0.687109 -0.907969 116 80 49
0.400341 -0.685232 -0.909254 115 77 49
0.394759 -0.68432 -0.913923 113 74 46
0.391615 -0.682879 -0.916907 100 63 35
0.388479 -0.681406 -0.919898 85 51 26
0.384543 -0.680054 -0.923461 78 45 22
0.385468 -0.677778 -0.923616 78 46 20
0.387208 -0.675364 -0.923192 80 48 20
0.384913 -0.673664 -0.925618 81 51 23
0.385858 -0.671395 -0.925753 78 48 21
0.388426 -0.668867 -0.924732 74 46 19
0.388577 -0.666746 -0.925425 74 45 23
0.386313 -0.665 -0.927844 74 45 23
0.388899 -0.662502 -0.926796 72 47 21
0.381812 -0.661435 -0.932687 72 47 21
0.376349 -0.660072 -0.937433 70 47 23
0.37251 -0.658435 -0.941027 70 47 23
0.377544 -0.655591 -0.938217 69 46 22
0.372918 -0.65402 -0.942395 69 47 25
0.377962 -0.65122 -0.93956 69 47 29
0.378987 -0.648938 -0.939637 65 49 34
0.38176 -0.730212 -0.9034 154 113 88
0.376019 -0.729769 -0.907981 159 113 83
0.378409 -0.726959 -0.907227 161 116 85
0.379993 -0.724396 -0.906996 163 118 86
0.379148 -0.722518 -0.908368 166 119 87
0.383998 -0.719088 -0.905962 169 119 86
0.38398 -0.717 -0.906779 168 121 87
0.383968 -0.71491 -0.907591 168 121 89
0.386402 -0.71219 -0.906768 166 121 88
0.388843 -0.70949 -0.90593 162 119 88
0.386414 -0.708022 -0.908359 159 117 83
0.389682 -0.705143 -0.906955 158 116 82
0.392144 -0.702485 -0.906085 153 113 79
0.391362 -0.700612 -0.907405 151 108 77
0.392212 -0.698355 -0.907618 146 106 72
0.396319 -0.695369 -0.90561 143 103 68
0.397995 -0.692959 -0.905248 137 97 62
0.399677 -0.690561 -0.904875 134 94 62
0.402178 -0.688005 -0.903935 127 89 56
0.403873 -0.685638 -0.903541 123 82 53
0.40395 -0.683614 -0.904257 114 76 46
0.400787 -0.682233 -0.907213 109 73 42
0.399255 -0.680506 -0.909049 100 63 35
0.394486 -0.679377 -0.913141 87 50 26
0.389725 -0.678203 -0.917244 78 45 22
0.389029 -0.67625 -0.918524 76 46 20
0.390773 -0.673862 -0.918099 76 46 20
0.392522 -0.671487 -0.917664 79 46 23
0.394278 -0.669125 -0.917219 78 48 21
0.39847 -0.666383 -0.915049 72 44 22
0.396998 -0.664571 -0.916871 72 45 20
0.393915 -0.66299 -0.91984 72 47 21
0.393268 -0.661017 -0.921089 72 46 23
0.386967 -0.65985 -0.926368 70 47 23
0.375826 -0.659297 -0.935127 70 47 23
0.372784 -0.657549 -0.938127 70 47 23
0.374599 -0.655141 -0.937652 70 49 24
0.369153 -0.653657 -0.942396 68 46 24
0.375019 -0.650755 -0.939 68 46 26
0.374433 -0.648654 -0.94025 58 42 27
0.415541 -0.721266 -0.878158 156 119 95
0.37801 -0.730266 -0.90328 155 114 89
0.371437 -0.730038 -0.908374 159 116 85
0.375463 -0.726756 -0.906571 162 119 88
0.377053 -0.724188 -0.906349 163 118 86
0.377835 -0.721856 -0.906651 169 119 88
0.382699 -0.718433 -0.904264 171 122 88
0.385126 -0.715699 -0.903468 171 122 88
0.384299 -0.713832 -0.904815 172 125 91
0.387555 -0.710915 -0.903457 167 122 89
0.390818 -0.708025 -0.902082 164 122 88
0.387568 -0.706769 -0.905039 163 120 89
0.390845 -0.703906 -0.903644 160 118 85
0.395759 -0.700683 -0.90114 157 117 82
0.395789 -0.698641 -0.901901 153 113 79
0.396641 -0.696411 -0.902108 151 111 76
0.398315 -0.694004 -0.901757 150 108 74
0.402439 -0.691075 -0.89974 144 101 70
0.403311 -0.688881 -0.899917 141 98 67
0.405818 -0.686351 -0.898978 137 94 63
0.406702 -0.684176 -0.899138 135 92 63
0.407593 -0.682007 -0.89929 124 84 52
0.405234 -0.680484 -0.901668 122 81 51
0.403697 -0.678781 -0.90349 106 69 41
0.402168 -0.677062 -0.905312 90 54 27
0.399832 -0.675475 -0.907696 83 49 22
0.399944 -0.673429 -0.908393 79 47 21
0.403316 -0.670816 -0.906825 76 46 20
0.401002 -0.669195 -0.909205 76 46 20
0.40276 -0.666881 -0.908751 76 46 20
0.406148 -0.66432 -0.90715 75 47 20
0.403856 -0.662673 -0.909523 72 45 20
0.39995 -0.661248 -0.913039 71 45 20
0.40011 -0.659189 -0.913702 71 45 22
0.392977 -0.658166 -0.91952 70 47 23
0.384234 -0.657296 -0.926503 70 47 23
0.378747 -0.655913 -0.931204 70 47 23
0.378134 -0.653852 -0.932455 72 48 26
0.375909 -0.651983 -0.93486 70 46 27
0.377741 -0.649609 -0.93437 64 47 28
0.39882 -0.725216 -0.88654 155 126 107
0.368534 -0.731965 -0.906819 155 116 90
0.366027 -0.730527 -0.909266 160 118 87
0.37415 -0.726088 -0.904841 163 118 88
0.376562 -0.723297 -0.904095 167 120 90
0.378163 -0.720748 -0.903867 170 118 88
0.382224 -0.717558 -0.902028 172 123 90
0.385475 -0.714616 -0.900704 173 125 89
0.384647 -0.712756 -0.902046 172 123 90
0.387912 -0.709851 -0.900697 172 125 91
0.38955 -0.70738 -0.90041 168 123 90
0.38956 -0.705322 -0.901193 164 122 88
0.391211 -0.702869 -0.900888 162 119 86
0.397773 -0.699276 -0.897313 160 118 85
0.399438 -0.696872 -0.896979 157 116 84
0.401109 -0.694481 -0.896635 154 114 82
0.401153 -0.692465 -0.897375 151 108 77
0.405288 -0.689561 -0.895367 148 105 72
0.404528 -0.687734 -0.896641 143 100 69
0.407042 -0.685218 -0.895707 139 97 66
0.406295 -0.683389 -0.896972 134 94 62
0.409638 -0.680737 -0.895464 130 89 57
0.408904 -0.678908 -0.896717 126 86 54
0.40981 -0.67676 -0.896855 121 83 50
0.409091 -0.67492 -0.898102 107 70 42
0.408378 -0.673072 -0.899346 90 55 31
0.405226 -0.671647 -0.90227 80 48 22
0.405343 -0.66963 -0.902951 76 46 20
0.403838 -0.667884 -0.904754 75 47 20
0.401524 -0.666255 -0.907122 74 46 19
0.405737 -0.66357 -0.904968 72 45 20
0.404253 -0.661799 -0.906763 72 45 20
0.401148 -0.660254 -0.909695 71 45 20
0.398867 -0.65856 -0.912062 72 46 25
0.392527 -0.657412 -0.917283 70 47 23
0.382946 -0.656645 -0.924803 70 47 23
0.377444 -0.655254 -0.929484 70 49 24
0.371141 -0.653911 -0.93475 69 47 25
0.363227 -0.652706 -0.941179 68 46 24
0.365069 -0.650281 -0.940711 64 47 28
