ply
format ascii 1.0
comment Created by Open3D
element vertex 885
property double x
property double y
property double z
property uchar red
property uchar green
property uchar blue
end_header
0.218078 -0.789164 -1.13388 136 114 99
0.232864 -0.781444 -1.12235 108 69 44
0.215185 -0.783753 -1.13876 82 56 38
0.17464 -0.792732 -1.17499 81 63 46
0.198022 -0.797077 -1.14548 158 136 121
0.249891 -0.777666 -1.10254 138 97 70
0.252877 -0.773773 -1.10112 119 81 48
0.241059 -0.77438 -1.11235 106 73 41
0.25072 -0.778884 -1.0967 162 129 106
0.273036 -0.769018 -1.07897 141 101 71
0.273059 -0.76616 -1.08004 118 82 51
0.263427 -0.766193 -1.08929 104 72 44
0.247116 -0.768098 -1.10427 94 64 38
0.287404 -0.765958 -1.06205 149 112 88
0.297115 -0.760208 -1.05496 118 79 49
0.293407 -0.758605 -1.05911 92 55 27
0.28747 -0.757628 -1.06515 82 48 20
0.26737 -0.760729 -1.08317 84 51 26
0.298165 -0.761244 -1.04942 156 117 93
0.306413 -0.756025 -1.04359 133 95 62
0.296702 -0.756267 -1.0527 114 77 49
0.285504 -0.756851 -1.06308 96 62 34
0.254854 -0.76296 -1.0898 83 50 25
0.30076 -0.759098 -1.04368 161 120 91
0.303027 -0.755728 -1.04283 150 108 74
0.293282 -0.755949 -1.0519 127 89 58
0.281294 -0.75673 -1.06287 116 80 49
0.257298 -0.760843 -1.08386 94 62 34
0.247586 -0.760686 -1.09305 87 55 27
0.316977 -0.750229 -1.02786 152 107 74
0.307952 -0.750292 -1.03625 142 99 68
0.304213 -0.748734 -1.04033 121 84 56
0.292946 -0.749284 -1.05063 111 75 46
0.291488 -0.746977 -1.05287 95 63 38
0.283257 -0.746519 -1.06072 75 50 26
0.303043 -0.755749 -1.03473 166 123 92
0.327262 -0.745895 -1.01607 155 110 78
0.331822 -0.742024 -1.01333 145 103 69
0.331851 -0.739499 -1.01426 137 94 63
0.328106 -0.738041 -1.01828 120 82 51
0.330421 -0.734864 -1.01735 102 65 39
0.324426 -0.733976 -1.02324 84 54 32
0.298915 -0.755675 -1.03455 166 123 94
0.342951 -0.740025 -1.00009 154 109 78
0.353625 -0.732075 -0.993319 129 88 56
0.353661 -0.729663 -0.994205 117 76 49
0.357499 -0.726204 -0.992001 105 66 40
0.353756 -0.724833 -0.995959 92 52 31
0.337884 -0.726647 -1.00984 90 70 54
0.323721 -0.746987 -1.01127 168 128 105
0.35572 -0.735091 -0.986663 146 104 71
0.364878 -0.730074 -0.980234 132 90 59
0.36719 -0.727081 -0.979268 128 83 55
0.369509 -0.724108 -0.978289 117 74 46
0.36879 -0.721987 -0.979752 114 69 41
0.365034 -0.720674 -0.983674 92 51 28
0.355957 -0.720724 -0.99192 75 33 11
0.343086 -0.721668 -1.00328 72 43 26
0.357883 -0.735667 -0.980927 159 122 98
0.370121 -0.729752 -0.972125 143 99 73
0.373197 -0.726568 -0.970558 135 90 60
0.377808 -0.722984 -0.967758 127 82 50
0.380134 -0.720074 -0.966765 121 76 46
0.379412 -0.718011 -0.968204 118 73 42
0.375641 -0.716751 -0.972091 106 66 36
0.370352 -0.715852 -0.977213 83 43 20
0.361254 -0.715877 -0.985424 73 37 15
0.354457 -0.715234 -0.991811 58 30 8
0.363925 -0.732742 -0.973103 160 125 102
0.373903 -0.727542 -0.966141 144 102 68
0.375456 -0.724823 -0.965785 142 95 60
0.377016 -0.722116 -0.965418 138 92 55
0.380116 -0.719003 -0.963826 133 87 52
0.377858 -0.717358 -0.966476 127 83 48
0.374076 -0.716093 -0.970349 121 78 45
0.370302 -0.71479 -0.974229 99 59 29
0.366536 -0.713447 -0.978117 80 45 18
0.358949 -0.713019 -0.985081 76 46 22
0.347543 -0.713451 -0.995141 64 37 19
0.350698 -0.710284 -0.993524 59 39 21
0.349267 -0.708223 -0.995595 87 72 56
0.353203 -0.704914 -0.993334 58 42 27
0.334186 -0.706808 -1.00966 95 80 65
0.325898 -0.706154 -1.01734 81 68 52
0.371563 -0.729389 -0.964132 153 110 82
0.37619 -0.725784 -0.961391 147 102 69
0.377748 -0.723085 -0.961034 140 95 60
0.379313 -0.720399 -0.960667 134 90 55
0.380885 -0.717726 -0.960287 126 82 46
0.377081 -0.716498 -0.964137 124 84 48
0.374824 -0.71483 -0.96678 129 89 54
0.371037 -0.713532 -0.970643 122 79 48
0.367259 -0.712195 -0.974513 97 58 28
0.362721 -0.711008 -0.979002 80 45 20
0.357424 -0.709962 -0.984113 81 49 26
0.361356 -0.706672 -0.981874 79 52 27
0.360686 -0.70449 -0.983305 79 52 27
0.364632 -0.701249 -0.981036 77 50 20
0.35937 -0.700099 -0.986157 75 47 22
0.361027 -0.697387 -0.985722 75 45 21
0.352714 -0.696816 -0.993335 71 40 18
0.339044 -0.697282 -1.00532 48 25 10
0.360744 -0.73372 -0.968643 161 130 111
0.377726 -0.726503 -0.956416 153 108 77
0.377738 -0.724253 -0.957262 148 102 67
0.376985 -0.722215 -0.958702 144 97 61
0.377784 -0.719746 -0.958938 132 87 52
0.380904 -0.71666 -0.957362 119 79 45
0.378631 -0.715027 -0.95999 116 79 46
0.377909 -0.712971 -0.961411 120 82 47
0.375652 -0.711297 -0.964041 128 91 55
0.373403 -0.709599 -0.966673 113 75 42
0.368078 -0.708632 -0.97174 93 56 28
0.364304 -0.707241 -0.975601 83 50 27
0.368248 -0.703998 -0.973362 81 49 26
0.368344 -0.701679 -0.974164 81 51 23
0.369219 -0.699184 -0.974348 81 49 26
0.366249 -0.697545 -0.977596 78 47 23
0.365599 -0.695375 -0.979001 78 45 22
0.360337 -0.694173 -0.984105 77 44 21
0.350468 -0.693869 -0.99293 73 41 17
0.335226 -0.694553 -1.00612 51 25 2
0.37078 -0.729669 -0.957971 162 127 107
0.376204 -0.725847 -0.954682 150 105 75
0.376216 -0.723597 -0.955528 147 102 69
0.37701 -0.721131 -0.955773 141 97 62
0.376262 -0.71909 -0.957205 135 92 59
0.377845 -0.716421 -0.956838 123 83 48
0.377113 -0.714372 -0.958259 113 75 42
0.37871 -0.711718 -0.957875 114 77 41
0.379541 -0.709272 -0.958082 117 82 46
0.378831 -0.707214 -0.959488 121 84 48
0.376582 -0.705522 -0.962103 105 67 34
0.376662 -0.703255 -0.9629 87 53 23
0.376749 -0.700985 -0.963692 80 50 22
0.375297 -0.699067 -0.965696 81 51 23
0.375399 -0.696787 -0.966479 81 51 23
0.374737 -0.694674 -0.967868 80 48 22
0.372536 -0.692883 -0.97048 79 49 20
0.368028 -0.691552 -0.974936 78 48 19
0.36044 -0.690806 -0.981864 78 46 20
0.35055 -0.690446 -0.99066 71 41 14
0.338357 -0.690438 -1.00134 59 39 23
0.373908 -0.727661 -0.952679 156 121 99
0.375466 -0.724969 -0.952352 142 97 67
0.377808 -0.722073 -0.951422 141 98 65
0.377828 -0.719836 -0.952258 141 96 64
0.376301 -0.718014 -0.954277 137 95 59
0.377889 -0.715354 -0.953913 132 90 57
0.377155 -0.713312 -0.95533 123 83 48
0.378757 -0.710667 -0.954948 115 77 45
0.378037 -0.708618 -0.956355 118 80 47
0.38043 -0.705798 -0.955355 120 82 49
0.379726 -0.703744 -0.956751 118 80 45
0.378253 -0.701865 -0.958748 95 59 30
0.37446 -0.700506 -0.96256 83 50 25
0.37378 -0.698407 -0.963954 81 51 23
0.374658 -0.695955 -0.964129 80 50 22
0.370891 -0.694517 -0.96795 80 50 22
0.37101 -0.692218 -0.968727 80 50 22
0.368811 -0.6904 -0.971333 79 47 21
0.361974 -0.689498 -0.977616 77 44 21
0.355922 -0.688373 -0.983302 74 44 18
0.345237 -0.688084 -0.992692 68 38 14
0.378635 -0.727439 -0.945395 154 129 115
0.377853 -0.725441 -0.946829 148 113 91
0.37552 -0.723871 -0.949435 139 97 62
0.376311 -0.721417 -0.949689 139 97 62
0.37711 -0.718967 -0.949935 139 97 64
0.375579 -0.717147 -0.951947 135 92 59
0.377951 -0.714289 -0.950995 134 91 58
0.378771 -0.711853 -0.951217 123 86 51
0.382715 -0.708635 -0.94905 118 80 47
0.381214 -0.706803 -0.951042 118 80 47
0.382835 -0.704198 -0.950641 118 80 47
0.381349 -0.702348 -0.952627 115 79 46
0.377536 -0.701027 -0.956416 104 69 35
0.372174 -0.700022 -0.961417 87 52 25
0.371492 -0.697918 -0.962809 81 51 23
0.372373 -0.695464 -0.962989 81 51 23
0.37015 -0.693682 -0.965586 81 51 23
0.369491 -0.691551 -0.966969 80 50 22
0.371172 -0.688932 -0.966524 81 51 23
0.366643 -0.687572 -0.970946 76 46 20
0.36057 -0.68647 -0.976599 75 45 19
0.351402 -0.685898 -0.984716 76 46 22
0.351565 -0.683502 -0.985494 72 44 24
0.338541 -0.683496 -0.996716 46 28 13
0.37637 -0.727008 -0.944246 151 119 95
0.377149 -0.724562 -0.944513 140 100 66
0.377154 -0.72234 -0.945355 139 99 65
0.377166 -0.720115 -0.946193 140 100 66
0.377186 -0.717889 -0.947025 139 99 65
0.37565 -0.716073 -0.949029 137 95 61
0.378029 -0.713227 -0.948083 132 92 56
0.379634 -0.710599 -0.947714 130 88 52
0.382809 -0.707594 -0.94615 122 81 49
0.383646 -0.705192 -0.946352 115 78 43
0.38371 -0.702983 -0.947141 114 78 45
0.384561 -0.700589 -0.947328 115 79 46
0.379954 -0.699465 -0.951693 110 75 41
0.375356 -0.698295 -0.956068 100 64 33
0.37467 -0.696212 -0.95745 85 53 25
0.376333 -0.693612 -0.957024 81 51 23
0.371761 -0.692351 -0.961412 79 52 23
0.371099 -0.690233 -0.962788 81 51 23
0.370446 -0.688107 -0.964161 77 50 22
0.365901 -0.686744 -0.968565 78 47 23
0.360588 -0.685485 -0.973587 76 46 20
0.352949 -0.684614 -0.980448 75 47 22
0.351553 -0.68252 -0.982443 75 46 24
0.341602 -0.681945 -0.991166 73 47 26
0.336336 -0.680456 -0.996237 53 35 18
0.315521 -0.681554 -1.0136 32 20 8
0.370198 -0.729937 -0.945117 161 138 123
0.376461 -0.7259 -0.94135 143 106 78
0.379595 -0.722802 -0.939876 144 104 69
0.378031 -0.721031 -0.941875 143 103 68
0.380396 -0.718179 -0.94096 143 101 67
0.380415 -0.715974 -0.941784 143 101 65
0.378874 -0.714179 -0.943774 141 99 63
0.380477 -0.71156 -0.943415 134 95 58
0.38287 -0.708755 -0.942458 130 88 54
0.382135 -0.706749 -0.943846 127 84 53
0.383759 -0.704161 -0.943459 118 80 47
0.38539 -0.701586 -0.943061 113 77 44
0.383893 -0.699757 -0.945027 111 76 42
0.378488 -0.69881 -0.949968 111 76 42
0.377791 -0.696754 -0.951345 108 70 38
0.374754 -0.695206 -0.954511 92 58 31
0.376421 -0.692615 -0.954088 85 53 25
0.372617 -0.69119 -0.957857 81 51 23
0.373518 -0.688761 -0.958023 80 50 24
0.371296 -0.686966 -0.960593 77 49 24
0.372211 -0.684534 -0.960748 77 49 24
0.36297 -0.684054 -0.968764 77 49 24
0.359994 -0.682315 -0.971951 76 48 25
0.354685 -0.680971 -0.976966 75 46 24
0.345481 -0.680266 -0.985037 73 47 24
0.340196 -0.678795 -0.99008 74 48 25
0.330241 -0.678057 -0.998801 68 49 30
0.31562 -0.677983 -1.01122 45 30 14
0.375005 -0.727455 -0.93876 156 121 99
0.379714 -0.723902 -0.936157 147 106 77
0.381285 -0.721269 -0.935841 146 106 74
0.38129 -0.71908 -0.936671 144 104 69
0.383662 -0.716253 -0.935756 144 104 69
0.382895 -0.714279 -0.937153 144 104 69
0.381349 -0.7125 -0.939131 143 101 67
0.383743 -0.709701 -0.938188 136 96 61
0.386929 -0.706724 -0.936646 131 89 55
0.384619 -0.70513 -0.939196 122 84 52
0.384675 -0.702942 -0.939984 118 80 45
0.387097 -0.700194 -0.938998 114 76 44
0.385595 -0.698379 -0.940954 111 76 42
0.379387 -0.697618 -0.946462 111 76 42
0.378687 -0.695572 -0.947832 110 72 39
0.37721 -0.693688 -0.949794 101 65 36
0.377312 -0.691453 -0.950563 86 54 26
0.375066 -0.689707 -0.953118 80 50 22
0.377537 -0.686978 -0.952085 80 50 24
0.376092 -0.68505 -0.954037 77 49 24
0.378577 -0.682344 -0.952984 77 49 24
0.370873 -0.681591 -0.959748 77 52 24
0.366317 -0.680183 -0.964117 76 48 25
0.358637 -0.679292 -0.970914 76 48 25
0.35332 -0.677913 -0.975912 76 48 25
0.347232 -0.676614 -0.981528 74 48 25
0.341939 -0.675123 -0.986548 74 48 25
0.334311 -0.673957 -0.993409 56 41 19
0.378297 -0.727629 -0.932738 161 132 112
0.377491 -0.725665 -0.934159 156 117 91
0.37906 -0.723025 -0.933858 153 112 83
0.381424 -0.720179 -0.932972 150 109 77
0.383007 -0.717568 -0.932648 146 108 73
0.383809 -0.715181 -0.932891 145 105 71
0.385406 -0.712592 -0.932547 144 103 71
0.384644 -0.710626 -0.933932 141 101 69
0.385467 -0.708252 -0.934152 137 97 62
0.387875 -0.705491 -0.933199 132 90 57
0.387134 -0.703519 -0.934569 122 84 52
0.386402 -0.701539 -0.935936 116 79 46
0.388042 -0.698995 -0.935541 113 77 44
0.385747 -0.697369 -0.938075 111 76 40
0.381095 -0.696252 -0.942379 111 76 42
0.384334 -0.693351 -0.940788 111 76 42
0.379699 -0.692179 -0.9451 104 68 37
0.379012 -0.690128 -0.946456 89 55 25
0.379908 -0.687744 -0.946621 81 50 22
0.380024 -0.685525 -0.947373 79 49 22
0.374637 -0.684389 -0.952298 77 50 22
0.379491 -0.681232 -0.949459 77 49 24
0.368615 -0.68107 -0.958589 77 52 24
0.365618 -0.679363 -0.961741 77 52 24
0.3587 -0.678326 -0.967906 77 51 26
0.35258 -0.677083 -0.973485 76 48 25
0.34883 -0.675381 -0.977264 77 51 28
0.347446 -0.673254 -0.979233 75 52 28
0.344501 -0.67136 -0.982413 73 49 27
0.391128 -0.724986 -0.919968 163 146 129
0.383191 -0.725146 -0.926469 165 128 102
0.380801 -0.723658 -0.929013 159 116 87
0.38 -0.721705 -0.93042 158 115 84
0.383163 -0.718657 -0.928967 153 111 80
0.384751 -0.716063 -0.928644 150 109 77
0.386346 -0.713482 -0.92831 146 108 73
0.38874 -0.710708 -0.927389 144 103 71
0.388766 -0.708561 -0.928186 140 101 64
0.388801 -0.706412 -0.928979 138 98 62
0.390424 -0.703872 -0.928606 132 92 58
0.388099 -0.7023 -0.931128 123 86 51
0.387364 -0.70033 -0.932489 116 79 46
0.39059 -0.697431 -0.930928 110 74 43
0.387497 -0.696001 -0.934032 108 72 39
0.384412 -0.69454 -0.937141 106 73 39
0.387659 -0.691666 -0.935554 110 74 43
0.383799 -0.69034 -0.939252 108 72 41
0.382319 -0.68848 -0.941187 97 61 30
0.384007 -0.685958 -0.940755 87 53 23
0.385701 -0.68345 -0.940313 77 50 22
0.377927 -0.682802 -0.94699 77 50 22
0.379636 -0.680275 -0.946542 78 51 24
0.368727 -0.680105 -0.95563 77 52 24
0.367298 -0.678116 -0.957572 77 52 24
0.361935 -0.676806 -0.962509 77 52 24
0.357371 -0.675307 -0.966857 77 52 24
0.35597 -0.673235 -0.968808 77 51 28
0.358517 -0.670509 -0.967745 76 53 29
0.353983 -0.668919 -0.972103 76 53 29
0.346312 -0.667764 -0.97889 73 49 27
0.385774 -0.725499 -0.921099 163 140 125
0.381781 -0.724494 -0.924756 163 124 98
0.382559 -0.72211 -0.925028 163 118 88
0.382549 -0.71995 -0.92586 161 116 83
0.384929 -0.717141 -0.92498 155 112 79
0.384934 -0.714989 -0.925797 155 112 81
0.386534 -0.712418 -0.925467 152 112 78
0.386554 -0.710269 -0.92627 146 108 73
0.386581 -0.708118 -0.927069 143 103 68
0.388202 -0.705571 -0.926712 138 98 62
0.38983 -0.703037 -0.926344 132 94 57
0.387498 -0.701466 -0.928857 125 87 52
0.385967 -0.699684 -0.930793 116 79 46
0.39079 -0.696425 -0.928082 110 75 41
0.386894 -0.695177 -0.931754 108 72 41
0.384593 -0.69354 -0.934267 106 70 39
0.387056 -0.690849 -0.933274 107 71 40
0.385563 -0.689019 -0.935198 106 70 39
0.383285 -0.687336 -0.93771 100 63 35
0.383392 -0.685148 -0.938458 90 54 27
0.386675 -0.682332 -0.936841 80 50 24
0.381253 -0.681226 -0.941711 77 50 22
0.381383 -0.679022 -0.942447 77 49 24
0.375188 -0.67798 -0.947927 75 50 22
0.373752 -0.676026 -0.949852 75 50 24
0.369952 -0.67447 -0.953564 76 48 21
0.365371 -0.673009 -0.957881 75 50 22
0.364753 -0.67085 -0.959213 77 52 24
0.363352 -0.668809 -0.961142 75 52 28
0.361171 -0.666875 -0.963671 75 52 28
0.355842 -0.665392 -0.96861 75 52 28
0.361573 -0.662242 -0.965114 61 42 23
0.384383 -0.72485 -0.919395 167 138 120
0.380379 -0.723839 -0.923038 164 121 90
0.381158 -0.721456 -0.923314 164 120 87
0.383538 -0.718642 -0.922453 161 116 83
0.38274 -0.716706 -0.92384 158 116 80
0.382745 -0.71455 -0.924659 156 114 78
0.38435 -0.711978 -0.924335 153 113 79
0.387554 -0.70901 -0.922862 150 110 75
0.389173 -0.706471 -0.922514 143 106 71
0.390003 -0.70414 -0.922729 139 99 65
0.39084 -0.701816 -0.922935 129 92 55
0.390093 -0.699875 -0.924285 123 86 51
0.386965 -0.698481 -0.927362 116 79 46
0.390211 -0.695602 -0.92582 111 76 40
0.38869 -0.693819 -0.927739 108 72 39
0.387176 -0.692019 -0.929658 103 69 37
0.389647 -0.689351 -0.928667 103 67 36
0.388148 -0.687537 -0.93058 103 68 34
0.387452 -0.685544 -0.931907 98 67 34
0.387558 -0.683382 -0.932647 91 57 30
0.388466 -0.681063 -0.932794 81 51 23
0.383026 -0.679964 -0.937639 76 48 21
0.384744 -0.67748 -0.937191 75 47 20
0.38091 -0.676018 -0.940868 74 49 23
0.382642 -0.673535 -0.940409 76 48 23
0.378033 -0.672159 -0.944684 77 50 22
0.374228 -0.670604 -0.948374 77 50 22
0.372019 -0.668751 -0.95088 77 52 24
0.367441 -0.667251 -0.955178 74 50 26
0.362874 -0.665704 -0.959484 75 52 28
0.361486 -0.66364 -0.961403 75 52 28
0.360108 -0.661559 -0.96332 75 52 28
0.36032 -0.659241 -0.964033 66 45 23
0.38779 -0.722828 -0.914345 167 136 117
0.382177 -0.722283 -0.919082 164 119 89
0.383758 -0.719695 -0.918795 165 118 86
0.383749 -0.717554 -0.919619 160 115 82
0.383747 -0.715412 -0.920439 159 114 81
0.384551 -0.713057 -0.920689 157 115 79
0.386161 -0.710501 -0.920366 152 112 78
0.390173 -0.707351 -0.918332 147 107 73
0.392596 -0.704633 -0.917415 142 105 69
0.392629 -0.702522 -0.918194 139 99 65
0.391074 -0.700791 -0.92011 132 94 59
0.390324 -0.698857 -0.921454 125 87 52
0.387187 -0.697465 -0.924517 121 83 50
0.388048 -0.69514 -0.92471 113 77 44
0.388118 -0.692998 -0.925472 108 72 41
0.391386 -0.690162 -0.923918 103 69 37
0.393863 -0.687523 -0.922927 103 67 36
0.391561 -0.685899 -0.925405 102 69 34
0.391659 -0.683765 -0.926141 95 61 31
0.388576 -0.682262 -0.929203 91 57 30
0.388689 -0.68011 -0.929934 81 51 23
0.382436 -0.679161 -0.935342 79 49 22
0.384158 -0.676683 -0.934899 77 50 22
0.37872 -0.675506 -0.939736 77 50 22
0.382845 -0.672603 -0.937516 75 50 22
0.375835 -0.671635 -0.943543 75 50 22
0.372814 -0.669938 -0.946629 75 50 22
0.371393 -0.667954 -0.948533 77 50 22
0.367596 -0.666327 -0.952219 77 49 26
0.363809 -0.664661 -0.955911 77 51 28
0.361622 -0.662723 -0.958416 75 52 28
0.366589 -0.659743 -0.955546 76 52 31
0.365212 -0.657681 -0.957445 75 53 31
0.369395 -0.654865 -0.955145 73 52 32
0.404876 -0.718983 -0.899107 160 140 124
0.391233 -0.720816 -0.909325 163 122 95
0.384803 -0.72051 -0.914589 162 115 83
0.384787 -0.718383 -0.915414 160 115 82
0.38638 -0.71582 -0.915118 157 115 79
0.384776 -0.714122 -0.91705 155 112 79
0.384782 -0.711988 -0.917861 151 110 78
0.385596 -0.709647 -0.918103 150 110 75
0.390421 -0.706305 -0.915519 146 106 72
0.392049 -0.703796 -0.915174 144 104 69
0.392083 -0.701688 -0.915951 139 99 65
0.389722 -0.70015 -0.918428 134 96 61
0.38897 -0.698214 -0.91977 128 91 55
0.386624 -0.696635 -0.92225 125 87 52
0.385887 -0.694674 -0.923589 120 82 49
0.388358 -0.692001 -0.922632 114 78 45
0.391636 -0.689177 -0.921088 110 77 42
0.39332 -0.686718 -0.920679 106 70 37
0.39181 -0.684929 -0.92257 99 66 32
0.392708 -0.682642 -0.922725 95 61 31
0.389615 -0.681146 -0.925772 86 54 26
0.386531 -0.679618 -0.928823 83 51 23
0.385054 -0.67776 -0.930715 79 47 21
0.38678 -0.675303 -0.930272 76 48 21
0.384519 -0.673569 -0.932743 75 47 20
0.38546 -0.671259 -0.932872 75 47 20
0.388005 -0.668685 -0.931818 77 50 22
0.381779 -0.667572 -0.937226 75 50 22
0.381944 -0.66538 -0.93793 77 50 22
0.378132 -0.663804 -0.941583 76 48 25
0.371938 -0.662547 -0.94702 74 48 25
0.36735 -0.660998 -0.951283 75 51 30
0.368348 -0.658619 -0.951393 73 52 30
0.362985 -0.657111 -0.95626 75 53 31
0.360817 -0.655132 -0.958751 76 54 34
0.357068 -0.653331 -0.962439 69 52 33
0.414853 -0.717118 -0.888995 107 79 59
0.397953 -0.719968 -0.901322 149 115 88
0.392301 -0.719495 -0.90599 159 116 85
0.385853 -0.719191 -0.911225 161 114 82
0.385837 -0.717074 -0.912046 160 113 81
0.389041 -0.714095 -0.910641 156 112 77
0.387433 -0.712413 -0.912561 153 108 77
0.386636 -0.710506 -0.913922 147 107 73
0.386649 -0.708385 -0.914722 145 105 71
0.391488 -0.70506 -0.912151 145 105 71
0.392318 -0.702762 -0.912371 144 104 69
0.391549 -0.700854 -0.91371 140 100 66
0.389984 -0.699127 -0.915612 138 98 64
0.38923 -0.697198 -0.916947 132 92 56
0.386877 -0.695624 -0.919416 126 88 53
0.38694 -0.69349 -0.920181 121 84 48
0.389418 -0.690832 -0.919229 121 84 48
0.395112 -0.687512 -0.915977 116 80 47
0.395997 -0.685244 -0.916141 113 77 46
0.39689 -0.682982 -0.916296 100 67 35
0.396184 -0.681046 -0.917595 94 60 30
0.392279 -0.679723 -0.9212 87 55 27
0.389185 -0.67821 -0.924234 84 52 24
0.386901 -0.676517 -0.926693 80 50 24
0.391034 -0.673643 -0.924509 75 47 20
0.390367 -0.671651 -0.925799 75 47 20
0.391309 -0.669375 -0.92592 75 47 20
0.391457 -0.667239 -0.926617 76 48 21
0.391612 -0.665102 -0.92731 75 50 22
0.386175 -0.663845 -0.932105 76 48 23
0.381549 -0.662411 -0.936324 76 48 25
0.377733 -0.660813 -0.939962 73 47 24
0.37233 -0.659406 -0.944788 75 50 26
0.370133 -0.657501 -0.947258 75 51 30
0.363954 -0.656108 -0.952693 73 52 30
0.361778 -0.654138 -0.955172 73 54 33
0.353231 -0.652939 -0.962412 75 56 37
0.350281 -0.650987 -0.965498 59 43 30
0.403122 -0.71953 -0.894488 140 101 71
0.399059 -0.718648 -0.898025 148 108 78
0.395002 -0.717728 -0.901571 156 113 80
0.389341 -0.717212 -0.906226 156 111 79
0.385297 -0.716206 -0.909794 155 110 78
0.3869 -0.713664 -0.909504 152 110 74
0.386093 -0.711765 -0.910865 151 109 73
0.389321 -0.708823 -0.909448 150 108 74
0.39014 -0.706518 -0.909684 147 107 73
0.395798 -0.703023 -0.906565 145 105 71
0.397436 -0.700556 -0.906218 144 104 69
0.395859 -0.69887 -0.908104 141 102 65
0.393484 -0.697354 -0.910553 138 97 66
0.393532 -0.695262 -0.911315 136 94 60
0.392782 -0.693349 -0.912636 127 89 56
0.392039 -0.691426 -0.913955 123 86 53
0.396133 -0.688455 -0.911867 120 84 50
0.401843 -0.68518 -0.908623 116 79 46
0.402729 -0.682951 -0.908776 107 71 38
0.401208 -0.681214 -0.910636 97 63 34
0.4005 -0.679302 -0.911923 89 55 25
0.394974 -0.67831 -0.916652 85 53 25
0.391066 -0.676962 -0.920243 85 53 25
0.387166 -0.675575 -0.923842 80 50 22
0.390508 -0.672858 -0.922249 76 46 20
0.389035 -0.671008 -0.924114 74 46 19
0.391586 -0.668462 -0.923077 74 46 19
0.392536 -0.666201 -0.923191 75 47 20
0.393493 -0.663947 -0.923298 75 47 20
0.393654 -0.661823 -0.923981 75 46 24
0.389011 -0.660425 -0.928169 72 47 21
0.38518 -0.658863 -0.93178 73 47 26
0.377354 -0.65783 -0.938334 74 48 25
0.373546 -0.656171 -0.941964 73 49 27
0.364945 -0.65511 -0.949139 74 50 29
0.361961 -0.65325 -0.952196 72 51 29
0.355788 -0.651752 -0.957626 73 54 33
0.343233 -0.65095 -0.967814 67 49 32
0.397841 -0.722101 -0.894746 155 112 81
0.392144 -0.721679 -0.899357 157 115 81
0.390492 -0.720065 -0.901265 155 112 81
0.394502 -0.716866 -0.899358 156 113 80
0.391248 -0.715685 -0.902351 156 113 80
0.387193 -0.714688 -0.905898 155 112 79
0.389609 -0.71195 -0.905059 152 110 76
0.389608 -0.709859 -0.90586 153 111 78
0.391229 -0.707356 -0.905551 152 110 76
0.39205 -0.705067 -0.905785 149 106 73
0.396917 -0.701793 -0.903236 146 106 72
0.397752 -0.699533 -0.903447 144 104 69
0.39617 -0.697852 -0.905325 140 100 66
0.39298 -0.696528 -0.908322 138 97 66
0.393836 -0.694256 -0.908521 135 92 61
0.393891 -0.69217 -0.909275 127 89 56
0.393953 -0.690082 -0.910024 123 86 53
0.398866 -0.686959 -0.907381 121 83 50
0.405398 -0.683542 -0.903586 115 79 46
0.406286 -0.681336 -0.903735 111 73 40
0.405567 -0.679459 -0.905013 99 60 32
0.404049 -0.677729 -0.906858 86 49 23
0.399312 -0.676598 -0.910988 83 51 23
0.394585 -0.675421 -0.915128 88 53 26
0.390673 -0.674051 -0.918704 85 53 25
0.389187 -0.672215 -0.920564 80 48 22
0.389321 -0.670086 -0.921272 74 46 19
0.387852 -0.668225 -0.923128 74 46 19
0.392831 -0.665299 -0.920357 74 46 19
0.394595 -0.662926 -0.919885 75 47 20
0.393147 -0.661061 -0.921726 74 45 23
0.387685 -0.65978 -0.926478 72 47 21
0.389471 -0.6574 -0.925991 72 46 23
0.376797 -0.657056 -0.936015 70 47 23
0.374584 -0.655179 -0.938458 72 48 24
0.371577 -0.653383 -0.941489 73 49 25
0.366173 -0.651859 -0.946288 70 49 26
0.354364 -0.651059 -0.95581 72 53 30
0.385321 -0.728919 -0.898933 154 113 88
0.377164 -0.729206 -0.905142 153 110 82
0.377922 -0.726844 -0.905459 157 114 83
0.381118 -0.723798 -0.90415 159 116 85
0.384321 -0.720778 -0.902825 160 114 84
0.391583 -0.716672 -0.898772 162 117 85
0.390751 -0.714821 -0.900126 160 115 82
0.387494 -0.713608 -0.903112 157 114 83
0.388297 -0.711304 -0.903372 156 113 80
0.389106 -0.709005 -0.903625 157 115 81
0.390732 -0.706508 -0.90332 155 113 77
0.389935 -0.704625 -0.904658 155 112 79
0.394006 -0.701552 -0.90268 148 108 74
0.396464 -0.6989 -0.901791 146 106 72
0.394877 -0.697216 -0.903663 141 101 67
0.393298 -0.695516 -0.905535 138 98 64
0.396586 -0.692706 -0.904063 130 93 58
0.395831 -0.690817 -0.905369 127 89 56
0.396703 -0.688569 -0.905553 123 85 55
0.402438 -0.685301 -0.90236 122 84 52
0.403322 -0.683087 -0.90252 123 86 53
0.403404 -0.681042 -0.903238 116 79 46
0.404301 -0.678837 -0.903385 104 63 36
0.401969 -0.677261 -0.905791 87 52 25
0.398028 -0.675967 -0.909336 82 47 22
0.394904 -0.674486 -0.91232 85 51 26
0.392597 -0.672828 -0.914739 87 55 27
0.390298 -0.671146 -0.917159 84 52 24
0.388816 -0.669303 -0.91901 77 50 20
0.389765 -0.667043 -0.919137 76 46 20
0.395565 -0.664009 -0.915803 75 47 20
0.397332 -0.661657 -0.915331 74 45 23
0.397492 -0.659564 -0.916005 72 47 21
0.396851 -0.657589 -0.917253 72 47 21
0.3938 -0.65595 -0.920239 71 45 22
0.378671 -0.655948 -0.931952 70 47 23
0.375644 -0.65419 -0.934964 70 47 23
0.368601 -0.65292 -0.9409 69 46 22
0.359962 -0.651781 -0.948021 69 47 25
0.348926 -0.650846 -0.95692 71 50 27
0.388067 -0.727065 -0.894569 152 109 82
0.379887 -0.727359 -0.900741 157 114 85
0.383085 -0.724319 -0.899449 158 116 82
0.387103 -0.721078 -0.897604 161 116 83
0.388691 -0.718547 -0.897354 165 118 86
0.392724 -0.715363 -0.895475 170 121 87
0.39514 -0.71265 -0.894658 169 123 88
0.392687 -0.711244 -0.89708 164 120 85
0.391054 -0.709603 -0.898963 160 118 85
0.392678 -0.707117 -0.898667 159 117 81
0.395122 -0.704441 -0.897814 159 117 83
0.394323 -0.702583 -0.899138 158 116 82
0.397593 -0.699737 -0.897715 155 112 79
0.400869 -0.696918 -0.896276 148 108 74
0.40009 -0.69507 -0.897581 145 105 71
0.399319 -0.693213 -0.898883 139 99 65
0.402615 -0.690441 -0.897411 133 93 61
0.401045 -0.688762 -0.899259 123 86 53
0.40273 -0.686371 -0.898877 123 82 50
0.405233 -0.683824 -0.897928 120 80 50
0.406119 -0.68163 -0.898085 118 79 49
0.405389 -0.679767 -0.899357 113 75 44
0.407911 -0.67726 -0.898377 101 65 36
0.407194 -0.675394 -0.89964 87 52 25
0.404051 -0.673973 -0.902595 79 47 21
0.404159 -0.67193 -0.903291 75 45 19
0.400222 -0.670606 -0.906819 80 50 22
0.400345 -0.668542 -0.907511 80 50 22
0.398045 -0.666885 -0.909908 79 49 22
0.398993 -0.664675 -0.910022 76 46 20
0.401567 -0.662213 -0.908984 72 44 22
0.401718 -0.660148 -0.909655 72 44 22
0.39783 -0.658688 -0.913195 70 44 19
0.400423 -0.656249 -0.912133 69 46 22
0.397361 -0.654628 -0.915101 69 46 22
0.38461 -0.654297 -0.925015 69 46 22
0.379956 -0.652782 -0.929165 69 46 22
0.380966 -0.650502 -0.929257 69 46 22
0.375525 -0.649019 -0.933998 68 46 24
0.368482 -0.647673 -0.939916 70 48 28
0.437318 -0.713447 -0.859332 156 117 91
0.378627 -0.728804 -0.898164 156 113 84
0.372867 -0.728344 -0.90273 160 114 84
0.373629 -0.725978 -0.903056 160 118 87
0.376843 -0.722933 -0.901775 163 118 88
0.381695 -0.719467 -0.899407 168 118 87
0.384924 -0.716485 -0.898089 171 122 88
0.389791 -0.713096 -0.89568 172 123 92
0.389776 -0.711028 -0.896483 167 122 89
0.388138 -0.709377 -0.898363 164 120 87
0.391397 -0.706475 -0.896992 163 121 85
0.393033 -0.704004 -0.896691 159 117 83
0.392231 -0.702142 -0.898014 159 117 83
0.39714 -0.698907 -0.895512 157 115 79
0.400426 -0.696097 -0.894084 155 112 79
0.399645 -0.694252 -0.895385 148 108 74
0.398871 -0.692397 -0.896683 145 103 67
0.401362 -0.689814 -0.895773 139 97 64
0.400602 -0.687956 -0.897062 132 92 60
0.40392 -0.685227 -0.895577 124 83 54
0.403987 -0.683201 -0.896299 115 74 44
0.406504 -0.680678 -0.895346 111 72 42
0.408213 -0.678337 -0.894938 105 66 36
0.406672 -0.676641 -0.896758 99 62 34
0.405953 -0.674774 -0.898018 88 53 26
0.403615 -0.673198 -0.9004 78 45 22
0.403723 -0.671159 -0.901094 76 46 20
0.402213 -0.669405 -0.902913 75 45 19
0.401523 -0.667495 -0.904166 79 49 20
0.399216 -0.665847 -0.90655 79 49 22
0.400978 -0.663518 -0.906096 76 46 20
0.403558 -0.661074 -0.905062 71 43 21
0.402085 -0.659272 -0.90687 71 45 20
0.398997 -0.657695 -0.909821 71 45 20
0.403218 -0.655037 -0.907618 71 45 24
0.399335 -0.653544 -0.911143 69 46 22
0.388167 -0.652992 -0.919854 70 47 23
0.382688 -0.651597 -0.924556 69 48 23
0.388557 -0.648729 -0.921178 66 45 21
0.375002 -0.648257 -0.931676 68 44 25
0.368748 -0.64681 -0.936987 66 46 28
0.416574 -0.718658 -0.870406 156 121 99
0.377315 -0.72814 -0.896436 158 117 87
0.371539 -0.727672 -0.90098 162 118 90
0.373938 -0.724846 -0.900252 163 120 89
0.376344 -0.72204 -0.89951 163 118 86
0.381209 -0.718585 -0.897159 171 121 90
0.386899 -0.714953 -0.894252 174 122 90
0.390962 -0.711801 -0.89239 172 123 90
0.392582 -0.709321 -0.892117 172 125 91
0.391757 -0.707478 -0.893446 171 123 92
0.395025 -0.704602 -0.892078 167 125 92
0.394214 -0.702759 -0.893397 165 123 87
0.395044 -0.700513 -0.893629 164 122 86
0.39915 -0.697497 -0.891682 158 118 81
0.399994 -0.695276 -0.891894 157 115 81
0.400027 -0.693248 -0.892644 155 112 79
0.399251 -0.691399 -0.893937 151 109 75
0.401749 -0.688827 -0.893033 148 105 72
0.40017 -0.687151 -0.894866 146 104 73
0.403497 -0.68443 -0.893392 141 98 67
0.404382 -0.68224 -0.893561 135 92 61
0.406088 -0.679892 -0.893168 127 84 53
0.408618 -0.677398 -0.89221 117 77 45
0.409521 -0.675237 -0.892352 102 66 35
0.411246 -0.672929 -0.891929 92 55 29
0.409715 -0.671231 -0.893733 84 49 25
0.409822 -0.669227 -0.894416 77 44 19
0.40749 -0.667645 -0.896779 75 45 19
0.407612 -0.665627 -0.897457 76 46 20
0.403666 -0.664277 -0.90095 75 45 19
0.404617 -0.662107 -0.901058 76 46 20
0.408016 -0.659563 -0.89946 72 45 20
0.407351 -0.657662 -0.900685 71 45 20
0.403438 -0.656229 -0.904184 71 45 20
0.410922 -0.653143 -0.899708 69 46 22
0.407025 -0.651685 -0.903204 69 46 22
0.396635 -0.651051 -0.911289 70 47 23
0.395198 -0.649174 -0.913087 66 45 21
0.401889 -0.646278 -0.909136 66 45 23
0.389913 -0.645661 -0.918411 66 45 25
0.415378 -0.718047 -0.868817 154 121 100
0.372735 -0.728419 -0.896795 159 118 89
0.368581 -0.727463 -0.900275 162 119 88
0.372624 -0.724175 -0.898507 164 119 89
0.375038 -0.721373 -0.897774 167 120 88
0.380736 -0.717703 -0.894912 171 121 90
0.385622 -0.714301 -0.892556 173 125 89
0.389697 -0.711155 -0.890709 173 125 89
0.391321 -0.708677 -0.890442 175 126 90
0.392133 -0.706419 -0.890699 172 125 91
0.397048 -0.703149 -0.888269 169 124 92
0.397874 -0.70092 -0.888503 165 123 87
0.399526 -0.6985 -0.888192 162 123 86
0.402824 -0.695709 -0.88679 163 121 85
0.403669 -0.693512 -0.886997 162 120 84
0.402884 -0.691691 -0.888282 157 115 81
0.401286 -0.690041 -0.89011 157 115 81
0.40379 -0.687488 -0.88921 151 109 75
0.403025 -0.68565 -0.890485 146 104 73
0.405543 -0.683123 -0.889565 143 100 69
0.406429 -0.680949 -0.889731 141 98 67
0.40814 -0.678619 -0.889339 136 93 62
0.411494 -0.675984 -0.887833 134 91 60
0.410762 -0.674154 -0.889079 124 89 55
0.41331 -0.671708 -0.888104 115 77 47
0.411774 -0.670023 -0.889896 92 55 27
0.413516 -0.667745 -0.88946 84 50 23
0.411176 -0.666183 -0.891807 79 47 21
0.409662 -0.66446 -0.893597 76 46 20
0.406521 -0.662987 -0.896509 75 45 19
0.409107 -0.660579 -0.89549 72 45 18
0.410881 -0.658317 -0.895022 72 45 20
0.408579 -0.656677 -0.897368 71 45 20
0.412814 -0.654071 -0.895189 70 47 23
0.419499 -0.651158 -0.891291 69 46 22
0.417217 -0.649519 -0.893622 69 46 22
0.410054 -0.648496 -0.899373 69 46 22
0.413494 -0.646067 -0.89772 69 45 24
0.417753 -0.643568 -0.895481 66 45 23
0.453599 -0.70596 -0.842341 151 116 91
0.387031 -0.723273 -0.885167 157 118 91
0.373834 -0.72493 -0.89434 163 120 89
0.377068 -0.721906 -0.893098 164 119 89
0.377024 -0.719806 -0.893937 168 121 91
0.381095 -0.716601 -0.892142 171 121 90
0.385174 -0.71343 -0.890328 175 123 91
0.388439 -0.710507 -0.889023 175 126 90
0.390889 -0.707822 -0.888232 176 126 93
0.391703 -0.705569 -0.888491 176 126 93
0.398276 -0.701904 -0.885011 173 126 90
0.399104 -0.699688 -0.885245 173 128 93
0.401582 -0.697087 -0.8844 164 122 86
0.404067 -0.694507 -0.883542 163 121 85
0.404093 -0.69251 -0.884286 163 121 85
0.403305 -0.690695 -0.885566 160 118 85
0.404167 -0.68851 -0.885761 155 112 79
0.404214 -0.686508 -0.886491 152 107 74
0.404268 -0.684504 -0.887217 148 105 72
0.407613 -0.681823 -0.885757 142 99 66
0.409322 -0.6795 -0.885375 138 96 64
0.409395 -0.677514 -0.886078 134 91 58
0.411117 -0.675211 -0.885678 126 86 54
0.411203 -0.673229 -0.88637 120 80 48
0.413758 -0.670795 -0.885401 114 76 46
0.413857 -0.668822 -0.886079 102 66 35
0.414783 -0.666704 -0.886198 90 54 27
0.416535 -0.664454 -0.885755 80 48 22
0.415015 -0.662759 -0.887529 75 45 19
0.41514 -0.660784 -0.888187 74 44 18
0.415273 -0.658809 -0.88884 72 44 22
0.415412 -0.656832 -0.889489 71 43 19
0.41392 -0.655095 -0.891256 71 45 20
0.415709 -0.652874 -0.890772 69 46 22
0.41914 -0.650442 -0.889149 69 46 22
0.416034 -0.648912 -0.892035 69 46 22
0.395655 -0.719809 -0.877268 154 115 89
0.374189 -0.723797 -0.891558 162 118 90
0.375785 -0.721238 -0.891365 163 118 88
0.372447 -0.720032 -0.894289 168 118 87
0.376529 -0.716818 -0.892515 170 120 89
0.379795 -0.713854 -0.891246 172 123 90
0.383068 -0.710918 -0.889961 175 126 90
0.386349 -0.70801 -0.888659 175 125 92
0.390461 -0.704923 -0.886813 177 128 94
0.393756 -0.702073 -0.885477 174 128 91
0.396234 -0.699449 -0.884657 172 125 89
0.398719 -0.696844 -0.883824 168 123 88
0.400387 -0.69445 -0.883512 167 122 87
0.402885 -0.691883 -0.882654 161 122 85
0.402919 -0.689884 -0.883394 159 117 83
0.404607 -0.687526 -0.883053 155 112 79
0.405478 -0.685356 -0.883241 150 106 73
0.407178 -0.68302 -0.882881 145 103 67
0.408062 -0.680866 -0.883053 142 99 68
0.411421 -0.678225 -0.881587 138 96 62
0.411494 -0.676254 -0.882286 132 92 60
0.41322 -0.673968 -0.881887 129 88 56
0.413306 -0.672001 -0.882574 125 85 53
0.415044 -0.669735 -0.882158 120 82 49
0.412676 -0.66821 -0.884483 107 71 40
0.41196 -0.666378 -0.885708 92 55 29
0.413717 -0.664122 -0.885273 79 47 19
0.410549 -0.662686 -0.888151 76 43 20
0.410676 -0.660697 -0.888814 72 45 20
0.414095 -0.658199 -0.887248 71 43 19
0.416697 -0.655853 -0.886224 70 44 19
0.416842 -0.653886 -0.886864 70 44 19
0.421916 -0.651225 -0.88414 71 45 20
0.428633 -0.648384 -0.880274 69 46 22
0.425514 -0.646899 -0.883133 70 47 23
0.3919 -0.717848 -0.877963 154 113 84
0.383593 -0.718085 -0.883943 158 115 84
0.377769 -0.717581 -0.888394 166 119 87
0.377733 -0.715494 -0.889222 169 119 88
0.381009 -0.712547 -0.887961 171 121 90
0.383465 -0.709838 -0.887206 172 123 90
0.386755 -0.706941 -0.885914 173 124 91
0.390878 -0.703869 -0.88408 175 125 92
0.395009 -0.700831 -0.882227 174 128 91
0.39832 -0.698024 -0.880883 172 125 91
0.401637 -0.695246 -0.879524 171 124 90
0.40331 -0.692873 -0.879211 168 123 88
0.404988 -0.690513 -0.878888 164 122 86
0.405848 -0.688348 -0.879089 160 118 85
0.40754 -0.68601 -0.878747 156 113 80
0.410064 -0.683512 -0.877859 150 108 74
0.408466 -0.681887 -0.879647 145 103 69
0.408526 -0.679912 -0.880358 142 99 68
0.411894 -0.677283 -0.878901 138 97 66
0.411967 -0.675319 -0.879597 133 93 61
0.413697 -0.673044 -0.879202 127 89 56
0.417083 -0.670477 -0.877709 123 86 53
0.419649 -0.668088 -0.876746 115 79 48
0.418098 -0.666441 -0.878505 110 75 41
0.417378 -0.664638 -0.879717 99 62 34
0.421611 -0.662004 -0.87763 81 50 22
0.416784 -0.660871 -0.881584 75 45 21
0.416909 -0.658916 -0.882237 72 45 20
0.417041 -0.656959 -0.882884 70 44 19
0.419648 -0.654636 -0.881864 70 44 19
0.417324 -0.653043 -0.884166 70 44 19
0.420765 -0.650625 -0.882571 70 44 19
0.421744 -0.648568 -0.882637 70 44 19
0.423551 -0.646411 -0.882137 69 46 22
0.417968 -0.645196 -0.886672 72 48 24
