ply
format ascii 1.0
comment Created by Open3D
element vertex 736
property double x
property double y
property double z
property uchar red
property uchar green
property uchar blue
end_header
-0.787199 -0.179765 0.0506064 136 105 82
-0.781906 -0.182223 0.0469656 115 85 59
-0.785442 -0.169415 0.0547046 85 57 35
-0.79292 -0.175815 0.0592511 156 127 110
-0.770643 -0.207123 0.0337437 133 94 68
-0.770522 -0.200952 0.0366479 113 81 51
-0.770357 -0.194764 0.0395392 103 74 45
-0.779669 -0.171786 0.0549476 86 60 37
-0.766498 -0.219593 0.0296327 155 122 101
-0.752925 -0.236538 0.0149899 134 94 64
-0.755434 -0.226124 0.021225 114 77 49
-0.754951 -0.220744 0.0236023 97 64 39
-0.763504 -0.199342 0.0380249 89 59 33
-0.747881 -0.250282 0.00957918 158 119 94
-0.737004 -0.26296 -0.00181428 133 92 63
-0.742111 -0.248313 0.007789 109 73 44
-0.745442 -0.23649 0.0151617 93 61 33
-0.754018 -0.215174 0.0296814 86 53 30
-0.805327 -0.159064 0.0858991 171 157 141
-0.746276 -0.252224 0.011508 160 121 91
-0.735433 -0.264872 4.98374e-05 142 104 71
-0.739269 -0.252416 0.0080453 126 87 57
-0.74259 -0.240624 0.0154649 107 73 46
-0.747863 -0.225156 0.0256372 96 61 36
-0.751383 -0.212519 0.0335676 86 56 29
-0.808598 -0.152683 0.0949664 161 145 130
-0.740041 -0.262024 0.00726769 162 122 90
-0.726345 -0.279681 -0.00816465 151 110 78
-0.730219 -0.267291 -0.000112403 136 98 68
-0.730291 -0.261328 0.00289485 120 84 53
-0.731115 -0.247898 0.00998616 96 66 40
-0.728388 -0.281055 -0.00437438 162 118 90
-0.708991 -0.308727 -0.0277571 152 109 78
-0.708427 -0.304333 -0.0258206 139 98 69
-0.703738 -0.307119 -0.0295092 127 88 60
-0.703147 -0.302727 -0.0275883 114 75 48
-0.700913 -0.301218 -0.0279197 103 67 40
-0.711067 -0.277222 -0.0108956 88 56 33
-0.726831 -0.282954 -0.00259802 165 122 93
-0.699628 -0.324107 -0.03686 148 105 74
-0.693777 -0.329062 -0.0422493 137 96 66
-0.690428 -0.329758 -0.0442481 127 87 55
-0.68669 -0.331195 -0.0468145 116 78 48
-0.686587 -0.326161 -0.0443091 107 68 41
-0.69242 -0.310251 -0.0333653 93 54 31
-0.694959 -0.300072 -0.0269499 64 29 9
-0.68578 -0.342272 -0.0498017 135 92 59
-0.682491 -0.343001 -0.0518026 124 82 50
-0.678814 -0.344469 -0.0543739 119 76 45
-0.678358 -0.3402 -0.0524117 115 72 43
-0.682631 -0.327252 -0.0436611 97 56 31
-0.684043 -0.319313 -0.0388945 73 33 15
-0.690464 -0.301895 -0.0267918 52 20 4
-0.702926 -0.27273 -0.00567884 127 110 100
-0.681488 -0.353982 -0.0548973 146 101 68
-0.677423 -0.356145 -0.0580408 136 94 60
-0.675007 -0.355481 -0.0589008 131 86 53
-0.672191 -0.355544 -0.0603363 122 80 46
-0.672172 -0.350593 -0.0577845 120 77 44
-0.674883 -0.340583 -0.0512554 112 68 40
-0.675944 -0.333418 -0.0470209 85 48 24
-0.67695 -0.326226 -0.0428006 76 41 19
-0.679825 -0.315371 -0.0357537 61 25 6
-0.681084 -0.307385 -0.0309973 79 59 43
-0.689943 -0.343726 -0.0422519 157 120 96
-0.677624 -0.359982 -0.0569211 141 99 63
-0.675216 -0.359311 -0.0577784 138 93 60
-0.673214 -0.35794 -0.058066 131 89 55
-0.670008 -0.358718 -0.0600813 126 81 48
-0.669198 -0.355216 -0.058659 127 82 50
-0.670332 -0.348112 -0.054381 132 92 60
-0.670629 -0.342423 -0.0512615 110 67 39
-0.671658 -0.335267 -0.0470104 80 43 17
-0.673398 -0.326634 -0.0416308 80 45 20
-0.672026 -0.323786 -0.0408343 76 43 20
-0.673276 -0.315828 -0.036054 54 34 18
-0.673715 -0.309303 -0.0324291 111 94 82
-0.678922 -0.293214 -0.0214189 114 100 86
-0.686858 -0.348327 -0.0430916 152 109 82
-0.678675 -0.357489 -0.052054 145 100 65
-0.676252 -0.356806 -0.052917 142 95 60
-0.673832 -0.356133 -0.0537848 131 89 55
-0.67022 -0.357611 -0.0563887 122 82 47
-0.66821 -0.356252 -0.0566883 118 78 46
-0.667764 -0.352031 -0.0546894 124 89 55
-0.666511 -0.349238 -0.0538515 133 95 62
-0.665626 -0.345722 -0.0524463 112 74 41
-0.664718 -0.3422 -0.0510501 80 45 20
-0.662651 -0.340849 -0.051385 81 49 26
-0.662081 -0.336593 -0.0494319 79 48 24
-0.661482 -0.332328 -0.0474891 79 48 24
-0.662329 -0.325123 -0.0432672 78 47 23
-0.664215 -0.315688 -0.037345 66 36 12
-0.66349 -0.311371 -0.0354399 65 37 15
-0.662375 -0.307783 -0.0341164 58 37 15
-0.663371 -0.299746 -0.0293822 43 26 5
-0.668531 -0.282767 -0.0178321 58 54 49
-0.691605 -0.344544 -0.0355361 161 131 109
-0.680506 -0.358537 -0.0486255 151 108 79
-0.674421 -0.36418 -0.0547219 146 99 67
-0.673639 -0.360685 -0.05326 139 94 59
-0.671234 -0.36002 -0.0541293 130 88 54
-0.668037 -0.360788 -0.0561641 119 79 47
-0.66525 -0.360862 -0.057622 113 75 42
-0.664424 -0.357374 -0.0561876 116 79 46
-0.662026 -0.356751 -0.0570767 127 89 56
-0.66155 -0.352539 -0.0550794 123 86 51
-0.659903 -0.350483 -0.0548253 89 55 27
-0.658622 -0.347705 -0.0540008 83 50 27
-0.656951 -0.345652 -0.053761 80 50 26
-0.657494 -0.339231 -0.0500715 81 49 26
-0.656885 -0.334979 -0.0481223 77 49 24
-0.657338 -0.328519 -0.0444586 77 49 24
-0.657019 -0.323506 -0.0419576 77 49 24
-0.65452 -0.322901 -0.0429112 75 46 24
-0.653086 -0.320091 -0.0421502 68 46 24
-0.651985 -0.316539 -0.0408248 60 40 22
-0.68069 -0.362408 -0.0475364 154 124 102
-0.675415 -0.366608 -0.052492 145 102 73
-0.670998 -0.369444 -0.0562767 145 100 67
-0.671034 -0.364557 -0.0536341 141 96 64
-0.669042 -0.363191 -0.0539211 135 90 58
-0.667046 -0.361832 -0.054214 127 84 53
-0.664262 -0.361903 -0.0556785 117 77 45
-0.663431 -0.35842 -0.0542348 110 75 41
-0.660264 -0.359227 -0.0562913 118 79 49
-0.658642 -0.357181 -0.0560249 123 86 53
-0.656252 -0.356578 -0.0569269 106 70 37
-0.654616 -0.354541 -0.0566731 86 54 26
-0.651852 -0.354681 -0.0581656 81 51 27
-0.651313 -0.350475 -0.0561859 79 52 27
-0.651475 -0.344801 -0.0530591 79 52 27
-0.650144 -0.342033 -0.0522574 78 50 28
-0.648797 -0.339263 -0.051464 77 49 24
-0.647077 -0.337227 -0.0512554 76 48 25
-0.645699 -0.334458 -0.0504777 73 47 24
-0.643956 -0.332426 -0.0502839 68 44 23
-0.639782 -0.335587 -0.0541231 52 33 19
-0.677221 -0.367655 -0.0490954 147 117 93
-0.674824 -0.366962 -0.049955 142 99 70
-0.67122 -0.368383 -0.0525834 141 96 64
-0.671238 -0.363498 -0.0499267 139 97 66
-0.668839 -0.362831 -0.0508026 136 94 60
-0.66723 -0.360759 -0.0505101 130 87 56
-0.66405 -0.36153 -0.0525687 120 80 48
-0.66282 -0.35876 -0.0517023 113 75 42
-0.660039 -0.358845 -0.053184 116 78 48
-0.657648 -0.358229 -0.0540847 119 81 48
-0.654128 -0.359781 -0.0567425 116 81 45
-0.652126 -0.358472 -0.0570677 96 62 30
-0.649009 -0.35934 -0.0591474 81 51 25
-0.64701 -0.358052 -0.0594824 81 53 28
-0.6461 -0.354588 -0.0580776 81 53 28
-0.648053 -0.345284 -0.0520317 81 53 28
-0.645639 -0.344719 -0.0529726 78 50 26
-0.644292 -0.341963 -0.0521777 77 49 24
-0.64363 -0.337736 -0.050232 75 46 24
-0.642937 -0.333499 -0.048297 73 47 26
-0.638429 -0.337389 -0.0527337 71 45 24
-0.642826 -0.322031 -0.0421486 52 33 12
-0.683959 -0.360419 -0.0385868 156 141 132
-0.674991 -0.370803 -0.0489221 143 106 80
-0.672605 -0.370115 -0.0497838 137 96 66
-0.668214 -0.372935 -0.053606 138 97 66
-0.667444 -0.369472 -0.0521127 138 97 66
-0.66507 -0.368819 -0.0529885 137 95 61
-0.663482 -0.366764 -0.0526898 132 92 58
-0.660329 -0.367545 -0.0547548 121 83 50
-0.659505 -0.364083 -0.0532902 115 77 47
-0.657128 -0.363465 -0.0541871 114 76 44
-0.653997 -0.364288 -0.0562643 115 77 47
-0.650131 -0.366564 -0.0595184 118 80 47
-0.648156 -0.365273 -0.0598397 112 74 41
-0.64507 -0.366152 -0.0619249 92 55 29
-0.642731 -0.365604 -0.0628413 80 50 24
-0.642571 -0.360714 -0.0602523 81 51 23
-0.643093 -0.354354 -0.0565059 82 53 24
-0.643209 -0.348701 -0.053357 79 52 23
-0.641167 -0.34742 -0.0537204 78 50 26
-0.641566 -0.34101 -0.050011 76 48 25
-0.642953 -0.332371 -0.0445697 72 46 25
-0.640501 -0.331815 -0.0455423 73 47 24
-0.641445 -0.32387 -0.0407116 70 49 26
-0.646357 -0.306992 -0.0289362 47 29 12
-0.675962 -0.37326 -0.0467236 150 124 103
-0.670734 -0.377414 -0.051749 140 101 73
-0.670392 -0.373264 -0.0496372 139 99 67
-0.665221 -0.377475 -0.0546655 139 99 67
-0.664065 -0.374729 -0.0537544 140 100 68
-0.661712 -0.374087 -0.0546309 138 96 62
-0.658971 -0.374161 -0.0561051 132 92 60
-0.655079 -0.376369 -0.0593599 126 86 52
-0.655437 -0.370809 -0.0561052 118 80 47
-0.651947 -0.37234 -0.0587756 111 76 42
-0.649234 -0.372468 -0.060266 110 74 43
-0.647278 -0.371181 -0.0605793 111 78 44
-0.646802 -0.36703 -0.0585391 114 78 45
-0.644092 -0.367187 -0.0600443 102 68 38
-0.642484 -0.365193 -0.0597868 85 53 25
-0.641587 -0.361754 -0.0583599 79 52 23
-0.64174 -0.356132 -0.0551794 79 52 23
-0.640433 -0.353403 -0.0543594 78 51 24
-0.639811 -0.349213 -0.0523746 78 50 26
-0.64055 -0.342084 -0.0480573 78 50 26
-0.641576 -0.334196 -0.0431703 75 46 24
-0.639812 -0.332168 -0.0429768 74 48 25
-0.640738 -0.324236 -0.0381189 73 50 23
-0.641602 -0.316276 -0.0332784 71 50 27
-0.64207 -0.309029 -0.0290382 59 46 28
-0.641499 -0.30399 -0.0265604 42 30 21
-0.676514 -0.376417 -0.0451354 155 128 110
-0.673321 -0.377088 -0.0471899 151 112 87
-0.669333 -0.379162 -0.0504442 143 102 70
-0.668185 -0.376408 -0.0495152 140 102 67
-0.662638 -0.381309 -0.0551647 140 100 66
-0.659911 -0.381368 -0.0566336 141 101 67
-0.656802 -0.382143 -0.0587024 139 97 66
-0.653709 -0.382937 -0.0607743 133 93 61
-0.651016 -0.383047 -0.0622533 127 89 56
-0.651773 -0.376807 -0.0583811 120 82 49
-0.649828 -0.375509 -0.0586829 115 78 43
-0.647504 -0.374929 -0.0595844 110 74 43
-0.645927 -0.372932 -0.0593035 110 74 43
-0.64471 -0.370221 -0.0584362 113 77 46
-0.642744 -0.368945 -0.0587617 109 75 43
-0.641863 -0.365515 -0.0573172 94 59 32
-0.640958 -0.362079 -0.0558818 83 50 25
-0.641098 -0.356465 -0.0526835 78 50 26
-0.639432 -0.354464 -0.0524483 78 50 26
-0.638105 -0.351737 -0.0516304 77 50 22
-0.638492 -0.345356 -0.0478763 77 49 24
-0.638829 -0.338954 -0.0441363 75 50 24
-0.637419 -0.336203 -0.0433492 73 49 25
-0.637336 -0.330505 -0.0402223 72 52 24
-0.638208 -0.322574 -0.0353498 72 51 26
-0.639346 -0.313873 -0.029909 72 51 29
-0.638784 -0.308853 -0.0274129 68 48 32
-0.669213 -0.392556 -0.0550155 161 137 118
-0.669359 -0.387771 -0.052249 157 120 96
-0.668657 -0.384345 -0.050696 150 109 79
-0.666319 -0.383672 -0.0515568 146 106 74
-0.663983 -0.383009 -0.0524223 144 104 69
-0.659667 -0.385828 -0.0562952 143 103 68
-0.656567 -0.386592 -0.0583682 141 101 67
-0.652702 -0.388772 -0.061643 140 100 66
-0.648865 -0.390981 -0.0649188 134 94 60
-0.646976 -0.389702 -0.0652022 126 88 55
-0.646225 -0.386314 -0.0636969 122 84 52
-0.645451 -0.382919 -0.0622002 116 79 46
-0.642784 -0.383066 -0.0636973 110 74 43
-0.640498 -0.382515 -0.0646015 107 74 40
-0.640419 -0.377692 -0.0619339 110 74 43
-0.639211 -0.375002 -0.0610638 112 79 47
-0.638348 -0.371592 -0.0596064 100 63 37
-0.637819 -0.367456 -0.0575638 88 53 28
-0.639741 -0.358252 -0.0513748 78 47 23
-0.637024 -0.358428 -0.0529158 77 49 24
-0.635707 -0.355713 -0.0520898 79 48 24
-0.634718 -0.352268 -0.0506798 77 50 22
-0.634729 -0.346625 -0.047505 78 50 26
-0.633008 -0.344628 -0.0472973 78 50 28
-0.631277 -0.342634 -0.0470966 75 52 28
-0.63053 -0.338432 -0.0451344 72 52 24
-0.629752 -0.334222 -0.0431834 75 53 31
-0.627647 -0.332966 -0.0435961 72 53 30
-0.66494 -0.399052 -0.0580098 160 131 111
-0.665512 -0.393611 -0.0546192 157 116 86
-0.664827 -0.390206 -0.0530542 152 109 78
-0.662112 -0.390234 -0.0545197 151 110 78
-0.659804 -0.389587 -0.0553851 148 108 74
-0.655524 -0.392414 -0.0592732 143 106 71
-0.653238 -0.3918 -0.0601458 143 103 68
-0.649789 -0.393288 -0.062831 140 100 66
-0.645977 -0.395499 -0.06612 137 97 62
-0.643722 -0.394933 -0.0670031 130 89 57
-0.642228 -0.39297 -0.066688 120 82 49
-0.6411 -0.390303 -0.0657789 114 76 46
-0.638838 -0.389758 -0.0666777 109 73 42
-0.638056 -0.386383 -0.0651824 105 72 40
-0.639811 -0.378015 -0.059502 109 73 42
-0.638959 -0.374612 -0.0580279 107 74 42
-0.638085 -0.371203 -0.0565627 105 72 40
-0.637899 -0.366351 -0.0539116 95 61 31
-0.638382 -0.360043 -0.050078 83 50 25
-0.635323 -0.36094 -0.0522213 79 48 24
-0.635048 -0.356058 -0.0496011 77 49 24
-0.63268 -0.355523 -0.0505632 77 50 22
-0.63337 -0.348438 -0.0461794 78 50 28
-0.629971 -0.3501 -0.0489378 78 50 28
-0.627926 -0.348853 -0.049324 77 51 28
-0.625219 -0.349083 -0.0509011 75 52 28
-0.625456 -0.342694 -0.0471535 75 51 30
-0.622094 -0.344414 -0.0499255 76 54 32
-0.622269 -0.338005 -0.0462007 72 52 34
-0.620497 -0.336034 -0.046031 52 39 23
-0.656348 -0.417011 -0.0699652 163 136 120
-0.661509 -0.404167 -0.0598417 165 130 105
-0.662496 -0.398068 -0.0558218 159 117 83
-0.661017 -0.396048 -0.0554615 156 113 80
-0.658327 -0.396088 -0.0569305 153 111 80
-0.656044 -0.395455 -0.057796 151 110 78
-0.65219 -0.397596 -0.0610931 147 107 73
-0.649925 -0.396994 -0.0619662 143 106 71
-0.646889 -0.397793 -0.0640556 141 101 69
-0.643869 -0.398611 -0.0661474 135 98 62
-0.642006 -0.397349 -0.0664275 129 91 59
-0.64014 -0.396094 -0.0667129 121 83 50
-0.639392 -0.392733 -0.0651926 115 77 45
-0.63751 -0.391484 -0.0654905 108 72 41
-0.636358 -0.388825 -0.0645883 104 70 39
-0.638103 -0.380479 -0.0588761 104 70 39
-0.637615 -0.376373 -0.0567903 107 71 40
-0.637454 -0.371542 -0.0541134 107 71 40
-0.636194 -0.368847 -0.0532493 97 61 34
-0.635619 -0.364712 -0.0511932 88 53 28
-0.6298 -0.371382 -0.0581384 77 49 24
-0.62956 -0.366535 -0.0554954 77 49 24
-0.625873 -0.368926 -0.0588461 77 49 24
-0.627282 -0.360435 -0.0532322 76 48 25
-0.624942 -0.359933 -0.0542032 78 50 28
-0.624262 -0.355785 -0.0521968 77 49 26
-0.621585 -0.356027 -0.0537754 74 50 26
-0.620865 -0.351872 -0.0517866 75 52 28
-0.619473 -0.349183 -0.0509977 75 54 29
-0.620288 -0.341318 -0.046061 75 53 31
-0.618211 -0.340096 -0.0464796 73 54 31
-0.613954 -0.344083 -0.0510507 61 43 28
-0.657873 -0.413962 -0.0645467 165 134 115
-0.662579 -0.401811 -0.054985 161 125 98
-0.662325 -0.397754 -0.0527804 160 118 85
-0.659232 -0.39846 -0.0548624 158 116 82
-0.657349 -0.397132 -0.0551154 155 112 81
-0.654278 -0.397871 -0.0572049 152 109 78
-0.650438 -0.400007 -0.0605166 150 110 75
-0.647016 -0.401481 -0.0632202 144 106 74
-0.644387 -0.401592 -0.0647077 140 102 69
-0.641767 -0.401718 -0.0661988 136 99 64
-0.641808 -0.396973 -0.0634383 130 92 60
-0.639936 -0.395714 -0.063725 122 84 52
-0.639921 -0.390949 -0.0609828 114 78 45
-0.637656 -0.390396 -0.0618894 109 74 40
-0.636858 -0.387027 -0.0603771 104 68 37
-0.636036 -0.383651 -0.0588736 102 68 36
-0.63591 -0.378847 -0.0561693 101 70 35
-0.633968 -0.377594 -0.0564972 103 69 37
-0.633081 -0.374201 -0.0550196 98 65 33
-0.63217 -0.370803 -0.0535511 87 52 27
-0.627776 -0.374591 -0.0581167 80 48 22
-0.628223 -0.368317 -0.054253 78 47 23
-0.62353 -0.37287 -0.0594227 76 48 21
-0.624936 -0.364406 -0.053776 76 48 23
-0.62361 -0.361727 -0.0529477 77 49 24
-0.621938 -0.359776 -0.0527271 77 52 24
-0.621235 -0.355634 -0.0507169 77 52 24
-0.620824 -0.350748 -0.0481195 75 52 28
-0.6191 -0.348792 -0.0479243 75 52 26
-0.617365 -0.346839 -0.0477361 75 53 31
-0.616247 -0.34341 -0.0463628 75 53 31
-0.612321 -0.346649 -0.0503582 70 50 29
-0.659374 -0.410939 -0.0590965 164 131 110
-0.66241 -0.401507 -0.0519482 162 121 94
-0.66174 -0.39813 -0.0503468 162 117 85
-0.657051 -0.40155 -0.0548955 160 114 84
-0.655574 -0.399547 -0.0545336 156 111 79
-0.652121 -0.400969 -0.057245 155 112 81
-0.64908 -0.401729 -0.0593453 148 108 74
-0.646054 -0.402508 -0.0614485 146 106 72
-0.64573 -0.398466 -0.0592709 141 103 68
-0.642334 -0.399962 -0.0619941 137 96 66
-0.641222 -0.397306 -0.0610532 132 94 61
-0.639347 -0.396044 -0.0613407 123 88 52
-0.638579 -0.392687 -0.0598038 118 79 49
-0.635585 -0.393539 -0.0619322 110 74 43
-0.633699 -0.392296 -0.062236 107 71 40
-0.633975 -0.386818 -0.0588952 102 68 36
-0.632063 -0.385575 -0.0592134 100 67 35
-0.630856 -0.382915 -0.0583226 98 64 35
-0.629282 -0.380967 -0.0580462 95 60 33
-0.628045 -0.378306 -0.0571703 90 55 31
-0.624726 -0.379948 -0.0599358 81 50 22
-0.625522 -0.372979 -0.0554425 79 48 24
-0.622548 -0.373921 -0.0576123 76 48 21
-0.623937 -0.365474 -0.0519353 76 48 21
-0.621946 -0.36425 -0.0523074 77 52 24
-0.620935 -0.360849 -0.0508778 75 50 22
-0.618603 -0.360362 -0.0518651 76 48 21
-0.617238 -0.357691 -0.0510531 76 48 21
-0.614586 -0.357953 -0.0526515 75 52 26
-0.615716 -0.349402 -0.0470544 76 54 32
-0.612422 -0.351146 -0.0498654 77 54 32
-0.610075 -0.350693 -0.050881 76 52 33
-0.608644 -0.348027 -0.0501074 73 53 35
-0.661259 -0.407272 -0.0529965 162 127 107
-0.663039 -0.399868 -0.0476686 160 119 92
-0.661549 -0.39784 -0.0472952 161 116 83
-0.656467 -0.401922 -0.0524837 159 114 81
-0.654986 -0.399917 -0.0521194 155 110 78
-0.651928 -0.400647 -0.0542272 152 109 78
-0.64772 -0.403453 -0.0581857 148 108 74
-0.644703 -0.40423 -0.0602979 145 105 71
-0.642848 -0.402955 -0.0605677 141 101 67
-0.639475 -0.404456 -0.0633011 138 97 68
-0.638752 -0.40112 -0.0617378 133 95 60
-0.637262 -0.39917 -0.06141 125 90 56
-0.63613 -0.396524 -0.0604757 121 86 50
-0.634251 -0.395276 -0.0607739 116 80 47
-0.632731 -0.393332 -0.0604655 111 75 44
-0.63192 -0.38998 -0.0589409 109 74 40
-0.630374 -0.388036 -0.0586469 102 68 36
-0.62917 -0.385384 -0.0577491 97 63 34
-0.626902 -0.384865 -0.0586884 95 61 31
-0.626022 -0.381502 -0.0571953 90 55 31
-0.62272 -0.383143 -0.0599715 83 51 23
-0.621816 -0.379783 -0.0584923 77 50 22
-0.620217 -0.377856 -0.0582371 76 48 21
-0.621603 -0.369435 -0.0525274 76 48 21
-0.619626 -0.368219 -0.0528975 77 50 22
-0.619276 -0.36338 -0.0502454 77 50 22
-0.617598 -0.361439 -0.0500251 77 50 22
-0.616549 -0.358041 -0.048603 77 49 24
-0.616109 -0.353174 -0.0459834 76 48 25
-0.615633 -0.348294 -0.0433763 73 53 26
-0.612027 -0.350761 -0.0468042 75 53 31
-0.609981 -0.349564 -0.0472231 73 54 31
-0.608839 -0.346155 -0.0458451 74 55 32
-0.604982 -0.349418 -0.0498785 74 56 37
-0.658039 -0.416347 -0.0572002 158 136 121
-0.659057 -0.410337 -0.0530749 161 124 100
-0.660832 -0.402955 -0.0477184 158 116 82
-0.658151 -0.40296 -0.0492031 156 114 78
-0.653498 -0.406363 -0.0537934 156 111 81
-0.653211 -0.402335 -0.0515644 148 108 74
-0.651334 -0.40102 -0.0518224 147 107 73
-0.64752 -0.403129 -0.0551809 146 106 72
-0.644119 -0.404581 -0.0579219 145 105 71
-0.6415 -0.404681 -0.0594285 143 103 68
-0.638137 -0.406176 -0.0621739 139 99 67
-0.636665 -0.404233 -0.0618354 133 94 64
-0.634812 -0.402986 -0.0621199 129 91 59
-0.633324 -0.401048 -0.0617937 121 85 52
-0.632553 -0.397714 -0.0602429 118 83 49
-0.629956 -0.39788 -0.0617759 116 80 47
-0.628084 -0.396654 -0.0620832 113 77 46
-0.627271 -0.393317 -0.060554 105 72 40
-0.625733 -0.391389 -0.0602606 99 62 34
-0.623143 -0.391593 -0.0618122 91 57 28
-0.622972 -0.386828 -0.0590811 86 54 26
-0.620379 -0.387047 -0.0606429 84 52 24
-0.618808 -0.385132 -0.0603747 79 49 22
-0.617897 -0.381783 -0.0588923 77 50 22
-0.618617 -0.374829 -0.0543696 76 48 21
-0.617971 -0.370736 -0.0522993 76 48 21
-0.61697 -0.367358 -0.0508483 75 50 22
-0.614662 -0.366879 -0.0518388 77 50 22
-0.613311 -0.364227 -0.0510114 76 48 25
-0.613201 -0.358652 -0.0477657 76 48 25
-0.61056 -0.358918 -0.0493816 74 48 25
-0.608544 -0.35773 -0.0497898 75 52 26
-0.605916 -0.358022 -0.0514129 73 52 30
-0.605406 -0.353161 -0.0488114 73 54 31
-0.600395 -0.359388 -0.0552708 73 53 35
-0.59545 -0.365661 -0.0617215 71 57 41
-0.657244 -0.421369 -0.0577314 152 123 101
-0.659511 -0.413393 -0.0517 161 132 114
-0.658074 -0.411391 -0.0513035 153 114 86
-0.660235 -0.403356 -0.0452955 156 113 80
-0.655963 -0.406045 -0.049282 155 112 79
-0.652121 -0.408093 -0.0526458 152 109 78
-0.65183 -0.404074 -0.0504044 150 110 75
-0.649568 -0.40344 -0.0512846 147 107 73
-0.64577 -0.405545 -0.0546576 146 106 72
-0.643909 -0.404258 -0.0549239 144 103 71
-0.640152 -0.406408 -0.0583011 143 103 68
-0.636799 -0.407898 -0.0610584 140 100 66
-0.634956 -0.406649 -0.0613367 137 97 60
-0.633479 -0.404714 -0.0610008 130 92 60
-0.630896 -0.404865 -0.0625288 125 87 54
-0.630133 -0.401546 -0.060967 121 83 50
-0.627912 -0.401017 -0.0618861 120 82 51
-0.624983 -0.401901 -0.0640448 114 78 45
-0.623832 -0.399286 -0.0631206 109 73 44
-0.622665 -0.396669 -0.062204 99 62 34
-0.620789 -0.395466 -0.0625267 89 55 27
-0.621652 -0.388589 -0.0579325 88 53 26
-0.619744 -0.387381 -0.0582708 85 53 25
-0.61884 -0.384038 -0.0567722 80 50 22
-0.618579 -0.379256 -0.0540557 78 48 21
-0.618612 -0.373742 -0.050738 75 47 22
-0.616645 -0.372531 -0.0511069 76 46 20
-0.61532 -0.369883 -0.0502582 76 48 21
-0.611743 -0.372304 -0.0536947 76 48 21
-0.609777 -0.371119 -0.0540785 75 46 24
-0.608746 -0.367757 -0.0526388 75 46 24
-0.607073 -0.365849 -0.0524267 74 48 25
-0.604778 -0.365409 -0.0534383 75 50 26
-0.603698 -0.362043 -0.0520234 75 52 28
-0.602594 -0.358672 -0.0506183 73 52 30
-0.598213 -0.363416 -0.0558918 72 52 32
-0.593882 -0.368197 -0.0611594 71 54 37
-0.647365 -0.440877 -0.0721348 148 108 78
-0.663635 -0.410498 -0.044687 141 104 77
-0.661771 -0.409139 -0.0449127 136 98 70
-0.657086 -0.412451 -0.0495378 153 111 80
-0.656435 -0.409115 -0.0478902 155 112 81
-0.652989 -0.410467 -0.0506387 151 110 78
-0.649564 -0.411844 -0.0533894 152 110 76
-0.64811 -0.409867 -0.0530123 151 109 75
-0.647033 -0.407215 -0.0520158 151 109 75
-0.644022 -0.407959 -0.0541524 147 107 73
-0.642168 -0.406676 -0.0544178 145 104 73
-0.639179 -0.407453 -0.0565612 141 103 68
-0.635833 -0.408936 -0.059331 140 100 66
-0.63288 -0.409753 -0.0614791 137 97 60
-0.631044 -0.408517 -0.0617615 129 91 59
-0.628114 -0.409367 -0.063916 124 89 53
-0.627363 -0.406063 -0.0623428 122 84 52
-0.624088 -0.407635 -0.065126 120 84 53
-0.62296 -0.405033 -0.0641868 116 80 49
-0.621816 -0.402428 -0.0632551 107 70 42
-0.62135 -0.398413 -0.061092 96 62 30
-0.619134 -0.397918 -0.0620334 84 50 23
-0.620331 -0.390352 -0.0567956 83 51 23
-0.618089 -0.389856 -0.0577516 85 53 25
-0.616184 -0.388659 -0.0580945 84 52 24
-0.61527 -0.385325 -0.0565933 78 48 21
-0.61466 -0.381269 -0.0544852 75 47 20
-0.61175 -0.382232 -0.0566949 75 47 20
-0.60982 -0.381053 -0.0570623 75 47 20
-0.60757 -0.380602 -0.0580492 75 47 20
-0.604694 -0.381611 -0.0602671 75 46 24
-0.604946 -0.375374 -0.056359 73 48 22
-0.605147 -0.369115 -0.052466 73 48 22
-0.603169 -0.367949 -0.0528676 72 48 24
-0.601489 -0.366056 -0.0526641 72 48 24
-0.599799 -0.364167 -0.0524674 71 50 27
-0.595157 -0.369644 -0.0583707 72 50 31
-0.590864 -0.374424 -0.0636579 72 52 36
-0.651875 -0.437246 -0.0645984 153 112 85
-0.656695 -0.425436 -0.0546905 156 113 82
-0.656931 -0.420815 -0.0517462 154 114 82
-0.656324 -0.417503 -0.0500734 155 115 83
-0.650885 -0.422156 -0.0559769 160 118 85
-0.650271 -0.418855 -0.0543151 158 116 82
-0.64845 -0.417553 -0.054551 157 114 83
-0.646626 -0.416257 -0.0547923 156 113 80
-0.644799 -0.414967 -0.0550391 155 112 79
-0.644891 -0.410304 -0.0521486 152 112 78
-0.641514 -0.411728 -0.0549212 150 110 75
-0.639673 -0.410454 -0.0551851 145 105 71
-0.635953 -0.412599 -0.0585902 144 104 69
-0.633005 -0.413403 -0.0607426 141 101 67
-0.629705 -0.414913 -0.0635238 137 97 62
-0.626792 -0.415757 -0.0656808 132 92 58
-0.623896 -0.416621 -0.06784 123 86 53
-0.62317 -0.413342 -0.0662532 121 83 53
-0.620643 -0.413535 -0.0677957 122 84 54
-0.619182 -0.411649 -0.0674705 121 83 53
-0.619108 -0.406965 -0.0646594 111 72 46
-0.618653 -0.402968 -0.0624818 99 62 36
-0.617825 -0.399664 -0.060936 84 49 25
-0.616296 -0.397767 -0.0606417 79 47 19
-0.614086 -0.397288 -0.0615956 81 49 24
-0.612544 -0.395399 -0.0613133 87 55 27
-0.61198 -0.391375 -0.0591788 81 51 25
-0.609106 -0.392342 -0.0613876 78 48 21
-0.607216 -0.391178 -0.061743 76 46 20
-0.605322 -0.390021 -0.0621037 75 47 22
-0.603111 -0.389591 -0.0630869 75 47 22
-0.60059 -0.389894 -0.0646907 72 47 21
-0.601791 -0.381515 -0.058908 72 47 21
-0.602616 -0.373829 -0.0537593 73 48 22
-0.602471 -0.3683 -0.0504715 72 48 24
-0.59899 -0.370791 -0.0539483 70 47 23
-0.598795 -0.36525 -0.0506806 69 47 25
-0.593876 -0.371445 -0.0572237 70 48 30
-0.58989 -0.375476 -0.0619233 69 51 37
-0.663456 -0.422634 -0.0462064 156 122 97
-0.666574 -0.413437 -0.0387892 153 111 80
-0.663074 -0.414682 -0.0415443 160 114 84
-0.660002 -0.415294 -0.0436679 161 116 83
-0.656543 -0.416585 -0.0464288 163 118 86
-0.651508 -0.420552 -0.0517272 164 120 87
-0.648105 -0.421902 -0.0544912 166 121 88
-0.645509 -0.421942 -0.0559919 162 117 85
-0.643312 -0.421327 -0.0568637 157 117 82
-0.640731 -0.421395 -0.0583722 157 117 82
-0.640841 -0.416759 -0.0554632 157 115 81
-0.638637 -0.416164 -0.0563511 154 114 80
-0.636435 -0.41558 -0.0572434 151 111 76
-0.63461 -0.414325 -0.05751 146 106 72
-0.632781 -0.413077 -0.0577821 144 104 69
-0.629115 -0.41526 -0.0612059 138 98 64
-0.626568 -0.415409 -0.0627437 132 92 60
-0.62331 -0.416952 -0.0655415 123 86 53
-0.621147 -0.416443 -0.0664573 120 82 51
-0.617925 -0.418027 -0.069259 116 80 49
-0.61648 -0.416153 -0.0689283 115 77 49
-0.617109 -0.410093 -0.0648475 113 74 46
-0.616656 -0.406109 -0.0626564 100 63 35
-0.616174 -0.402115 -0.060475 85 51 26
-0.616001 -0.397406 -0.0576794 78 45 22
-0.613786 -0.396921 -0.0586378 78 46 20
-0.611243 -0.397155 -0.0602235 80 48 20
-0.610349 -0.393851 -0.0586995 81 51 23
-0.608135 -0.393391 -0.0596723 78 48 21
-0.605282 -0.394372 -0.0618921 74 46 19
-0.603399 -0.39322 -0.0622513 74 45 23
-0.602456 -0.389918 -0.0607557 74 45 23
-0.599625 -0.390936 -0.0629858 72 47 21
-0.600502 -0.383298 -0.0577923 72 47 21
-0.600707 -0.377081 -0.0538524 70 47 23
-0.600261 -0.372296 -0.0511624 70 47 23
-0.596505 -0.375514 -0.0552685 69 46 22
-0.596317 -0.369994 -0.0519797 69 47 25
-0.592596 -0.373249 -0.0560886 69 47 29
-0.590349 -0.372861 -0.0571214 65 49 34
-0.659567 -0.428252 -0.0489336 154 113 88
-0.660637 -0.422351 -0.0446691 159 113 83
-0.657589 -0.422963 -0.0467944 161 116 85
-0.654961 -0.422938 -0.0482853 163 118 86
-0.653542 -0.420953 -0.047869 166 119 87
-0.649333 -0.423595 -0.051916 169 119 86
-0.647523 -0.422292 -0.0521458 168 121 87
-0.645709 -0.420995 -0.0523813 168 121 89
-0.642729 -0.421707 -0.0545285 166 121 88
-0.639764 -0.422438 -0.0566788 162 119 88
-0.639103 -0.419156 -0.055024 159 117 83
-0.635772 -0.420587 -0.0578167 158 116 82
-0.632839 -0.421365 -0.0599773 153 113 79
-0.631408 -0.419447 -0.0596077 151 108 77
-0.629231 -0.418893 -0.0605098 146 106 72
-0.625595 -0.421082 -0.0639454 143 103 68
-0.623075 -0.421243 -0.0654861 137 97 62
-0.620565 -0.421418 -0.06703 134 94 62
-0.617709 -0.422298 -0.0692079 127 89 56
-0.615222 -0.422505 -0.0707577 123 82 53
-0.613442 -0.421338 -0.0710513 114 76 46
-0.613042 -0.417392 -0.0688337 109 73 42
-0.611928 -0.414832 -0.0678829 100 63 35
-0.612154 -0.409467 -0.0644277 87 50 26
-0.612337 -0.404083 -0.0609847 78 45 22
-0.610815 -0.402204 -0.0606881 76 46 20
-0.608297 -0.402447 -0.0622767 76 46 20
-0.605788 -0.402704 -0.0638682 79 46 23
-0.60329 -0.402976 -0.0654626 78 48 21
-0.599844 -0.405401 -0.0689331 72 44 22
-0.59864 -0.402848 -0.0680363 72 45 20
-0.598045 -0.39886 -0.0659011 72 47 21
-0.596492 -0.397018 -0.0656438 72 46 23
-0.597071 -0.390131 -0.0610406 70 47 23
-0.599409 -0.378881 -0.0527272 70 47 23
-0.598659 -0.374832 -0.0506422 70 47 23
-0.596104 -0.375136 -0.0522866 70 49 24
-0.596192 -0.368893 -0.0483626 68 46 24
-0.592182 -0.372862 -0.0531102 68 46 26
-0.590502 -0.371003 -0.0529128 58 42 27
-0.642548 -0.458396 -0.0746241 156 119 95
-0.659813 -0.427376 -0.0452926 155 114 89
-0.66127 -0.420832 -0.040367 159 116 85
-0.657404 -0.422732 -0.0437845 162 119 88
-0.654773 -0.422699 -0.0452824 163 118 86
-0.65255 -0.422025 -0.0461443 169 119 88
-0.648351 -0.424656 -0.0502095 171 122 88
-0.645364 -0.425336 -0.0523576 171 122 88
-0.643949 -0.423382 -0.051953 172 125 91
-0.640594 -0.424759 -0.054747 167 122 89
-0.637262 -0.426159 -0.0575432 164 122 88
-0.636988 -0.422221 -0.0552403 163 120 89
-0.633674 -0.423652 -0.0580437 160 118 85
-0.629636 -0.426455 -0.0621223 157 117 82
-0.627853 -0.42523 -0.0623832 153 113 79
-0.6257 -0.424689 -0.0632852 151 111 76
-0.623187 -0.42484 -0.0648268 150 108 74
-0.619603 -0.427056 -0.0682759 144 101 70
-0.617476 -0.426558 -0.0691883 141 98 67
-0.614645 -0.427445 -0.0713724 137 94 63
-0.612532 -0.426971 -0.0722921 135 92 63
-0.610422 -0.426506 -0.0732159 124 84 52
-0.609691 -0.423275 -0.0716153 122 81 51
-0.608596 -0.420733 -0.0706548 106 69 41
-0.607486 -0.418189 -0.0697019 90 54 27
-0.606693 -0.414941 -0.068126 83 49 22
-0.604885 -0.413796 -0.0684482 79 47 21
-0.601765 -0.415476 -0.0712926 76 46 20
-0.600937 -0.41223 -0.0697372 76 46 20
-0.598482 -0.412522 -0.0713304 76 46 20
-0.595403 -0.414252 -0.0741813 75 47 20
-0.594546 -0.411011 -0.0726452 72 45 20
-0.594289 -0.406335 -0.0698658 71 45 20
-0.592457 -0.40523 -0.0702254 71 45 22
-0.593361 -0.397659 -0.0649674 70 47 23
-0.594803 -0.388617 -0.0584786 70 47 23
-0.594978 -0.382429 -0.0545036 70 47 23
-0.593339 -0.380571 -0.05428 72 48 26
-0.592273 -0.377262 -0.0528194 70 46 27
-0.589746 -0.377592 -0.0544749 64 47 28
-0.649475 -0.447169 -0.0607881 155 126 107
-0.662913 -0.421998 -0.0371271 155 116 90
-0.662291 -0.418685 -0.0354026 160 118 87
-0.656402 -0.423815 -0.0420564 163 118 88
-0.653374 -0.424431 -0.0442039 167 120 90
-0.650759 -0.424412 -0.0457116 170 118 88
-0.646971 -0.426379 -0.0491515 172 123 90
-0.643602 -0.427715 -0.0519505 173 125 89
-0.642192 -0.425768 -0.0515422 172 123 90
-0.638851 -0.427141 -0.0543477 172 125 91
-0.636294 -0.427206 -0.055873 168 123 90
-0.634502 -0.425949 -0.0561207 164 122 88
-0.631957 -0.42604 -0.0576542 162 119 86
-0.627194 -0.430183 -0.0630294 160 118 85
-0.624688 -0.430316 -0.064567 157 116 84
-0.622191 -0.430464 -0.0661082 154 114 82
-0.620428 -0.429268 -0.066376 151 108 77
-0.616869 -0.431486 -0.0698378 148 105 72
-0.615471 -0.429628 -0.0694763 143 100 69
-0.612655 -0.430516 -0.071668 139 97 66
-0.61125 -0.428669 -0.071317 134 94 62
-0.608109 -0.430277 -0.0741504 130 89 57
-0.606702 -0.428444 -0.0738091 126 86 54
-0.604607 -0.428003 -0.0747432 121 83 50
-0.603188 -0.426178 -0.0744134 107 70 42
-0.601758 -0.424355 -0.0740897 90 55 31
-0.601307 -0.42043 -0.0718742 80 48 22
-0.599523 -0.419307 -0.0721971 76 46 20
-0.598381 -0.41678 -0.0712622 75 47 20
-0.597542 -0.413544 -0.0697039 74 46 19
-0.594154 -0.415974 -0.0731974 72 45 20
-0.592983 -0.413453 -0.0722816 72 45 20
-0.592415 -0.409503 -0.0701156 71 45 20
-0.591511 -0.406258 -0.0685883 72 46 25
-0.592097 -0.399421 -0.0639316 70 47 23
-0.593823 -0.389682 -0.0567826 70 47 23
-0.593987 -0.383507 -0.0527872 70 49 24
-0.594393 -0.376588 -0.0481812 69 47 25
-0.595321 -0.368194 -0.042342 68 46 24
-0.592751 -0.368493 -0.0440139 64 47 28
