ply
format ascii 1.0
comment Created by Open3D
element vertex 885
property double x
property double y
property double z
property uchar red
property uchar green
property uchar blue
end_header
-0.784336 -0.185804 0.0461436 136 114 99
-0.773092 -0.198457 0.0349848 108 69 44
-0.780512 -0.1791 0.0475282 82 56 38
-0.800735 -0.136956 0.0767196 81 63 46
-0.796101 -0.171727 0.0623539 158 136 121
-0.763433 -0.220427 0.0239848 138 97 70
-0.759137 -0.221535 0.0214555 119 81 48
-0.763259 -0.208107 0.0297573 106 73 41
-0.763092 -0.22638 0.0247975 162 129 106
-0.747762 -0.246249 0.0080682 141 101 71
-0.745268 -0.244529 0.00772254 118 82 51
-0.748207 -0.233371 0.014455 104 72 44
-0.754794 -0.215606 0.0260693 94 64 38
-0.739686 -0.265004 -0.00115847 149 112 88
-0.731765 -0.272692 -0.00862701 118 79 49
-0.731484 -0.267435 -0.0062136 92 55 27
-0.732417 -0.259989 -0.00216666 82 48 20
-0.741151 -0.2387 0.0122746 84 51 26
-0.731309 -0.278385 -0.00810919 156 117 93
-0.724306 -0.284652 -0.0145081 133 95 62
-0.727413 -0.273667 -0.00765583 114 77 49
-0.731263 -0.261185 0.000281026 96 62 34
-0.745724 -0.229779 0.0225251 83 50 25
-0.727635 -0.283853 -0.00905957 161 120 91
-0.72403 -0.284377 -0.0110462 150 108 74
-0.727111 -0.273408 -0.00415286 127 89 58
-0.731345 -0.260223 0.00438643 116 80 49
-0.742039 -0.235393 0.021773 94 62 34
-0.744782 -0.224227 0.0285989 87 55 27
-0.714114 -0.300578 -0.0204334 152 107 74
-0.716828 -0.290394 -0.0140473 142 99 68
-0.716574 -0.285207 -0.0115849 121 84 56
-0.720372 -0.27278 -0.00355819 111 75 46
-0.718795 -0.269716 -0.00279477 95 63 38
-0.720822 -0.26011 0.00296941 75 50 26
-0.72201 -0.291907 -0.00884585 166 123 92
-0.706344 -0.313148 -0.0271521 155 110 78
-0.701641 -0.315913 -0.0308315 145 103 69
-0.699436 -0.314402 -0.031144 137 94 63
-0.699263 -0.309294 -0.0286589 120 82 51
-0.695821 -0.309955 -0.0306674 102 65 39
-0.696804 -0.30266 -0.0265214 84 54 32
-0.72214 -0.290954 -0.0048266 166 123 94
-0.69571 -0.33066 -0.0379381 154 109 78
-0.685687 -0.337742 -0.0464448 129 88 56
-0.683578 -0.336306 -0.0467496 117 76 49
-0.679453 -0.338483 -0.0498781 105 66 40
-0.679349 -0.333455 -0.0473772 92 52 31
-0.685545 -0.3168 -0.0358862 90 70 54
-0.706402 -0.316945 -0.0224188 168 128 105
-0.6868 -0.345261 -0.0466037 146 104 71
-0.679786 -0.352378 -0.0537123 132 90 59
-0.676514 -0.353118 -0.0557064 128 83 55
-0.673257 -0.353879 -0.0577037 117 74 46
-0.67162 -0.35178 -0.057437 114 69 41
-0.671563 -0.346797 -0.0549119 92 51 28
-0.674232 -0.33673 -0.0484373 75 33 11
-0.678774 -0.322987 -0.0391545 72 43 26
-0.685782 -0.351312 -0.0471092 159 122 98
-0.67712 -0.361224 -0.0565408 143 99 73
-0.673466 -0.362676 -0.0591076 135 90 60
-0.669023 -0.365581 -0.0628183 127 82 50
-0.665822 -0.366372 -0.064818 121 76 46
-0.664235 -0.36431 -0.0645407 118 73 42
-0.664223 -0.359369 -0.0619921 106 66 36
-0.66496 -0.352969 -0.0583164 83 43 20
-0.667596 -0.342922 -0.051811 73 37 15
-0.668991 -0.33501 -0.0470278 58 30 8
-0.680625 -0.359433 -0.0508142 160 125 102
-0.673253 -0.367218 -0.0585677 144 102 68
-0.670443 -0.36726 -0.0599952 142 95 60
-0.667643 -0.367318 -0.0614266 138 92 55
-0.66405 -0.368819 -0.0640092 133 87 52
-0.663263 -0.36533 -0.0625817 127 83 48
-0.663243 -0.360398 -0.0600174 121 78 45
-0.663186 -0.35545 -0.0574639 99 59 29
-0.663093 -0.350488 -0.0549212 80 45 18
-0.664888 -0.341886 -0.0495338 76 46 22
-0.668521 -0.329611 -0.0413095 64 37 19
-0.664866 -0.331137 -0.0439392 59 39 21
-0.663482 -0.328299 -0.0431533 87 72 56
-0.65948 -0.330594 -0.0463586 58 42 27
-0.666559 -0.310848 -0.0325113 95 80 65
-0.668358 -0.301333 -0.0266488 81 68 52
-0.674671 -0.368935 -0.0557461 153 110 82
-0.670222 -0.371783 -0.0594886 147 102 69
-0.667432 -0.371833 -0.0609204 140 95 60
-0.664651 -0.371898 -0.0623562 134 90 55
-0.661879 -0.371979 -0.0637957 126 82 46
-0.66189 -0.367072 -0.0612047 124 84 48
-0.661079 -0.363584 -0.059776 129 89 54
-0.661025 -0.358651 -0.0572053 122 79 48
-0.660934 -0.353703 -0.0546455 97 58 28
-0.661189 -0.348017 -0.0515223 80 45 20
-0.661782 -0.341587 -0.0478374 81 49 26
-0.657805 -0.343866 -0.0510454 79 52 27
-0.656098 -0.341794 -0.0508175 79 52 27
-0.65216 -0.344117 -0.0540297 77 50 20
-0.652653 -0.337659 -0.0503827 75 47 22
-0.649825 -0.337805 -0.0518891 75 45 21
-0.651689 -0.328369 -0.045983 71 40 18
-0.655973 -0.313714 -0.0361069 48 25 10
-0.680639 -0.362976 -0.0465236 161 130 111
-0.669572 -0.376998 -0.0595966 153 108 77
-0.667611 -0.375634 -0.0598655 148 102 67
-0.66605 -0.37357 -0.0595592 144 97 61
-0.663676 -0.372925 -0.0604206 132 87 52
-0.660112 -0.374424 -0.0630269 119 79 45
-0.659332 -0.370956 -0.0615783 116 79 46
-0.657747 -0.368912 -0.0612963 120 82 47
-0.656927 -0.365435 -0.0598642 128 91 55
-0.656085 -0.361952 -0.0584407 113 75 42
-0.656745 -0.355576 -0.0547161 93 56 28
-0.6566 -0.350624 -0.0521586 83 50 27
-0.652667 -0.352917 -0.0553769 81 49 26
-0.650623 -0.351599 -0.055716 81 51 23
-0.648207 -0.351017 -0.0566363 81 49 26
-0.647619 -0.346785 -0.0546873 78 47 23
-0.645916 -0.344746 -0.0544715 78 45 22
-0.646354 -0.338292 -0.0508208 77 44 21
-0.648874 -0.327384 -0.0437459 73 41 17
-0.653768 -0.311246 -0.0326856 51 25 2
-0.673438 -0.374517 -0.0533046 162 127 107
-0.668593 -0.378032 -0.0576661 150 105 75
-0.666632 -0.376668 -0.0579352 147 102 69
-0.664264 -0.376015 -0.0587942 141 97 62
-0.662698 -0.373959 -0.0584907 135 92 59
-0.659932 -0.374033 -0.0599436 123 83 48
-0.658355 -0.371988 -0.0596521 113 75 42
-0.655599 -0.372085 -0.0611138 114 77 41
-0.653238 -0.371482 -0.0619977 117 82 46
-0.651647 -0.369455 -0.061724 121 84 48
-0.650806 -0.36599 -0.0602955 105 67 34
-0.648811 -0.364685 -0.0606164 87 53 23
-0.646813 -0.363387 -0.060943 80 50 22
-0.645552 -0.360643 -0.0601172 81 51 23
-0.64354 -0.359354 -0.0604564 81 51 23
-0.641889 -0.357341 -0.0602234 80 48 22
-0.640948 -0.353865 -0.0588424 79 49 20
-0.641055 -0.34818 -0.0557403 78 48 19
-0.642533 -0.339529 -0.0503463 78 46 20
-0.644992 -0.328628 -0.0432433 71 41 14
-0.648402 -0.315458 -0.0344371 59 39 23
-0.669978 -0.379747 -0.0548891 156 121 99
-0.667203 -0.379771 -0.0563293 142 97 67
-0.664031 -0.380511 -0.0583614 141 98 65
-0.662079 -0.379162 -0.0586347 141 96 64
-0.660919 -0.376409 -0.0577401 137 95 59
-0.658163 -0.376484 -0.0591985 132 90 57
-0.656591 -0.374444 -0.0589031 123 83 48
-0.653844 -0.374543 -0.0603707 115 77 45
-0.652262 -0.372515 -0.0600871 118 80 47
-0.649143 -0.373353 -0.0621479 120 82 49
-0.647553 -0.371338 -0.0618759 118 80 45
-0.646328 -0.368605 -0.0610272 95 59 30
-0.646203 -0.363702 -0.0584381 83 50 25
-0.644567 -0.361684 -0.058189 81 51 23
-0.64219 -0.361121 -0.0591103 80 50 22
-0.641988 -0.356197 -0.0565494 80 50 22
-0.639956 -0.354913 -0.0569026 80 50 22
-0.638987 -0.351437 -0.0555218 79 47 21
-0.640107 -0.343544 -0.0506742 77 44 21
-0.640815 -0.336359 -0.0464219 74 44 18
-0.643539 -0.324712 -0.0387165 68 38 14
-0.667647 -0.387714 -0.0574455 154 129 115
-0.666125 -0.385658 -0.0571087 148 113 91
-0.665405 -0.38221 -0.0555959 139 97 62
-0.66305 -0.381551 -0.0564551 139 97 62
-0.660698 -0.380903 -0.057319 139 97 64
-0.659538 -0.378155 -0.0564179 135 92 59
-0.656396 -0.378934 -0.0584718 134 91 58
-0.654049 -0.378317 -0.0593506 123 86 51
-0.650159 -0.38055 -0.0625882 118 80 47
-0.648982 -0.377827 -0.0617103 118 80 47
-0.646267 -0.377958 -0.0631902 118 80 47
-0.645069 -0.375239 -0.0623257 115 79 46
-0.644975 -0.370362 -0.0597095 104 69 35
-0.645585 -0.364028 -0.0559325 87 52 25
-0.643944 -0.362009 -0.0556812 81 51 23
-0.641565 -0.361442 -0.0566065 81 51 23
-0.640631 -0.357978 -0.0551992 81 51 23
-0.63896 -0.355967 -0.0549685 80 50 22
-0.636218 -0.356152 -0.0564942 81 51 23
-0.636289 -0.350485 -0.053363 76 46 20
-0.637011 -0.34333 -0.0490813 75 45 19
-0.639051 -0.333198 -0.0424898 76 46 22
-0.636923 -0.3319 -0.0428873 72 44 24
-0.640522 -0.318002 -0.0334301 46 28 13
-0.667077 -0.388064 -0.0549585 151 119 95
-0.664735 -0.387393 -0.0558089 140 100 66
-0.6628 -0.386038 -0.0560699 139 99 65
-0.660862 -0.384688 -0.0563365 140 100 66
-0.658919 -0.383346 -0.0566088 139 99 65
-0.657762 -0.380606 -0.0557007 137 95 61
-0.654632 -0.381384 -0.0577633 132 92 56
-0.651905 -0.381475 -0.0592367 130 88 52
-0.648418 -0.382998 -0.061897 122 81 49
-0.646098 -0.382414 -0.0627856 115 78 43
-0.64416 -0.381127 -0.0630881 114 78 45
-0.641843 -0.380562 -0.0639865 115 79 46
-0.642133 -0.374989 -0.0607622 110 75 41
-0.642379 -0.369397 -0.0575498 100 64 33
-0.640756 -0.367392 -0.0572925 85 53 25
-0.638037 -0.36756 -0.0588057 81 51 23
-0.638198 -0.361939 -0.0556233 79 52 23
-0.636539 -0.359937 -0.0553875 81 51 23
-0.634869 -0.357938 -0.0551587 77 50 22
-0.634934 -0.352284 -0.0520087 78 47 23
-0.6353 -0.345877 -0.0482865 76 46 20
-0.636644 -0.337242 -0.0428256 75 47 22
-0.635207 -0.334476 -0.0420533 75 46 24
-0.637443 -0.323571 -0.0348746 73 47 26
-0.637597 -0.317071 -0.0312137 53 35 18
-0.644276 -0.295674 -0.0159306 32 20 8
-0.670496 -0.386365 -0.049226 161 138 123
-0.665273 -0.390491 -0.054266 143 106 78
-0.661721 -0.391895 -0.0569131 144 104 69
-0.660608 -0.389164 -0.0559767 143 103 68
-0.65748 -0.389908 -0.0580336 143 101 67
-0.655557 -0.388579 -0.0583035 143 101 65
-0.654417 -0.385856 -0.0573866 141 99 63
-0.6517 -0.385939 -0.0588603 134 95 58
-0.648607 -0.386742 -0.060933 130 88 54
-0.647062 -0.384738 -0.0606292 127 84 53
-0.644367 -0.384863 -0.062115 118 80 47
-0.641682 -0.385003 -0.0636043 113 77 44
-0.640501 -0.382305 -0.0627242 111 76 42
-0.641154 -0.376029 -0.0588881 111 76 42
-0.639556 -0.374034 -0.0586183 108 70 38
-0.639039 -0.369883 -0.0565804 92 58 31
-0.63633 -0.370051 -0.0580991 85 53 25
-0.636131 -0.365168 -0.0554876 81 51 23
-0.633772 -0.364626 -0.0564273 80 50 24
-0.632819 -0.361183 -0.0550139 77 49 24
-0.630453 -0.360654 -0.055965 77 49 24
-0.632561 -0.350621 -0.0492745 77 49 24
-0.631862 -0.346417 -0.0473049 76 48 25
-0.632144 -0.339996 -0.0435853 75 46 24
-0.634046 -0.329863 -0.036949 73 47 24
-0.634212 -0.32339 -0.0332623 74 48 25
-0.63629 -0.312443 -0.0260807 68 49 30
-0.640221 -0.296987 -0.0154164 45 30 14
-0.66621 -0.392909 -0.0521394 156 121 99
-0.661841 -0.395665 -0.0559981 147 106 77
-0.659124 -0.395697 -0.057453 146 106 74
-0.657218 -0.394361 -0.0577104 144 104 69
-0.654114 -0.395114 -0.0597741 144 104 69
-0.652606 -0.393101 -0.0594416 144 104 69
-0.651478 -0.390393 -0.0585163 143 101 67
-0.648393 -0.391184 -0.0605931 136 96 61
-0.644939 -0.392698 -0.0632708 131 89 55
-0.644179 -0.389301 -0.061765 122 84 52
-0.642261 -0.388019 -0.0620599 118 80 45
-0.639213 -0.38887 -0.0641511 114 76 44
-0.638042 -0.386185 -0.0632629 111 76 42
-0.639065 -0.379216 -0.0588073 111 76 42
-0.637476 -0.377228 -0.0585331 110 72 39
-0.636238 -0.374526 -0.0576708 101 65 36
-0.634267 -0.373261 -0.0580049 86 54 26
-0.633358 -0.369837 -0.0565637 80 50 22
-0.630314 -0.370752 -0.0586899 80 50 24
-0.62903 -0.368055 -0.0578561 77 49 24
-0.626002 -0.368997 -0.0599896 77 49 24
-0.627439 -0.360465 -0.0544386 77 52 24
-0.627451 -0.354828 -0.0512681 76 48 25
-0.628762 -0.346236 -0.0457508 76 48 25
-0.629007 -0.33982 -0.0420201 76 48 25
-0.62953 -0.332644 -0.0377155 74 48 25
-0.629671 -0.326184 -0.0340153 74 48 25
-0.630728 -0.317476 -0.0285682 56 41 19
-0.664665 -0.399423 -0.0536569 161 132 112
-0.663173 -0.397381 -0.0532931 156 117 91
-0.660454 -0.397397 -0.0547499 153 112 83
-0.65734 -0.398116 -0.0568149 150 109 77
-0.654642 -0.398164 -0.0582794 146 108 73
-0.652349 -0.397536 -0.0591441 145 105 71
-0.649666 -0.397612 -0.0606165 144 103 71
-0.648162 -0.395615 -0.0602854 141 101 69
-0.645874 -0.395016 -0.0611648 137 97 62
-0.642823 -0.395831 -0.0632518 132 90 57
-0.641308 -0.393852 -0.0629375 122 84 52
-0.639783 -0.391875 -0.0626296 116 79 46
-0.637127 -0.392022 -0.0641283 113 77 44
-0.636333 -0.388637 -0.0626331 111 76 40
-0.636616 -0.38311 -0.0593498 111 76 42
-0.633219 -0.384702 -0.0620627 111 76 42
-0.63345 -0.379158 -0.0587982 104 68 37
-0.631852 -0.377185 -0.0585323 89 55 25
-0.629537 -0.376656 -0.0594669 81 50 22
-0.627575 -0.375414 -0.0598096 79 49 22
-0.628041 -0.369109 -0.055989 77 50 22
-0.623986 -0.372226 -0.0599171 77 49 24
-0.626779 -0.360803 -0.0519561 77 52 24
-0.626104 -0.356635 -0.0499556 77 52 24
-0.627068 -0.348795 -0.045 77 51 26
-0.627638 -0.341661 -0.0406543 76 48 25
-0.627171 -0.33671 -0.0381002 77 51 28
-0.625694 -0.333963 -0.0373321 75 52 28
-0.624842 -0.329734 -0.0353917 73 49 27
-0.658129 -0.414022 -0.0625358 163 146 129
-0.660395 -0.405909 -0.0566783 165 128 102
-0.659742 -0.402524 -0.0550919 159 116 87
-0.658257 -0.400499 -0.0547292 158 115 84
-0.654758 -0.401905 -0.0574098 153 111 80
-0.652076 -0.401958 -0.0588788 150 109 77
-0.649403 -0.402027 -0.0603515 146 108 73
-0.646348 -0.402804 -0.0624343 144 103 71
-0.644473 -0.401516 -0.0627029 140 101 64
-0.642595 -0.400234 -0.0629773 138 98 62
-0.63995 -0.400357 -0.0644663 132 92 58
-0.639206 -0.396988 -0.0629383 123 86 51
-0.63769 -0.39502 -0.0626261 116 79 46
-0.634304 -0.396581 -0.065336 110 74 43
-0.633889 -0.392504 -0.0632266 108 72 39
-0.633445 -0.388416 -0.0611269 106 73 39
-0.630075 -0.390014 -0.0638491 110 74 43
-0.629957 -0.385207 -0.0611639 108 72 41
-0.628736 -0.382534 -0.060291 97 61 30
-0.62609 -0.382734 -0.0618254 87 53 23
-0.623454 -0.382948 -0.0633631 77 50 22
-0.624974 -0.374506 -0.0577197 77 50 22
-0.622319 -0.374725 -0.0592709 78 51 24
-0.625095 -0.363331 -0.0512657 77 52 24
-0.623749 -0.360632 -0.0504455 77 52 24
-0.624048 -0.354277 -0.0466525 77 52 24
-0.623967 -0.348634 -0.0434698 77 52 24
-0.622541 -0.345913 -0.0426804 77 51 28
-0.619487 -0.346876 -0.0448709 76 53 29
-0.619321 -0.341208 -0.0417206 76 53 29
-0.620372 -0.33256 -0.0362123 73 49 27
-0.659229 -0.411675 -0.057689 163 140 125
-0.659418 -0.406954 -0.0548613 163 124 98
-0.657137 -0.406292 -0.0557109 163 118 88
-0.655262 -0.404959 -0.0559545 161 116 83
-0.652184 -0.405685 -0.0580351 155 112 79
-0.650311 -0.404372 -0.0582886 155 112 81
-0.647648 -0.404442 -0.0597669 152 112 78
-0.645773 -0.403145 -0.0600308 146 108 73
-0.643896 -0.401855 -0.0603001 143 103 68
-0.641248 -0.401961 -0.0617915 138 98 62
-0.63861 -0.402083 -0.0632865 132 94 57
-0.637864 -0.398721 -0.061749 125 87 52
-0.636723 -0.396054 -0.0608266 116 79 46
-0.632603 -0.399017 -0.0647615 110 75 41
-0.632555 -0.394244 -0.0620333 108 72 41
-0.631744 -0.390873 -0.0605261 106 70 39
-0.628748 -0.391758 -0.0626554 107 71 40
-0.627554 -0.389099 -0.0617666 106 70 39
-0.626697 -0.385724 -0.0602821 100 63 35
-0.624765 -0.384493 -0.0606154 90 54 27
-0.621442 -0.386143 -0.0633635 80 50 24
-0.621924 -0.379887 -0.0594932 77 50 22
-0.619973 -0.378669 -0.0598451 77 49 24
-0.620716 -0.371658 -0.0553979 75 50 22
-0.6194 -0.368983 -0.0545659 75 50 24
-0.619059 -0.364119 -0.0519439 76 48 21
-0.619009 -0.35851 -0.0487354 75 50 22
-0.617296 -0.35655 -0.0485305 77 52 24
-0.615894 -0.353858 -0.0477353 75 52 28
-0.614793 -0.350427 -0.0463518 75 52 28
-0.614923 -0.344035 -0.0425938 75 52 28
-0.610657 -0.347998 -0.0471864 61 42 23
-0.658257 -0.412717 -0.055893 167 138 120
-0.658438 -0.408004 -0.0530499 164 121 90
-0.656159 -0.407341 -0.0539028 164 120 87
-0.65308 -0.408048 -0.0559884 161 116 83
-0.651608 -0.406046 -0.055623 158 116 80
-0.649732 -0.404731 -0.0558772 156 114 78
-0.647069 -0.404795 -0.0573622 153 113 79
-0.64364 -0.406252 -0.0600755 150 110 75
-0.641002 -0.40635 -0.0615672 143 106 71
-0.638755 -0.405771 -0.0624513 139 99 65
-0.636512 -0.405201 -0.0633399 129 92 55
-0.635021 -0.403247 -0.0630125 123 86 51
-0.634637 -0.399195 -0.0608622 116 79 46
-0.631274 -0.400749 -0.0635958 111 76 40
-0.630126 -0.3981 -0.062678 108 72 39
-0.628961 -0.395449 -0.061768 103 69 37
-0.625986 -0.396339 -0.0639042 103 67 36
-0.624805 -0.393694 -0.0630066 103 68 34
-0.623255 -0.391761 -0.0627236 98 67 34
-0.621347 -0.390544 -0.0630532 91 57 30
-0.61909 -0.39005 -0.0639936 81 51 23
-0.619574 -0.383815 -0.0600998 76 48 21
-0.616959 -0.384047 -0.0616579 75 47 20
-0.616702 -0.379232 -0.0589938 74 49 23
-0.614084 -0.37948 -0.0605624 76 48 23
-0.614107 -0.373924 -0.0573151 77 50 22
-0.613762 -0.369079 -0.0546825 77 50 22
-0.612735 -0.365684 -0.0532644 77 52 24
-0.612642 -0.360084 -0.0500544 74 50 26
-0.612506 -0.354466 -0.046858 75 52 28
-0.611078 -0.351781 -0.0460718 75 52 28
-0.609633 -0.349095 -0.0452943 75 52 28
-0.607561 -0.347891 -0.0457208 66 45 23
-0.654828 -0.417793 -0.0578122 167 136 117
-0.655831 -0.411755 -0.0537158 164 119 89
-0.653164 -0.411775 -0.0551877 165 118 86
-0.651305 -0.410454 -0.0554295 160 115 82
-0.649441 -0.409139 -0.0556769 159 114 81
-0.647182 -0.408513 -0.0565461 157 115 79
-0.644535 -0.408582 -0.0580357 152 112 78
-0.640739 -0.410728 -0.061375 147 107 73
-0.637738 -0.411523 -0.0634855 142 105 69
-0.635893 -0.410263 -0.0637557 139 99 65
-0.634797 -0.407621 -0.0628036 132 94 59
-0.633312 -0.405673 -0.0624723 125 87 52
-0.632927 -0.401632 -0.0603089 121 83 50
-0.630678 -0.401082 -0.061217 113 77 44
-0.628796 -0.39984 -0.0615175 108 72 41
-0.62547 -0.401422 -0.0642688 103 69 37
-0.622523 -0.402322 -0.0664107 103 67 36
-0.621715 -0.398986 -0.0648933 102 69 34
-0.619834 -0.397778 -0.0652137 95 61 31
-0.619337 -0.393723 -0.0631033 91 57 30
-0.617436 -0.392519 -0.063437 81 51 23
-0.618255 -0.385583 -0.0589128 79 49 22
-0.615647 -0.385814 -0.0604768 77 50 22
-0.616053 -0.379566 -0.0565836 77 50 22
-0.612443 -0.381978 -0.0599777 75 50 22
-0.613445 -0.374261 -0.0548946 75 50 22
-0.612764 -0.37015 -0.0528525 75 50 22
-0.611413 -0.36749 -0.0520298 77 50 22
-0.610996 -0.362634 -0.0494047 77 49 26
-0.610543 -0.357764 -0.0467917 77 51 28
-0.609432 -0.354353 -0.0453958 75 52 28
-0.605534 -0.357574 -0.0494231 76 52 31
-0.604103 -0.35491 -0.0486416 75 53 31
-0.600553 -0.357434 -0.0520692 73 52 32
-0.646255 -0.435509 -0.0701222 160 140 124
-0.651416 -0.422852 -0.0597738 163 122 95
-0.65283 -0.41617 -0.0550326 162 115 83
-0.650984 -0.414849 -0.0552678 160 115 82
-0.648339 -0.414887 -0.0567488 157 115 79
-0.64728 -0.412226 -0.0557548 155 112 79
-0.645423 -0.410924 -0.0560067 151 110 78
-0.643175 -0.410311 -0.056883 150 110 75
-0.639006 -0.413135 -0.0608557 146 106 72
-0.636398 -0.413242 -0.0623568 144 104 69
-0.634556 -0.411984 -0.0626267 139 99 65
-0.633835 -0.408656 -0.0610512 134 96 61
-0.632348 -0.406709 -0.0607171 128 91 55
-0.631588 -0.403372 -0.0591577 125 87 52
-0.630075 -0.401425 -0.0588375 120 82 49
-0.627104 -0.402283 -0.0609836 114 78 45
-0.623791 -0.403862 -0.0637464 110 77 42
-0.621212 -0.404055 -0.0652827 106 70 37
-0.62005 -0.401434 -0.0643692 99 66 32
-0.617827 -0.400939 -0.0653015 95 61 31
-0.617333 -0.396898 -0.0631774 86 54 26
-0.616811 -0.392846 -0.0610634 83 51 23
-0.615581 -0.390215 -0.0601815 79 47 21
-0.612992 -0.390452 -0.0617489 76 48 21
-0.612075 -0.387106 -0.0602707 75 47 20
-0.609819 -0.386641 -0.0612382 75 47 20
-0.606916 -0.387633 -0.0634271 77 50 22
-0.607574 -0.380662 -0.0589309 75 50 22
-0.605625 -0.379486 -0.0593084 77 50 22
-0.60525 -0.374669 -0.0566586 76 48 25
-0.605776 -0.367643 -0.0522031 74 48 25
-0.605627 -0.362059 -0.0489746 75 51 30
-0.603297 -0.361609 -0.0499917 73 52 30
-0.603387 -0.355268 -0.0461823 75 53 31
-0.602233 -0.351865 -0.0448011 76 54 34
-0.601646 -0.346974 -0.042225 69 52 33
-0.641311 -0.447079 -0.0769748 107 79 59
-0.64818 -0.431858 -0.0640582 149 115 88
-0.649236 -0.425893 -0.0599046 159 116 85
-0.650646 -0.419232 -0.055138 161 114 82
-0.64881 -0.417918 -0.0553721 160 113 81
-0.645386 -0.419308 -0.0581043 156 112 77
-0.64434 -0.416662 -0.0571023 153 108 77
-0.642889 -0.414692 -0.05673 147 107 73
-0.641041 -0.413404 -0.0569857 145 105 71
-0.636892 -0.416224 -0.0609756 145 105 71
-0.634677 -0.415648 -0.0618606 144 104 69
-0.633218 -0.413707 -0.0615093 140 100 66
-0.632123 -0.411077 -0.0605445 138 98 64
-0.630641 -0.409136 -0.0602066 132 92 56
-0.629882 -0.405809 -0.0586371 126 88 53
-0.62801 -0.404564 -0.0589316 121 84 48
-0.625055 -0.405423 -0.0610856 121 84 48
-0.620688 -0.409104 -0.0657116 116 80 47
-0.618485 -0.408603 -0.066634 113 77 46
-0.616286 -0.408112 -0.0675609 100 67 35
-0.614785 -0.406217 -0.0672605 94 60 30
-0.614649 -0.401486 -0.0645058 87 55 27
-0.614136 -0.397452 -0.0623771 84 52 24
-0.613256 -0.394121 -0.0608724 80 50 24
-0.609683 -0.39651 -0.0642841 75 47 20
-0.608123 -0.394619 -0.0640184 75 47 20
-0.605899 -0.39417 -0.0649837 75 47 20
-0.604003 -0.39301 -0.0653417 76 48 21
-0.602103 -0.391856 -0.0657051 75 50 22
-0.602422 -0.385627 -0.0618019 76 48 23
-0.602376 -0.380104 -0.058523 76 48 25
-0.601977 -0.375294 -0.0558665 73 47 24
-0.602156 -0.369008 -0.0520057 75 50 26
-0.60107 -0.365635 -0.0505906 75 51 30
-0.601463 -0.358579 -0.0461506 73 52 30
-0.600313 -0.355187 -0.0447585 73 54 33
-0.601491 -0.345873 -0.0385326 75 56 37
-0.600558 -0.341715 -0.0365616 59 43 30
-0.645726 -0.43947 -0.0671657 140 101 71
-0.646008 -0.434874 -0.0642353 148 108 78
-0.646255 -0.43026 -0.0613142 156 113 80
-0.647267 -0.424293 -0.0571484 156 111 79
-0.647436 -0.419641 -0.0542469 155 110 78
-0.644811 -0.41968 -0.0557387 152 110 74
-0.643368 -0.417711 -0.055357 151 109 73
-0.639977 -0.419128 -0.0581085 150 108 74
-0.637761 -0.418531 -0.0589872 147 107 73
-0.63326 -0.422035 -0.0636171 145 105 71
-0.630692 -0.422157 -0.0651261 144 104 69
-0.629632 -0.419549 -0.0641448 141 102 65
-0.628927 -0.416249 -0.0625476 138 97 66
-0.627095 -0.415014 -0.0628263 136 94 60
-0.625624 -0.413093 -0.0624886 127 89 56
-0.624144 -0.411173 -0.0621572 123 86 53
-0.620502 -0.413437 -0.0655583 120 84 50
-0.61618 -0.417127 -0.0702004 116 79 46
-0.614013 -0.416645 -0.0711208 107 71 38
-0.612894 -0.414063 -0.0701874 97 63 34
-0.611414 -0.412185 -0.0698803 89 55 25
-0.611977 -0.406062 -0.0658702 85 53 25
-0.611813 -0.401336 -0.0631091 85 53 25
-0.611613 -0.396595 -0.0603591 80 50 22
-0.608387 -0.398265 -0.0631687 76 46 20
-0.607158 -0.395662 -0.0622838 74 46 19
-0.604285 -0.396647 -0.0644829 74 46 19
-0.602073 -0.39621 -0.0654546 75 47 20
-0.599865 -0.395784 -0.0664304 75 47 20
-0.597976 -0.394644 -0.0667969 75 46 24
-0.597958 -0.389155 -0.0634929 72 47 21
-0.597587 -0.384375 -0.0608143 73 47 26
-0.598708 -0.375933 -0.0550913 74 48 25
-0.598248 -0.371117 -0.0524407 73 49 27
-0.599544 -0.361885 -0.046143 74 50 29
-0.598696 -0.357768 -0.0441309 72 51 29
-0.598985 -0.350692 -0.0396961 73 54 33
-0.601527 -0.337673 -0.0304164 67 49 32
-0.648591 -0.438484 -0.0621275 155 112 81
-0.649685 -0.432573 -0.0579142 157 115 81
-0.648705 -0.429943 -0.0568658 155 112 81
-0.644895 -0.431958 -0.0602379 156 113 80
-0.644702 -0.428005 -0.0579407 156 113 80
-0.644876 -0.423371 -0.0550227 155 112 79
-0.641875 -0.424087 -0.0571483 152 110 76
-0.640057 -0.422803 -0.0573904 153 111 78
-0.637463 -0.422876 -0.0588947 152 110 76
-0.635262 -0.422287 -0.0597747 149 106 73
-0.631166 -0.425107 -0.0637968 146 106 72
-0.628987 -0.424549 -0.0646838 144 104 69
-0.627931 -0.421949 -0.0636954 140 100 66
-0.627597 -0.417973 -0.0614623 138 97 66
-0.625402 -0.417429 -0.0623665 135 92 61
-0.623573 -0.416204 -0.0626499 127 89 56
-0.621741 -0.414985 -0.0629387 123 86 53
-0.617764 -0.417944 -0.0669772 121 83 50
-0.613117 -0.422329 -0.0722616 115 79 46
-0.610971 -0.421858 -0.0731821 111 73 40
-0.609522 -0.419994 -0.0728619 99 60 32
-0.608407 -0.417428 -0.0719262 86 49 23
-0.608638 -0.412037 -0.0685132 83 51 23
-0.608826 -0.406626 -0.0651123 88 53 26
-0.608637 -0.401907 -0.062344 85 53 25
-0.607421 -0.399309 -0.0614455 80 48 22
-0.605535 -0.398138 -0.0617925 74 46 19
-0.604293 -0.395541 -0.0609087 74 46 19
-0.60047 -0.398687 -0.0649737 74 46 19
-0.597954 -0.398983 -0.0665685 75 47 20
-0.596703 -0.396405 -0.0657008 74 45 23
-0.596988 -0.390204 -0.0617627 72 47 21
-0.59446 -0.390517 -0.0633743 72 46 23
-0.59741 -0.377737 -0.0539308 70 47 23
-0.596344 -0.374393 -0.052492 72 48 24
-0.595553 -0.370312 -0.05045 73 49 25
-0.595612 -0.364019 -0.0465825 70 49 26
-0.597945 -0.351818 -0.0378383 72 53 30
-0.656981 -0.433016 -0.0511517 154 113 88
-0.659309 -0.425147 -0.0450012 153 110 82
-0.657063 -0.424445 -0.0458446 157 114 83
-0.653599 -0.425726 -0.0485955 159 116 85
-0.650157 -0.427031 -0.0513491 160 114 84
-0.644735 -0.431672 -0.0572727 162 117 85
-0.643338 -0.429715 -0.0568637 160 115 82
-0.643113 -0.425759 -0.0545629 157 114 83
-0.640905 -0.425136 -0.0554324 156 113 80
-0.6387 -0.424523 -0.0563064 157 115 81
-0.636113 -0.424595 -0.0578165 155 113 77
-0.634679 -0.422654 -0.0574375 155 112 79
-0.630968 -0.424783 -0.0608479 148 108 74
-0.628035 -0.425579 -0.062999 146 106 72
-0.626976 -0.422982 -0.0620048 141 101 67
-0.625899 -0.420383 -0.061018 138 98 64
-0.622618 -0.421902 -0.0638101 130 93 58
-0.621167 -0.419999 -0.0634631 127 89 56
-0.618989 -0.41948 -0.0643778 123 85 55
-0.614685 -0.423132 -0.0690589 122 84 52
-0.612534 -0.422646 -0.0699789 123 86 53
-0.610735 -0.421474 -0.0702772 116 79 46
-0.608587 -0.421007 -0.0712063 104 63 36
-0.607811 -0.417743 -0.0696401 87 52 25
-0.60769 -0.413064 -0.066834 82 47 22
-0.607197 -0.409076 -0.0646626 85 51 26
-0.606343 -0.405787 -0.0631245 87 55 27
-0.605465 -0.402491 -0.0615953 84 52 24
-0.60424 -0.399901 -0.0606972 77 50 20
-0.602032 -0.399452 -0.0616707 76 46 20
-0.597914 -0.403312 -0.0663723 75 47 20
-0.595418 -0.403614 -0.0679703 74 45 23
-0.593556 -0.40249 -0.0683324 72 47 21
-0.592001 -0.40065 -0.068081 72 47 21
-0.591352 -0.396639 -0.0659823 71 45 22
-0.595205 -0.381723 -0.0546341 70 47 23
-0.594447 -0.377664 -0.0525673 70 47 23
-0.595136 -0.369944 -0.0474317 69 46 22
-0.596345 -0.360731 -0.0410839 69 47 25
-0.598344 -0.349281 -0.0329139 71 50 27
-0.653927 -0.437321 -0.0526202 152 109 82
-0.656254 -0.429483 -0.046438 157 114 85
-0.652801 -0.43075 -0.0491955 158 116 82
-0.648965 -0.432698 -0.052593 161 116 83
-0.646362 -0.432701 -0.0540815 165 118 86
-0.642572 -0.434699 -0.0574836 170 121 87
-0.639602 -0.435402 -0.059615 169 123 88
-0.639 -0.432134 -0.0579352 164 120 85
-0.637986 -0.429526 -0.0568986 160 118 85
-0.635413 -0.429592 -0.0584085 159 117 81
-0.632467 -0.430345 -0.0605566 159 117 83
-0.631054 -0.428422 -0.0601716 158 116 82
-0.627751 -0.429881 -0.0629605 155 112 79
-0.62447 -0.431363 -0.0657511 148 108 74
-0.62306 -0.429466 -0.0653804 145 105 71
-0.62164 -0.427571 -0.065016 139 99 65
-0.618394 -0.429102 -0.0678158 133 93 61
-0.617331 -0.426533 -0.0668304 123 86 53
-0.614825 -0.426719 -0.0683748 123 82 50
-0.611975 -0.427611 -0.0705523 120 80 50
-0.609843 -0.427134 -0.0714729 118 79 49
-0.608407 -0.425276 -0.0711397 113 75 44
-0.605588 -0.426212 -0.0733266 101 65 36
-0.604146 -0.424366 -0.0730039 87 52 25
-0.603705 -0.420415 -0.0708058 79 47 21
-0.601901 -0.419271 -0.0711244 75 45 19
-0.601746 -0.414601 -0.0683176 80 50 22
-0.599919 -0.413458 -0.0686496 80 50 22
-0.59906 -0.41019 -0.0671122 79 49 22
-0.596897 -0.409766 -0.0680812 76 46 20
-0.594104 -0.410781 -0.0703013 72 44 22
-0.592268 -0.409665 -0.0706538 72 44 22
-0.591983 -0.404962 -0.0678999 70 44 19
-0.589204 -0.40601 -0.0701314 69 46 22
-0.588569 -0.402018 -0.0680171 69 46 22
-0.591509 -0.389323 -0.058469 69 46 22
-0.591368 -0.383836 -0.0551451 69 46 22
-0.589129 -0.38343 -0.0561677 69 46 22
-0.589216 -0.377193 -0.0522484 68 46 24
-0.589827 -0.36947 -0.0471094 70 48 28
-0.628951 -0.479669 -0.0905113 156 117 91
-0.657077 -0.431911 -0.0445041 156 113 84
-0.658127 -0.426016 -0.0402183 160 114 84
-0.655878 -0.425305 -0.0410685 160 118 87
-0.652422 -0.426566 -0.0438445 163 118 88
-0.648187 -0.429164 -0.047903 168 118 87
-0.644781 -0.430479 -0.0506835 171 122 88
-0.640609 -0.433139 -0.0547446 172 123 92
-0.638815 -0.431855 -0.0549741 167 122 89
-0.637792 -0.429246 -0.0539323 164 120 87
-0.634448 -0.430639 -0.0567251 163 121 85
-0.631888 -0.430716 -0.0582449 159 117 83
-0.63047 -0.428793 -0.0578575 159 117 83
-0.626422 -0.43159 -0.0619321 157 115 79
-0.623151 -0.433067 -0.0647345 155 112 79
-0.621743 -0.431175 -0.0643604 148 108 74
-0.620325 -0.429283 -0.0639927 145 103 67
-0.617451 -0.430126 -0.0661697 139 97 64
-0.616026 -0.428246 -0.0658126 132 92 60
-0.612817 -0.429805 -0.0686298 124 83 54
-0.611038 -0.428629 -0.0689158 115 74 44
-0.60821 -0.429534 -0.0711048 111 72 42
-0.605744 -0.429764 -0.0726637 105 66 36
-0.604656 -0.427224 -0.0717 99 62 34
-0.603213 -0.42538 -0.0713747 88 53 26
-0.602431 -0.422137 -0.0697949 78 45 22
-0.60063 -0.420994 -0.0701132 76 46 20
-0.599483 -0.418449 -0.0691785 75 45 19
-0.597995 -0.416608 -0.0688799 79 49 20
-0.597142 -0.413352 -0.067332 79 49 22
-0.594672 -0.413642 -0.0689295 76 46 20
-0.591897 -0.41466 -0.0711565 71 43 21
-0.5907 -0.412122 -0.0702548 71 45 20
-0.590103 -0.408149 -0.0681103 71 45 20
-0.586729 -0.410635 -0.0715986 71 45 24
-0.586406 -0.40594 -0.0688452 69 46 22
-0.588735 -0.394727 -0.0604937 70 47 23
-0.5889 -0.388538 -0.0565253 69 48 23
-0.584928 -0.3925 -0.0612796 66 45 21
-0.587926 -0.379011 -0.0511194 68 44 25
-0.58824 -0.372037 -0.0465738 66 46 28
-0.638016 -0.465195 -0.0735274 156 121 99
-0.656079 -0.432994 -0.0427774 158 117 87
-0.657117 -0.427111 -0.0384707 162 118 90
-0.65406 -0.427698 -0.0406113 163 120 89
-0.651019 -0.428304 -0.0427554 163 118 86
-0.646799 -0.430893 -0.0468316 171 121 90
-0.642217 -0.434172 -0.0515514 174 122 90
-0.638461 -0.436172 -0.0549867 172 123 90
-0.635899 -0.436217 -0.0564986 172 125 91
-0.634503 -0.434286 -0.0560902 171 123 92
-0.631185 -0.435685 -0.0588925 167 125 92
-0.629785 -0.433769 -0.0584947 165 123 87
-0.627624 -0.433194 -0.059383 164 122 86
-0.623975 -0.435319 -0.0628339 158 118 81
-0.621833 -0.434773 -0.0637294 157 115 81
-0.62006 -0.433561 -0.0639907 155 112 79
-0.618647 -0.431676 -0.0636192 151 109 75
-0.615785 -0.432517 -0.0658044 148 105 72
-0.614722 -0.42996 -0.0648064 146 104 73
-0.611523 -0.431514 -0.0676353 141 98 67
-0.609397 -0.431028 -0.0685572 135 92 61
-0.606928 -0.431242 -0.0701186 127 84 53
-0.604126 -0.432162 -0.0723181 117 77 45
-0.60202 -0.431712 -0.0732509 102 66 35
-0.599582 -0.431969 -0.0748214 92 55 29
-0.598487 -0.429447 -0.0738618 84 49 25
-0.596716 -0.428323 -0.0741751 77 44 19
-0.595923 -0.425098 -0.0725972 75 45 19
-0.594137 -0.423979 -0.0729225 76 46 20
-0.593949 -0.419334 -0.0700988 75 45 19
-0.591823 -0.418926 -0.071068 76 46 20
-0.58876 -0.420661 -0.0739301 72 45 20
-0.587272 -0.418854 -0.0736473 71 45 20
-0.587003 -0.41419 -0.0708575 71 45 20
-0.582447 -0.419547 -0.0768672 69 46 22
-0.582152 -0.414883 -0.0740919 69 46 22
-0.584197 -0.404439 -0.0663178 70 47 23
-0.582923 -0.4019 -0.0654489 66 45 21
-0.57873 -0.406607 -0.0708376 66 45 23
-0.581186 -0.394638 -0.0618628 66 45 25
-0.637097 -0.466192 -0.0719499 154 121 100
-0.656714 -0.43151 -0.0384671 159 118 89
-0.656915 -0.426922 -0.035435 162 119 88
-0.653052 -0.428793 -0.0388786 164 119 89
-0.650016 -0.429394 -0.0410317 167 120 88
-0.64541 -0.432624 -0.0457719 171 121 90
-0.641237 -0.435238 -0.0498668 173 125 89
-0.63749 -0.437228 -0.0533173 173 125 89
-0.634931 -0.437269 -0.0548352 175 126 90
-0.632766 -0.436663 -0.0557125 172 125 91
-0.628701 -0.439387 -0.0598138 169 124 92
-0.626558 -0.438813 -0.0606981 165 123 87
-0.624043 -0.438918 -0.0622299 162 123 86
-0.620797 -0.440379 -0.0650503 163 121 85
-0.618676 -0.439845 -0.0659461 162 120 84
-0.617287 -0.437971 -0.0655631 157 115 81
-0.616249 -0.435422 -0.0645453 157 115 81
-0.613406 -0.436266 -0.0667376 151 109 75
-0.611998 -0.434403 -0.0663719 146 104 73
-0.609174 -0.435276 -0.0685708 143 100 69
-0.607064 -0.434796 -0.0694938 141 98 67
-0.604611 -0.435015 -0.0710593 136 93 62
-0.601486 -0.436628 -0.0739039 134 91 60
-0.600076 -0.434803 -0.0735622 124 89 55
-0.597315 -0.435756 -0.0757741 115 77 47
-0.596231 -0.433246 -0.0748065 92 55 27
-0.593816 -0.433528 -0.0763891 84 50 23
-0.593038 -0.43032 -0.074799 79 47 21
-0.591915 -0.427809 -0.073852 76 46 20
-0.591414 -0.423886 -0.071645 75 45 19
-0.588676 -0.4249 -0.0738809 72 45 18
-0.586267 -0.425223 -0.0754855 72 45 20
-0.585412 -0.422006 -0.073933 71 45 20
-0.582092 -0.424487 -0.0774399 70 47 23
-0.577897 -0.429138 -0.0828375 69 46 22
-0.577037 -0.425941 -0.0812995 69 46 22
-0.577926 -0.418425 -0.0759948 69 46 22
-0.574957 -0.42025 -0.0788796 69 45 24
-0.571724 -0.42282 -0.082392 66 45 23
-0.616467 -0.497856 -0.10161 151 116 91
-0.64796 -0.444792 -0.0490964 157 118 91
-0.652659 -0.43318 -0.0388931 163 120 89
-0.649232 -0.434415 -0.0416991 164 119 89
-0.647417 -0.433082 -0.041911 168 121 91
-0.643625 -0.435007 -0.0453728 171 121 90
-0.639862 -0.436961 -0.0488364 175 123 91
-0.636515 -0.438289 -0.0516535 175 126 90
-0.633575 -0.438984 -0.0538252 176 126 93
-0.631415 -0.438379 -0.0547052 176 126 93
-0.626606 -0.442417 -0.0601176 173 126 90
-0.624474 -0.441848 -0.0610038 173 128 93
-0.621601 -0.442622 -0.0631863 164 122 86
-0.618743 -0.443416 -0.0653714 163 121 85
-0.617 -0.442215 -0.0656239 163 121 85
-0.615616 -0.440348 -0.0652371 160 118 85
-0.613503 -0.439832 -0.0661448 155 112 79
-0.61175 -0.438649 -0.0664131 152 107 74
-0.609994 -0.437472 -0.0666867 148 105 72
-0.606836 -0.439028 -0.0695356 142 99 66
-0.604394 -0.439239 -0.0711018 138 96 64
-0.602648 -0.438092 -0.0713878 134 91 58
-0.600219 -0.438327 -0.0729609 126 86 54
-0.598474 -0.437196 -0.0732564 120 80 48
-0.595726 -0.438149 -0.0754764 114 76 46
-0.593985 -0.437036 -0.0757803 102 66 35
-0.591914 -0.436625 -0.0767282 90 54 27
-0.589524 -0.436923 -0.0783179 80 48 22
-0.588424 -0.434432 -0.0773605 75 45 19
-0.586675 -0.433344 -0.0776844 74 44 18
-0.584923 -0.432262 -0.0780133 72 44 22
-0.583168 -0.431186 -0.0783474 71 43 19
-0.582025 -0.428698 -0.0774166 71 45 20
-0.579651 -0.429052 -0.0790307 69 46 22
-0.576687 -0.430846 -0.0819144 69 46 22
-0.576123 -0.426941 -0.0797343 69 46 22
-0.642108 -0.453533 -0.0552713 154 115 89
-0.650843 -0.435564 -0.0384869 162 118 90
-0.648228 -0.435509 -0.039999 163 118 88
-0.647998 -0.431591 -0.0376022 168 118 87
-0.644203 -0.433497 -0.0410805 170 120 89
-0.640825 -0.434781 -0.0439091 172 123 90
-0.637469 -0.43609 -0.0467401 175 126 90
-0.634135 -0.437423 -0.0495734 175 125 92
-0.630443 -0.439438 -0.0530592 177 128 94
-0.627157 -0.440821 -0.0558964 174 128 91
-0.624267 -0.441565 -0.0580861 172 125 89
-0.621392 -0.442329 -0.0602786 168 123 88
-0.618901 -0.442446 -0.0618251 167 122 87
-0.616056 -0.443246 -0.0640232 161 122 85
-0.614309 -0.442051 -0.0642811 159 117 83
-0.611844 -0.442209 -0.0658384 155 112 79
-0.609744 -0.441706 -0.0667525 150 106 73
-0.607295 -0.441891 -0.0683168 145 103 67
-0.605204 -0.44141 -0.0692388 142 99 68
-0.602083 -0.442986 -0.0720999 138 96 62
-0.60035 -0.441848 -0.072384 132 92 60
-0.597939 -0.442088 -0.0739611 129 88 56
-0.596207 -0.440965 -0.0742546 125 85 53
-0.593809 -0.441229 -0.0758387 120 82 49
-0.593063 -0.438044 -0.0742146 107 71 40
-0.591644 -0.436242 -0.0738824 92 55 29
-0.589251 -0.436532 -0.0754794 79 47 19
-0.588778 -0.432643 -0.0732369 76 43 20
-0.587016 -0.431547 -0.0735635 72 45 20
-0.584004 -0.433269 -0.0764519 71 43 19
-0.581324 -0.434308 -0.0787018 70 44 19
-0.579577 -0.433244 -0.0790393 70 44 19
-0.576016 -0.43644 -0.0832053 71 45 20
-0.571896 -0.441088 -0.0886416 69 46 22
-0.571369 -0.437217 -0.0864412 70 47 23
-0.640614 -0.451379 -0.0518725 154 113 84
-0.642846 -0.443669 -0.0455159 158 115 84
-0.643828 -0.437852 -0.0411377 166 119 87
-0.642023 -0.436534 -0.0413538 169 119 88
-0.638662 -0.437818 -0.0441931 171 121 90
-0.635708 -0.438474 -0.046381 172 123 90
-0.632388 -0.439804 -0.0492253 173 124 91
-0.628711 -0.441814 -0.0527252 175 125 92
-0.625063 -0.443852 -0.0562263 174 128 91
-0.621816 -0.445258 -0.059076 172 125 91
-0.618591 -0.446687 -0.0619275 171 124 90
-0.61612 -0.446811 -0.0634779 168 123 88
-0.613658 -0.446949 -0.0650317 164 122 86
-0.611566 -0.446433 -0.0659384 160 118 85
-0.609121 -0.446598 -0.0674994 156 113 80
-0.606333 -0.447451 -0.069713 150 108 74
-0.605309 -0.444944 -0.068684 145 103 69
-0.603576 -0.44379 -0.0689591 142 99 68
-0.600468 -0.445362 -0.0718311 138 97 66
-0.598743 -0.444228 -0.0721145 133 93 61
-0.596341 -0.444469 -0.0736967 127 89 56
-0.593284 -0.446096 -0.0765743 123 86 53
-0.590579 -0.447058 -0.0788069 115 79 48
-0.589525 -0.444584 -0.0778154 110 75 41
-0.588131 -0.442801 -0.0774758 99 62 34
-0.584808 -0.445188 -0.0810062 81 50 22
-0.584998 -0.439935 -0.0774586 75 45 21
-0.583266 -0.438858 -0.07778 72 45 20
-0.581531 -0.437786 -0.0781065 70 44 19
-0.578874 -0.438829 -0.0803624 70 44 19
-0.578054 -0.435659 -0.0787745 70 44 19
-0.575111 -0.437434 -0.0816767 70 44 19
-0.573082 -0.437102 -0.0826602 70 44 19
-0.570764 -0.437492 -0.0842862 69 46 22
-0.571067 -0.431477 -0.0801709 72 48 24
