ply
format ascii 1.0
comment Created by Open3D
element vertex 645
property double x
property double y
property double z
property uchar red
property uchar green
property uchar blue
end_header
-0.808786 -0.14473 0.0736118 138 130 121
-0.803357 -0.147093 0.0699445 125 112 96
-0.80632 -0.134906 0.0771093 88 68 50
-0.784995 -0.184469 0.0476195 143 123 105
-0.783524 -0.180411 0.0488658 128 95 72
-0.783693 -0.173437 0.0522817 107 80 53
-0.797862 -0.141626 0.0741966 91 69 40
-0.776532 -0.198071 0.0410442 146 117 97
-0.774692 -0.194778 0.0417592 127 93 66
-0.774909 -0.187855 0.045206 111 78 53
-0.785368 -0.162703 0.0623329 96 71 45
-0.794796 -0.13888 0.0783264 86 65 42
-0.795268 -0.171808 0.0667869 162 146 133
-0.765595 -0.215947 0.0310363 140 105 83
-0.767159 -0.20693 0.0361838 119 80 52
-0.770721 -0.194255 0.0440722 104 70 43
-0.786075 -0.160448 0.0679187 92 60 34
-0.794627 -0.13812 0.0829058 86 56 29
-0.778743 -0.198982 0.0495902 163 141 123
-0.753887 -0.235196 0.0197603 154 119 95
-0.755931 -0.22553 0.0255068 129 91 61
-0.7579 -0.215824 0.0312357 107 74 44
-0.771234 -0.185773 0.0524666 92 60 34
-0.777012 -0.168653 0.0636838 79 47 21
-0.789083 -0.139778 0.0837249 67 41 20
-0.814069 -0.0866063 0.121962 123 116 104
-0.771144 -0.211042 0.0438996 169 142 122
-0.744334 -0.250789 0.0111101 154 113 84
-0.741464 -0.249814 0.0101994 145 104 75
-0.741058 -0.244524 0.0126306 129 91 61
-0.749569 -0.223302 0.0273155 107 75 47
-0.746998 -0.221565 0.0269271 97 67 41
-0.774044 -0.205237 0.0521701 165 139 116
-0.736915 -0.262749 0.00513451 158 115 84
-0.729975 -0.26898 -0.00138985 150 107 76
-0.723102 -0.275268 -0.00791055 135 97 66
-0.723189 -0.26934 -0.00489473 124 88 57
-0.721222 -0.267015 -0.00469287 109 74 49
-0.719243 -0.264693 -0.00449856 93 63 34
-0.733873 -0.231779 0.0191761 79 55 31
-0.77274 -0.206586 0.0548395 171 149 131
-0.726641 -0.279663 -0.00490215 162 121 94
-0.715276 -0.2938 -0.017666 150 107 76
-0.706492 -0.303733 -0.0270291 136 95 65
-0.705077 -0.30078 -0.0262319 129 88 58
-0.703645 -0.297825 -0.0254431 113 77 46
-0.703388 -0.292696 -0.0229735 97 60 36
-0.710582 -0.273742 -0.00982878 80 49 30
-0.736769 -0.218971 0.0308198 115 100 92
-0.758972 -0.229237 0.0404299 171 146 129
-0.711076 -0.305769 -0.0224784 156 117 91
-0.700676 -0.318519 -0.0341608 143 102 70
-0.691213 -0.329932 -0.0446953 131 89 57
-0.688701 -0.329215 -0.0455766 119 81 48
-0.688587 -0.324184 -0.0430629 112 73 45
-0.687644 -0.320585 -0.0416925 105 66 40
-0.689818 -0.311178 -0.0358059 89 47 25
-0.699702 -0.287184 -0.0186339 61 26 4
-0.736606 -0.266668 0.0138035 170 149 134
-0.699721 -0.324663 -0.0345675 158 119 96
-0.692284 -0.332448 -0.0423033 143 102 70
-0.685331 -0.339582 -0.049462 134 90 62
-0.68246 -0.339607 -0.0509114 123 83 48
-0.681982 -0.335332 -0.0489455 119 76 45
-0.680291 -0.33321 -0.0486976 111 71 39
-0.680545 -0.327474 -0.0456123 94 52 27
-0.685409 -0.31301 -0.035719 78 40 19
-0.689382 -0.299932 -0.0269863 53 24 6
-0.710277 -0.311003 -0.0189102 159 141 126
-0.690485 -0.339939 -0.0439475 151 115 86
-0.686378 -0.342058 -0.0471195 141 98 67
-0.679483 -0.349199 -0.0543112 135 93 57
-0.677851 -0.347101 -0.0540408 128 85 52
-0.677792 -0.342134 -0.0514849 124 82 50
-0.675734 -0.340751 -0.0518027 123 83 48
-0.674061 -0.338654 -0.0515544 112 71 42
-0.677011 -0.32787 -0.0444544 91 51 28
-0.679872 -0.317038 -0.037374 80 44 22
-0.681126 -0.30907 -0.0325956 75 45 23
-0.68531 -0.289379 -0.0202399 76 62 51
-0.691937 -0.341751 -0.0410253 157 130 112
-0.682529 -0.353033 -0.0517264 149 110 82
-0.679294 -0.353763 -0.0537514 142 97 67
-0.674872 -0.356649 -0.057511 134 92 56
-0.673665 -0.353857 -0.0566567 128 85 54
-0.672835 -0.350348 -0.0552337 123 83 48
-0.671591 -0.347551 -0.0543953 124 84 50
-0.669167 -0.346913 -0.0552905 129 91 59
-0.669438 -0.341229 -0.0521673 113 75 44
-0.669665 -0.335526 -0.0490562 93 54 29
-0.668716 -0.331985 -0.0476783 79 46 23
-0.668117 -0.327709 -0.0457366 81 51 27
-0.667118 -0.324154 -0.0443777 79 51 29
-0.668303 -0.316196 -0.0395963 67 41 18
-0.664318 -0.318499 -0.0428308 64 38 15
-0.663978 -0.313458 -0.0403573 62 36 13
-0.661451 -0.312839 -0.041317 59 35 15
-0.662476 -0.304819 -0.0365854 56 32 15
-0.683539 -0.35549 -0.0494501 160 129 110
-0.677058 -0.361844 -0.0561311 151 110 82
-0.674668 -0.361179 -0.056999 142 97 67
-0.671881 -0.361235 -0.058452 135 92 59
-0.671083 -0.357746 -0.0570093 124 82 50
-0.669476 -0.355679 -0.0567341 115 77 47
-0.66786 -0.353614 -0.0564656 115 79 48
-0.665074 -0.353708 -0.057939 117 81 50
-0.664595 -0.349493 -0.0559487 121 85 54
-0.664846 -0.343821 -0.0528136 107 71 38
-0.662795 -0.342481 -0.0531517 89 55 25
-0.662606 -0.337512 -0.0506142 79 48 24
-0.662381 -0.332529 -0.0480882 78 50 26
-0.659554 -0.332652 -0.0495995 78 50 26
-0.65492 -0.336457 -0.0539872 77 49 26
-0.655727 -0.329265 -0.0497628 76 48 25
-0.653625 -0.327949 -0.0501409 75 46 26
-0.65152 -0.326639 -0.0505247 71 44 26
-0.65046 -0.323112 -0.0491979 56 35 19
-0.690697 -0.347473 -0.0384037 161 144 132
-0.678453 -0.363563 -0.0533152 151 119 95
-0.674042 -0.366403 -0.0571043 146 103 75
-0.671269 -0.366453 -0.0585573 142 97 65
-0.6693 -0.365102 -0.0588469 136 94 60
-0.66851 -0.361627 -0.0573931 131 89 57
-0.666915 -0.35957 -0.0571129 118 77 48
-0.664534 -0.358946 -0.0580037 110 74 43
-0.662156 -0.358332 -0.0588991 112 79 47
-0.660924 -0.355572 -0.058056 115 79 48
-0.660432 -0.351368 -0.0560596 114 78 45
-0.658786 -0.349323 -0.0558132 97 65 37
-0.658244 -0.345105 -0.0538353 85 53 27
-0.658041 -0.340149 -0.0512888 78 50 26
-0.655611 -0.339558 -0.0522234 78 50 26
-0.652461 -0.34044 -0.0543181 77 52 24
-0.652194 -0.335472 -0.051798 77 49 26
-0.650826 -0.332698 -0.0510192 75 46 26
-0.64944 -0.329922 -0.0502486 72 46 25
-0.647341 -0.328626 -0.0506369 72 44 24
-0.647999 -0.3214 -0.0464334 52 31 9
-0.683521 -0.359026 -0.045206 154 131 118
-0.677045 -0.365312 -0.0519562 147 110 86
-0.672244 -0.368845 -0.0563516 141 98 67
-0.66988 -0.368192 -0.0572232 138 97 66
-0.667519 -0.36755 -0.0580993 136 93 62
-0.665553 -0.36621 -0.0583939 134 90 62
-0.663972 -0.364166 -0.0581086 128 85 52
-0.663154 -0.360698 -0.0566593 116 79 46
-0.660781 -0.360084 -0.0575576 111 78 44
-0.65917 -0.358047 -0.0572922 113 77 46
-0.659055 -0.353134 -0.0546989 113 77 44
-0.656291 -0.353258 -0.0561984 108 72 41
-0.655386 -0.349779 -0.0547888 92 58 31
-0.655191 -0.344842 -0.0522239 80 50 26
-0.652053 -0.345715 -0.0543221 78 50 26
-0.649292 -0.345877 -0.0558417 79 52 27
-0.649036 -0.340929 -0.0533029 78 50 26
-0.647331 -0.338905 -0.0530942 74 49 21
-0.644916 -0.338356 -0.0540508 75 46 24
-0.645971 -0.330434 -0.0492271 74 45 23
-0.645589 -0.325445 -0.0467319 70 44 21
-0.64449 -0.321927 -0.0454031 43 25 11
-0.681684 -0.36149 -0.0444163 154 131 116
-0.676444 -0.365667 -0.0494267 144 107 83
-0.67085 -0.370587 -0.0550264 137 96 66
-0.668888 -0.369231 -0.0553105 137 96 64
-0.666134 -0.369292 -0.0567801 136 93 62
-0.663781 -0.368661 -0.0576639 134 90 62
-0.66143 -0.368041 -0.0585524 126 86 52
-0.661389 -0.363164 -0.0559152 122 81 51
-0.659406 -0.361839 -0.0562281 112 79 45
-0.657796 -0.359806 -0.0559594 111 77 46
-0.656552 -0.357057 -0.0551105 111 78 44
-0.654176 -0.356466 -0.0560283 111 75 44
-0.652172 -0.355164 -0.056365 95 61 29
-0.651258 -0.351697 -0.0549519 87 57 31
-0.648514 -0.351855 -0.0564708 79 52 25
-0.646854 -0.349843 -0.0562409 78 50 26
-0.647669 -0.34272 -0.051934 78 50 26
-0.648076 -0.336304 -0.0482252 78 50 26
-0.647039 -0.332805 -0.0468595 77 49 24
-0.64805 -0.32488 -0.0420136 76 48 23
-0.647289 -0.320619 -0.0400897 75 46 24
-0.64582 -0.317831 -0.0393375 75 46 24
-0.643665 -0.316527 -0.039753 62 38 19
-0.64416 -0.309273 -0.0355422 44 28 15
-0.677759 -0.37228 -0.0493241 157 141 130
-0.673765 -0.374363 -0.0525678 150 123 105
-0.671811 -0.372995 -0.0528408 143 105 77
-0.667858 -0.375125 -0.0560892 136 98 66
-0.666309 -0.37308 -0.0557777 136 98 66
-0.665142 -0.370334 -0.0548798 137 96 66
-0.6624 -0.370406 -0.0563596 132 93 63
-0.660441 -0.369079 -0.056659 127 89 56
-0.660009 -0.36492 -0.0545979 122 84 52
-0.658029 -0.363597 -0.0549106 114 78 45
-0.656045 -0.362282 -0.055229 111 75 44
-0.654804 -0.35954 -0.0543732 111 76 42
-0.653176 -0.357515 -0.0541146 111 75 44
-0.652638 -0.353332 -0.0520962 105 72 38
-0.651707 -0.349861 -0.0506762 96 62 30
-0.649313 -0.349282 -0.0516164 85 53 25
-0.646922 -0.348714 -0.0525609 78 51 24
-0.647007 -0.343057 -0.0494043 78 50 26
-0.6467 -0.338112 -0.0468464 78 50 26
-0.645662 -0.334619 -0.0454711 77 49 24
-0.646661 -0.326712 -0.0405968 77 49 26
-0.646917 -0.320249 -0.036908 75 46 24
-0.643418 -0.321893 -0.039652 75 46 24
-0.639276 -0.325044 -0.0435625 73 49 27
-0.636491 -0.325254 -0.0451422 68 49 28
-0.636329 -0.319518 -0.0420732 50 37 16
-0.675839 -0.379548 -0.0513344 157 143 131
-0.6739 -0.378171 -0.0515953 152 125 109
-0.671553 -0.377492 -0.0524599 145 110 85
-0.669208 -0.376825 -0.0533293 140 101 71
-0.666468 -0.376865 -0.0548005 140 100 68
-0.664526 -0.375522 -0.0550823 139 101 68
-0.662581 -0.374186 -0.0553697 139 99 67
-0.661019 -0.372154 -0.0550672 134 96 65
-0.659063 -0.370829 -0.0553663 131 91 59
-0.657484 -0.368802 -0.0550765 123 86 51
-0.655895 -0.366778 -0.0547934 120 82 47
-0.653547 -0.366181 -0.0557041 113 77 46
-0.652315 -0.363451 -0.0548402 110 74 43
-0.6507 -0.361437 -0.0545766 109 73 42
-0.649439 -0.358706 -0.0537278 107 74 44
-0.648522 -0.355252 -0.0522955 98 64 35
-0.646508 -0.353961 -0.0526447 86 54 28
-0.64449 -0.352677 -0.0529998 79 52 23
-0.642117 -0.352127 -0.0539501 78 50 26
-0.640792 -0.349401 -0.0531377 78 50 26
-0.638416 -0.348867 -0.0540988 78 50 26
-0.63946 -0.341012 -0.0491858 78 50 28
-0.638411 -0.337538 -0.047813 75 50 26
-0.637003 -0.334797 -0.0470365 73 49 25
-0.634915 -0.333533 -0.0474402 74 48 25
-0.633481 -0.330794 -0.0466791 74 51 24
-0.631379 -0.32954 -0.0470955 71 50 27
-0.671568 -0.386091 -0.0542598 158 138 122
-0.670465 -0.383355 -0.0533145 152 117 94
-0.668139 -0.382688 -0.0541798 144 106 74
-0.665815 -0.382032 -0.0550498 144 103 71
-0.663494 -0.381387 -0.0559245 141 103 72
-0.662746 -0.377964 -0.0544051 140 102 69
-0.660418 -0.377332 -0.0552912 141 101 69
-0.658865 -0.375307 -0.0549842 139 98 69
-0.657684 -0.372581 -0.0540857 130 92 60
-0.656866 -0.369146 -0.052597 123 86 53
-0.65452 -0.368538 -0.0535061 119 80 50
-0.65255 -0.367231 -0.053823 115 77 47
-0.650576 -0.36593 -0.0541456 110 74 43
-0.649331 -0.363206 -0.0532825 107 74 44
-0.647344 -0.361914 -0.0536174 106 73 41
-0.647153 -0.357034 -0.0509853 104 68 41
-0.645142 -0.355745 -0.0513344 94 60 30
-0.642067 -0.356633 -0.0534694 81 51 25
-0.639709 -0.356089 -0.0544208 77 49 24
-0.639088 -0.35192 -0.0524157 77 49 24
-0.638438 -0.34774 -0.0504213 78 50 26
-0.639458 -0.339894 -0.0454826 77 51 26
-0.638394 -0.33642 -0.0441029 78 50 28
-0.637307 -0.33294 -0.0427328 75 52 28
-0.636196 -0.329455 -0.0413723 75 52 28
-0.632447 -0.331882 -0.0447287 73 53 26
-0.632287 -0.326179 -0.0416194 71 52 29
-0.632724 -0.318972 -0.0373498 69 52 31
-0.669613 -0.393278 -0.0563865 160 140 124
-0.669354 -0.389191 -0.0542155 160 131 109
-0.66745 -0.387838 -0.0544722 156 117 89
-0.664741 -0.38787 -0.0559427 152 109 78
-0.661644 -0.388608 -0.058021 147 107 75
-0.660533 -0.385899 -0.0570856 142 104 71
-0.659014 -0.383883 -0.0567603 140 101 71
-0.657873 -0.381171 -0.0558391 139 101 68
-0.656716 -0.378457 -0.0549256 136 98 66
-0.65516 -0.376442 -0.0546212 132 94 61
-0.653595 -0.37443 -0.0543231 127 87 55
-0.651645 -0.373127 -0.0546321 119 80 50
-0.648948 -0.373247 -0.0561463 111 75 44
-0.648102 -0.369829 -0.0546676 107 74 42
-0.646868 -0.367117 -0.0537965 106 73 41
-0.644532 -0.366549 -0.0547277 106 73 39
-0.644349 -0.361688 -0.0520777 106 72 43
-0.642355 -0.360409 -0.0524243 97 65 33
-0.639302 -0.361302 -0.054566 87 55 29
-0.636962 -0.360767 -0.0555179 78 47 23
-0.635316 -0.358791 -0.0552838 76 48 23
-0.632293 -0.359729 -0.057435 75 50 22
-0.63301 -0.352659 -0.0530537 76 48 25
-0.631659 -0.349954 -0.0522486 77 49 26
-0.631288 -0.345046 -0.0496731 76 53 29
-0.631536 -0.338653 -0.0459256 76 53 29
-0.630109 -0.335928 -0.0451503 75 52 26
-0.630274 -0.329503 -0.0414294 75 52 28
-0.631664 -0.320091 -0.0353631 73 52 30
-0.668219 -0.394999 -0.0551628 162 140 122
-0.667551 -0.391604 -0.0535873 162 129 106
-0.664849 -0.391625 -0.0550587 155 115 85
-0.661358 -0.393036 -0.0577486 155 112 79
-0.659077 -0.392403 -0.05862 152 109 78
-0.657976 -0.389707 -0.0576767 146 108 75
-0.655301 -0.389783 -0.0591645 142 104 71
-0.655724 -0.384306 -0.0558124 141 103 70
-0.654573 -0.381602 -0.0548915 137 100 65
-0.653785 -0.378195 -0.0533736 134 96 65
-0.651092 -0.378294 -0.0548842 128 90 57
-0.648782 -0.377704 -0.0557949 119 80 50
-0.646475 -0.377125 -0.05671 111 75 44
-0.64637 -0.372302 -0.0540154 105 71 42
-0.645503 -0.368886 -0.0525356 105 71 42
-0.643532 -0.367605 -0.0528684 105 71 42
-0.643698 -0.362037 -0.0496026 104 72 40
-0.642408 -0.359321 -0.0487497 103 69 37
-0.63935 -0.360202 -0.0509029 92 60 30
-0.636309 -0.361102 -0.053058 82 53 24
-0.634658 -0.359126 -0.0528217 78 47 23
-0.630956 -0.361508 -0.0561788 75 50 22
-0.63099 -0.35591 -0.0529668 76 48 21
-0.629312 -0.353944 -0.0527504 75 50 22
-0.627955 -0.351249 -0.0519452 75 50 26
-0.629197 -0.34268 -0.0463862 74 50 26
-0.630045 -0.334814 -0.0414407 75 52 26
-0.630509 -0.327657 -0.0371066 75 52 28
-0.634401 -0.312335 -0.0262637 75 53 31
-0.637223 -0.299172 -0.0172302 73 52 30
-0.667637 -0.395365 -0.0527274 163 135 115
-0.667365 -0.391292 -0.050532 162 121 94
-0.66426 -0.391988 -0.0526216 160 118 87
-0.660773 -0.39339 -0.0553246 159 113 83
-0.657702 -0.394128 -0.0574195 153 111 80
-0.65621 -0.392127 -0.0570793 150 110 75
-0.653545 -0.392204 -0.0585726 148 108 76
-0.652427 -0.389519 -0.0576354 142 106 73
-0.651292 -0.386831 -0.0567057 140 99 70
-0.650141 -0.384141 -0.0557835 131 95 64
-0.646726 -0.385654 -0.0585109 124 89 53
-0.645561 -0.382973 -0.0576008 120 84 50
-0.643275 -0.382404 -0.0585162 113 77 46
-0.642817 -0.37831 -0.0564088 105 72 40
-0.642329 -0.374206 -0.0543112 101 70 37
-0.640737 -0.372225 -0.0540367 100 69 34
-0.639134 -0.370247 -0.0537688 101 70 37
-0.636819 -0.369703 -0.0547141 99 66 34
-0.634854 -0.368452 -0.0550613 95 61 31
-0.633232 -0.366487 -0.054812 86 54 28
-0.631941 -0.363803 -0.053968 80 50 24
-0.628603 -0.365463 -0.0567369 77 50 22
-0.629311 -0.35843 -0.052304 77 50 22
-0.626311 -0.359383 -0.0544821 75 50 22
-0.625957 -0.354513 -0.0518703 75 50 22
-0.628492 -0.343038 -0.0438859 75 50 26
-0.629644 -0.334452 -0.038316 74 50 26
-0.631044 -0.325096 -0.0321683 74 50 26
-0.633313 -0.313489 -0.0242523 75 53 31
-0.63299 -0.307755 -0.0211264 75 53 31
-0.629539 -0.309429 -0.0239641 71 52 29
-0.631908 -0.296986 -0.0155122 45 33 21
-0.660767 -0.410587 -0.0623506 163 146 136
-0.667048 -0.39574 -0.0502917 162 132 110
-0.666364 -0.392351 -0.048699 161 120 91
-0.662068 -0.395086 -0.0526397 161 116 83
-0.658597 -0.396487 -0.0553539 157 115 81
-0.655541 -0.397227 -0.0574569 155 112 81
-0.653279 -0.39661 -0.0583377 150 109 77
-0.649091 -0.399455 -0.0622834 148 108 74
-0.648764 -0.395409 -0.0601127 142 106 75
-0.646131 -0.395519 -0.0616181 140 101 71
-0.64426 -0.39425 -0.0619057 132 96 65
-0.642012 -0.393687 -0.0628089 127 91 57
-0.640877 -0.391031 -0.0618877 116 82 50
-0.639725 -0.388372 -0.0609741 110 76 44
-0.640373 -0.382183 -0.0570253 106 73 41
-0.640611 -0.376679 -0.0536974 102 71 39
-0.638311 -0.376124 -0.054634 102 68 36
-0.63672 -0.374156 -0.0543612 99 65 36
-0.634769 -0.372904 -0.0547014 96 62 32
-0.633162 -0.370943 -0.0544415 94 59 32
-0.630858 -0.370421 -0.0553984 86 54 26
-0.629577 -0.367748 -0.0545462 79 48 24
-0.627607 -0.366519 -0.0549098 77 50 22
-0.627634 -0.36095 -0.0516592 76 48 23
-0.625967 -0.358995 -0.0514351 76 48 23
-0.624291 -0.357044 -0.0512177 76 48 23
-0.627133 -0.344867 -0.0425881 76 48 21
-0.626671 -0.339963 -0.0399909 75 50 24
-0.62744 -0.332107 -0.0350061 74 50 26
-0.626891 -0.327169 -0.0324366 73 52 30
-0.628476 -0.317049 -0.025689 76 54 32
-0.624455 -0.320218 -0.0297278 73 54 31
-0.626236 -0.309311 -0.0224158 69 52 31
-0.658581 -0.413629 -0.0624484 160 137 122
-0.664031 -0.400175 -0.0515627 162 129 108
-0.664158 -0.395448 -0.0487239 160 117 89
-0.660279 -0.397499 -0.052065 157 114 83
-0.65761 -0.397534 -0.0535577 155 112 81
-0.653778 -0.399636 -0.0569024 155 112 81
-0.651524 -0.399022 -0.0577855 150 107 76
-0.647352 -0.401861 -0.0617489 147 107 73
-0.646644 -0.398517 -0.06018 143 105 73
-0.643647 -0.399323 -0.0623044 139 98 69
-0.640665 -0.400148 -0.0644314 135 97 64
-0.639185 -0.398204 -0.0641081 130 92 62
-0.637327 -0.39696 -0.0644038 122 86 55
-0.634736 -0.397127 -0.0659291 118 82 51
-0.636131 -0.389567 -0.06073 111 75 44
-0.636389 -0.384092 -0.0573792 109 73 42
-0.633765 -0.384262 -0.0589246 103 69 39
-0.632909 -0.380897 -0.0574236 99 65 36
-0.630984 -0.379662 -0.0577595 96 62 32
-0.628712 -0.379148 -0.0587098 92 58 29
-0.628152 -0.375062 -0.0566234 86 54 28
-0.627223 -0.371685 -0.0551547 83 50 25
-0.624596 -0.371905 -0.0567303 77 50 22
-0.623638 -0.368527 -0.055277 75 50 22
-0.621014 -0.368767 -0.0568617 75 50 22
-0.6184 -0.369021 -0.0584493 75 50 22
-0.619337 -0.361274 -0.053391 75 50 22
-0.620211 -0.353497 -0.0483502 77 49 24
-0.620706 -0.346424 -0.0439299 77 49 26
-0.620521 -0.340796 -0.040731 75 51 30
-0.621835 -0.331467 -0.0345375 75 53 31
-0.618495 -0.333183 -0.0373805 74 55 32
-0.618197 -0.327515 -0.0342202 74 55 32
-0.659236 -0.41197 -0.0582208 163 135 115
-0.66183 -0.403251 -0.0516281 159 124 101
-0.661958 -0.39854 -0.0487731 157 114 85
-0.660074 -0.397201 -0.0490281 156 113 82
-0.656618 -0.398587 -0.0517673 153 111 80
-0.653962 -0.398633 -0.05327 151 108 77
-0.649771 -0.401433 -0.0572512 149 106 75
-0.645999 -0.403579 -0.060614 145 104 73
-0.64491 -0.400931 -0.0596535 141 103 72
-0.641548 -0.402427 -0.0624038 137 99 67
-0.639327 -0.401866 -0.0633051 135 97 64
-0.637479 -0.400621 -0.0635946 130 92 60
-0.635628 -0.399383 -0.0638895 125 89 58
-0.632321 -0.400949 -0.0666507 121 85 54
-0.632634 -0.39552 -0.0632663 116 82 48
-0.631836 -0.392183 -0.061736 114 78 47
-0.631014 -0.38884 -0.0602144 106 73 41
-0.62982 -0.386198 -0.0593147 100 67 37
-0.628609 -0.383555 -0.0584228 97 63 34
-0.626695 -0.382335 -0.0587622 92 58 29
-0.625458 -0.379692 -0.0578846 86 54 28
-0.624878 -0.375614 -0.0557936 80 50 24
-0.622601 -0.37512 -0.056763 76 48 21
-0.621318 -0.372474 -0.0559086 77 50 22
-0.620999 -0.367657 -0.0532358 76 48 21
-0.618379 -0.367902 -0.0548318 75 50 22
-0.61705 -0.365253 -0.0540008 75 50 22
-0.616972 -0.359687 -0.0507507 75 50 24
-0.616537 -0.354836 -0.0481204 74 48 25
-0.616065 -0.34997 -0.0455023 74 50 26
-0.616478 -0.342888 -0.0410825 75 54 27
-0.612585 -0.346097 -0.0451367 75 53 31
-0.61083 -0.344165 -0.0449645 74 55 32
-0.604945 -0.346253 -0.0494568 71 58 39
-0.653578 -0.424995 -0.0662364 155 131 114
-0.656243 -0.416352 -0.0595938 154 121 98
-0.658835 -0.407664 -0.0529656 153 114 86
-0.658971 -0.402974 -0.0500934 155 112 81
-0.656709 -0.402321 -0.0509696 155 112 79
-0.65406 -0.402358 -0.0524732 152 109 78
-0.651033 -0.40309 -0.0546026 149 106 73
-0.647637 -0.404525 -0.0573566 146 106 72
-0.643883 -0.406668 -0.0607335 144 103 71
-0.642423 -0.404717 -0.0603863 143 102 72
-0.639082 -0.406215 -0.0631471 140 100 68
-0.636505 -0.406353 -0.0646696 135 97 66
-0.635409 -0.403732 -0.0637183 132 94 61
-0.633932 -0.401803 -0.0633932 129 91 59
-0.629916 -0.404763 -0.0674022 122 86 53
-0.629874 -0.400053 -0.0646152 117 83 51
-0.629087 -0.396732 -0.0630735 116 80 51
-0.626871 -0.396223 -0.0640067 110 74 43
-0.625007 -0.395017 -0.0643282 104 68 39
-0.624864 -0.390274 -0.0615777 94 59 32
-0.622635 -0.389782 -0.0625277 89 55 27
-0.622439 -0.385022 -0.0597962 86 54 26
-0.620868 -0.383108 -0.0595308 84 52 24
-0.619286 -0.381197 -0.0592721 79 49 22
-0.617366 -0.380007 -0.0596324 75 47 20
-0.615768 -0.378102 -0.0593864 74 46 21
-0.612873 -0.379092 -0.0615917 75 46 24
-0.611588 -0.376475 -0.060746 76 48 25
-0.611862 -0.370221 -0.056859 76 48 25
-0.611462 -0.365404 -0.0542052 76 48 25
-0.609792 -0.363498 -0.0539976 74 48 25
-0.609333 -0.358663 -0.0513657 75 50 24
-0.60582 -0.361166 -0.0548175 73 53 26
-0.603829 -0.36001 -0.0552357 72 53 30
-0.600656 -0.361816 -0.0580822 70 54 28
-0.658471 -0.420674 -0.0580391 134 97 71
-0.659101 -0.415371 -0.0544965 136 98 68
-0.657279 -0.41405 -0.0547286 146 106 74
-0.657844 -0.408718 -0.0512043 153 111 80
-0.655996 -0.407395 -0.0514499 152 111 80
-0.654145 -0.406078 -0.051701 150 110 75
-0.651512 -0.40612 -0.0532091 150 110 75
-0.648118 -0.407535 -0.0559714 150 110 75
-0.644363 -0.409654 -0.0593602 147 107 73
-0.642911 -0.407703 -0.0590038 145 105 71
-0.640322 -0.40781 -0.0605255 143 102 70
-0.637743 -0.407932 -0.0620504 140 99 70
-0.635542 -0.407379 -0.0629558 138 97 68
-0.634809 -0.404069 -0.0613765 132 94 61
-0.632602 -0.403528 -0.0622927 128 90 57
-0.62824 -0.407175 -0.066941 123 87 56
-0.62784 -0.403177 -0.0647588 118 82 53
-0.625646 -0.40267 -0.0656874 115 79 50
-0.622755 -0.403578 -0.0678593 111 75 44
-0.62196 -0.400278 -0.0663189 104 68 39
-0.622858 -0.393436 -0.0616946 94 57 31
-0.620981 -0.392239 -0.0620283 86 54 26
-0.621121 -0.386782 -0.0586635 84 52 24
-0.619884 -0.384158 -0.0577781 83 51 23
-0.617971 -0.382964 -0.0581327 79 49 20
-0.615401 -0.38321 -0.0597239 78 48 21
-0.614135 -0.380594 -0.0588584 76 48 23
-0.610292 -0.383746 -0.0629145 75 46 24
-0.609337 -0.38042 -0.0614463 75 46 24
-0.608046 -0.377813 -0.0606004 75 46 24
-0.607978 -0.372295 -0.0573135 73 47 24
-0.606334 -0.370407 -0.057098 73 48 22
-0.605286 -0.367059 -0.0556676 73 48 22
-0.603016 -0.366639 -0.0566874 73 50 23
-0.600452 -0.366964 -0.0583207 72 51 26
-0.598779 -0.365093 -0.0581304 72 51 29
-0.595357 -0.36766 -0.0615949 70 53 32
-0.665431 -0.413154 -0.0466258 150 111 88
-0.664401 -0.410479 -0.0455883 150 109 79
-0.662146 -0.409789 -0.0464502 153 111 80
-0.659094 -0.410441 -0.048578 158 115 84
-0.656057 -0.411113 -0.0507088 156 113 82
-0.653822 -0.410464 -0.0515834 153 113 81
-0.65159 -0.409826 -0.0524626 152 111 80
-0.6482 -0.411223 -0.0552326 152 111 80
-0.645599 -0.41129 -0.0567478 152 112 78
-0.642247 -0.412729 -0.0595225 150 110 75
-0.641181 -0.410106 -0.0585346 147 107 73
-0.639724 -0.408164 -0.0581808 144 103 71
-0.637145 -0.408279 -0.0597127 140 102 69
-0.634943 -0.407722 -0.0606219 136 98 66
-0.634567 -0.403726 -0.0584088 132 94 61
-0.631632 -0.404563 -0.0605791 128 90 57
-0.627282 -0.408197 -0.0652487 122 86 55
-0.626167 -0.405599 -0.0643024 120 83 55
-0.62363 -0.405793 -0.0658563 118 84 55
-0.620406 -0.407403 -0.0686587 110 76 46
-0.61824 -0.406928 -0.0695955 104 68 37
-0.618127 -0.402233 -0.0668073 95 61 31
-0.615948 -0.401765 -0.0677558 88 53 26
-0.616787 -0.394926 -0.0631254 83 51 23
-0.616243 -0.390904 -0.0609888 85 53 25
-0.615014 -0.388299 -0.0601007 80 50 22
-0.612468 -0.388554 -0.0616944 81 51 25
-0.610254 -0.388106 -0.0626731 76 48 21
-0.607088 -0.389827 -0.0655076 75 46 24
-0.604576 -0.390127 -0.067109 75 46 24
-0.605192 -0.383207 -0.0625541 75 46 24
-0.604826 -0.378437 -0.0598607 72 47 21
-0.604729 -0.372927 -0.056565 72 48 22
-0.603683 -0.369588 -0.0551247 73 47 26
-0.60172 -0.368438 -0.0555334 72 48 24
-0.598574 -0.370229 -0.0583974 73 49 25
-0.59691 -0.368365 -0.0582023 71 50 27
-0.595524 -0.365767 -0.0574032 72 51 29
-0.667497 -0.413623 -0.0427418 155 120 98
-0.668503 -0.40766 -0.0385198 153 110 84
-0.665416 -0.408259 -0.0406514 158 115 84
-0.661943 -0.409539 -0.0434202 160 114 84
-0.657696 -0.412171 -0.0474584 164 116 85
-0.654667 -0.41284 -0.0495981 164 116 85
-0.651262 -0.414196 -0.0523733 162 117 85
-0.648268 -0.414906 -0.0545184 157 115 81
-0.644904 -0.416308 -0.057298 154 114 80
-0.642709 -0.41571 -0.0581856 154 114 82
-0.639379 -0.417154 -0.0609702 153 113 81
-0.637951 -0.415225 -0.0606044 150 109 77
-0.636512 -0.413297 -0.060245 147 107 75
-0.635064 -0.411371 -0.0598919 142 104 71
-0.633239 -0.410133 -0.0601741 137 99 69
-0.631774 -0.408212 -0.0598333 134 96 65
-0.62994 -0.406984 -0.0601267 129 91 59
-0.625609 -0.41061 -0.0648168 123 85 55
-0.623791 -0.409409 -0.0651171 118 82 51
-0.620921 -0.410304 -0.0673015 116 82 50
-0.61876 -0.409821 -0.0682364 113 77 46
-0.61523 -0.412152 -0.0716759 107 70 42
-0.615128 -0.407479 -0.0688694 93 61 33
-0.613307 -0.406317 -0.0691938 84 49 25
-0.61315 -0.401624 -0.0664067 79 47 19
-0.611967 -0.399045 -0.065499 79 47 19
-0.61142 -0.395041 -0.0633548 81 51 23
-0.609228 -0.394595 -0.0643284 79 49 22
-0.607999 -0.392013 -0.0634435 76 48 23
-0.606754 -0.389428 -0.0625665 75 46 24
-0.604239 -0.389721 -0.0641756 75 46 24
-0.604835 -0.382811 -0.0595982 75 46 24
-0.603534 -0.380217 -0.0587464 72 47 21
-0.601913 -0.378348 -0.0585202 72 46 23
-0.599084 -0.379393 -0.0607683 72 48 24
-0.598051 -0.376078 -0.0593205 72 48 24
-0.595235 -0.377147 -0.0615751 69 48 23
-0.593886 -0.374567 -0.0607572 69 48 23
-0.592808 -0.37125 -0.0593333 68 51 27
-0.667915 -0.416727 -0.0414022 151 118 98
-0.670165 -0.408833 -0.0352365 150 111 84
-0.667478 -0.408754 -0.036736 155 111 83
-0.665604 -0.407377 -0.0369649 160 115 82
-0.661729 -0.409302 -0.040384 162 115 85
-0.656693 -0.413242 -0.0457142 168 118 87
-0.65485 -0.411913 -0.0459549 169 119 88
-0.651833 -0.412589 -0.0481081 167 120 88
-0.648057 -0.414621 -0.0515345 164 120 87
-0.644694 -0.416012 -0.0543273 159 119 85
-0.641733 -0.416753 -0.0564875 155 115 83
-0.637657 -0.41954 -0.0605519 155 115 81
-0.636233 -0.417617 -0.0601826 153 113 79
-0.634429 -0.416375 -0.0604524 148 108 76
-0.632621 -0.41514 -0.0607274 145 104 73
-0.631903 -0.411858 -0.0591122 143 102 70
-0.629718 -0.411314 -0.0600308 136 98 68
-0.62682 -0.412157 -0.0622156 130 92 60
-0.623585 -0.413711 -0.0650327 127 89 56
-0.621074 -0.413902 -0.0665914 121 83 50
-0.618226 -0.414802 -0.0687822 114 78 45
-0.616428 -0.413631 -0.069089 111 75 44
-0.613603 -0.414563 -0.0712853 103 69 37
-0.612147 -0.412708 -0.0709731 96 62 34
-0.611351 -0.409448 -0.0694135 87 52 25
-0.611195 -0.404771 -0.0666098 79 47 21
-0.611331 -0.399372 -0.0631917 76 47 18
-0.610775 -0.395373 -0.0610365 78 48 21
-0.609224 -0.393499 -0.0607651 79 49 22
-0.607346 -0.392341 -0.0611241 75 46 24
-0.606409 -0.389043 -0.0596189 75 46 24
-0.60358 -0.390045 -0.0618583 72 44 22
-0.602925 -0.386027 -0.0597457 72 47 21
-0.602547 -0.381278 -0.0570225 72 47 21
-0.60183 -0.377239 -0.054932 72 46 23
-0.600188 -0.375368 -0.0547121 70 47 23
-0.600602 -0.368406 -0.0501649 70 47 23
-0.598334 -0.367986 -0.0512005 69 48 23
-0.596648 -0.366114 -0.0510048 66 47 24
-0.596375 -0.360577 -0.0477309 66 49 27
